<?xml version="1.0" encoding="utf-8"?>
<!-- Generator: Adobe Illustrator 16.0.0, SVG Export Plug-In . SVG Version: 6.00 Build 0)  -->
<!DOCTYPE svg PUBLIC "-//W3C//DTD SVG 1.1//EN" "http://www.w3.org/Graphics/SVG/1.1/DTD/svg11.dtd">
<svg version="1.1" id="Layer_1" xmlns="http://www.w3.org/2000/svg" xmlns:xlink="http://www.w3.org/1999/xlink" x="0px" y="0px"
	 width="216px" height="188px" viewBox="0 0 216 188" enable-background="new 0 0 216 188" xml:space="preserve">
<g>
	<path fill="#FDD30B" d="M170.508,89.792c-2.434-6.833-9.308-12.279-17.096-13.553c-2.562-0.42-5.158-0.318-7.705,0.188
		c-3.796-4.686-10.4-9.211-21.734-9.151c-3.708,0.022-6.787,0.688-9.355,1.642c-3.128-2.861-7.866-5.155-15.048-5.112
		c-7.852,0.038-14.385,3.494-19.548,10.219c-0.115-0.036-0.213-0.086-0.338-0.116c-3.304-0.964-9.247-0.673-14.434,4.52
		c-1.619-0.269-3.418-0.321-5.338,0.115c-2.89,0.657-6.958,2.607-9.97,8.173c-2.961,5.458-2.988,11.573-0.091,16.784
		c3.468,6.221,10.582,10.223,18.122,10.183c2.738-0.017,5.403-0.626,7.932-1.716c2.528,1.801,5.026,2.787,6.156,3.166l0.141,0.043
		c6.521,2.039,13.342,1.555,19.726-1.191c0.072,0.056,0.148,0.111,0.232,0.16c8.55,4.97,21.642,5.656,31.904-1.318
		c0.438,0.227,0.859,0.465,1.319,0.671c3.172,1.489,9.247,2.205,15.324-2.065c1.68,0.609,3.62,1.012,5.775,0.894
		c2.947-0.171,7.28-1.384,11.148-6.212C171.458,101.336,172.508,95.385,170.508,89.792z"/>
	<path d="M170.508,89.792c-2.434-6.833-9.308-12.279-17.096-13.553c-2.562-0.42-5.159-0.318-7.705,0.188
		c-3.796-4.686-10.4-9.211-21.736-9.151c-3.706,0.022-6.785,0.688-9.354,1.642c-3.128-2.861-7.866-5.155-15.048-5.112
		c-7.853,0.038-14.385,3.494-19.548,10.219c-0.115-0.036-0.213-0.086-0.339-0.116c-3.304-0.964-9.247-0.673-14.433,4.52
		c-1.62-0.269-3.418-0.321-5.338,0.115c-2.89,0.657-6.958,2.607-9.97,8.173c-2.962,5.458-2.988,11.573-0.091,16.784
		c3.467,6.221,10.582,10.223,18.122,10.183c2.738-0.017,5.403-0.626,7.932-1.716c2.528,1.801,5.026,2.787,6.155,3.166l0.141,0.043
		c6.521,2.039,13.342,1.555,19.726-1.191c0.072,0.056,0.148,0.111,0.232,0.16c8.551,4.97,21.643,5.656,31.904-1.318
		c0.438,0.227,0.859,0.465,1.319,0.671c3.172,1.489,9.247,2.205,15.323-2.065c1.681,0.609,3.621,1.012,5.776,0.894
		c2.947-0.171,7.28-1.384,11.148-6.212C171.458,101.336,172.508,95.385,170.508,89.792 M76.584,101.568
		c-2.004,1.719-4.913,3.433-8.654,3.453c-4.512,0.023-9.026-2.402-10.961-5.895c-0.992-1.774-1.768-4.625,0.133-8.129
		c1.206-2.233,2.738-3.576,4.544-3.986c2.742-0.631,5.338,1.066,5.817,1.399c0.981,1.671,1.255,3.052,0.799,4.105
		c-0.758,1.733-3.271,2.139-3.293,2.141l0.148,1.07c0.125-0.016,3.084-0.492,4.077-2.754c0.592-1.357,0.334-3.014-0.75-4.937
		c4.008-7.145,8.859-5.846,9.062-5.786c2.003,0.542,3.494,1.362,4.52,2.414c-1.44,2.954-2.608,6.066-3.699,8.969l-1.537,3.982
		C76.242,98.975,76.169,100.301,76.584,101.568 M84.549,106.88c-0.083-0.03-5.353-1.839-6.825-5.207
		c-0.244-0.573-0.369-1.146-0.376-1.733c0-0.617,0.129-1.244,0.392-1.9l1.543-4.01c3.597-9.579,8.081-21.506,20.335-21.572
		c4.631-0.026,8.103,1.211,10.301,3.669c0.82,0.909,1.417,1.956,1.874,3.063c-1.273,1.218-1.84,2.24-1.894,2.341
		c-0.003,0.01-4.08,7.958-4.08,7.958c-0.175,0.237-4.894,8.449-3.841,13.082c0.126,0.531,0.282,1.045,0.491,1.513
		C96.819,107.742,90.507,108.744,84.549,106.88 M106.143,106.567c-1.707-0.992-2.829-2.404-3.152-4.231
		c-0.772-4.307,3.646-12.206,3.695-12.272c0.035-0.067,4.111-8.015,4.111-8.015c0.03-0.05,3.369-6.057,13.217-6.117
		c11.163-0.056,15.832,5.43,17.776,10.047c0,0,0.024,0.083,0.033,0.247c0,0.252-0.058,0.703-0.358,1.396
		c-0.611,1.44-5.717,11.479-5.854,11.764C128.199,110.933,113.732,110.977,106.143,106.567 M161.322,100.537
		c-1.578,1.97-3.354,3.03-5.279,3.143c-3.011,0.175-5.504-2.007-5.955-2.411c-0.751-1.786-0.846-3.175-0.246-4.124
		c1.023-1.641,3.775-1.598,3.813-1.598l0.024-1.078c-0.137-0.004-3.347-0.066-4.696,2.078c-0.771,1.233-0.733,2.893,0.085,4.933
		c-5.271,6.351-10.138,4.204-10.347,4.113c-1.913-0.851-3.33-1.854-4.246-3.002c0.702-0.813,1.387-1.665,1.991-2.613l0.034-0.052
		c0.209-0.422,5.273-10.37,5.912-11.864c0.271-0.625,0.381-1.123,0.423-1.507c2.319-1.288,5.532-2.381,9.312-1.762
		c4.863,0.797,9.236,4.098,10.646,8.033C163.736,95.485,163.234,98.153,161.322,100.537"/>
	<g>
		<g>
			<path d="M20.117,122.385h2.08l4.643,12.781h-2.786l-0.856-2.639h-4.976l-0.818,2.639h-2.783l4.235-11.924
				C19.078,122.667,19.499,122.385,20.117,122.385 M20.709,124.949l-1.781,5.426h3.562L20.709,124.949z"/>
			<path d="M28.026,122.385h1.333c0.345,0,0.646,0.119,0.894,0.355c0.243,0.238,0.368,0.521,0.368,0.868v11.558h-2.594V122.385z"/>
			<path d="M31.321,131.896h2.527c0.021,0.496,0.208,0.865,0.558,1.113c0.369,0.248,0.864,0.373,1.481,0.373
				c0.446,0,0.83-0.086,1.155-0.259c0.299-0.175,0.446-0.411,0.446-0.707c0-0.448-0.523-0.78-1.562-1.005
				c-0.447-0.076-0.777-0.146-1.001-0.223c-1.315-0.319-2.197-0.705-2.643-1.15c-0.493-0.45-0.743-1.041-0.743-1.783
				c0-0.941,0.36-1.725,1.081-2.344c0.747-0.568,1.707-0.852,2.896-0.852c1.292,0,2.315,0.283,3.086,0.852
				c0.721,0.619,1.101,1.425,1.149,2.418h-1.594c-0.472,0-0.832-0.209-1.079-0.632c-0.1-0.098-0.196-0.199-0.295-0.298
				c-0.297-0.225-0.707-0.335-1.228-0.335c-0.495,0-0.867,0.071-1.114,0.221c-0.225,0.149-0.334,0.375-0.334,0.671
				c0,0.395,0.643,0.73,1.934,1.004c0.143,0.053,0.28,0.089,0.39,0.109c0.109,0.029,0.213,0.04,0.314,0.04
				c1.265,0.323,2.143,0.694,2.636,1.114c0.473,0.444,0.706,1.041,0.706,1.785c0,1.086-0.396,1.931-1.187,2.523
				c-0.743,0.545-1.857,0.818-3.345,0.818c-1.411,0-2.464-0.282-3.154-0.855c-0.72-0.566-1.08-1.4-1.08-2.486V131.896z"/>
			<path d="M47.288,134.757c-0.518,0.272-1.076,0.44-1.654,0.501c-0.585,0.064-1.096,0.098-1.541,0.098
				c-0.89,0-1.67-0.247-2.34-0.729c-0.669-0.483-1.002-1.281-1.002-2.395c0-1.043,0.299-1.785,0.91-2.232
				c0.607-0.445,1.38-0.744,2.323-0.89c0.124,0,0.266-0.018,0.444-0.058c0.175-0.037,0.369-0.064,0.592-0.092
				c1.09-0.149,1.637-0.469,1.637-0.965c0-0.375-0.191-0.613-0.579-0.728c-0.379-0.108-0.738-0.165-1.058-0.165
				c-0.348,0-0.655,0.049-0.927,0.149c-0.273,0.095-0.474,0.284-0.596,0.554h-2.491c0.097-0.764,0.451-1.399,1.037-1.895
				c0.673-0.568,1.626-0.852,2.867-0.852c1.381,0,2.426,0.235,3.12,0.703c0.716,0.497,1.075,1.191,1.075,2.086v3.377
				c0,0.992-0.181,1.766-0.54,2.319C48.21,134.104,47.786,134.51,47.288,134.757 M46.691,130.188
				c-0.343,0.173-0.828,0.335-1.446,0.48l-0.855,0.187c-0.444,0.125-0.771,0.283-0.96,0.48c-0.179,0.274-0.269,0.548-0.269,0.818
				c0,0.373,0.114,0.67,0.336,0.896c0.222,0.194,0.544,0.295,0.968,0.295c0.691,0,1.233-0.197,1.635-0.598
				c0.392-0.395,0.591-0.938,0.591-1.635V130.188z"/>
			<path d="M58.575,135.166h-1.304c-0.372,0-0.672-0.115-0.906-0.354c-0.238-0.237-0.358-0.538-0.358-0.914v-5.05
				c0-0.593-0.179-1.028-0.538-1.301c-0.357-0.274-0.758-0.411-1.205-0.411c-0.446,0-0.845,0.137-1.192,0.411
				c-0.344,0.272-0.521,0.708-0.521,1.301v6.317h-2.597v-5.795c0-1.686,0.438-2.813,1.318-3.381c0.877-0.57,1.851-0.881,2.917-0.93
				c1.089,0,2.091,0.286,3.008,0.852c0.917,0.57,1.376,1.725,1.376,3.459V135.166z"/>
			<path d="M66.33,132.121h1.854c-0.268,1.038-0.789,1.831-1.557,2.372c-0.77,0.572-1.733,0.858-2.897,0.858
				c-1.412,0-2.518-0.456-3.302-1.379c-0.796-0.889-1.192-2.162-1.192-3.824c0-1.583,0.384-2.822,1.148-3.715
				c0.794-0.916,1.896-1.373,3.31-1.373c1.487,0,2.637,0.445,3.456,1.334c0.444,0.548,0.766,1.179,0.958,1.896h-2.597
				c-0.123-0.247-0.246-0.432-0.369-0.557c-0.325-0.345-0.779-0.518-1.376-0.518c-0.545,0-0.99,0.173-1.338,0.518
				c-0.443,0.496-0.666,1.315-0.666,2.454c0,1.14,0.222,1.945,0.666,2.411c0.321,0.399,0.806,0.598,1.45,0.598
				c0.42,0,0.78-0.086,1.075-0.264c0.079-0.023,0.147-0.066,0.205-0.129c0.065-0.058,0.135-0.127,0.207-0.205
				c0.046-0.072,0.146-0.173,0.298-0.295C65.809,132.18,66.031,132.121,66.33,132.121"/>
			<path d="M75.384,134.757c-0.521,0.272-1.068,0.44-1.65,0.501c-0.584,0.064-1.092,0.098-1.543,0.098
				c-0.895,0-1.672-0.247-2.342-0.729c-0.662-0.483-1.004-1.281-1.004-2.395c0-1.043,0.308-1.785,0.914-2.232
				c0.608-0.445,1.378-0.744,2.318-0.89c0.129,0,0.275-0.018,0.449-0.058c0.174-0.037,0.372-0.064,0.598-0.092
				c1.086-0.149,1.63-0.469,1.63-0.965c0-0.375-0.191-0.613-0.577-0.728c-0.384-0.108-0.737-0.165-1.053-0.165
				c-0.351,0-0.663,0.049-0.933,0.149c-0.27,0.095-0.471,0.284-0.593,0.554h-2.489c0.099-0.764,0.442-1.399,1.041-1.895
				c0.661-0.568,1.62-0.852,2.861-0.852c1.382,0,2.426,0.235,3.117,0.703c0.719,0.497,1.081,1.191,1.081,2.086v3.377
				c0,0.992-0.183,1.766-0.543,2.319C76.308,134.104,75.878,134.51,75.384,134.757 M74.791,130.188
				c-0.35,0.173-0.831,0.335-1.445,0.48l-0.857,0.187c-0.449,0.125-0.769,0.283-0.964,0.48c-0.173,0.274-0.262,0.548-0.262,0.818
				c0,0.373,0.11,0.67,0.335,0.896c0.228,0.194,0.541,0.295,0.964,0.295c0.696,0,1.241-0.197,1.633-0.598
				c0.398-0.395,0.596-0.938,0.596-1.635V130.188z"/>
			<path d="M80.658,125.283v3.643l3.152-3.643h3.122l-3.527,3.787l3.566,6.096h-3.12l-1.822-3.346
				c-0.371-0.668-0.694-0.95-0.965-0.854c-0.277,0.102-0.405,0.251-0.405,0.445v1.376v2.378h-2.603v-12.781h1.337
				c0.344,0,0.643,0.125,0.89,0.371c0.248,0.25,0.375,0.533,0.375,0.855V125.283z"/>
		</g>
		<g>
			<path d="M203.472,123.554c0.209,0,0.404,0.048,0.581,0.134c0.207,0.105,0.382,0.223,0.507,0.348
				c0.157,0.142,0.266,0.302,0.313,0.479c0.097,0.213,0.138,0.406,0.138,0.586c0,0.195-0.041,0.39-0.138,0.585
				c-0.086,0.196-0.192,0.356-0.313,0.481c-0.163,0.158-0.329,0.273-0.507,0.348c-0.253,0.066-0.447,0.103-0.581,0.103
				c-0.201,0-0.393-0.042-0.587-0.13c-0.183-0.074-0.35-0.18-0.511-0.32c-0.144-0.162-0.245-0.329-0.321-0.506
				c-0.071-0.162-0.105-0.347-0.105-0.561c0-0.105,0.02-0.249,0.056-0.426c0.015-0.052,0.037-0.109,0.066-0.174
				c0.022-0.061,0.06-0.128,0.099-0.197c0.116-0.246,0.303-0.426,0.554-0.533C202.94,123.627,203.183,123.554,203.472,123.554
				 M203.472,123.822c-0.161,0-0.321,0.026-0.484,0.078c-0.071,0.056-0.145,0.101-0.214,0.135c-0.071,0.035-0.133,0.078-0.183,0.133
				c-0.105,0.107-0.206,0.247-0.297,0.427c-0.069,0.214-0.103,0.381-0.103,0.505c0,0.105,0.033,0.27,0.103,0.479
				c0.037,0.089,0.125,0.223,0.269,0.398c0.101,0.107,0.24,0.209,0.425,0.294c0.163,0.054,0.323,0.081,0.484,0.081
				c0.15,0,0.315-0.027,0.471-0.081c0.182-0.085,0.317-0.187,0.426-0.294c0.123-0.125,0.217-0.256,0.269-0.398
				c0.07-0.14,0.105-0.298,0.105-0.479c0-0.18-0.025-0.338-0.073-0.478c-0.095-0.181-0.193-0.319-0.301-0.427
				c-0.084-0.088-0.22-0.188-0.396-0.295C203.817,123.849,203.645,123.822,203.472,123.822 M202.827,125.901v-1.522
				c0-0.104,0.062-0.156,0.192-0.156h0.633c0.195,0,0.332,0.034,0.4,0.105c0.086,0.071,0.131,0.196,0.131,0.373
				c0,0.122-0.013,0.203-0.052,0.238c-0.072,0.088-0.13,0.142-0.189,0.16c0.079,0.039,0.13,0.07,0.165,0.105
				c0.031,0.075,0.051,0.154,0.051,0.242v0.213v0.064v0.07c0,0.015,0,0.039,0.013,0.064c0.007,0.025,0.03,0.042,0.066,0.042h-0.4
				c-0.016-0.056-0.02-0.092-0.02-0.106v-0.11v-0.187c-0.04-0.104-0.064-0.176-0.082-0.212c-0.034-0.036-0.099-0.056-0.188-0.056
				h-0.373v0.671H202.827z M203.174,124.939h0.427c0.086,0,0.152-0.02,0.187-0.053c0.034-0.018,0.05-0.072,0.05-0.16
				c0-0.086-0.016-0.138-0.05-0.159c-0.052-0.054-0.118-0.079-0.187-0.079h-0.427V124.939z"/>
			<path d="M94.689,123.554v7.989c0,0.994,0.186,1.721,0.557,2.193c0.396,0.443,1.029,0.668,1.894,0.668
				c0.844,0,1.473-0.225,1.894-0.668c0.4-0.445,0.598-1.176,0.598-2.193v-7.989h2.633v8.286c0,1.588-0.441,2.785-1.334,3.604
				c-0.817,0.818-2.083,1.23-3.79,1.23c-1.708,0-2.971-0.412-3.787-1.23c-0.893-0.818-1.341-2.016-1.341-3.604v-6.873
				c0-0.372,0.131-0.697,0.394-0.98c0.258-0.287,0.576-0.433,0.947-0.433H94.689z"/>
			<path d="M111.846,136.375h-1.304c-0.366,0-0.673-0.115-0.907-0.354c-0.234-0.236-0.353-0.539-0.353-0.913v-5.051
				c0-0.595-0.181-1.029-0.538-1.301c-0.363-0.274-0.765-0.411-1.21-0.411c-0.444,0-0.84,0.137-1.189,0.411
				c-0.345,0.271-0.518,0.706-0.518,1.301v6.317h-2.604v-5.795c0-1.686,0.442-2.813,1.326-3.383
				c0.874-0.568,1.849-0.879,2.914-0.927c1.09,0,2.093,0.284,3.009,0.852c0.915,0.569,1.375,1.724,1.375,3.458V136.375z"/>
			<path d="M112.838,123.592h1.339c0.35,0,0.646,0.12,0.89,0.357c0.247,0.238,0.375,0.521,0.375,0.867v11.559h-2.604V123.592z"/>
			<path d="M124.979,126.492v5.794c0,1.764-0.457,2.913-1.375,3.456c-0.914,0.548-1.918,0.818-3.008,0.818
				c-1.066-0.052-2.031-0.351-2.91-0.891c-0.878-0.547-1.324-1.673-1.324-3.384v-5.794h2.604v6.315c0,0.595,0.173,1.028,0.521,1.3
				c0.337,0.273,0.739,0.406,1.187,0.406s0.844-0.133,1.207-0.406c0.358-0.271,0.536-0.705,0.536-1.3v-5.052
				c0-0.352,0.12-0.646,0.354-0.893c0.234-0.247,0.537-0.371,0.913-0.371H124.979z"/>
			<path d="M130.61,136.375v-11.441c0-0.375,0.132-0.693,0.386-0.947c0.267-0.263,0.584-0.405,0.955-0.433h2.564l2.523,9.776
				l2.53-9.776h3.897v12.821h-2.453v-10.331l-2.599,10.331h-2.714l-2.635-10.331v10.331H130.61z"/>
			<path d="M150.886,135.963c-0.519,0.275-1.062,0.443-1.652,0.503c-0.581,0.065-1.097,0.099-1.54,0.099
				c-0.896,0-1.672-0.248-2.34-0.728c-0.664-0.485-1.005-1.283-1.005-2.397c0-1.041,0.308-1.783,0.915-2.23
				c0.605-0.445,1.377-0.743,2.318-0.889c0.119,0,0.275-0.019,0.443-0.059c0.17-0.037,0.375-0.064,0.598-0.093
				c1.091-0.147,1.634-0.468,1.634-0.965c0-0.374-0.197-0.612-0.579-0.728c-0.38-0.109-0.735-0.164-1.055-0.164
				c-0.346,0-0.658,0.049-0.93,0.15c-0.271,0.095-0.473,0.281-0.595,0.553h-2.489c0.102-0.765,0.449-1.4,1.045-1.894
				c0.663-0.569,1.616-0.852,2.857-0.852c1.391,0,2.422,0.233,3.12,0.702c0.716,0.496,1.075,1.19,1.075,2.086v3.377
				c0,0.992-0.174,1.766-0.537,2.32C151.81,135.313,151.383,135.718,150.886,135.963 M150.291,131.396
				c-0.344,0.173-0.828,0.336-1.445,0.481l-0.854,0.187c-0.448,0.125-0.771,0.283-0.965,0.48c-0.177,0.273-0.263,0.548-0.263,0.819
				c0,0.372,0.117,0.669,0.335,0.894c0.222,0.195,0.549,0.296,0.968,0.296c0.688,0,1.233-0.196,1.635-0.597
				c0.396-0.396,0.59-0.938,0.59-1.635V131.396z"/>
			<path d="M162.172,136.375h-2.559v-5.795v-0.522c0-0.595-0.183-1.029-0.545-1.301c-0.355-0.274-0.756-0.411-1.203-0.411
				c-0.449,0-0.844,0.137-1.19,0.411c-0.346,0.271-0.518,0.706-0.518,1.301v6.317h-2.598v-5.795c0-1.686,0.435-2.813,1.313-3.383
				c0.883-0.568,1.854-0.879,2.912-0.927c0.576,0,1.129,0.06,1.678,0.183c0.541,0.124,1.038,0.373,1.488,0.744
				c0.367-0.321,0.805-0.551,1.316-0.688c0.507-0.137,1.037-0.217,1.58-0.239c1.084,0,2.086,0.284,3.006,0.852
				c0.916,0.569,1.377,1.724,1.377,3.458v5.795h-1.3c-0.372,0-0.677-0.115-0.918-0.354c-0.229-0.236-0.343-0.539-0.343-0.913v-5.051
				c0-0.595-0.18-1.029-0.541-1.301c-0.361-0.274-0.76-0.411-1.205-0.411c-0.453,0-0.854,0.137-1.207,0.411
				c-0.36,0.271-0.545,0.706-0.545,1.301v0.522V136.375z"/>
			<path d="M178.029,126.492v5.794c0,1.764-0.458,2.913-1.375,3.456c-0.91,0.548-1.919,0.818-3.01,0.818
				c-1.063-0.052-2.037-0.351-2.921-0.891c-0.873-0.547-1.317-1.673-1.317-3.384v-5.794h2.606v6.315c0,0.595,0.169,1.028,0.515,1.3
				c0.345,0.273,0.744,0.406,1.196,0.406c0.438,0,0.841-0.133,1.197-0.406c0.364-0.271,0.549-0.705,0.549-1.3v-5.052
				c0-0.352,0.116-0.646,0.353-0.893c0.234-0.247,0.533-0.371,0.908-0.371H178.029z"/>
			<path d="M179.025,123.592h1.332c0.355,0,0.648,0.12,0.895,0.357c0.249,0.238,0.371,0.521,0.371,0.867v11.559h-2.598V123.592z"/>
			<path d="M182.659,123.592h1.34c0.349,0,0.642,0.12,0.89,0.357c0.244,0.238,0.367,0.521,0.367,0.867v11.559h-2.597V123.592z"/>
			<path d="M193.053,133.33h1.859c-0.27,1.038-0.794,1.83-1.56,2.376c-0.771,0.571-1.735,0.854-2.903,0.854
				c-1.412,0-2.51-0.457-3.301-1.376c-0.79-0.893-1.193-2.165-1.193-3.827c0-1.584,0.384-2.824,1.148-3.715
				c0.795-0.916,1.899-1.375,3.309-1.375c1.486,0,2.641,0.446,3.454,1.338c0.79,0.916,1.194,2.193,1.194,3.825v0.261v0.148
				c0,0.126-0.012,0.211-0.039,0.264h-6.43c0.025,0.768,0.212,1.336,0.562,1.709c0.321,0.394,0.802,0.592,1.446,0.592
				c0.42,0,0.782-0.084,1.078-0.261c0.07-0.024,0.14-0.067,0.203-0.128c0.061-0.061,0.139-0.128,0.205-0.203
				c0.023-0.076,0.117-0.176,0.283-0.299C192.523,133.389,192.752,133.33,193.053,133.33 M188.592,130.429h3.794
				c-0.054-0.67-0.222-1.163-0.524-1.485c-0.321-0.345-0.777-0.518-1.367-0.518c-0.552,0-0.992,0.173-1.341,0.518
				C188.804,129.291,188.617,129.787,188.592,130.429"/>
			<path d="M195.938,136.375v-4.795c0-0.966,0.152-1.775,0.432-2.434c0.283-0.654,0.674-1.181,1.166-1.576
				c0.475-0.373,1.028-0.641,1.658-0.82c0.628-0.173,1.28-0.258,1.954-0.258h0.185h0.182v2.637h-0.852
				c-0.723,0-1.25,0.172-1.602,0.52c-0.344,0.348-0.521,0.896-0.521,1.636v5.091H195.938z"/>
		</g>
	</g>
</g>
</svg>
