<?xml version="1.0" encoding="utf-8"?>
<!-- Generator: Adobe Illustrator 16.0.0, SVG Export Plug-In . SVG Version: 6.00 Build 0)  -->
<!DOCTYPE svg PUBLIC "-//W3C//DTD SVG 1.1//EN" "http://www.w3.org/Graphics/SVG/1.1/DTD/svg11.dtd">
<svg version="1.1" id="Layer_1" xmlns="http://www.w3.org/2000/svg" xmlns:xlink="http://www.w3.org/1999/xlink" x="0px" y="0px"
	 width="216px" height="188px" viewBox="0 0 216 188" enable-background="new 0 0 216 188" xml:space="preserve">
<g>
	<g>
		<g>
			<defs>
				<path id="SVGID_1_" d="M133.184,95.785c0,5.521,3.863,9.936,9.385,9.936c2.676,0,4.771-0.523,6.76-1.738v-5.188
					c0-1.629,0.275-2.621,2.07-2.621v-0.553c-4.141,0-4.553,1.711-4.553,3.23v4.799c-1.078,0.58-2.32,0.967-4.277,0.967
					c-3.59,0-6.625-2.209-6.625-8.832c0-4.139,1.932-8.278,6.625-8.278c3.311,0,5.242,1.656,5.932,4.831h0.553
					c0-1.243,0-2.898-0.691-3.727c-0.994-1.214-3.311-2.206-6.623-2.206C136.494,86.405,133.184,90.542,133.184,95.785"/>
			</defs>
			<clipPath id="SVGID_2_">
				<use xlink:href="#SVGID_1_"  overflow="visible"/>
			</clipPath>
			
				<linearGradient id="SVGID_3_" gradientUnits="userSpaceOnUse" x1="-169.126" y1="755.2246" x2="-168.5879" y2="755.2246" gradientTransform="matrix(165.1013 0 0 -165.1013 28040.5 124784.625)">
				<stop  offset="0" style="stop-color:#93D3C8"/>
				<stop  offset="1" style="stop-color:#74C7F0"/>
			</linearGradient>
			<rect x="133.184" y="86.405" clip-path="url(#SVGID_2_)" fill="url(#SVGID_3_)" width="18.215" height="19.316"/>
		</g>
		<g>
			<defs>
				<path id="SVGID_4_" d="M154.156,96.063c0-5.242,2.211-8.555,5.797-8.555s5.795,3.313,5.795,8.555
					c0,5.244-2.209,8.555-5.795,8.555S154.156,101.307,154.156,96.063 M151.396,96.063c0,5.41,3.313,9.658,8.557,9.658
					s8.555-4.248,8.555-9.658c0-5.409-3.311-9.658-8.555-9.658S151.396,90.654,151.396,96.063"/>
			</defs>
			<clipPath id="SVGID_5_">
				<use xlink:href="#SVGID_4_"  overflow="visible"/>
			</clipPath>
			
				<linearGradient id="SVGID_6_" gradientUnits="userSpaceOnUse" x1="-169.126" y1="755.2246" x2="-168.5879" y2="755.2246" gradientTransform="matrix(165.1013 0 0 -165.1013 28040.5 124784.625)">
				<stop  offset="0" style="stop-color:#93D3C8"/>
				<stop  offset="1" style="stop-color:#74C7F0"/>
			</linearGradient>
			<rect x="151.396" y="86.405" clip-path="url(#SVGID_5_)" fill="url(#SVGID_6_)" width="17.111" height="19.316"/>
		</g>
		<g>
			<defs>
				<path id="SVGID_7_" d="M173.889,95.51v-7.312c0.551-0.139,1.377-0.275,2.07-0.275c1.516,0,4.277,1.103,4.277,4.002
					c0,2.757-2.762,3.861-4.277,3.861C175.266,95.785,174.439,95.648,173.889,95.51 M168.922,86.957v0.551h0.551
					c1.656,0,1.932,1.104,1.932,2.761v14.902h2.484v-8.418h1.93l2.762,4.693c1.793,3.035,3.035,4,4.967,4
					c0.689,0,1.379-0.137,1.656-0.275v-0.553c-1.381-0.137-2.318-0.828-3.727-3.172l-2.896-4.83
					c1.932-0.416,4.414-1.518,4.414-4.691c0-4.417-4.553-4.968-6.9-4.968H168.922z"/>
			</defs>
			<clipPath id="SVGID_8_">
				<use xlink:href="#SVGID_7_"  overflow="visible"/>
			</clipPath>
			
				<linearGradient id="SVGID_9_" gradientUnits="userSpaceOnUse" x1="-169.1265" y1="755.2246" x2="-168.5878" y2="755.2246" gradientTransform="matrix(165.1013 0 0 -165.1013 28040.5 124784.75)">
				<stop  offset="0" style="stop-color:#93D3C8"/>
				<stop  offset="1" style="stop-color:#74C7F0"/>
			</linearGradient>
			<rect x="168.922" y="86.957" clip-path="url(#SVGID_8_)" fill="url(#SVGID_9_)" width="16.281" height="18.489"/>
		</g>
		<g>
			<defs>
				<path id="SVGID_10_" d="M124.834,86.683l-7.924,18.493h1.328c4.441-10.543,2.373-5.852,6.07-14.353l4.719,11.123
					c1.299,3.146,3.451,3.504,4.801,3.504c0.248,0,0.801-0.055,0.939-0.055v-0.553c-1.518-0.137-2.18-0.826-3.035-2.896
					l-6.404-15.262H124.834z"/>
			</defs>
			<clipPath id="SVGID_11_">
				<use xlink:href="#SVGID_10_"  overflow="visible"/>
			</clipPath>
			
				<linearGradient id="SVGID_12_" gradientUnits="userSpaceOnUse" x1="-169.1265" y1="755.2246" x2="-168.5901" y2="755.2246" gradientTransform="matrix(165.1013 0 0 -165.1013 28040.5 124784.625)">
				<stop  offset="0" style="stop-color:#93D3C8"/>
				<stop  offset="1" style="stop-color:#74C7F0"/>
			</linearGradient>
			<rect x="116.91" y="86.683" clip-path="url(#SVGID_11_)" fill="url(#SVGID_12_)" width="17.857" height="18.766"/>
		</g>
		<g>
			<defs>
				<path id="SVGID_13_" d="M193.223,86.683l-7.922,18.493h1.326c4.443-10.543,2.371-5.852,6.07-14.353l4.719,11.123
					c1.297,3.146,3.449,3.504,4.801,3.504c0.25,0,0.801-0.055,0.938-0.055v-0.553c-1.518-0.137-2.18-0.826-3.033-2.896
					l-6.402-15.262H193.223z"/>
			</defs>
			<clipPath id="SVGID_14_">
				<use xlink:href="#SVGID_13_"  overflow="visible"/>
			</clipPath>
			
				<linearGradient id="SVGID_15_" gradientUnits="userSpaceOnUse" x1="-169.127" y1="755.2246" x2="-168.5881" y2="755.2246" gradientTransform="matrix(165.1013 0 0 -165.1013 28040.5 124784.625)">
				<stop  offset="0" style="stop-color:#93D3C8"/>
				<stop  offset="1" style="stop-color:#74C7F0"/>
			</linearGradient>
			<rect x="185.301" y="86.683" clip-path="url(#SVGID_14_)" fill="url(#SVGID_15_)" width="17.854" height="18.766"/>
		</g>
		<g>
			<defs>
				<path id="SVGID_16_" d="M87.446,112.643H63.774v0.492h23.672c0.1,0.27,0.359,0.463,0.662,0.463c0.393,0,0.71-0.316,0.71-0.709
					c0-0.389-0.317-0.709-0.71-0.709C87.806,112.18,87.546,112.373,87.446,112.643"/>
			</defs>
			<clipPath id="SVGID_17_">
				<use xlink:href="#SVGID_16_"  overflow="visible"/>
			</clipPath>
			
				<linearGradient id="SVGID_18_" gradientUnits="userSpaceOnUse" x1="-168.4492" y1="748.4707" x2="-167.9111" y2="748.4707" gradientTransform="matrix(46.5184 0 0 -46.5184 7899.75 34930.5938)">
				<stop  offset="0" style="stop-color:#74C7F0"/>
				<stop  offset="1" style="stop-color:#93D3C8"/>
			</linearGradient>
			<rect x="63.774" y="112.18" clip-path="url(#SVGID_17_)" fill="url(#SVGID_18_)" width="25.044" height="1.418"/>
		</g>
		<g>
			<defs>
				<path id="SVGID_19_" d="M178.266,114.137c0,0.391,0.314,0.707,0.705,0.707c0.305,0,0.564-0.191,0.666-0.463h23.672v-0.49
					h-23.672c-0.102-0.27-0.361-0.463-0.666-0.463C178.58,113.428,178.266,113.748,178.266,114.137"/>
			</defs>
			<clipPath id="SVGID_20_">
				<use xlink:href="#SVGID_19_"  overflow="visible"/>
			</clipPath>
			
				<linearGradient id="SVGID_21_" gradientUnits="userSpaceOnUse" x1="-170.5596" y1="748.4941" x2="-170.021" y2="748.4941" gradientTransform="matrix(46.5184 0 0 -46.5184 8112.4063 34932.9063)">
				<stop  offset="0" style="stop-color:#93D3C8"/>
				<stop  offset="1" style="stop-color:#74C7F0"/>
			</linearGradient>
			<rect x="178.266" y="113.428" clip-path="url(#SVGID_20_)" fill="url(#SVGID_21_)" width="25.043" height="1.416"/>
		</g>
		<path fill="#686969" d="M69.937,86.957c7.284,0,10.844,3.477,10.844,8.997c0,5.381-3.449,9.217-10.128,9.217H65.19V90.268
			c0-1.656-0.277-2.759-1.932-2.759h-0.553v-0.553H69.937z M67.755,103.846c1.131,0.25,2.07,0.357,2.814,0.357
			c4.085,0,7.202-3.146,7.202-8.141c0-4.884-3.034-8.139-7.256-8.139c-0.802,0-1.769,0.138-2.761,0.441V103.846z"/>
		<path fill="#686969" d="M92.868,99.1h-8.225c0,3.033,1.381,5.242,3.727,5.242c1.793,0,2.897-0.828,3.862-2.209l0.553,0.416
			c-1.243,2.068-2.897,2.896-4.968,2.896c-3.861,0-5.795-3.035-5.795-6.762c0-3.723,1.934-6.759,5.383-6.759
			c3.725,0,5.518,2.207,5.518,6.072L92.868,99.1z M90.44,97.996c0-3.035-0.967-4.832-2.898-4.832c-1.656,0-2.898,2.07-2.898,4.832
			H90.44z"/>
		<path fill="#686969" d="M95.544,95.51c0-1.654-0.275-2.758-1.932-2.758h-0.551v-0.551h2.482c1.381,0,2.071,0.412,2.346,1.102
			h0.139c0.689-0.689,1.932-1.378,3.588-1.378c2.346,0,4.69,0.964,4.69,4.966v8.279h-2.483v-8.279c0-2.76-1.518-3.727-3.036-3.727
			c-1.104,0-2.069,0.691-2.759,1.463v10.543h-2.484V95.51z"/>
		<path fill="#686969" d="M109.756,93.303h-1.932v-1.102h1.932v-2.486l1.381-1.654h1.102v4.14h3.313v1.102h-3.313v8.557
			c0,1.654,0.689,2.482,1.934,2.482c0.965,0,1.518-0.277,2.07-0.551l0.275,0.551c-0.551,0.414-1.518,1.104-3.451,1.104
			c-1.93,0-3.311-1.104-3.311-3.586V93.303z"/>
		<path fill="#686969" d="M95.298,115.289H94.89l1.582-3.658h0.361l1.571,3.658h-0.413l-0.406-0.961h-1.889L95.298,115.289z
			 M95.835,113.988h1.612l-0.807-1.943L95.835,113.988z"/>
		<path fill="#686969" d="M101.495,112.287c-0.254-0.268-0.604-0.424-1.059-0.424c-0.942,0-1.52,0.744-1.52,1.598
			c0,0.852,0.577,1.592,1.52,1.592c0.412,0,0.774-0.1,0.985-0.238v-1.109h-0.852v-0.326h1.224v1.646
			c-0.396,0.238-0.867,0.357-1.363,0.357c-1.107,0-1.906-0.813-1.906-1.922c0-1.113,0.816-1.922,1.906-1.922
			c0.58,0,1.014,0.184,1.322,0.488L101.495,112.287z M101.194,110.598c-0.023,0.43-0.336,0.684-0.758,0.684
			c-0.424,0-0.735-0.254-0.761-0.684h0.228c0.046,0.266,0.273,0.402,0.533,0.402c0.258,0,0.484-0.137,0.531-0.402H101.194z"/>
		<rect x="102.617" y="111.631" fill="#686969" width="0.372" height="3.658"/>
		<polygon fill="#686969" points="106.111,111.939 103.978,114.961 106.143,114.961 106.143,115.287 103.507,115.287 
			103.507,114.979 105.645,111.963 103.563,111.963 103.563,111.631 106.111,111.631 		"/>
		<polygon fill="#686969" points="108.852,114.809 108.861,114.809 110.051,111.631 110.447,111.631 109.049,115.289 
			108.656,115.289 107.26,111.631 107.664,111.631 		"/>
		<polygon fill="#686969" points="111.193,114.961 113.152,114.961 113.152,115.287 110.822,115.287 110.822,111.631 
			113.09,111.631 113.09,111.963 111.193,111.963 111.193,113.223 112.967,113.223 112.967,113.547 111.193,113.547 		"/>
		<path fill="#686969" d="M114.916,111.631h1.215c0.914,0,1.922,0.609,1.922,1.83s-1.008,1.826-1.922,1.826h-1.215V111.631z
			 M115.287,114.961h0.74c1.1,0,1.633-0.748,1.633-1.5c0-0.756-0.533-1.498-1.633-1.498h-0.74V114.961z"/>
		<path fill="#686969" d="M118.891,111.154c-0.123,0-0.25-0.102-0.25-0.246s0.127-0.25,0.25-0.25s0.246,0.105,0.246,0.25
			S119.014,111.154,118.891,111.154 M119.072,115.289h-0.371v-3.658h0.371V115.289z"/>
		<path fill="#686969" d="M121.688,112.221c-0.154-0.223-0.41-0.369-0.756-0.369c-0.359,0-0.779,0.217-0.779,0.688
			c0,0.467,0.387,0.586,0.795,0.719c0.518,0.17,1.086,0.336,1.086,1.07c0,0.678-0.521,1.004-1.061,1.049l-0.186,0.301
			c0.053-0.016,0.102-0.021,0.182-0.021c0.205,0,0.424,0.125,0.424,0.373c0,0.346-0.33,0.449-0.609,0.449
			c-0.141,0-0.342-0.037-0.484-0.104l0.08-0.186c0.113,0.051,0.242,0.072,0.371,0.072c0.109,0,0.332-0.059,0.332-0.229
			c0-0.133-0.109-0.201-0.277-0.201c-0.074,0-0.158,0.016-0.225,0.043l-0.092-0.078l0.262-0.42c-0.412-0.02-0.818-0.195-1.063-0.539
			l0.32-0.236c0.16,0.258,0.453,0.461,0.834,0.461s0.814-0.238,0.814-0.707c0-0.514-0.43-0.643-0.895-0.787
			c-0.486-0.148-0.98-0.361-0.98-1.023c0-0.707,0.627-1.006,1.166-1.006c0.492,0,0.859,0.205,1.035,0.443L121.688,112.221z"/>
		<path fill="#686969" d="M125.637,112.221c-0.156-0.223-0.408-0.369-0.754-0.369c-0.363,0-0.781,0.217-0.781,0.688
			c0,0.467,0.389,0.586,0.795,0.719c0.52,0.17,1.088,0.336,1.088,1.07s-0.617,1.055-1.195,1.055c-0.445,0-0.889-0.182-1.152-0.545
			l0.318-0.236c0.162,0.258,0.457,0.461,0.838,0.461c0.379,0,0.813-0.238,0.813-0.707c0-0.514-0.432-0.643-0.895-0.787
			c-0.486-0.148-0.982-0.361-0.982-1.023c0-0.707,0.631-1.006,1.168-1.006c0.49,0,0.859,0.205,1.033,0.443L125.637,112.221z"/>
		<path fill="#686969" d="M126.625,115.289h-0.408l1.582-3.658h0.361l1.568,3.658h-0.412l-0.402-0.961h-1.893L126.625,115.289z
			 M127.162,113.988h1.611l-0.805-1.943L127.162,113.988z"/>
		<path fill="#686969" d="M132.82,112.287c-0.254-0.268-0.602-0.424-1.059-0.424c-0.939,0-1.52,0.744-1.52,1.598
			c0,0.852,0.58,1.592,1.52,1.592c0.414,0,0.773-0.1,0.988-0.238v-1.109h-0.854v-0.326h1.225v1.646
			c-0.398,0.238-0.867,0.357-1.363,0.357c-1.107,0-1.908-0.813-1.908-1.922c0-1.113,0.818-1.922,1.908-1.922
			c0.578,0,1.014,0.184,1.322,0.488L132.82,112.287z M132.521,110.598c-0.025,0.43-0.336,0.684-0.76,0.684s-0.732-0.254-0.76-0.684
			h0.229c0.049,0.266,0.273,0.402,0.531,0.402s0.484-0.137,0.533-0.402H132.521z"/>
		<polygon fill="#686969" points="134.316,114.961 136.021,114.961 136.021,115.287 133.945,115.287 133.945,111.631 
			134.316,111.631 		"/>
		<rect x="136.451" y="111.631" fill="#686969" width="0.373" height="3.658"/>
		<path fill="#686969" d="M140.441,112.287c-0.254-0.268-0.605-0.424-1.059-0.424c-0.941,0-1.521,0.744-1.521,1.598
			c0,0.852,0.58,1.592,1.521,1.592c0.412,0,0.775-0.1,0.988-0.238v-1.109h-0.854v-0.326h1.223v1.646
			c-0.398,0.238-0.867,0.357-1.363,0.357c-1.105,0-1.906-0.813-1.906-1.922c0-1.113,0.816-1.922,1.906-1.922
			c0.578,0,1.014,0.184,1.322,0.488L140.441,112.287z M140.141,110.598c-0.023,0.43-0.336,0.684-0.758,0.684
			c-0.424,0-0.732-0.254-0.76-0.684h0.227c0.047,0.266,0.273,0.402,0.533,0.402s0.484-0.137,0.531-0.402H140.141z"/>
		<rect x="141.564" y="111.631" fill="#686969" width="0.373" height="3.658"/>
		<path fill="#686969" d="M143.943,111.631h1.033c0.742,0,1.234,0.322,1.234,0.977c0,0.656-0.502,0.982-1.246,0.982h-0.65v1.699
			h-0.371V111.631z M144.314,113.273h0.631c0.578,0,0.895-0.23,0.895-0.666c0-0.449-0.332-0.654-0.895-0.654h-0.631V113.273z"/>
		<path fill="#686969" d="M148.523,115.383c-1.09,0-1.91-0.813-1.91-1.922c0-1.113,0.82-1.922,1.91-1.922s1.904,0.809,1.904,1.922
			C150.428,114.57,149.613,115.383,148.523,115.383 M148.523,111.863c-0.941,0-1.516,0.744-1.516,1.598
			c0,0.852,0.574,1.592,1.516,1.592c0.939,0,1.512-0.74,1.512-1.592C150.035,112.607,149.463,111.863,148.523,111.863"/>
		<polygon fill="#686969" points="151.447,114.961 153.154,114.961 153.154,115.287 151.076,115.287 151.076,111.631 
			151.447,111.631 		"/>
		<path fill="#686969" d="M153.773,111.154c-0.125,0-0.246-0.102-0.246-0.246s0.121-0.25,0.246-0.25s0.25,0.105,0.25,0.25
			S153.898,111.154,153.773,111.154 M153.955,115.289h-0.371v-3.658h0.371V115.289z"/>
		<polygon fill="#686969" points="155.17,113.273 155.174,113.273 156.918,111.631 157.447,111.631 155.604,113.289 
			157.553,115.289 157.004,115.289 155.174,113.342 155.17,113.342 155.17,115.289 154.797,115.289 154.797,111.631 155.17,111.631 
					"/>
		<polygon fill="#686969" points="158.287,114.961 159.992,114.961 159.992,115.287 157.914,115.287 157.914,111.631 
			158.287,111.631 		"/>
		<path fill="#686969" d="M160.613,111.154c-0.125,0-0.248-0.102-0.248-0.246s0.123-0.25,0.248-0.25c0.123,0,0.248,0.105,0.248,0.25
			S160.736,111.154,160.613,111.154 M160.795,115.289h-0.373v-3.658h0.373V115.289z"/>
		<polygon fill="#686969" points="164.23,114.748 164.24,114.748 164.24,111.631 164.613,111.631 164.613,115.289 164.148,115.289 
			162.021,112.143 162.008,112.143 162.008,115.289 161.637,115.289 161.637,111.631 162.102,111.631 		"/>
		<path fill="#686969" d="M165.648,111.154c-0.125,0-0.248-0.102-0.248-0.246s0.123-0.25,0.248-0.25c0.123,0,0.248,0.105,0.248,0.25
			S165.771,111.154,165.648,111.154 M165.828,115.289h-0.371v-3.658h0.371V115.289z"/>
		<path fill="#686969" d="M169.447,112.287c-0.254-0.268-0.605-0.424-1.061-0.424c-0.939,0-1.518,0.744-1.518,1.598
			c0,0.852,0.578,1.592,1.518,1.592c0.416,0,0.777-0.1,0.988-0.238v-1.109h-0.854v-0.326h1.225v1.646
			c-0.396,0.238-0.867,0.357-1.363,0.357c-1.107,0-1.908-0.813-1.908-1.922c0-1.113,0.818-1.922,1.908-1.922
			c0.578,0,1.014,0.184,1.322,0.488L169.447,112.287z M169.148,110.598c-0.025,0.43-0.338,0.684-0.762,0.684
			c-0.422,0-0.734-0.254-0.758-0.684h0.227c0.047,0.266,0.273,0.402,0.531,0.402c0.26,0,0.486-0.137,0.535-0.402H169.148z"/>
		<path fill="#686969" d="M170.762,111.154c-0.125,0-0.248-0.102-0.248-0.246s0.123-0.25,0.248-0.25c0.123,0,0.246,0.105,0.246,0.25
			S170.885,111.154,170.762,111.154 M170.941,115.289h-0.371v-3.658h0.371V115.289z"/>
	</g>
	<g>
		<path fill="#6A97CF" d="M26.716,98.785c-0.025,0.053-0.059,0.064-0.1,0.014C26.648,98.793,26.684,98.789,26.716,98.785"/>
		<g>
			<defs>
				<path id="SVGID_22_" d="M24.271,93.078c1.009,0.875,1.833,1.725,1.97,2.998c0.1,0.9,0.723,0.887,1.418,0.883
					c4.309-0.018,8.617-0.037,12.922,0.023c0.926,0.012,1.376-0.279,1.535-1.146c0.211-1.15,0.949-1.939,1.973-2.758H24.271z"/>
			</defs>
			<clipPath id="SVGID_23_">
				<use xlink:href="#SVGID_22_"  overflow="visible"/>
			</clipPath>
			
				<linearGradient id="SVGID_24_" gradientUnits="userSpaceOnUse" x1="-167.2979" y1="747.2705" x2="-166.8306" y2="747.2705" gradientTransform="matrix(42.4112 0 0 -42.4112 7119.5625 31787.6875)">
				<stop  offset="0" style="stop-color:#93D3C8"/>
				<stop  offset="1" style="stop-color:#74C7F0"/>
			</linearGradient>
			<rect x="24.271" y="93.078" clip-path="url(#SVGID_23_)" fill="url(#SVGID_24_)" width="19.817" height="3.916"/>
		</g>
		<g>
			<defs>
				<path id="SVGID_25_" d="M26.603,98.277c-0.443,0-0.803,0.357-0.803,0.801s0.359,0.803,0.803,0.803H41.76
					c0.442,0,0.802-0.359,0.802-0.803s-0.359-0.801-0.802-0.801H26.603z"/>
			</defs>
			<clipPath id="SVGID_26_">
				<use xlink:href="#SVGID_25_"  overflow="visible"/>
			</clipPath>
			
				<linearGradient id="SVGID_27_" gradientUnits="userSpaceOnUse" x1="-167.0381" y1="745.4434" x2="-166.5708" y2="745.4434" gradientTransform="matrix(35.8719 0 0 -35.8719 6017.7813 26839.5313)">
				<stop  offset="0" style="stop-color:#93D3C8"/>
				<stop  offset="1" style="stop-color:#74C7F0"/>
			</linearGradient>
			<rect x="25.8" y="98.277" clip-path="url(#SVGID_26_)" fill="url(#SVGID_27_)" width="16.762" height="1.604"/>
		</g>
		<g>
			<defs>
				<path id="SVGID_28_" d="M34.089,100.885c-1.229,0-2.227,0.996-2.227,2.227v15.652c0,1.229,0.997,2.225,2.227,2.225h0.139
					c1.229,0,2.227-0.996,2.227-2.225v-15.652c0-1.23-0.997-2.227-2.227-2.227H34.089z"/>
			</defs>
			<clipPath id="SVGID_29_">
				<use xlink:href="#SVGID_28_"  overflow="visible"/>
			</clipPath>
			
				<linearGradient id="SVGID_30_" gradientUnits="userSpaceOnUse" x1="-162.583" y1="713.4707" x2="-162.1157" y2="713.4707" gradientTransform="matrix(9.8244 0 0 -9.8244 1629.1406 7120.3672)">
				<stop  offset="0" style="stop-color:#93D3C8"/>
				<stop  offset="1" style="stop-color:#74C7F0"/>
			</linearGradient>
			<rect x="31.862" y="100.885" clip-path="url(#SVGID_29_)" fill="url(#SVGID_30_)" width="4.592" height="20.104"/>
		</g>
		<g>
			<defs>
				<path id="SVGID_31_" d="M26.914,102.51v12.357c0,0.898,0.726,1.627,1.622,1.627c0.898,0,1.625-0.729,1.625-1.627V102.51
					c0-0.898-0.727-1.625-1.625-1.625C27.64,100.885,26.914,101.611,26.914,102.51"/>
			</defs>
			<clipPath id="SVGID_32_">
				<use xlink:href="#SVGID_31_"  overflow="visible"/>
			</clipPath>
			
				<linearGradient id="SVGID_33_" gradientUnits="userSpaceOnUse" x1="-159.0444" y1="694.7969" x2="-158.5771" y2="694.7969" gradientTransform="matrix(6.9527 0 0 -6.9527 1132.6992 4939.4063)">
				<stop  offset="0" style="stop-color:#93D3C8"/>
				<stop  offset="1" style="stop-color:#74C7F0"/>
			</linearGradient>
			<rect x="26.914" y="100.885" clip-path="url(#SVGID_32_)" fill="url(#SVGID_33_)" width="3.247" height="15.609"/>
		</g>
		<g>
			<defs>
				<path id="SVGID_34_" d="M24.731,100.885c-0.486,0-0.882,0.395-0.882,0.883v9.223c0,0.488,0.396,0.883,0.882,0.883l0,0
					c0.488,0,0.885-0.395,0.885-0.883v-9.223C25.616,101.279,25.22,100.885,24.731,100.885L24.731,100.885z"/>
			</defs>
			<clipPath id="SVGID_35_">
				<use xlink:href="#SVGID_34_"  overflow="visible"/>
			</clipPath>
			
				<linearGradient id="SVGID_36_" gradientUnits="userSpaceOnUse" x1="-149.8262" y1="641.0371" x2="-149.3589" y2="641.0371" gradientTransform="matrix(3.7815 0 0 -3.7815 590.416 2530.4609)">
				<stop  offset="0" style="stop-color:#93D3C8"/>
				<stop  offset="1" style="stop-color:#74C7F0"/>
			</linearGradient>
			<rect x="23.85" y="100.885" clip-path="url(#SVGID_35_)" fill="url(#SVGID_36_)" width="1.767" height="10.988"/>
		</g>
		<g>
			<defs>
				<path id="SVGID_37_" d="M38.132,102.51v12.357c0,0.898,0.729,1.627,1.625,1.627s1.625-0.729,1.625-1.627V102.51
					c0-0.898-0.729-1.625-1.625-1.625S38.132,101.611,38.132,102.51"/>
			</defs>
			<clipPath id="SVGID_38_">
				<use xlink:href="#SVGID_37_"  overflow="visible"/>
			</clipPath>
			
				<linearGradient id="SVGID_39_" gradientUnits="userSpaceOnUse" x1="-160.8848" y1="694.7969" x2="-160.417" y2="694.7969" gradientTransform="matrix(6.9527 0 0 -6.9527 1156.7109 4939.4063)">
				<stop  offset="0" style="stop-color:#93D3C8"/>
				<stop  offset="1" style="stop-color:#74C7F0"/>
			</linearGradient>
			<rect x="38.132" y="100.885" clip-path="url(#SVGID_38_)" fill="url(#SVGID_39_)" width="3.25" height="15.609"/>
		</g>
		<g>
			<defs>
				<path id="SVGID_40_" d="M43.562,100.885c-0.488,0-0.882,0.395-0.882,0.883v9.223c0,0.488,0.394,0.883,0.882,0.883h0.002
					c0.486,0,0.882-0.395,0.882-0.883v-9.223c0-0.488-0.396-0.883-0.882-0.883H43.562z"/>
			</defs>
			<clipPath id="SVGID_41_">
				<use xlink:href="#SVGID_40_"  overflow="visible"/>
			</clipPath>
			
				<linearGradient id="SVGID_42_" gradientUnits="userSpaceOnUse" x1="-155.5039" y1="641.0371" x2="-155.0371" y2="641.0371" gradientTransform="matrix(3.7815 0 0 -3.7815 630.7168 2530.4609)">
				<stop  offset="0" style="stop-color:#93D3C8"/>
				<stop  offset="1" style="stop-color:#74C7F0"/>
			</linearGradient>
			<rect x="42.68" y="100.885" clip-path="url(#SVGID_41_)" fill="url(#SVGID_42_)" width="1.766" height="10.988"/>
		</g>
		<path fill="#686969" d="M54.083,78.335c-0.704-1.389-1.738-2.612-3.123-3.35c-2.244-1.194-4.589-1.138-6.947-0.755
			c-1.32,0.213-2.592,0.619-3.843,1.068c-0.308,0.109-0.653,0.179-0.952,0.479c1.049-0.261,2.058-0.279,3.057-0.339
			c1.564-0.091,3.119,0.032,4.643,0.51c2.264,0.704,3.784,2.216,4.627,4.399c0.676,1.753,0.811,3.581,0.822,5.422
			c0.018,2.454-0.334,4.856-0.787,7.243c-0.023,0.123-0.049,0.25-0.073,0.375c-0.206-0.473-0.489-0.924-0.858-1.344
			c-2.088-2.378-5.443-1.849-8.283-1.864c-3.631-0.017-7.264-0.031-10.895-0.025c-1.852,0.002-3.701,0.009-5.553,0.024
			c-1.629,0.013-3.348-0.122-4.964,0.114c-0.499,0.072-0.979,0.21-1.43,0.405c-0.032-0.152-0.065-0.305-0.099-0.457
			c-0.408-1.988-0.688-3.98-0.728-6.002c-0.03-1.529,0.093-3.024,0.687-4.43c0.494-1.171,1.268-2.096,2.414-2.7
			c1.445-0.761,3.006-0.7,4.564-0.478c1.98,0.283,3.917,0.845,5.857,1.36c1.91,0.511,3.816,1.021,5.768,1.336
			c2.018,0.329,4.016,0.422,5.989-0.045c0.802-0.188,1.563-0.496,2.208-1.026c-0.612,0.209-1.214,0.439-1.871,0.503
			c-1.891,0.178-3.714-0.245-5.497-0.865c-2.336-0.814-4.595-1.845-6.893-2.765c-1.923-0.771-3.87-1.457-5.915-1.817
			c-1.922-0.34-3.822-0.444-5.713,0.012c-2.07,0.499-3.661,1.647-4.813,3.403c-0.994,1.515-1.534,3.19-1.77,5.006
			c-0.326,2.481-0.083,4.943,0.37,7.4c0.279,1.524,0.674,3.029,1.142,4.517c0.458,1.457,0.994,2.889,1.584,4.297h0.001
			c0.497,1.162,1.345,2.156,2.485,2.66c2.025,0.9,5.449,0.357,5.919-2.18c0.206-1.107,0.274-2.402-0.399-3.369
			c-1.148-1.643-4.324-2.023-5.009,0.238c-0.271,0.891,0.339,3.061,1.648,2.496c1.005-0.432,0.047-1.102-0.112-1.65
			c-0.184-0.645,0.434-1.082,1.023-0.951c1.324,0.297,1.746,2.057,1.126,3.096c-0.58,0.967-1.887,1.307-2.935,1.039
			c-2.595-0.67-3.398-4.158-1.746-6.102c0.902-1.063,2.311-1.411,3.645-1.419c1.845-0.007,3.689,0.006,5.535,0.009
			c3.623,0.001,7.244,0.001,10.866,0.003c1.845,0.003,3.69,0.005,5.535,0.01c1.434,0.005,2.905-0.127,4.179,0.652
			c2.293,1.396,2.438,4.629,0.311,6.275c-0.92,0.713-2.307,0.914-3.328,0.279c-1.323-0.82-1.364-2.605-0.152-3.559
			c0.434-0.342,1.32-0.537,1.551,0.172c0.195,0.594-0.495,0.932-0.529,1.451c-0.049,0.762,0.832,0.859,1.338,0.541
			c0.475-0.299,0.807-0.852,0.881-1.395c0.184-1.322-0.828-2.365-2.084-2.521c-1.162-0.145-2.285,0.449-2.934,1.4
			c-1.299,1.906-0.617,4.879,1.631,5.656c2.713,0.938,5.021-0.525,6.074-2.672c0.002-0.002,0.003-0.002,0.003-0.002
			c1.584-3.182,2.913-6.58,3.529-10.241c0.194-1.163,0.346-2.331,0.372-3.516c0.021-1.041-0.079-2.061-0.223-3.088
			c-0.126-0.904-0.391-1.788-0.774-2.616C54.187,78.542,54.136,78.439,54.083,78.335"/>
		<polygon fill="#686969" points="53.239,75.913 53.683,71.137 54.166,75.873 58.899,76.357 54.098,76.77 53.683,81.574 
			53.172,76.867 48.464,76.357 		"/>
	</g>
</g>
</svg>
