<?xml version="1.0" encoding="utf-8"?>
<!-- Generator: Adobe Illustrator 16.0.0, SVG Export Plug-In . SVG Version: 6.00 Build 0)  -->
<!DOCTYPE svg PUBLIC "-//W3C//DTD SVG 1.1//EN" "http://www.w3.org/Graphics/SVG/1.1/DTD/svg11.dtd">
<svg version="1.1" id="Layer_1" xmlns="http://www.w3.org/2000/svg" xmlns:xlink="http://www.w3.org/1999/xlink" x="0px" y="0px"
	 width="216px" height="188px" viewBox="0 0 216 188" enable-background="new 0 0 216 188" xml:space="preserve">
<g>
	<path fill-rule="evenodd" clip-rule="evenodd" fill="#F69284" d="M148.625,101.746l0.063-0.146
		c0.003-0.012,0.003-0.025,0.006-0.039c0.007-0.041,0.011-0.15,0.015-0.193c-0.015,0.031-0.021,0.01-0.051,0.116
		c-0.005,0.017-0.012,0.063-0.013,0.079C148.637,101.611,148.631,101.697,148.625,101.746"/>
	<path fill-rule="evenodd" clip-rule="evenodd" fill="#F69284" d="M113.224,112.168c0.069-0.088,0.056,0.111,0.063-0.118
		l-0.104-0.067C113.248,112.105,113.226,112.008,113.224,112.168"/>
	<path fill-rule="evenodd" clip-rule="evenodd" fill="#FFFCFD" d="M76.781,82.324l8.29,0.014c-0.169-2.848-1.446-4.59-4.145-4.627
		C78.26,77.675,76.916,79.529,76.781,82.324"/>
	<path fill-rule="evenodd" clip-rule="evenodd" fill="#FFFCFD" d="M16.571,82.331l8.281,0.006c-0.042-1.344-0.493-2.586-1.091-3.341
		c-1.275-1.609-4.648-1.828-6.087-0.017C17.055,79.76,16.602,80.932,16.571,82.331"/>
	<path fill-rule="evenodd" clip-rule="evenodd" fill="#00274F" d="M46.56,76.503l-0.054,0.003c0.002-0.021,0.017-0.021,0.024-0.031
		c0.005-0.232,0.093-0.578,0.109-0.901c0.033-0.612,0.08-2.732,0.007-3.132c-0.37-0.092-6.878-0.021-8.115-0.03
		c-0.078-0.001-0.197-0.009-0.271-0.004l-0.233,0.063C37.932,72.6,38,94.124,37.998,97.387c0,0.129-0.003,0.259-0.003,0.389
		l0.04,0.298c0.002-0.007,0.009,0.022,0.016,0.032c0.198,0.139,4.123,0.047,4.72,0.047c1.209,0,3.285,0.046,4.466,0.002
		c0.044-0.001,0.079-0.002,0.122-0.009l0.116-0.068l0.039-10.923c0-3.193-0.379-7.085,3.333-7.371
		c0.778-0.061,1.539,0.155,2.062,0.51c1.552,1.053,1.238,5.083,1.238,6.909c0,1.835,0,3.668,0,5.502l-0.004,5.119
		c0.001,0.066,0.001,0.115,0.015,0.178c0.026,0.123-0.01,0.031,0.044,0.104c0.205,0.138,1.958,0.046,2.358,0.046h6.516
		c0.342,0.001,0.528,0.061,0.576-0.148l0.012-12.296c0-4.025,0.171-7.797-1.75-10.568c-1.538-2.219-4.51-3.832-8.254-3.33
		c-2.083,0.281-3.63,1.004-5.072,2.281c-0.708,0.627-0.829,0.808-1.424,1.548L46.56,76.503z"/>
	<path fill-rule="evenodd" clip-rule="evenodd" fill="#00274F" d="M76.787,87.609c1.207-0.06,2.519-0.012,3.738-0.015
		c1.25-0.004,2.499-0.008,3.748-0.01l9.371-0.021c0.946,0.003,0.798,0.217,0.795-1.132c-0.006-2.425-0.402-4.629-1.187-6.813
		c-0.354-0.988-0.84-1.813-1.317-2.582c-1.771-2.854-5.248-5.313-9.895-5.516c-2.407-0.105-4.491,0.094-6.624,0.844
		c-5.812,2.045-8.871,7.925-8.07,15.284c0.408,3.749,2.03,6.79,4.866,8.933c1.965,1.485,4.444,2.302,7.062,2.455
		c4.826,0.281,10.747-0.78,13.362-5.685c0.216-0.405,1.093-2.413,0.999-2.901c-0.686-0.068-8.86-0.052-9.063,0.015
		c-0.08,0.05-0.114,0.206-0.172,0.351c-0.313,0.771-0.982,1.222-1.719,1.519c-0.85,0.341-2.309,0.291-3.143-0.01
		c-0.971-0.349-1.522-0.912-2-1.696C77.12,89.944,76.729,88.641,76.787,87.609 M76.781,82.324c0.134-2.795,1.479-4.649,4.145-4.613
		c2.699,0.037,3.976,1.779,4.145,4.627L76.781,82.324z"/>
	<path fill-rule="evenodd" clip-rule="evenodd" fill="#00274F" d="M34.206,87.544c0.198-1.565-0.253-4.817-0.625-6.233
		c-0.889-3.382-2.721-6.146-5.477-7.881c-4.32-2.718-11.424-2.517-15.373,0.156c-2.816,1.906-4.54,4.38-5.333,7.985
		c-0.861,3.911-0.3,8.585,1.424,11.458c1.474,2.458,3.96,4.781,7.555,5.583c3.66,0.818,7.858,0.537,11.138-0.834
		c0.759-0.319,1.495-0.772,2.094-1.211c1.723-1.264,2.741-2.729,3.487-4.818l0.305-0.979c0-0.005,0.031-0.15,0.031-0.154
		l-0.023-0.149c-0.124-0.044-8.457-0.087-9.062-0.019c-0.104,0.196-0.176,0.47-0.309,0.674c-0.065,0.101-0.344,0.459-0.414,0.518
		c-0.365,0.303-0.649,0.477-1.15,0.686c-0.843,0.352-2.304,0.296-3.142,0.002c-0.994-0.347-1.524-0.917-2-1.699
		c-0.408-0.67-0.842-2.029-0.756-3.027L34.206,87.544z M16.571,82.331c0.031-1.399,0.484-2.571,1.103-3.352
		c1.439-1.811,4.812-1.592,6.087,0.017c0.598,0.754,1.048,1.997,1.091,3.341L16.571,82.331z"/>
	<path fill-rule="evenodd" clip-rule="evenodd" fill="#00274F" d="M106.87,77.178l-0.09,0.2c-0.02-0.192-0.046-0.176,0.043-0.3
		c0.009-0.353,0.098-0.685,0.108-1.069c0.021-0.656,0.057-3.19-0.007-3.553c-0.212-0.083-8.438-0.089-8.669-0.003
		c-0.106,0.541-0.024,2.527-0.024,3.216l0.023,22.376c0.003,0.009,0.014,0.042,0.016,0.036c0.001-0.007,0.01,0.023,0.017,0.034
		c0.216,0.112,4.12,0.038,4.728,0.038c0.542,0,4.676,0.129,4.751-0.072c0.183-0.488-0.127-10.265,0.139-12.006
		c0.563-3.67,3.157-4.332,6.043-4.171c0.325,0.019,1.002,0.16,1.287,0.079c0.088-0.503,0.041-10.076-0.02-10.243
		c-0.7-0.113-2.458,0.056-3.136,0.22c-1.862,0.451-2.999,1.237-4.066,2.841C107.745,75.204,106.943,76.597,106.87,77.178"/>
	<path fill-rule="evenodd" clip-rule="evenodd" fill="#D03120" d="M188.66,77.406c1.081-1.291,2.366-2.663,3.441-3.942l4.407-5.031
		c0.179-0.176,0.327-0.382,0.493-0.577c1.245-1.458,2.71-3.036,3.927-4.49c0.457-0.548,3.337-3.708,3.393-3.961l-15.271-0.143
		c-0.095,0.167-0.324,0.437-0.463,0.603c-0.143,0.17-0.303,0.394-0.45,0.578l-5.556,7.021c-0.332,0.404-0.588,0.74-0.91,1.139
		c-1.24,1.538-2.44,3.121-3.686,4.654c-0.627,0.772-1.206,1.566-1.851,2.341c-0.148,0.178-1.663,2.197-1.866,2.313l-0.01-18.675
		c-0.337-0.105-2.978-0.032-3.547-0.032c-0.904,0-10.276-0.046-10.703,0.017l-0.008,49.845c0,0.2-0.023,0.357,0.037,0.521
		l13.754-0.001l0.018-0.325c-0.005-4.424,0-8.849,0-13.272c0-0.563,0.002-1.126,0-1.689c-0.001-0.33-0.057-0.499,0.106-0.683
		l1.892-2.057c0.354-0.388,2.893-3.209,3.07-3.297c0.152,0.164,0.619,1.061,0.774,1.34c0.261,0.464,0.496,0.887,0.758,1.351
		l8.981,16.059c0.499,0.897,1.021,1.775,1.498,2.675l16.068-0.13c-0.05-0.27-0.938-1.732-1.136-2.073
		c-2.687-4.624-5.318-9.411-8.012-14.015C197.121,92.287,188.726,77.682,188.66,77.406"/>
	<path fill-rule="evenodd" clip-rule="evenodd" fill="#D03120" d="M127.736,58.343H7.043c-0.078,0.45-0.027,8.115-0.027,8.783
		c0,1.339-0.234,1.047,1.081,1.047h118.704c0.822,0,0.961,0.147,0.968-0.318c0-0.094-0.004-0.199-0.004-0.294
		C127.76,66.2,127.817,58.716,127.736,58.343"/>
	<path fill-rule="evenodd" clip-rule="evenodd" fill="#D03120" d="M126.243,88.899l-12.162-0.021l0.042,2.698
		c-0.07,1.555,0.459,5.838,0.76,7.455c0.09,0.479,0.198,1.289,0.339,1.708c0.176,0.522,0.368,0.981,0.57,1.456
		c0.354,0.832,0.977,1.92,1.441,2.546c1.196,1.617,2.427,2.856,4.071,3.896c1.821,1.151,3.36,1.661,5.731,2.047
		c2.2,0.358,4.962,0.591,7.233,0.318c2.255-0.27,4.432-0.492,6.435-1.284c1.375-0.543,2.608-1.256,3.723-2.199
		c0.375-0.317,0.716-0.608,1.049-0.941c0.59-0.587,1.767-2.051,2.192-2.841c1.79-3.33,1.973-8.298,1.973-12.143V64.617
		c0-1.192,0.052-4.395-0.008-5.345c-0.326-0.098-9.352-0.032-10.515-0.032c-1.11,0-2.408-0.067-3.495,0.01
		c-0.067,5.081-0.002,10.22-0.002,15.309c0,5.083,0,10.167,0,15.25c0,0.882,0.074,4.971-0.063,5.654
		c-1.042,5.15-7.5,5.388-9.017,0.709c-0.378-1.166-0.29-2.211-0.292-3.515L126.243,88.899z"/>
	<path fill-rule="evenodd" clip-rule="evenodd" fill="#D03120" d="M113.224,112.168c0.002-0.16,0.024-0.063-0.04-0.186
		c-0.266-0.056-0.944-0.546-1.152-0.699c-1.164-0.857-1.827-1.604-2.675-2.898c-0.669-1.021-1.329-2.842-1.495-4.221
		c-0.047-0.387-0.177-1.693-0.18-1.787l-88.072-0.035c-0.123,0-12.314-0.072-12.564,0.043c-0.062,0.209-0.078,9.446-0.005,9.747
		c0.012,0.006,0.028,0.011,0.039,0.013l102.854,0.03C110.996,112.175,112.175,112.227,113.224,112.168"/>
	<path fill-rule="evenodd" clip-rule="evenodd" fill="#F7A092" d="M114.123,91.576l-0.042-2.698l12.162,0.021
		c-0.136-0.088-0.204-0.06-0.38-0.057c-2.151,0.039-11.504-0.088-11.802,0.026c-0.02,0.09-0.032,2.343,0.018,2.583
		C114.114,91.623,114.107,91.54,114.123,91.576"/>
	<path fill-rule="evenodd" clip-rule="evenodd" fill="#6A81C0" d="M106.87,77.178l-0.047-0.1c-0.089,0.124-0.063,0.108-0.043,0.3
		L106.87,77.178z"/>
	<path fill-rule="evenodd" clip-rule="evenodd" fill="#849ED1" d="M46.56,76.503l-0.03-0.028c-0.008,0.01-0.022,0.01-0.024,0.031
		L46.56,76.503z"/>
	<path fill="#00274F" d="M205.542,133.154v-8.756h1.42v8.756H205.542z M205.542,122.762v-1.688h1.42v1.688H205.542z
		 M200.153,133.154v-8.756h1.274v1.342c0.326-0.622,0.626-1.032,0.903-1.229c0.277-0.2,0.581-0.298,0.911-0.298
		c0.48,0,0.967,0.156,1.461,0.47l-0.506,1.369c-0.344-0.202-0.688-0.304-1.032-0.304c-0.31,0-0.587,0.098-0.831,0.292
		s-0.42,0.464-0.524,0.81c-0.159,0.526-0.236,1.103-0.236,1.729v4.575H200.153z M192.261,127.941h4.663
		c-0.063-0.736-0.243-1.288-0.535-1.656c-0.45-0.571-1.035-0.857-1.753-0.857c-0.651,0-1.197,0.228-1.642,0.683
		C192.554,126.566,192.31,127.175,192.261,127.941z M196.907,130.319l1.469,0.203c-0.229,0.892-0.656,1.586-1.279,2.077
		c-0.625,0.493-1.421,0.74-2.391,0.74c-1.222,0-2.19-0.394-2.906-1.182c-0.715-0.783-1.071-1.889-1.071-3.31
		c0-1.467,0.359-2.608,1.083-3.419c0.724-0.812,1.662-1.217,2.815-1.217c1.115,0,2.026,0.396,2.734,1.191
		c0.707,0.796,1.063,1.916,1.063,3.358c0,0.086-0.004,0.219-0.01,0.394h-6.235c0.054,0.959,0.312,1.694,0.78,2.204
		c0.464,0.509,1.048,0.765,1.746,0.765c0.519,0,0.961-0.144,1.327-0.43C196.401,131.408,196.691,130.949,196.907,130.319z
		 M187.579,133.154v-12.08h1.42v12.08H187.579z M178.638,133.154v-8.756h1.274v1.242c0.613-0.953,1.501-1.428,2.659-1.428
		c0.506,0,0.968,0.095,1.392,0.284c0.422,0.188,0.738,0.438,0.948,0.745c0.21,0.306,0.358,0.672,0.441,1.094
		c0.051,0.275,0.078,0.756,0.078,1.442v5.376h-1.421v-5.32c0-0.604-0.053-1.058-0.163-1.354c-0.11-0.299-0.308-0.538-0.587-0.718
		c-0.279-0.177-0.61-0.267-0.986-0.267c-0.603,0-1.121,0.199-1.56,0.602c-0.439,0.399-0.657,1.161-0.657,2.28v4.777H178.638z
		 M173.714,123.318v-1.688h1.485v1.688H173.714z M170.777,123.318v-1.688h1.484v1.688H170.777z M175.134,133.154v-1.303
		c-0.65,0.994-1.532,1.488-2.648,1.488c-0.493,0-0.952-0.099-1.38-0.295c-0.427-0.199-0.745-0.448-0.952-0.745
		c-0.207-0.301-0.352-0.667-0.436-1.1c-0.057-0.292-0.086-0.754-0.086-1.384v-5.418h1.42v4.845c0,0.773,0.03,1.297,0.087,1.563
		c0.088,0.392,0.276,0.693,0.566,0.916c0.287,0.223,0.644,0.335,1.068,0.335c0.424,0,0.822-0.112,1.194-0.34
		c0.37-0.229,0.633-0.539,0.789-0.931c0.153-0.392,0.231-0.962,0.231-1.707v-4.682h1.42v8.756H175.134z M164.275,133.154v-8.756
		h1.275v1.342c0.325-0.622,0.626-1.032,0.903-1.229c0.275-0.2,0.58-0.298,0.912-0.298c0.478,0,0.964,0.156,1.459,0.47l-0.506,1.369
		c-0.345-0.202-0.688-0.304-1.032-0.304c-0.309,0-0.586,0.098-0.831,0.292s-0.42,0.464-0.524,0.81
		c-0.158,0.526-0.236,1.103-0.236,1.729v4.575H164.275z M158.094,120.332v-1.688h1.483v1.688H158.094z M155.155,120.332v-1.688
		h1.485v1.688H155.155z M160.384,121.074h1.533v6.977c0,1.215-0.132,2.18-0.394,2.894c-0.264,0.712-0.736,1.294-1.42,1.741
		c-0.685,0.446-1.58,0.671-2.693,0.671c-1.078,0-1.963-0.194-2.648-0.584c-0.689-0.392-1.179-0.953-1.472-1.693
		c-0.293-0.739-0.44-1.75-0.44-3.028v-6.977h1.532v6.974c0,1.05,0.094,1.825,0.279,2.32c0.186,0.498,0.504,0.883,0.958,1.149
		c0.451,0.271,1.005,0.405,1.659,0.405c1.118,0,1.918-0.267,2.394-0.799c0.477-0.534,0.712-1.558,0.712-3.076V121.074z
		 M140.095,133.154v-12.08h1.42v6.881l3.355-3.557h1.835l-3.195,3.253l3.517,5.503h-1.747l-2.781-4.473l-0.983,0.999v3.474H140.095z
		 M136.505,133.154v-8.756h1.421v8.756H136.505z M136.505,122.762v-1.688h1.421v1.688H136.505z M132.888,133.154v-12.08h1.421v12.08
		H132.888z M124.103,133.154v-1.209l5.303-6.4c-0.603,0.034-1.132,0.051-1.59,0.051h-3.39v-1.197h6.825v0.976l-4.54,5.551
		l-0.868,1.031c0.638-0.056,1.234-0.084,1.79-0.084h3.876v1.282H124.103z M121.269,133.154v-8.756h1.419v8.756H121.269z
		 M121.269,122.762v-1.688h1.419v1.688H121.269z M107.828,133.154v-8.756h1.276v1.237c0.262-0.428,0.61-0.774,1.045-1.032
		c0.438-0.262,0.932-0.391,1.488-0.391c0.617,0,1.126,0.135,1.521,0.402c0.396,0.271,0.676,0.644,0.837,1.126
		c0.667-1.02,1.53-1.528,2.595-1.528c0.833,0,1.477,0.238,1.924,0.719c0.448,0.482,0.674,1.222,0.674,2.22v6.003h-1.419v-5.512
		c0-0.591-0.049-1.018-0.14-1.279c-0.093-0.261-0.258-0.469-0.504-0.628c-0.242-0.161-0.526-0.24-0.853-0.24
		c-0.591,0-1.081,0.205-1.471,0.613c-0.39,0.41-0.583,1.065-0.583,1.965v5.081h-1.419v-5.683c0-0.658-0.116-1.153-0.349-1.481
		c-0.229-0.329-0.61-0.495-1.134-0.495c-0.399,0-0.767,0.11-1.105,0.328c-0.34,0.22-0.584,0.54-0.736,0.964
		c-0.152,0.423-0.227,1.033-0.227,1.828v4.539H107.828z M99.919,127.941h4.664c-0.063-0.736-0.243-1.288-0.535-1.656
		c-0.45-0.571-1.036-0.857-1.754-0.857c-0.651,0-1.196,0.228-1.64,0.683C100.213,126.566,99.968,127.175,99.919,127.941z
		 M104.566,130.319l1.468,0.203c-0.228,0.892-0.656,1.586-1.279,2.077c-0.624,0.493-1.419,0.74-2.391,0.74
		c-1.22,0-2.188-0.394-2.904-1.182c-0.715-0.783-1.073-1.889-1.073-3.31c0-1.467,0.361-2.608,1.084-3.419
		c0.722-0.812,1.662-1.217,2.815-1.217c1.116,0,2.028,0.396,2.735,1.191c0.707,0.796,1.062,1.916,1.062,3.358
		c0,0.086-0.002,0.219-0.007,0.394h-6.237c0.055,0.959,0.313,1.694,0.781,2.204c0.464,0.509,1.048,0.765,1.745,0.765
		c0.52,0,0.962-0.144,1.328-0.43C104.061,131.408,104.351,130.949,104.566,130.319z M93.901,133.154v-10.663h-3.808v-1.417h9.147
		v1.417h-3.807v10.663H93.901z M82.979,133.154v-12.08h1.419v12.08H82.979z M75.102,127.941h4.663
		c-0.062-0.736-0.241-1.288-0.535-1.656c-0.449-0.571-1.035-0.857-1.753-0.857c-0.651,0-1.197,0.228-1.64,0.683
		C75.395,126.566,75.15,127.175,75.102,127.941z M79.749,130.319l1.468,0.203c-0.229,0.892-0.656,1.586-1.28,2.077
		c-0.624,0.493-1.419,0.74-2.39,0.74c-1.221,0-2.189-0.394-2.904-1.182c-0.716-0.783-1.073-1.889-1.073-3.31
		c0-1.467,0.36-2.608,1.083-3.419c0.723-0.812,1.662-1.217,2.816-1.217c1.115,0,2.027,0.396,2.735,1.191
		c0.707,0.796,1.062,1.916,1.062,3.358c0,0.086-0.002,0.219-0.008,0.394h-6.237c0.055,0.959,0.313,1.694,0.78,2.204
		c0.466,0.509,1.05,0.765,1.746,0.765c0.519,0,0.962-0.144,1.328-0.43C79.243,131.408,79.534,130.949,79.749,130.319z
		 M65.905,136.521l-0.161-1.372c0.312,0.087,0.58,0.131,0.812,0.131c0.316,0,0.57-0.056,0.758-0.165
		c0.191-0.11,0.347-0.265,0.468-0.461c0.089-0.149,0.234-0.518,0.433-1.107c0.026-0.082,0.067-0.203,0.126-0.363l-3.179-8.784h1.516
		l1.749,5.056c0.228,0.639,0.43,1.313,0.61,2.021c0.164-0.667,0.358-1.323,0.583-1.971l1.786-5.106h1.417l-3.165,8.907
		c-0.341,0.959-0.607,1.616-0.799,1.98c-0.253,0.486-0.543,0.843-0.868,1.071c-0.329,0.228-0.718,0.34-1.17,0.34
		C66.548,136.697,66.241,136.638,65.905,136.521z M62.385,133.154v-8.756h1.419v8.756H62.385z M62.385,122.762v-1.688h1.419v1.688
		H62.385z M56.996,133.154v-8.756h1.274v1.342c0.326-0.622,0.627-1.032,0.904-1.229c0.276-0.2,0.58-0.298,0.911-0.298
		c0.479,0,0.965,0.156,1.46,0.47l-0.506,1.369c-0.345-0.202-0.688-0.304-1.032-0.304c-0.31,0-0.587,0.098-0.832,0.292
		c-0.245,0.194-0.42,0.464-0.524,0.81c-0.159,0.526-0.237,1.103-0.237,1.729v4.575H56.996z M55.611,131.83l0.194,1.311
		c-0.398,0.087-0.755,0.132-1.067,0.132c-0.514,0-0.912-0.084-1.197-0.256c-0.282-0.171-0.481-0.394-0.596-0.673
		c-0.116-0.277-0.172-0.862-0.172-1.754v-5.045h-1.049v-1.146h1.049v-2.165l1.419-0.892v3.057h1.42v1.146h-1.42v5.13
		c0,0.425,0.025,0.697,0.076,0.818c0.048,0.119,0.129,0.217,0.243,0.29c0.112,0.068,0.273,0.105,0.483,0.105
		C55.148,131.889,55.356,131.869,55.611,131.83z M43.897,130.54l1.404-0.237c0.078,0.589,0.298,1.038,0.658,1.354
		c0.361,0.312,0.866,0.469,1.512,0.469c0.653,0,1.138-0.138,1.455-0.415c0.315-0.276,0.473-0.603,0.473-0.977
		c0-0.334-0.142-0.599-0.425-0.79c-0.199-0.133-0.683-0.298-1.452-0.504c-1.038-0.272-1.755-0.509-2.159-0.708
		c-0.401-0.202-0.705-0.479-0.912-0.832c-0.207-0.353-0.312-0.743-0.312-1.171c0-0.391,0.086-0.75,0.256-1.082
		c0.171-0.331,0.403-0.607,0.696-0.827c0.221-0.168,0.522-0.312,0.901-0.43c0.381-0.118,0.788-0.177,1.223-0.177
		c0.656,0,1.232,0.098,1.727,0.298c0.497,0.197,0.863,0.467,1.099,0.805c0.233,0.34,0.398,0.793,0.487,1.36l-1.388,0.203
		c-0.062-0.456-0.245-0.813-0.546-1.069c-0.301-0.256-0.726-0.382-1.277-0.382c-0.648,0-1.114,0.111-1.39,0.338
		c-0.277,0.225-0.417,0.488-0.417,0.789c0,0.191,0.057,0.366,0.172,0.521c0.115,0.157,0.295,0.29,0.543,0.394
		c0.142,0.057,0.556,0.183,1.25,0.38c1,0.278,1.699,0.509,2.097,0.686c0.398,0.178,0.71,0.438,0.936,0.776
		c0.229,0.34,0.341,0.763,0.341,1.269c0,0.491-0.137,0.956-0.414,1.392c-0.277,0.437-0.675,0.772-1.194,1.013
		c-0.522,0.238-1.11,0.356-1.767,0.356c-1.086,0-1.917-0.236-2.487-0.706C44.419,132.161,44.056,131.464,43.897,130.54z
		 M39.539,123.318v-1.688h1.484v1.688H39.539z M36.603,123.318v-1.688h1.484v1.688H36.603z M40.958,133.154v-1.303
		c-0.65,0.994-1.533,1.488-2.648,1.488c-0.492,0-0.952-0.099-1.379-0.295c-0.428-0.199-0.745-0.448-0.952-0.745
		c-0.207-0.301-0.353-0.667-0.436-1.1c-0.057-0.292-0.086-0.754-0.086-1.384v-5.418h1.419v4.845c0,0.773,0.03,1.297,0.086,1.563
		c0.089,0.392,0.277,0.693,0.568,0.916c0.288,0.223,0.643,0.335,1.067,0.335s0.822-0.112,1.194-0.34
		c0.372-0.229,0.635-0.539,0.791-0.931c0.153-0.392,0.231-0.962,0.231-1.707v-4.682h1.42v8.756H40.958z M27.435,128.787
		c0,1.119,0.227,1.955,0.681,2.509c0.451,0.555,0.986,0.829,1.602,0.829c0.621,0,1.149-0.264,1.584-0.792
		c0.433-0.529,0.651-1.337,0.651-2.423c0-1.191-0.221-2.068-0.665-2.628c-0.441-0.56-0.987-0.838-1.635-0.838
		c-0.632,0-1.159,0.267-1.583,0.804C27.647,126.786,27.435,127.631,27.435,128.787z M31.921,133.154v-1.11
		c-0.531,0.863-1.311,1.296-2.34,1.296c-0.667,0-1.28-0.19-1.836-0.576c-0.56-0.383-0.993-0.92-1.302-1.605
		c-0.306-0.689-0.46-1.479-0.46-2.373c0-0.872,0.14-1.663,0.417-2.373c0.28-0.709,0.696-1.255,1.253-1.631
		c0.555-0.381,1.178-0.568,1.864-0.568c0.505,0,0.955,0.112,1.347,0.335c0.393,0.222,0.713,0.514,0.96,0.87v-4.344h1.42v12.08
		H31.921z M17.542,133.154v-8.756h1.274v1.242c0.613-0.953,1.5-1.428,2.659-1.428c0.506,0,0.968,0.095,1.39,0.284
		c0.423,0.188,0.74,0.438,0.949,0.745c0.21,0.306,0.357,0.672,0.441,1.094c0.052,0.275,0.079,0.756,0.079,1.442v5.376h-1.42v-5.32
		c0-0.604-0.054-1.058-0.164-1.354c-0.11-0.299-0.307-0.538-0.586-0.718c-0.28-0.177-0.61-0.267-0.986-0.267
		c-0.603,0-1.122,0.199-1.561,0.602c-0.438,0.399-0.655,1.161-0.655,2.28v4.777H17.542z M6.99,133.154v-12.08h8.341v1.417H8.522
		v3.712h6.373v1.417H8.522v4.117h7.083v1.417H6.99z"/>
</g>
</svg>
