<?xml version="1.0" encoding="utf-8"?>
<!-- Generator: Adobe Illustrator 16.0.0, SVG Export Plug-In . SVG Version: 6.00 Build 0)  -->
<!DOCTYPE svg PUBLIC "-//W3C//DTD SVG 1.1//EN" "http://www.w3.org/Graphics/SVG/1.1/DTD/svg11.dtd">
<svg version="1.1" id="Layer_1" xmlns="http://www.w3.org/2000/svg" xmlns:xlink="http://www.w3.org/1999/xlink" x="0px" y="0px"
	 width="216px" height="188px" viewBox="0 0 216 188" enable-background="new 0 0 216 188" xml:space="preserve">
<g>
	<g>
		<g>
			<circle fill="none" stroke="#000000" stroke-width="0.1491" stroke-miterlimit="22.9256" cx="56.983" cy="67.199" r="2.235"/>
			<path fill-rule="evenodd" clip-rule="evenodd" fill="#15191B" d="M56.983,64.964c1.235,0,2.235,1.002,2.235,2.235
				c0,1.234-1,2.234-2.235,2.234c-1.233,0-2.235-1-2.235-2.234C54.748,65.966,55.75,64.964,56.983,64.964z"/>
		</g>
		<g>
			<g>
				
					<path fill-rule="evenodd" clip-rule="evenodd" fill="none" stroke="#FFFFFF" stroke-width="0.0567" stroke-miterlimit="22.9256" d="
					M60.354,111.422c0.608,0.035,1.156,0.296,1.562,0.699c0.44-0.436,1.045-0.704,1.711-0.704h0.607
					c0.863,0,1.622,0.452,2.054,1.131c0.199-0.054,0.405-0.079,0.616-0.079h0.601c1.341,0,2.433,1.091,2.433,2.433v1.539
					c0,0.504-0.052,1.01-0.182,1.499c0.16,0.53,0.222,1.09,0.222,1.643v0.76c0,1.341-1.091,2.434-2.433,2.434h-0.607
					c-0.281,0-0.555-0.051-0.81-0.14c-0.257,0.089-0.531,0.14-0.811,0.14h-0.602c-0.083,0-0.166-0.005-0.246-0.012
					c-0.082,0.007-0.165,0.012-0.245,0.012h-0.604c-0.063,0-0.125-0.002-0.188-0.009c-0.062,0.007-0.125,0.009-0.188,0.009h-2.558
					c-0.022,0-0.041,0-0.063,0c-0.087,0.253-0.217,0.498-0.392,0.72c-0.596,0.758-1.466,1.202-2.434,1.202
					c-0.982,0-1.863-0.459-2.458-1.234c-0.176-0.23-0.318-0.476-0.43-0.733c-0.117-0.021-0.23-0.056-0.342-0.094
					c-0.256,0.089-0.529,0.14-0.81,0.14h-0.602c-0.047,0-0.093-0.002-0.142-0.005c-0.049,0.003-0.095,0.005-0.142,0.005h-2.321
					c-0.079,0-0.156-0.005-0.235-0.011c-0.078,0.006-0.155,0.011-0.234,0.011h-0.608c-0.14,0-0.279-0.012-0.418-0.038
					c-1.844,10.752-14.028,13.969-23.04,9.734c-1.208-0.516-2.924-1.118-4.232-1.208c-1.226-0.083-2.745,0.648-3.53,1.576
					c-0.344,0.41-0.791,0.683-1.313,0.805l-0.673,0.154c-0.725,0.167-1.466,0.002-2.051-0.457c-0.588-0.462-0.922-1.138-0.93-1.886
					c-0.027-2.376,0.726-4.615,2.224-6.465c0.217-0.269,0.453-0.533,0.702-0.785c-1.206-3.163-1.982-6.502-2.337-9.866
					c-0.104-0.974-0.182-1.962-0.209-2.947c-1.156-0.288-2.258-0.785-3.128-1.619c-2.263-2.168-1.718-5.148,0.855-6.754
					c0.643-0.4,1.401-0.684,2.173-0.869c0.024-1.512,0.07-3.193,0.215-4.914c-0.461,0.184-0.954,0.298-1.46,0.345
					c-0.685,0.064-1.375,0.011-2.049-0.12c-0.383-0.075-0.726-0.233-1.035-0.475c-3.665-2.88-3.128-8.228-0.521-11.612
					c2.309-2.993,5.53-5.062,9.063-6.326c1.3-0.465,2.753-0.876,4.164-1.1c-1.245-0.595-2.35-1.443-3.215-2.578
					c-0.923-0.922-1.742-2.256-2.239-3.444c-1.245-2.983-1.069-6.124,0.232-9.048c0.454-1.409,1.453-2.905,2.491-3.935
					c2.691-2.667,6.299-3.333,9.94-2.768c2.919,0.455,6.383,2.506,8.662,4.354c0.055,0.047,0.11,0.094,0.162,0.145l3.55,3.451
					c1.606-0.088,3.337,0.056,4.922,0.308c3.181,0.506,6.423,1.656,8.793,3.912c1.192,0.879,2.3,2.292,2.976,3.59
					c1.746,3.359,1.489,7.101,0.043,10.512c-0.045,0.103-0.095,0.203-0.153,0.299c-0.672,1.124-1.681,2.261-2.663,3.125
					c-2.167,1.907-4.842,3.017-7.759,2.661c-0.125-0.016-0.248-0.039-0.369-0.074c-0.458-0.128-0.923-0.302-1.383-0.511
					c1.68,3.556,1.482,7.568-0.488,11.33c-0.939,1.792-2.12,3.418-3.511,4.844c0.306,0.039,0.594,0.137,0.854,0.281
					c0.347-0.192,0.747-0.302,1.172-0.302h2.32c0.021,0,0.043,0,0.064,0.002c0.02-0.002,0.041-0.002,0.064-0.002h0.648
					c0.485,0,0.941,0.14,1.325,0.389c0.385-0.249,0.84-0.389,1.326-0.389h0.647c0.029,0,0.059,0,0.088,0.002
					c0.028-0.002,0.057-0.002,0.085-0.002h2.321c0.254,0,0.505,0.04,0.742,0.116c0.327-0.08,0.661-0.116,1-0.116
					c0.323,0,0.643,0.033,0.954,0.105c0.228-0.07,0.466-0.105,0.708-0.105h2.73c1.342,0,2.433,1.09,2.433,2.433v0.76
					c0,0.834-0.422,1.571-1.064,2.01V111.422L60.354,111.422z M15.233,89.995c0.72-1.933,1.757-3.638,3.256-4.867
					c-0.461,0.222-0.897,0.47-1.242,0.731c-0.048,0.037-0.098,0.071-0.148,0.104c-0.994,0.645-1.953,1.559-2.07,2.802
					c-0.03,0.293-0.001,0.747,0.091,1.07C15.159,89.889,15.196,89.941,15.233,89.995L15.233,89.995z M25.037,83.685
					c0.517,0.278,0.969,0.714,1.308,1.35c0.569,1.068,0.52,2.412,0.128,3.531c-0.063,0.18-0.145,0.347-0.249,0.509L24.49,91.78
					c-0.753,1.307-1.251,3.887-1.541,5.379c-0.297,1.537-0.551,3.089-0.761,4.64c2.689,0.216,5.538,0.8,8.054,1.622
					c2.523-1.445,4.626-3.465,5.851-6.153c0.442-0.97,0.941-2.492,0.951-3.562c0-0.074,0.003-0.146,0.011-0.221
					c0.292-2.97-1.441-5.227-3.721-6.911c-1.3-0.96-3.042-1.921-4.584-2.437C27.529,83.849,26.283,83.693,25.037,83.685
					L25.037,83.685z M38.584,106.901c-0.213,0.141-0.43,0.278-0.649,0.415c0.128,0.093,0.256,0.184,0.382,0.276
					c0.09,0.062,0.179,0.127,0.267,0.19V106.901L38.584,106.901z M41.144,122.775h-0.15c-0.215,0-0.424-0.03-0.626-0.083
					c-0.201,0.249-0.414,0.487-0.636,0.718C40.22,123.248,40.69,123.039,41.144,122.775L41.144,122.775z M30.382,110.48
					c-2.503,0.938-5.749,1.406-8.521,1.597l0.192,6.119c2.055,1.496,4.598,2.316,7.118,1.631c1.77-0.479,3.433-1.741,3.974-3.55
					C33.865,113.864,32.241,111.826,30.382,110.48z"/>
				<path fill-rule="evenodd" clip-rule="evenodd" d="M60.354,111.422c0.608,0.035,1.156,0.296,1.562,0.699
					c0.44-0.436,1.045-0.704,1.711-0.704h0.607c0.863,0,1.622,0.452,2.054,1.131c0.199-0.054,0.405-0.079,0.616-0.079h0.601
					c1.341,0,2.433,1.091,2.433,2.433v1.539c0,0.504-0.052,1.01-0.182,1.499c0.16,0.53,0.222,1.09,0.222,1.643v0.76
					c0,1.341-1.091,2.434-2.433,2.434h-0.607c-0.281,0-0.555-0.051-0.81-0.14c-0.257,0.089-0.531,0.14-0.811,0.14h-0.602
					c-0.083,0-0.166-0.005-0.246-0.012c-0.082,0.007-0.165,0.012-0.245,0.012h-0.604c-0.063,0-0.125-0.002-0.188-0.009
					c-0.062,0.007-0.125,0.009-0.188,0.009h-2.558c-0.022,0-0.041,0-0.063,0c-0.087,0.253-0.217,0.498-0.392,0.72
					c-0.596,0.758-1.466,1.202-2.434,1.202c-0.982,0-1.863-0.459-2.458-1.234c-0.176-0.23-0.318-0.476-0.43-0.733
					c-0.117-0.021-0.23-0.056-0.342-0.094c-0.256,0.089-0.529,0.14-0.81,0.14h-0.602c-0.047,0-0.093-0.002-0.142-0.005
					c-0.049,0.003-0.095,0.005-0.142,0.005h-2.321c-0.079,0-0.156-0.005-0.235-0.011c-0.078,0.006-0.155,0.011-0.234,0.011h-0.608
					c-0.14,0-0.279-0.012-0.418-0.038c-0.907,5.291-4.319,8.754-8.622,10.406v-10.008c0.24-0.107,0.475-0.226,0.707-0.36h-0.15
					c-0.19,0-0.377-0.023-0.557-0.063V63.064l1.092,1.062c1.606-0.088,3.337,0.056,4.922,0.308c3.181,0.506,6.423,1.656,8.793,3.912
					c1.192,0.879,2.3,2.292,2.976,3.59c1.746,3.359,1.489,7.101,0.043,10.512c-0.045,0.103-0.095,0.203-0.153,0.299
					c-0.672,1.124-1.681,2.261-2.663,3.125c-2.167,1.907-4.842,3.017-7.759,2.661c-0.125-0.016-0.248-0.039-0.369-0.074
					c-0.458-0.128-0.923-0.302-1.383-0.511c1.68,3.556,1.482,7.568-0.488,11.33c-0.939,1.792-2.12,3.418-3.511,4.844
					c0.306,0.039,0.594,0.137,0.854,0.281c0.347-0.192,0.747-0.302,1.172-0.302h2.32c0.021,0,0.043,0,0.064,0.002
					c0.02-0.002,0.041-0.002,0.064-0.002h0.648c0.485,0,0.941,0.14,1.325,0.389c0.385-0.249,0.84-0.389,1.326-0.389h0.647
					c0.029,0,0.059,0,0.088,0.002c0.028-0.002,0.057-0.002,0.085-0.002h2.321c0.254,0,0.505,0.04,0.742,0.116
					c0.327-0.08,0.661-0.116,1-0.116c0.323,0,0.643,0.033,0.954,0.105c0.228-0.07,0.466-0.105,0.708-0.105h2.73
					c1.342,0,2.433,1.09,2.433,2.433v0.76c0,0.834-0.422,1.571-1.064,2.01V111.422z M40.437,133.144
					c-0.704,0.271-1.432,0.493-2.178,0.666v-26.259l0.058,0.042c0.09,0.062,0.179,0.127,0.267,0.19v-0.882
					c-0.107,0.07-0.216,0.141-0.325,0.212V60.95l2.178,2.115v59.647l-0.069-0.02c-0.201,0.249-0.414,0.487-0.636,0.718
					c0.24-0.082,0.475-0.171,0.706-0.274V133.144z M38.259,133.81c-2.762,0.643-5.754,0.617-8.621-0.07v-14.058
					c1.587-0.562,3.012-1.757,3.506-3.404c0.72-2.413-0.904-4.451-2.763-5.797c-0.24,0.09-0.488,0.177-0.743,0.257v-7.507
					c0.203,0.063,0.405,0.125,0.604,0.19c2.523-1.445,4.626-3.465,5.851-6.153c0.442-0.97,0.941-2.492,0.951-3.562
					c0-0.074,0.003-0.146,0.011-0.221c0.292-2.97-1.441-5.227-3.721-6.911c-1.054-0.779-2.401-1.561-3.696-2.101V56.266
					c2.811,0.589,6.024,2.518,8.179,4.265c0.055,0.047,0.11,0.094,0.162,0.145l0.28,0.274v46.164
					c-0.106,0.066-0.214,0.135-0.324,0.203l0.324,0.234V133.81z M29.639,133.739c-1.239-0.299-2.455-0.719-3.62-1.268
					c-1.208-0.516-2.924-1.118-4.232-1.208c-1.226-0.083-2.745,0.648-3.53,1.576c-0.344,0.41-0.791,0.683-1.313,0.805l-0.191,0.043
					V87.023c0.496-0.712,1.071-1.35,1.736-1.895c-0.461,0.222-0.897,0.47-1.242,0.731c-0.048,0.037-0.098,0.071-0.148,0.104
					c-0.117,0.074-0.231,0.154-0.346,0.237v-6.758c0.34-0.14,0.684-0.271,1.029-0.395c1.3-0.465,2.753-0.876,4.164-1.1
					c-1.245-0.595-2.35-1.443-3.215-2.578c-0.775-0.775-1.479-1.841-1.978-2.867V62.79c0.467-1.381,1.446-2.837,2.462-3.846
					c2.691-2.667,6.299-3.333,9.94-2.768c0.16,0.026,0.32,0.056,0.483,0.089v28.208c-0.3-0.125-0.599-0.238-0.888-0.335
					c-1.222-0.29-2.467-0.445-3.713-0.453c0.517,0.278,0.969,0.714,1.308,1.35c0.569,1.068,0.52,2.412,0.128,3.531
					c-0.063,0.18-0.145,0.347-0.249,0.509L24.49,91.78c-0.753,1.307-1.251,3.887-1.541,5.379c-0.297,1.537-0.551,3.089-0.761,4.64
					c2.477,0.198,5.087,0.709,7.45,1.432v7.507c-2.381,0.771-5.273,1.168-7.778,1.34l0.192,6.119
					c2.055,1.496,4.598,2.316,7.118,1.631c0.157-0.04,0.313-0.089,0.468-0.146V133.739z M16.753,133.688l-0.482,0.111
					c-0.725,0.167-1.466,0.002-2.051-0.457c-0.588-0.462-0.922-1.138-0.93-1.886c-0.027-2.376,0.726-4.615,2.224-6.465
					c0.217-0.269,0.453-0.533,0.702-0.785c-1.206-3.163-1.982-6.502-2.337-9.866c-0.104-0.974-0.182-1.962-0.209-2.947
					c-1.156-0.288-2.258-0.785-3.128-1.619c-2.263-2.168-1.718-5.148,0.855-6.754c0.643-0.4,1.401-0.684,2.173-0.869
					c0.024-1.512,0.07-3.193,0.215-4.914c-0.461,0.184-0.954,0.298-1.46,0.345c-0.685,0.064-1.375,0.011-2.049-0.12
					c-0.383-0.075-0.726-0.233-1.035-0.475c-3.665-2.88-3.128-8.228-0.521-11.612c2.082-2.7,4.907-4.647,8.034-5.931v6.758
					c-0.861,0.625-1.621,1.466-1.724,2.565c-0.03,0.293-0.001,0.747,0.091,1.07c0.038,0.053,0.076,0.105,0.112,0.159
					c0.401-1.074,0.9-2.081,1.521-2.972V133.688L16.753,133.688z M16.753,72.503c-0.093-0.194-0.182-0.388-0.261-0.577
					c-1.245-2.983-1.069-6.124,0.232-9.048l0.029-0.089V72.503z"/>
			</g>
			<path fill-rule="evenodd" clip-rule="evenodd" fill="#FFFFFF" d="M62.7,114.743c-0.006-0.041-0.008-0.084-0.008-0.128v-0.765
				c0-0.517,0.42-0.938,0.936-0.938h0.607c0.516,0,0.936,0.421,0.936,0.938v0.115h0.148c0.333,0,0.627,0.174,0.792,0.439
				c0.166-0.266,0.459-0.439,0.793-0.439h0.601c0.516,0,0.935,0.421,0.935,0.936v1.539c0,0.519-0.066,1.052-0.27,1.527
				c0.235,0.494,0.311,1.065,0.311,1.614v0.76c0,0.516-0.42,0.936-0.936,0.936h-0.607c-0.346,0-0.648-0.188-0.81-0.469
				c-0.162,0.28-0.464,0.469-0.811,0.469h-0.602c-0.086,0-0.168-0.012-0.246-0.033c-0.079,0.021-0.162,0.033-0.245,0.033h-0.604
				c-0.065,0-0.128-0.005-0.188-0.02c-0.06,0.015-0.123,0.02-0.188,0.02h-2.558c-0.087,0-0.174-0.012-0.255-0.034
				c-0.081,0.022-0.167,0.034-0.254,0.034h-0.601c-0.217,0-0.416-0.074-0.575-0.196c-0.016,0.063-0.035,0.128-0.059,0.188
				l0.113,0.143c0.27,0.343,0.27,0.813,0,1.159c-0.266,0.336-0.625,0.555-1.04,0.612v-5.486c0.029-0.023,0.06-0.051,0.091-0.071
				c-0.031-0.025-0.062-0.048-0.091-0.075v-3.579c0.238,0.016,0.454,0.06,0.648,0.126v-0.247c0-0.517,0.42-0.938,0.936-0.938h0.607
				c0.516,0,0.936,0.421,0.936,0.938v0.115h0.146c0.515,0,0.936,0.421,0.936,0.936v3.746h0.46v-3.746
				C62.686,114.848,62.691,114.796,62.7,114.743L62.7,114.743z M58.017,105.599h0.969c0.516,0,0.938,0.419,0.938,0.936v0.76
				c0,0.514-0.421,0.935-0.938,0.935h-0.129v3.746c0,0.483-0.369,0.884-0.839,0.932V105.599z M58.017,123.184
				c-0.071,0.01-0.143,0.014-0.218,0.014c-0.514,0-0.958-0.24-1.269-0.645c-0.274-0.36-0.407-0.784-0.407-1.23
				c0-0.021,0-0.037,0-0.055c-0.045,0.006-0.089,0.01-0.136,0.01H55.38c-0.345,0-0.647-0.188-0.81-0.469
				c-0.162,0.28-0.465,0.469-0.81,0.469h-0.602c-0.048,0-0.095-0.004-0.142-0.01c-0.046,0.006-0.094,0.01-0.142,0.01h-2.321
				c-0.081,0-0.159-0.01-0.235-0.03c-0.074,0.021-0.153,0.03-0.234,0.03h-0.608c-0.292,0-0.557-0.136-0.728-0.35
				c-0.171,0.214-0.435,0.35-0.729,0.35h-0.469c0.047,0.125,0.082,0.254,0.106,0.383c0.021,0.104,0.023,0.193,0.009,0.298
				c-0.184,1.368-0.549,2.603-1.062,3.706v-15.325h0.003l-0.002-0.005h0v-4.735h0.456c0.417,0,0.77,0.26,0.893,0.659l0.432,1.393
				l0.431-1.393c0.123-0.399,0.477-0.659,0.895-0.659h0.647c0.03,0,0.06,0,0.088,0.003c0.029-0.003,0.057-0.003,0.085-0.003h2.321
				c0.242,0,0.465,0.094,0.631,0.246c0.307-0.157,0.676-0.246,1.111-0.246c0.413,0,0.764,0.078,1.059,0.221
				c0.163-0.138,0.372-0.221,0.603-0.221h1.762v7.308c-0.032,0.004-0.063,0.004-0.096,0.004H57.32c-0.25,0-0.48-0.099-0.648-0.26
				c-0.167,0.161-0.396,0.26-0.648,0.26h-0.602c-0.358,0-0.669-0.202-0.828-0.499c-0.156,0.297-0.468,0.499-0.828,0.499h-0.607
				c-0.051,0-0.104-0.004-0.154-0.012c-0.05,0.008-0.101,0.012-0.153,0.012h-2.321c-0.466,0-0.854-0.345-0.925-0.793l-0.05,0.163
				c-0.123,0.398-0.477,0.659-0.893,0.659h-0.562c-0.418,0-0.771-0.261-0.894-0.659l-0.02-0.063
				c-0.078,0.29-0.292,0.525-0.567,0.632c0.353,0.134,0.604,0.476,0.604,0.875v0.261c0.063-0.013,0.126-0.019,0.193-0.019h1.199
				c0.497,0,0.914,0.106,1.255,0.297c0.17-0.182,0.415-0.297,0.683-0.297h2.321c0.048,0,0.095,0.003,0.142,0.012
				c0.046-0.009,0.094-0.012,0.142-0.012h0.602c0.333,0,0.627,0.174,0.792,0.439c0.166-0.266,0.46-0.439,0.794-0.439h0.602
				c0.265,0,0.504,0.11,0.675,0.289c0.322-0.185,0.717-0.289,1.192-0.289c0.069,0,0.135,0.002,0.2,0.006v3.579
				c-0.034-0.028-0.063-0.062-0.092-0.095v0.337c0.029-0.033,0.059-0.063,0.092-0.096V123.184L58.017,123.184z M46.604,65.979
				c2.78,0.491,5.627,1.531,7.677,3.52c1.039,0.738,2.038,2.03,2.611,3.13c1.536,2.955,1.264,6.236-0.008,9.237
				c-0.017,0.041-0.035,0.076-0.059,0.115c-0.583,0.975-1.523,2.026-2.367,2.769c-1.845,1.624-4.093,2.603-6.588,2.298
				c-0.05-0.006-0.094-0.014-0.142-0.029c-0.368-0.104-0.747-0.243-1.125-0.412V65.979z M46.604,125.664
				c-0.961,2.073-2.447,3.685-4.246,4.845v-6.728c0.922-0.613,1.797-1.441,2.618-2.535c-0.477-0.071-0.854-0.263-1.144-0.545
				c-0.019,0.02-0.036,0.037-0.056,0.057c-0.377,0.355-0.856,0.52-1.371,0.52h-0.048v-7.312h0.048c0.413,0,0.803,0.106,1.136,0.332
				v-0.574c0-0.348,0.19-0.652,0.471-0.813h-0.05c-0.067,0-0.131-0.007-0.195-0.021c-0.062,0.015-0.126,0.021-0.194,0.021h-1.216
				v-6.95c0.123,0.161,0.197,0.357,0.197,0.574v3.747h0.472v-3.747c0-0.517,0.42-0.936,0.936-0.936h2.32
				c0.021,0,0.043,0,0.063,0.001c0.021-0.001,0.042-0.001,0.066-0.001h0.192v4.735l-0.002,0.002l0.002,0.003V125.664L46.604,125.664
				z M42.358,65.599c1.278-0.007,2.662,0.124,3.856,0.313c0.129,0.021,0.26,0.043,0.389,0.066v20.628
				c-1.09-0.49-2.165-1.233-2.893-2.109l-0.824,1.496c2.88,3.365,3.692,7.896,1.236,12.589c-0.514,0.979-1.103,1.906-1.765,2.771
				V65.599z M42.358,130.509c-2.221,1.43-4.917,2.174-7.698,2.255v-7.509c2.784,0.281,5.388,0.065,7.698-1.474V130.509
				L42.358,130.509z M34.66,101.924v11.912c0.207,0.878,0.195,1.743,0,2.561v8.774c1.309-0.587,2.531-1.414,3.638-2.452
				c0.721-0.672,1.312-1.424,1.772-2.222c0.073,0.442,0.46,0.78,0.923,0.78h1.365v-7.312H41.05c-0.091-0.377-0.207-0.747-0.35-1.109
				c0.1,0.034,0.206,0.054,0.316,0.054h1.342v-6.95c-0.172-0.219-0.44-0.361-0.74-0.361h-0.603c-0.515,0-0.935,0.419-0.935,0.936
				v5.059c-0.627-1.049-1.497-1.996-2.615-2.77c-0.645-0.47-1.533-1.104-2.417-1.66c0.753-0.346,1.488-0.746,2.101-1.122
				c2.026-1.244,3.782-2.827,5.208-4.688V65.599c-0.281,0.001-0.557,0.009-0.823,0.026h-0.613l-3.987-3.875
				c-0.022-0.021-0.04-0.037-0.063-0.056c-0.634-0.514-1.391-1.063-2.213-1.589v25.596c2.483,1.973,4.215,4.597,3.886,7.93
				c-0.004,0.032-0.005,0.058-0.005,0.086c-0.01,1.281-0.565,3.031-1.086,4.171C36.755,99.424,35.803,100.766,34.66,101.924z
				 M34.66,132.764c-2.385,0.066-4.832-0.354-7.095-1.254v-9.945c3.558-0.097,6.421-2.343,7.095-5.168v8.774l-0.153,0.066
				l0.153,0.018V132.764L34.66,132.764z M27.565,104.211c0.986,0.246,1.938,0.528,2.82,0.839c1.59-0.839,3.042-1.876,4.275-3.126
				v11.912c-0.412-1.737-1.685-3.518-4.104-5.044c-0.862,0.387-1.889,0.705-2.991,0.961V104.211L27.565,104.211z M34.66,85.702
				c-0.143-0.112-0.288-0.223-0.436-0.333c-1.408-1.04-3.376-2.117-5.065-2.672c-0.528-0.126-1.061-0.231-1.594-0.311V57.504
				c0.452,0.028,0.906,0.079,1.36,0.151c1.821,0.277,3.935,1.303,5.735,2.45V85.702z M27.565,131.51
				c-0.322-0.129-0.642-0.265-0.956-0.413c-1.321-0.566-3.271-1.218-4.72-1.326c-0.17-0.011-0.344-0.012-0.521-0.002v-6.306
				c0.23-0.021,0.459-0.034,0.688-0.042c-0.233-0.171-0.463-0.351-0.688-0.535v-3.338c2.111,1.479,4.257,2.068,6.196,2.017V131.51
				L27.565,131.51z M21.369,85.169c1.189-0.454,2.919-0.811,3.654,0.57c0.366,0.686,0.287,1.617,0.037,2.33
				c-0.025,0.073-0.055,0.131-0.096,0.197L23.21,91c-0.847,1.447-1.411,4.224-1.729,5.873l-0.112,0.582V85.169L21.369,85.169z
				 M21.369,103.245c2.007,0.112,4.173,0.461,6.196,0.966v5.542c-2.005,0.468-4.254,0.735-6.196,0.856v-2.937
				c1.382-0.145,2.99-0.373,4.36-0.697c-1.459-0.417-2.826-0.599-4.36-0.716V103.245L21.369,103.245z M27.565,82.386
				c-2.065-0.313-4.157-0.268-6.196,0.181v-2.987c0.601-0.126,1.194-0.222,1.756-0.272c0.531-0.037,1.063-0.053,1.595-0.049
				c0.593,0.003,1.188,0.03,1.786,0.077l0.055-1.803c-0.633-0.026-1.284-0.113-1.844-0.229c-1.22-0.255-2.367-0.718-3.348-1.43
				V59.083c1.815-1.276,3.973-1.714,6.196-1.579V82.386z M21.369,129.769c-1.567,0.081-3.27,0.938-4.256,2.108
				c-0.136,0.161-0.298,0.262-0.505,0.308l-0.674,0.156c-0.285,0.066-0.558,0.004-0.789-0.176c-0.23-0.181-0.354-0.432-0.356-0.725
				c-0.025-2.031,0.612-3.928,1.89-5.509c0.352-0.433,0.82-0.918,1.312-1.313c-1.373-3.319-2.245-6.871-2.622-10.436
				c-0.134-1.264-0.235-2.702-0.206-4.04c-0.232-0.028-0.465-0.065-0.698-0.109v-2.883c0.189,0.078,0.393,0.138,0.596,0.186
				l-0.021-1.074c-0.197,0.042-0.396,0.094-0.575,0.157v-2.925c0.197-0.033,0.394-0.062,0.587-0.081
				c0.075-5.88,0.129-15.866,6.301-18.239l0.017-0.006v12.286c-0.351,1.893-0.644,3.837-0.866,5.756
				c0.285,0.006,0.574,0.019,0.866,0.034v3.015c-0.343-0.026-0.696-0.05-1.059-0.07v1.584c0.329-0.028,0.687-0.061,1.059-0.101
				v2.937c-0.361,0.021-0.713,0.039-1.05,0.052l0.264,8.476c0.166,0.015,0.328,0.077,0.47,0.184
				c0.106,0.079,0.211,0.151,0.316,0.228v3.338c-0.234-0.193-0.462-0.393-0.687-0.597l0.04,1.251
				c0.214-0.033,0.431-0.059,0.647-0.077V129.769L21.369,129.769z M21.369,82.566v-2.987c-1.069,0.225-2.153,0.546-3.083,0.878
				c-1.332,0.478-2.621,1.077-3.823,1.808v4.072c0.487-0.64,1.126-1.179,1.821-1.63c0.019-0.013,0.037-0.024,0.056-0.04
				c0.916-0.696,2.407-1.329,3.48-1.68C20.333,82.82,20.851,82.68,21.369,82.566L21.369,82.566z M14.464,91.635v3.266l0.043-0.061
				C15.168,93.834,14.967,92.658,14.464,91.635L14.464,91.635z M21.369,75.872c-0.565-0.411-1.076-0.906-1.509-1.49
				c-0.812-0.785-1.564-2.021-1.986-3.033c-1.097-2.629-0.914-5.364,0.252-7.938c0.369-1.205,1.274-2.541,2.144-3.405
				c0.35-0.346,0.717-0.653,1.099-0.923V75.872z M14.464,110.034c-1.069-0.207-2.118-0.605-2.885-1.341
				c-1.56-1.494-1.131-3.317,0.611-4.404c0.625-0.39,1.452-0.653,2.274-0.794v2.925c-0.258,0.092-0.479,0.208-0.596,0.354
				c0.146,0.155,0.357,0.279,0.596,0.378V110.034L14.464,110.034z M14.464,86.337c-0.5,0.653-0.843,1.412-0.925,2.286
				c-0.055,0.571,0.017,1.367,0.247,1.924c0.25,0.328,0.486,0.696,0.678,1.087v3.266c-0.526,0.748-1.387,1.105-2.279,1.19
				c-0.539,0.052-1.089,0.006-1.62-0.099c-0.152-0.03-0.277-0.088-0.398-0.183c-2.996-2.354-2.357-6.799-0.26-9.521
				c1.26-1.634,2.817-2.967,4.557-4.023V86.337z"/>
			<g>
				<path fill-rule="evenodd" clip-rule="evenodd" fill="#F58220" d="M23.939,81.28c1.634-0.092,3.471,0.031,5.476,0.517
					c0,0,10.892,3.526,10.062,11.927c0,0-0.052,7.832-9.026,12.344c0,0-2.887-1.069-6.512-1.615v1.147
					c1.371,0.237,2.863,0.646,4.565,1.386c-1.059,0.597-2.849,1.007-4.565,1.284v1.148c2.279-0.275,4.915-0.776,6.669-1.691
					c10.775,6.327,2.72,17.47-6.669,14.202v1.61c4.394,2.562,9.555,2.386,13.72-1.504c3.858-3.605,3.55-9.489-0.724-12.441
					c0,0-2.853-2.075-4.148-2.593c0,0,6.775-1.725,10.506-8.853c3.304-6.31,0.264-12.417-6.305-15.265c0,0-6.676-2.88-13.049-2.682
					V81.28L23.939,81.28z M23.939,88.131v-2.25c0.714,0.515,0.237,1.878,0.237,1.878L23.939,88.131L23.939,88.131z M23.939,129.202
					v-4.779c1.195,0.115,2.414,0.342,3.656,0.565c6.643,1.196,13.587,3.475,18.52-3.726c0.467-0.258,0.623,0.57,0.623,0.57
					c-1.243,9.302-11.727,12.176-19.76,8.403C25.81,129.735,24.768,129.412,23.939,129.202z M14.432,84.978
					c0.374-0.359,0.816-0.712,1.344-1.054c0,0,3.1-2.355,8.164-2.644v-1.077c-0.25,0.008-0.5,0.02-0.749,0.037
					c0,0-4.564,0.408-8.759,3.158V84.978L14.432,84.978z M23.939,104.453c-1.424-0.216-2.96-0.348-4.481-0.305
					c0,0,1.088-10.476,2.956-13.638l1.525-2.379v-2.25c-0.366-0.264-1.041-0.307-2.251,0.167
					c-5.888,2.237-5.621,12.814-5.716,18.257c0,0-0.701-0.01-1.541,0.151v0.997c0.543-0.154,1.114-0.224,1.521-0.288l0.063,3.231
					c0,0-0.783-0.007-1.584-0.264v0.938c0.483,0.107,1.048,0.184,1.706,0.211c0,0-0.569,7.521,3.009,15.664
					c0,0-3.475,2.022-3.423,6.483l0.674-0.156c0,0,2.229-2.645,5.548-2.438c0,0,0.76,0.056,1.993,0.366v-4.779
					c-1.407-0.134-2.78-0.111-4.118,0.265l-0.466-14.937c0,0,2.077-0.028,4.584-0.332v-1.148c-2.353,0.377-4.566,0.505-4.566,0.505
					v-3.578c1.452,0.081,2.922,0.121,4.566,0.403V104.453L23.939,104.453z M23.939,121.93v1.61c-1.239-0.722-2.418-1.66-3.496-2.795
					c-0.208-0.466,0.052-0.672,0.052-0.672C21.641,120.926,22.8,121.531,23.939,121.93z M12.975,91.028c0,0-1.514-3.193,1.457-6.05
					v-1.58c-1.356,0.887-2.673,2.02-3.784,3.462c-1.798,2.334-2.463,6.202,0.098,8.212c0.497,0.099,0.952,0.124,1.353,0.087
					C14.063,94.974,14.73,93.262,12.975,91.028L12.975,91.028z M14.432,104.457c-0.578,0.11-1.223,0.299-1.747,0.627
					c-1.229,0.768-1.565,1.873-0.459,2.933c0.426,0.408,1.109,0.812,2.207,1.055v-0.938c-0.652-0.208-1.316-0.578-1.586-1.242
					c0.083-0.817,0.803-1.215,1.586-1.438V104.457z"/>
				<g>
					<g>
						
							<path fill-rule="evenodd" clip-rule="evenodd" fill="none" stroke="#000000" stroke-width="0.1491" stroke-miterlimit="22.9256" d="
							M27.525,76.58c0,0-4.621,0.42-6.959-2.819c0,0-4.32-4.02-1.561-10.021c0,0,1.86-6.418,9.779-5.16c0,0,3.359,0.48,7.5,3.841
							l4.261,4.139h1.019c0,0,7.92-0.479,12.118,3.661c0,0,5.521,3.779,2.342,11.279c0,0-3.121,5.22-8.04,4.619
							c0,0-2.539-0.714-3.781-2.521l-0.776-0.716l-1.677,3.234c0,0-2.029-2.156-7.407-4.197l0,0l-3.986-1.383l3.986,1.383
							l-0.936-0.323l-1.727-0.499l-1.491-0.307c-1.51-0.31-2.779-0.426-2.779-0.426C27.43,79.713,27.525,76.58,27.525,76.58z"/>
						<path fill-rule="evenodd" clip-rule="evenodd" fill="#FFFFFF" d="M27.525,76.58c0,0-4.621,0.42-6.959-2.819
							c0,0-4.32-4.02-1.561-10.021c0,0,1.86-6.418,9.779-5.16c0,0,3.359,0.48,7.5,3.841l4.261,4.139h1.019
							c0,0,7.92-0.479,12.118,3.661c0,0,5.521,3.779,2.342,11.279c0,0-3.121,5.22-8.04,4.619c0,0-2.539-0.714-3.781-2.521
							l-0.776-0.716l-1.677,3.234c0,0-2.029-2.156-7.407-4.197l0,0l-3.986-1.383l3.986,1.383l-0.936-0.323l-1.727-0.499
							l-1.491-0.307c-1.51-0.31-2.779-0.426-2.779-0.426C27.43,79.713,27.525,76.58,27.525,76.58z"/>
					</g>
					
						<path fill-rule="evenodd" clip-rule="evenodd" fill="none" stroke="#000000" stroke-width="0.1491" stroke-miterlimit="22.9256" d="
						M27.411,80.365l0.114-3.785c0,0-0.181-1.439,1.858-1.079c0,0,8.88,1.379,13.08,5.819c0,0,1.381,1.021,0.84,1.979l-1.553,2.818
						c0,0-2.575-2.959-7.407-4.197c0,0-3.484-1.163-5.962-1.425C30.859,80.756,27.411,80.365,27.411,80.365z"/>
					
						<path fill-rule="evenodd" clip-rule="evenodd" fill="none" stroke="#000000" stroke-width="0.1491" stroke-miterlimit="22.9256" d="
						M33.668,64.983c0,0,2.475,1.689,4.675,1.633l2.202-0.056"/>
					
						<path fill-rule="evenodd" clip-rule="evenodd" fill="none" stroke="#000000" stroke-width="0.1491" stroke-miterlimit="22.9256" d="
						M28.585,75.45c0,0-2.118-1.238-2.179-2.983"/>
					
						<path fill-rule="evenodd" clip-rule="evenodd" fill="none" stroke="#000000" stroke-width="0.1491" stroke-miterlimit="22.9256" d="
						M27.805,75.765c0,0-1.184-0.725-1.766-1.583"/>
					
						<path fill-rule="evenodd" clip-rule="evenodd" fill="none" stroke="#000000" stroke-width="0.1491" stroke-miterlimit="22.9256" d="
						M43.086,81.95c0,0,2.862,0.961,4.394-0.601"/>
					
						<path fill-rule="evenodd" clip-rule="evenodd" fill="none" stroke="#000000" stroke-width="0.1491" stroke-miterlimit="22.9256" d="
						M43.373,82.483c0,0,1.626,1.01,2.82,0.735"/>
				</g>
				<g>
					<path d="M48.749,118.395v-0.767c0.225-0.017,0.39-0.077,0.499-0.182c0.154-0.147,0.229-0.414,0.229-0.802
						c0-0.379-0.077-0.646-0.236-0.799c-0.106-0.104-0.271-0.164-0.492-0.182v-0.758c0.891,0.049,1.336,0.63,1.336,1.738
						c0,0.611-0.145,1.063-0.435,1.363l0,0c0.29,0.295,0.435,0.748,0.435,1.36v0.974h-0.608v-0.974c0-0.379-0.077-0.646-0.236-0.793
						C49.134,118.472,48.969,118.412,48.749,118.395L48.749,118.395z M48.749,111.725v-2.089l0.961-3.102h0.647L48.749,111.725
						L48.749,111.725z M52.852,111.975h-2.321v-5.44h2.321v0.76h-1.712v1.59h1.406v0.758h-1.406v1.575h1.712V111.975L52.852,111.975
						z M56.023,111.975h-0.602v-3.486c0-0.399-0.052-0.687-0.156-0.863c-0.126-0.222-0.352-0.331-0.672-0.331
						c-0.32,0-0.543,0.109-0.671,0.331c-0.104,0.177-0.157,0.464-0.157,0.863v3.486h-0.607v-3.48c0-1.307,0.478-1.96,1.435-1.96
						c0.954,0,1.43,0.653,1.43,1.96V111.975L56.023,111.975z M58.986,107.294h-1.064v4.681H57.32v-4.681h-1.064v-0.76h2.73V107.294
						L58.986,107.294z M52.875,120.342h-2.321v-5.44h2.321v0.758h-1.713v1.59h1.406v0.759h-1.406v1.574h1.713V120.342
						L52.875,120.342z M55.989,120.342H55.38v-0.76c0-0.396-0.052-0.683-0.156-0.859c-0.127-0.222-0.352-0.331-0.672-0.331h-0.792
						v1.95h-0.602v-5.44h0.602v2.73h0.758c0.321,0,0.544-0.107,0.672-0.323c0.104-0.179,0.156-0.466,0.156-0.866v-1.541h0.602v1.539
						c0,0.7-0.148,1.218-0.441,1.553l0,0c0.321,0.324,0.48,0.855,0.48,1.589V120.342L55.989,120.342z M59.253,118.392
						c0,1.156-0.383,1.8-1.146,1.928v0.442l-0.006,0.006c0,0.104-0.03,0.192-0.087,0.266c-0.059,0.074-0.132,0.111-0.217,0.111
						c-0.031,0-0.063,0.018-0.093,0.059c-0.031,0.042-0.046,0.082-0.046,0.121c0,0.121,0.045,0.18,0.138,0.18
						c0.043,0,0.075-0.019,0.099-0.057l0.429,0.543c-0.144,0.182-0.316,0.272-0.522,0.272c-0.208,0-0.383-0.093-0.527-0.278
						c-0.142-0.188-0.212-0.406-0.212-0.662c0-0.182,0.04-0.352,0.122-0.509c0.081-0.157,0.187-0.272,0.318-0.347v-0.154
						c-0.746-0.147-1.118-0.788-1.118-1.921v-1.531c0-1.307,0.479-1.959,1.435-1.959c0.958,0,1.436,0.652,1.436,1.959h-0.607
						c0-0.399-0.052-0.689-0.156-0.867c-0.127-0.225-0.352-0.334-0.672-0.334c-0.319,0-0.544,0.109-0.67,0.333
						c-0.104,0.176-0.157,0.465-0.157,0.862v1.534c0,0.399,0.053,0.686,0.157,0.863c0.126,0.215,0.351,0.324,0.67,0.324
						c0.321,0,0.545-0.109,0.672-0.324c0.104-0.178,0.156-0.464,0.156-0.86H59.253L59.253,118.392z M60.179,120.342h-0.601v-5.44
						h0.601V120.342L60.179,120.342z M63.246,120.342h-2.558v-5.44h0.602v4.681h1.956V120.342L63.246,120.342z M64.226,120.342
						h-0.604v-5.44h0.604V120.342L64.226,120.342z M67.546,120.342h-0.607v-0.76c0-0.396-0.053-0.683-0.157-0.859
						c-0.127-0.222-0.351-0.331-0.671-0.331h-0.792v1.95h-0.603v-5.44h0.603v2.73h0.758c0.32,0,0.545-0.107,0.672-0.323
						c0.104-0.179,0.156-0.466,0.156-0.866v-1.541h0.601v1.539c0,0.7-0.147,1.218-0.44,1.553l0,0c0.321,0.324,0.48,0.855,0.48,1.589
						V120.342z M48.749,109.636v2.089l-0.087,0.278h-0.561l-1.689-5.469h0.648l1.325,4.277L48.749,109.636L48.749,109.636z
						 M48.749,114.906v0.758c-0.043-0.004-0.086-0.005-0.133-0.005H48.02v1.973h0.596c0.046,0,0.089-0.001,0.133-0.004v0.767
						c-0.043-0.001-0.086-0.003-0.133-0.003H48.02v1.95h-0.603v-5.44h1.199C48.662,114.901,48.706,114.901,48.749,114.906
						L48.749,114.906z M45.406,120.342v-0.76c0.318,0,0.541-0.107,0.67-0.323c0.103-0.185,0.156-0.471,0.156-0.865v-1.536
						c0-0.4-0.053-0.688-0.156-0.865c-0.13-0.224-0.353-0.333-0.67-0.333v-0.758c0.956,0,1.434,0.653,1.434,1.959l0,0v1.531
						C46.84,119.689,46.361,120.341,45.406,120.342L45.406,120.342z M45.406,111.975v-0.758h0.877v0.758H45.406L45.406,111.975z
						 M45.406,109.642v-0.758h0.571v0.758H45.406L45.406,109.642z M45.406,107.294v-0.76h0.877v0.76H45.406L45.406,107.294z
						 M46.288,114.483h-0.601v-0.76h0.601V114.483z M43.574,111.975h-1.304v-0.758h1.304V111.975L43.574,111.975z M45.406,106.534
						v0.76H44.57v1.59h0.835v0.758H44.57v1.575h0.835v0.758h-1.442v-5.44H45.406L45.406,106.534z M45.406,114.901v0.758h-0.001
						c-0.319,0-0.542,0.109-0.668,0.333c-0.102,0.177-0.155,0.465-0.155,0.865v1.536c0,0.401,0.053,0.688,0.155,0.865
						c0.126,0.216,0.349,0.323,0.668,0.323h0.001v0.76h-0.001c-0.954,0-1.43-0.65-1.43-1.95v-1.531
						C43.975,115.554,44.451,114.901,45.406,114.901L45.406,114.901L45.406,114.901z M42.271,120.342v-0.76h0.136
						c0.211,0,0.356-0.065,0.439-0.199c0.066-0.112,0.098-0.309,0.098-0.583c0-0.276-0.032-0.472-0.098-0.585
						c-0.083-0.14-0.228-0.207-0.439-0.207h-0.136v-0.759h0.136c0.211,0,0.356-0.069,0.439-0.208
						c0.066-0.114,0.098-0.309,0.098-0.588l0,0c0-0.276-0.032-0.473-0.098-0.585c-0.083-0.139-0.228-0.209-0.439-0.209h-0.136
						v-0.758h0.136c0.297,0,0.539,0.088,0.729,0.265c0.274,0.26,0.411,0.69,0.411,1.287l0,0c0,0.523-0.103,0.911-0.306,1.173
						c0.204,0.26,0.306,0.65,0.306,1.169c0,0.594-0.137,1.022-0.411,1.281c-0.189,0.177-0.431,0.266-0.729,0.266H42.271
						L42.271,120.342z M45.081,114.483h-0.602v-0.76h0.602V114.483z M42.271,111.975h-1.254v-5.44h0.603v4.683h0.652V111.975
						L42.271,111.975z M42.271,114.901v0.758h-0.674v1.59h0.674v0.759h-0.674v1.574h0.674v0.76h-1.277v-5.44H42.271z"/>
					<path d="M60.208,114.615h-0.607v-0.765h0.607V114.615z"/>
					<path d="M64.234,114.615h-0.607v-0.765h0.607V114.615z"/>
				</g>
			</g>
		</g>
		<path fill="#FFFFFF" d="M56.985,65.407c0.3,0,0.594,0.077,0.882,0.231c0.285,0.154,0.509,0.376,0.669,0.664
			c0.16,0.287,0.24,0.587,0.24,0.897c0,0.31-0.079,0.607-0.237,0.893c-0.157,0.285-0.378,0.506-0.663,0.664
			c-0.284,0.158-0.582,0.236-0.891,0.236h-0.002v-0.295h0.002c0.258,0,0.506-0.068,0.742-0.2c0.238-0.132,0.424-0.317,0.555-0.554
			c0.131-0.237,0.197-0.483,0.197-0.743c0-0.259-0.068-0.508-0.201-0.748c-0.135-0.24-0.32-0.425-0.561-0.554
			c-0.238-0.13-0.483-0.194-0.732-0.194h-0.002v-0.297H56.985L56.985,65.407z M56.983,67.473c0.077,0.075,0.173,0.213,0.286,0.414
			l0.17,0.303h0.378l-0.234-0.377c-0.112-0.18-0.208-0.307-0.286-0.382c-0.041-0.04-0.096-0.074-0.164-0.102
			c0.167-0.014,0.301-0.072,0.401-0.176c0.102-0.104,0.152-0.227,0.152-0.368c0-0.1-0.03-0.194-0.09-0.282
			c-0.061-0.09-0.142-0.151-0.244-0.186c-0.082-0.029-0.205-0.047-0.37-0.052v0.264c0.089,0.005,0.154,0.015,0.193,0.031
			c0.055,0.022,0.1,0.055,0.131,0.1c0.031,0.045,0.048,0.096,0.048,0.152c0,0.089-0.035,0.161-0.1,0.214
			c-0.053,0.042-0.143,0.069-0.273,0.079V67.473z M56.983,68.992c-0.309,0-0.606-0.079-0.892-0.236
			c-0.283-0.158-0.505-0.379-0.663-0.664c-0.159-0.286-0.237-0.583-0.237-0.893c0-0.311,0.08-0.611,0.241-0.897
			c0.161-0.288,0.384-0.51,0.671-0.664c0.287-0.155,0.58-0.231,0.88-0.231v0.297c-0.25,0-0.497,0.064-0.734,0.194
			c-0.239,0.129-0.425,0.314-0.56,0.554c-0.134,0.24-0.202,0.489-0.202,0.748c0,0.26,0.067,0.506,0.199,0.743
			c0.132,0.237,0.317,0.422,0.555,0.554c0.238,0.132,0.484,0.2,0.742,0.2V68.992L56.983,68.992z M56.983,66.265l-0.122-0.001h-0.665
			v1.927h0.313v-0.818h0.183c0.109,0,0.192,0.021,0.249,0.064c0.013,0.011,0.028,0.023,0.042,0.037v-0.37
			c-0.03,0.001-0.061,0.001-0.097,0.001h-0.376v-0.579h0.354c0.045,0,0.084,0,0.12,0.002V66.265z"/>
	</g>
	<g>
		<path fill="#F58220" d="M115.756,121.797v-2.232c1.102-0.049,1.913-0.224,2.438-0.525c0.754-0.433,1.131-1.211,1.131-2.33
			c0-1.108-0.385-1.885-1.158-2.332c-0.524-0.303-1.326-0.477-2.41-0.524v-2.209c4.361,0.149,6.543,1.837,6.543,5.065
			c0,1.77-0.709,3.089-2.124,3.96l0,0c1.415,0.856,2.124,2.178,2.124,3.963v2.824h-2.975v-2.824c0-1.114-0.385-1.887-1.158-2.315
			C117.642,122.02,116.84,121.844,115.756,121.797L115.756,121.797z M135.949,127.456h-11.356v-15.822h11.356v2.205h-8.384v4.623
			h6.88v2.207h-6.88v4.581h8.384V127.456L135.949,127.456z M151.184,127.456h-2.975v-2.206c0-1.155-0.256-1.99-0.767-2.505
			c-0.62-0.642-1.715-0.963-3.281-0.963h-3.88v5.674h-2.947v-15.822h2.947v7.942h3.708c1.567,0,2.661-0.313,3.284-0.945
			c0.511-0.513,0.765-1.353,0.765-2.513v-4.484h2.947v4.476c0,2.04-0.718,3.546-2.155,4.516l0,0c1.57,0.942,2.354,2.484,2.354,4.625
			V127.456L151.184,127.456z M167.152,121.782c0,3.368-1.865,5.24-5.604,5.608v1.287l-0.029,0.021c0,0.299-0.14,0.557-0.43,0.77
			c-0.287,0.214-0.643,0.323-1.063,0.323c-0.155,0-0.306,0.056-0.457,0.174c-0.156,0.117-0.231,0.231-0.231,0.351
			c0,0.35,0.228,0.524,0.68,0.524c0.209,0,0.367-0.059,0.481-0.171l2.098,1.584c-0.7,0.526-1.55,0.791-2.551,0.791
			c-1.021,0-1.879-0.271-2.577-0.813c-0.697-0.543-1.047-1.185-1.047-1.927c0-0.529,0.2-1.021,0.594-1.479
			c0.398-0.456,0.917-0.792,1.559-1.005v-0.45c-3.644-0.429-5.465-2.292-5.465-5.589v-4.453c0-3.799,2.341-5.695,7.022-5.695
			s7.021,1.896,7.021,5.695h-2.971c0-1.164-0.256-2.002-0.766-2.52c-0.622-0.646-1.718-0.971-3.284-0.971
			c-1.567,0-2.663,0.323-3.286,0.964c-0.51,0.517-0.764,1.351-0.764,2.512v4.461c0,1.158,0.254,1.994,0.764,2.514
			c0.623,0.626,1.719,0.941,3.286,0.941c1.566,0,2.662-0.315,3.284-0.941c0.51-0.515,0.766-1.35,0.766-2.507H167.152
			L167.152,121.782z M171.685,127.456h-2.945v-15.822h2.945V127.456L171.685,127.456z M186.694,127.456h-12.517v-15.822h2.943
			v13.616h9.573V127.456L186.694,127.456z M191.478,127.456h-2.944v-15.822h2.944V127.456L191.478,127.456z M207.733,127.456h-2.974
			v-2.206c0-1.155-0.254-1.99-0.765-2.505c-0.623-0.642-1.717-0.963-3.283-0.963h-3.881v5.674h-2.944v-15.822h2.944v7.942h3.708
			c1.566,0,2.664-0.313,3.285-0.945c0.512-0.513,0.765-1.353,0.765-2.513v-4.484h2.946v4.476c0,2.04-0.717,3.546-2.152,4.516l0,0
			c1.565,0.942,2.351,2.484,2.351,4.625V127.456z M115.756,111.644v2.209c-0.206-0.01-0.422-0.014-0.65-0.014h-2.914v5.737h2.914
			c0.229,0,0.444-0.004,0.65-0.012v2.232c-0.206-0.011-0.422-0.015-0.65-0.015h-2.914v5.674h-2.946v-15.822h5.86
			C115.329,111.634,115.546,111.637,115.756,111.644L115.756,111.644z M99.405,127.456v-2.206c1.55-0.001,2.64-0.316,3.276-0.945
			c0.503-0.53,0.758-1.365,0.758-2.516v-4.467c0-1.163-0.255-2-0.758-2.516c-0.636-0.645-1.726-0.966-3.276-0.968v-2.205
			c4.671,0.003,7.008,1.901,7.008,5.695l0,0v4.453C106.413,125.562,104.076,127.453,99.405,127.456L99.405,127.456z
			 M103.723,110.413h-2.946v-2.207h2.946V110.413z M90.299,122.96c0,1.728-0.669,2.969-2.009,3.727
			c-0.926,0.513-2.115,0.77-3.57,0.77h-0.664v-2.206h0.664c1.039,0,1.758-0.192,2.153-0.581c0.321-0.328,0.48-0.895,0.48-1.698
			c0-0.803-0.16-1.371-0.48-1.698c-0.396-0.403-1.115-0.604-2.153-0.604h-0.664v-2.207h0.664c1.039,0,1.758-0.203,2.153-0.605
			c0.321-0.328,0.48-0.897,0.48-1.705l0,0c0-0.807-0.16-1.377-0.48-1.707c-0.396-0.401-1.115-0.605-2.153-0.605h-0.664v-2.205h0.664
			c1.455,0,2.644,0.257,3.57,0.771c1.339,0.755,2.009,2.004,2.009,3.747l0,0c0,1.514-0.5,2.648-1.5,3.403
			C89.799,120.313,90.299,121.447,90.299,122.96L90.299,122.96z M99.405,111.634v2.205H99.39c-1.558,0-2.643,0.323-3.262,0.968
			c-0.504,0.516-0.759,1.353-0.759,2.516v4.467c0,1.165,0.254,1.998,0.759,2.516c0.62,0.633,1.704,0.945,3.262,0.945h0.015v2.206
			H99.39c-4.664,0-6.995-1.891-6.995-5.674v-4.453c0-3.799,2.331-5.695,6.995-5.695H99.405L99.405,111.634z M97.804,110.413h-2.945
			v-2.207h2.945V110.413z M84.057,127.456h-6.245v-15.822h6.245v2.205h-3.3v4.623h3.3v2.207h-3.3v4.581h3.3V127.456z"/>
		<path fill="#F58220" d="M171.753,110.001h-2.974v-2.227h2.974V110.001z"/>
		<path fill="#F58220" d="M191.466,110.001h-2.974v-2.227h2.974V110.001z"/>
	</g>
	<path fill="#F58220" d="M86.006,92.728H72.629V74.902h3.146v15.34h10.231V92.728L86.006,92.728z M100.168,92.728H88.033V74.902
		h12.136v2.483H91.21v5.211h7.354v2.485H91.21v5.161h8.958V92.728L100.168,92.728z M121.474,74.902l-8.868,17.922h-2.935
		l-8.838-17.922h3.39l6.931,14.015l6.93-14.015H121.474L121.474,74.902z M134.517,92.728h-12.134V74.902h12.134v2.483h-8.959v5.211
		h7.354v2.485h-7.354v5.161h8.959V92.728L134.517,92.728z M151.1,92.728h-3.149v-11.43c0-1.303-0.27-2.243-0.814-2.827
		c-0.665-0.724-1.837-1.086-3.509-1.086c-1.676,0-2.846,0.362-3.513,1.086c-0.546,0.584-0.815,1.524-0.815,2.827v11.43h-3.178
		V81.318c0-4.279,2.502-6.417,7.506-6.417c4.983,0,7.473,2.138,7.473,6.417V92.728L151.1,92.728z M166.593,77.385h-5.568v15.342
		h-3.145V77.385h-5.57v-2.483h14.283V77.385z"/>
</g>
</svg>
