<?xml version="1.0" encoding="utf-8"?>
<!-- Generator: Adobe Illustrator 24.0.1, SVG Export Plug-In . SVG Version: 6.00 Build 0)  -->
<svg version="1.1" id="Layer_1" xmlns="http://www.w3.org/2000/svg" xmlns:xlink="http://www.w3.org/1999/xlink" x="0px" y="0px"
	 viewBox="0 0 216 188" style="enable-background:new 0 0 216 188;" xml:space="preserve">
<style type="text/css">
	.st0{fill-rule:evenodd;clip-rule:evenodd;fill:#00A551;}
	.st1{fill-rule:evenodd;clip-rule:evenodd;fill:#A5CD39;}
	.st2{fill-rule:evenodd;clip-rule:evenodd;fill:#FFD900;}
	.st3{fill-rule:evenodd;clip-rule:evenodd;fill:#FFFFFF;}
</style>
<g>
	<path class="st0" d="M98.9-208.3L98.9-208.3L98.9-208.3L98.9-208.3L98.9-208.3L98.9-208.3L98.9-208.3L98.9-208.3L98.9-208.3
		L98.9-208.3L98.9-208.3L98.9-208.3L98.9-208.3L98.9-208.3L98.9-208.3L98.9-208.3L98.9-208.3L98.9-208.3L98.9-208.3L98.9-208.3
		L98.9-208.3L98.9-208.3L98.9-208.3L98.9-208.3L98.9-208.3L98.9-208.3C98.9-208.2,98.9-208.2,98.9-208.3L98.9-208.3L98.9-208.3
		L98.9-208.3L98.9-208.3L98.9-208.3L98.9-208.3L98.9-208.3L98.9-208.3L98.9-208.3L98.9-208.3L98.9-208.3L98.9-208.3L98.9-208.3
		L98.9-208.3L98.9-208.3L98.9-208.3L98.9-208.3L98.9-208.3L98.9-208.3L98.9-208.3L98.9-208.3L98.9-208.3L98.9-208.3L98.9-208.3
		C98.9-208.3,98.9-208.3,98.9-208.3L98.9-208.3L98.9-208.3z M75.7-248.5c0.3-6.3,1.5-11.9,2.8-16c3.5,2.3,8.1,5.9,12.4,10.4
		c2.4-5.8,5.5-10.7,8.1-14.1c2.5,3.4,5.6,8.3,8.1,14.1c4.3-4.6,8.8-8.2,12.4-10.4c1.2,4,2.4,9.7,2.8,16c5.6-2.9,11.1-4.6,15.2-5.6
		c-0.2,4.2-1,10-2.9,15.9c6.2-0.8,12-0.6,16.2,0c-1.6,3.9-4.4,9-8.1,14c6.1,1.4,11.5,3.6,15.2,5.5c-2.9,3.1-7.2,7-12.4,10.4
		c5.3,3.4,9.6,7.3,12.4,10.4c-3.8,1.9-9.1,4.1-15.2,5.5c3.8,5,6.5,10.1,8.1,14c-4.2,0.5-10,0.7-16.2,0c1.8,6,2.6,11.7,2.9,15.9
		c-4.1-0.9-9.6-2.7-15.2-5.6c-0.3,6.3-1.5,11.9-2.8,16c-3.5-2.3-8.1-5.9-12.4-10.4c-2.4,5.8-5.5,10.7-8.1,14.1
		c-2.5-3.4-5.6-8.3-8.1-14.1c-4.3,4.6-8.8,8.2-12.4,10.4c-1.2-4-2.4-9.7-2.8-16c-5.6,2.9-11.1,4.6-15.2,5.6c0.2-4.2,1-10,2.9-15.9
		c-6.2,0.8-12,0.6-16.2,0c1.6-3.9,4.4-9,8.1-14c-6.1-1.4-11.5-3.6-15.2-5.5c2.9-3.1,7.2-7,12.4-10.4c-5.3-3.4-9.6-7.3-12.4-10.4
		c3.8-1.9,9.1-4.1,15.2-5.5c-3.8-5-6.5-10.1-8.1-14c4.2-0.5,10-0.7,16.2,0c-1.8-6-2.6-11.7-2.9-15.9
		C64.6-253.1,70.1-251.3,75.7-248.5L75.7-248.5z M98.9-208.3L98.9-208.3L98.9-208.3L98.9-208.3z"/>
	<path class="st1" d="M98.9-208.3C98.9-208.3,98.9-208.3,98.9-208.3L98.9-208.3L98.9-208.3L98.9-208.3L98.9-208.3L98.9-208.3
		C98.9-208.3,98.9-208.3,98.9-208.3L98.9-208.3L98.9-208.3L98.9-208.3C98.9-208.2,98.9-208.2,98.9-208.3
		C98.9-208.2,98.9-208.2,98.9-208.3C98.9-208.2,98.9-208.2,98.9-208.3L98.9-208.3L98.9-208.3L98.9-208.3
		C98.9-208.2,98.9-208.2,98.9-208.3L98.9-208.3L98.9-208.3L98.9-208.3L98.9-208.3L98.9-208.3L98.9-208.3L98.9-208.3L98.9-208.3
		L98.9-208.3L98.9-208.3L98.9-208.3C98.9-208.3,98.9-208.3,98.9-208.3L98.9-208.3L98.9-208.3L98.9-208.3L98.9-208.3L98.9-208.3
		L98.9-208.3L98.9-208.3L98.9-208.3z M64.7-202.2c-4.4-1.5-8.6-3.6-12.3-6c3.7-2.4,7.8-4.5,12.3-6c-3.7-2.9-6.8-6.4-9.5-9.9
		c4.3-1,8.9-1.6,13.6-1.5c-2.4-4-4.2-8.3-5.5-12.5c4.3,0.5,8.9,1.6,13.3,3.3c-0.9-4.6-1.1-9.3-0.9-13.6c3.9,2,7.8,4.5,11.3,7.6
		c0.7-4.6,2.1-9.1,3.8-13.1c3,3.2,5.8,6.9,8.1,11c2.2-4.1,5.1-7.8,8.1-11c1.7,4,3.1,8.5,3.8,13.1c3.5-3.1,7.4-5.6,11.3-7.6
		c0.2,4.4,0,9-0.9,13.6c4.4-1.7,8.9-2.7,13.3-3.3c-1.3,4.2-3.1,8.5-5.5,12.5c4.7-0.1,9.3,0.5,13.6,1.5c-2.6,3.5-5.8,6.9-9.5,9.9
		c4.4,1.5,8.6,3.6,12.3,6c-3.7,2.4-7.8,4.5-12.3,6c3.7,2.9,6.8,6.4,9.5,9.9c-4.3,1-8.9,1.6-13.6,1.5c2.4,4,4.2,8.3,5.5,12.5
		c-4.3-0.5-8.9-1.6-13.3-3.3c0.9,4.6,1.1,9.3,0.9,13.6c-3.9-2-7.8-4.5-11.3-7.6c-0.7,4.6-2.1,9.1-3.8,13.1c-3-3.2-5.8-6.9-8.1-11
		c-2.2,4.1-5.1,7.8-8.1,11c-1.7-4-3.1-8.5-3.8-13.1c-3.5,3.1-7.4,5.6-11.3,7.6c-0.2-4.4,0-9,0.9-13.6c-4.4,1.7-8.9,2.7-13.3,3.3
		c1.3-4.2,3.1-8.5,5.5-12.5c-4.7,0.1-9.3-0.5-13.6-1.5C57.9-195.9,61.1-199.3,64.7-202.2L64.7-202.2z"/>
	<path class="st2" d="M98.9-208.2L98.9-208.2L98.9-208.2L98.9-208.2L98.9-208.2z M98.9-208.2L98.9-208.2L98.9-208.2
		C98.9-208.2,98.9-208.2,98.9-208.2L98.9-208.2L98.9-208.2L98.9-208.2L98.9-208.2C98.9-208.2,98.9-208.2,98.9-208.2
		C98.9-208.2,98.9-208.2,98.9-208.2C98.9-208.2,98.9-208.2,98.9-208.2L98.9-208.2L98.9-208.2z M98.9-208.2L98.9-208.2L98.9-208.2
		L98.9-208.2C98.9-208.3,98.9-208.3,98.9-208.2C98.9-208.3,98.9-208.3,98.9-208.2L98.9-208.2C98.9-208.3,98.9-208.3,98.9-208.2
		C98.9-208.3,98.9-208.3,98.9-208.2C98.9-208.3,98.9-208.3,98.9-208.2C98.9-208.3,98.9-208.3,98.9-208.2
		C98.9-208.3,98.9-208.3,98.9-208.2C98.9-208.3,98.9-208.3,98.9-208.2L98.9-208.2L98.9-208.2C98.9-208.3,98.9-208.3,98.9-208.2
		L98.9-208.2C98.9-208.2,98.9-208.2,98.9-208.2L98.9-208.2L98.9-208.2L98.9-208.2z M98.9-208.2L98.9-208.2L98.9-208.2L98.9-208.2z
		 M94.8-231.6c0.8-4,2.2-7.8,4.1-11.3c1.9,3.5,3.4,7.3,4.1,11.3c2.1-3.5,4.8-6.6,7.7-9.2c0.6,3.9,0.7,8,0,12c3.2-2.6,6.7-4.6,10.4-6
		c-0.8,3.9-2.1,7.7-4.1,11.3c3.9-1.4,7.9-2,11.9-2.1c-2.1,3.4-4.6,6.6-7.7,9.2c4.1,0,8.1,0.8,11.9,2.1c-3.1,2.5-6.6,4.6-10.4,6
		c3.8,1.4,7.3,3.6,10.4,6c-3.8,1.3-7.7,2.1-11.9,2.1c3.1,2.7,5.7,5.8,7.7,9.2c-4-0.1-8-0.7-11.9-2.1c2,3.6,3.3,7.4,4.1,11.3
		c-3.7-1.5-7.3-3.4-10.4-6c0.7,4,0.6,8.1,0,12c-3-2.6-5.7-5.7-7.7-9.2c-0.8,4-2.2,7.8-4.1,11.3c-1.9-3.5-3.4-7.3-4.1-11.3
		c-2.1,3.5-4.8,6.6-7.7,9.2c-0.6-3.9-0.7-8,0-12c-3.2,2.6-6.7,4.6-10.4,6c0.8-3.9,2.1-7.7,4.1-11.3c-3.9,1.4-7.9,2-11.9,2.1
		c2.1-3.4,4.6-6.6,7.7-9.2c-4.1,0-8.1-0.8-11.9-2.1c3.1-2.5,6.6-4.6,10.4-6c-3.8-1.4-7.3-3.6-10.4-6c3.8-1.3,7.7-2.1,11.9-2.1
		c-3.1-2.7-5.7-5.8-7.7-9.2c4,0.1,8,0.7,11.9,2.1c-2-3.6-3.3-7.4-4.1-11.3c3.7,1.5,7.3,3.4,10.4,6c-0.7-4-0.6-8.1,0-12
		C90-238.2,92.7-235.2,94.8-231.6L94.8-231.6z M98.9-208.3L98.9-208.3L98.9-208.3z"/>
	<path class="st3" d="M94.7-219.7c-0.8-4.2-0.7-8.2,0-11.9c2,3.3,3.4,7,4.1,11.2c0.7-4.2,2.2-7.9,4.1-11.2c0.7,3.8,0.8,7.8,0.1,11.9
		c2.1-3.7,4.7-6.7,7.7-9.1c-0.6,3.8-1.9,7.6-4,11.2c3.2-2.7,6.7-4.6,10.4-5.9c-1.9,3.3-4.4,6.5-7.6,9.2c4-1.5,7.9-2.1,11.8-2
		c-2.9,2.5-6.3,4.6-10.3,6c4.2,0,8.1,0.8,11.7,2.1c-3.6,1.4-7.5,2.1-11.7,2.1c4,1.4,7.4,3.5,10.3,6c-3.8,0-7.8-0.6-11.8-2
		c3.3,2.7,5.7,5.8,7.6,9.2c-3.6-1.3-7.1-3.2-10.4-5.9c2.1,3.7,3.4,7.4,4,11.2c-3-2.4-5.6-5.4-7.7-9.1c0.8,4.2,0.7,8.2,0,11.9
		c-2-3.3-3.4-7-4.1-11.2c-0.7,4.2-2.2,7.9-4.1,11.2c-0.7-3.8-0.8-7.8,0-11.9c-2.1,3.7-4.7,6.7-7.7,9.1c0.6-3.8,1.9-7.6,4-11.2
		c-3.2,2.7-6.7,4.7-10.4,5.9c1.9-3.3,4.4-6.5,7.6-9.2c-4,1.5-7.9,2.1-11.8,2c2.9-2.5,6.3-4.6,10.3-6c-4.2,0-8.1-0.8-11.7-2.1
		c3.6-1.4,7.5-2.1,11.7-2.1c-4-1.4-7.4-3.5-10.3-6c3.8,0,7.8,0.6,11.8,2c-3.3-2.7-5.7-5.8-7.6-9.2c3.6,1.3,7.1,3.2,10.4,5.9
		c-2.1-3.7-3.4-7.4-4-11.2C90-226.4,92.7-223.4,94.7-219.7L94.7-219.7z"/>
	<path class="st0" d="M114.8-305.1v29.2h4.3v-2.8c1.8,2.4,3.8,3.5,6.7,3.5c5.4,0,9.2-4.4,9.2-11.3c0-7.1-3.9-11.5-9.1-11.5
		c-2.9,0-5.1,1.2-6.7,3.5v-10.6H114.8L114.8-305.1z M124.8-294c3.5,0,5.6,2.7,5.6,7.6c0,4.6-2.2,7.3-5.6,7.3c-3.6,0-5.7-2.6-5.7-7.4
		C119.1-291.5,121-294,124.8-294L124.8-294z"/>
	<path class="st0" d="M147.9-294c3.4,0,5.6,2.7,5.6,7.3c0,4.9-2.2,7.5-5.6,7.5c-3.7,0-5.7-2.5-5.7-7.3
		C142.2-291.4,144.2-294,147.9-294L147.9-294z M142.3-278.5c1.5,2.2,3.8,3.3,6.7,3.3c5.2,0,9.1-4.4,9.1-11.5
		c0-6.9-3.8-11.3-9.2-11.3c-2.9,0-4.9,1.1-6.7,3.7v-3h-4.3v29.9h4.4V-278.5L142.3-278.5z"/>
</g>
<image style="overflow:visible;" width="1080" height="608" xlink:href="unnamed.png"  transform="matrix(0.1975 0 0 0.1975 2.2903 38.2073)">
</image>
</svg>
