<?xml version="1.0" encoding="utf-8"?>
<!-- Generator: Adobe Illustrator 16.0.0, SVG Export Plug-In . SVG Version: 6.00 Build 0)  -->
<!DOCTYPE svg PUBLIC "-//W3C//DTD SVG 1.1//EN" "http://www.w3.org/Graphics/SVG/1.1/DTD/svg11.dtd">
<svg version="1.1" id="Layer_1" xmlns="http://www.w3.org/2000/svg" xmlns:xlink="http://www.w3.org/1999/xlink" x="0px" y="0px"
	 width="216px" height="188px" viewBox="0 0 216 188" enable-background="new 0 0 216 188" xml:space="preserve">
<g>
	<path fill="#222944" d="M37.378,90.481h-5.753l-2.357,9.105h-0.056l-2.328-9.105h-5.952l2.469,6.745
		c0.31,0.847,2.451,6.719,2.582,7.414c0.156,0.854,0.033,1.709-0.672,2.022c-0.395,0.177-1.044,0.117-1.685,0.131h-0.523v4.564
		c0,0,3.099,0,3.654,0c2.271-0.028,3.54-0.01,4.795-3.901C31.917,106.387,37.378,90.481,37.378,90.481"/>
	<path fill="#222944" d="M47.069,98.833c-0.408,0.1-1.519,0.248-2.197,0.351c-1.467,0.221-2.115,0.646-2.013,1.629
		c0.056,0.539,0.742,1.119,1.989,0.979c1.134-0.131,2.221-0.57,2.221-1.597V98.833 M52.405,105.13H47.24v-1.353h-0.055
		c-1.312,1.349-2.689,1.72-4.939,1.72c-2.438,0-4.915-1.255-4.915-4.43c0-5.067,5.383-4.479,8.222-4.997
		c1.182-0.217,1.516-0.367,1.516-1.3c0-0.81-0.455-1.368-1.826-1.354c-1.819,0.018-2.039,0.611-2.077,1.496h-5.163
		c0.167-4.122,2.671-4.784,7.493-4.797c6.958-0.022,6.909,1.944,6.909,5.729V105.13z"/>
	<path fill="#222944" d="M76.066,98.833c-0.402,0.1-1.519,0.248-2.197,0.351c-1.463,0.221-2.112,0.646-2.014,1.629
		c0.058,0.539,0.745,1.119,1.989,0.979c1.137-0.131,2.221-0.57,2.221-1.597V98.833 M81.405,105.13h-5.165v-1.353h-0.058
		c-1.312,1.349-2.689,1.72-4.938,1.72c-2.438,0-4.916-1.255-4.916-4.43c0-5.067,5.386-4.479,8.225-4.997
		c1.181-0.217,1.514-0.367,1.514-1.3c0-0.81-0.454-1.368-1.824-1.354c-1.821,0.018-2.042,0.611-2.077,1.496H67
		c0.172-4.122,2.674-4.784,7.495-4.797c6.961-0.022,6.91,1.944,6.91,5.729V105.13z"/>
	<path fill="#222944" d="M92.458,94.742c-0.027-0.479,0.002-0.965-0.362-1.219c-0.338-0.283-1.069-0.305-1.517-0.305
		c-1.037,0-1.669,0.167-1.687,1.13c-0.01,0.609,0.337,0.62,0.646,0.762c0.927,0.394,3.031,0.507,4.884,1.129
		c1.853,0.591,3.483,1.231,3.483,4.094c0,4.316-2.931,5.164-7.413,5.164c-4.837,0-7.267-0.525-7.267-5.164h5.303
		c0.029,0.507-0.081,0.964,0.354,1.366c0.419,0.381,1.136,0.349,1.809,0.353c0.925,0.009,1.888-0.137,1.878-1.128
		c-0.005-0.847-0.478-1.099-3.059-1.551c-4.237-0.734-5.95-1.516-5.95-4.603c0-4.091,3.348-4.656,6.878-4.656
		c3.524,0,7.07,0.367,7.07,4.627H92.458"/>
	<path fill-rule="evenodd" clip-rule="evenodd" fill="#222944" d="M111.27,85.723c0,0.243-0.17,0.351-0.393,0.351h-0.654v-0.703
		h0.654C111.1,85.371,111.27,85.487,111.27,85.723 M111.695,85.708c0-0.517-0.369-0.751-0.807-0.751h-1.086v2.486h0.42v-0.958h0.479
		l0.486,0.958h0.49l-0.506-1.001C111.492,86.346,111.695,86.101,111.695,85.708z M112.561,86.247c0,1.083-0.82,1.909-1.898,1.909
		c-1.074,0-1.9-0.826-1.9-1.909c0-1.088,0.826-1.913,1.9-1.913C111.74,84.334,112.561,85.159,112.561,86.247z M112.93,86.247
		c0-1.295-0.982-2.28-2.268-2.28c-1.283,0-2.264,0.985-2.264,2.28c0,1.293,0.98,2.277,2.264,2.277
		C111.947,88.523,112.93,87.54,112.93,86.247z"/>
	<path fill="#222944" d="M61.696,90.481h3.223v3.443h-3.223v5.307c0,1.356,0.309,1.803,1.712,1.803c0.422,0,0.84-0.027,1.511-0.083
		v4.179c-1.371,0.193-2.716,0.188-3.891,0.188c-1.753,0-4.889-0.187-4.889-4.195v-7.198h-2.431v-3.443h2.431v-4.46h5.557V90.481"/>
	<rect x="86.528" y="106.79" fill="#222944" width="7.93" height="4.568"/>
	<path fill="#222944" d="M12.571,83.959c0.6,0,8.103,0,8.103,0v4.567H16.46v18.263h4.213v4.568c0,0-7.434,0-8.021,0
		c-0.591,0-1.061-0.407-1.061-1.066c0-0.572,0-20.74,0-25.27C11.592,84.346,11.971,83.959,12.571,83.959"/>
	<path fill="#222944" d="M105.971,85.021c0,4.531,0,24.699,0,25.271c0,0.659-0.474,1.066-1.06,1.066s-8.022,0-8.022,0l0.001-4.568
		h4.214V88.527H96.89v-4.567c0,0,7.503,0,8.106,0C105.595,83.959,105.971,84.346,105.971,85.021"/>
	<path fill="#222944" d="M122.453,93.096c-3.432,0-4.67,2.933-4.67,5.708s1.238,5.708,4.67,5.708c3.096,0,4.357-2.933,4.357-5.708
		S125.549,93.096,122.453,93.096 M116.158,86.973h1.625v7.679h0.053c0.668-1.92,2.656-2.932,4.617-2.932
		c4.049,0,5.984,3.27,5.984,7.083s-1.936,7.082-5.984,7.082c-2.168,0-4-1.09-4.748-2.932h-0.051v2.543h-1.496V86.973z"/>
	<path fill="#222944" d="M140.533,97.869c-0.078-2.465-1.625-4.773-4.232-4.773c-2.682,0-4.1,2.334-4.385,4.773H140.533
		 M131.916,99.244c0,2.387,1.289,5.268,4.385,5.268c2.373,0,3.664-1.376,4.18-3.426h1.625c-0.697,3.035-2.426,4.8-5.805,4.8
		c-4.23,0-6.01-3.269-6.01-7.082c0-3.528,1.779-7.083,6.01-7.083c4.256,0,5.984,3.764,5.857,7.523H131.916z"/>
	<path fill="#222944" d="M149.766,104.512c3.43,0,4.67-2.933,4.67-5.708s-1.24-5.708-4.67-5.708c-3.096,0-4.361,2.933-4.361,5.708
		S146.67,104.512,149.766,104.512 M156.059,105.497h-1.496v-2.543h-0.053c-0.693,1.765-2.809,2.932-4.744,2.932
		c-4.051,0-5.986-3.269-5.986-7.082s1.936-7.083,5.986-7.083c1.961,0,3.947,1.012,4.617,2.932h0.053v-7.679h1.623V105.497z"/>
	<path fill="#222944" d="M164.57,104.512c3.432,0,4.668-2.933,4.668-5.708s-1.236-5.708-4.668-5.708
		c-3.098,0-4.361,2.933-4.361,5.708S161.473,104.512,164.57,104.512 M170.863,105.497h-1.496v-2.543h-0.051
		c-0.697,1.765-2.813,2.932-4.746,2.932c-4.051,0-5.986-3.269-5.986-7.082s1.936-7.083,5.986-7.083c1.961,0,3.945,1.012,4.615,2.932
		h0.053v-7.679h1.625V105.497z"/>
	<path fill="#222944" d="M173.982,92.11h1.625v13.387h-1.625V92.11z M173.982,86.973h1.625v2.621h-1.625V86.973z"/>
	<path fill="#222944" d="M178.703,92.11h1.625v2.31h0.051c0.619-1.608,2.373-2.699,4.258-2.699c3.74,0,4.875,1.973,4.875,5.164
		v8.612h-1.627v-8.354c0-2.282-0.748-4.047-3.377-4.047c-2.605,0-4.102,1.973-4.18,4.594v7.808h-1.625V92.11"/>
	<path fill="#222944" d="M202.199,98.646c0-2.618-1.186-5.551-4.281-5.551s-4.385,2.777-4.385,5.551
		c0,2.699,1.367,5.319,4.385,5.319C200.73,103.966,202.199,101.346,202.199,98.646 M203.824,104.407
		c0,4.021-1.598,6.435-5.906,6.435c-2.656,0-5.314-1.22-5.52-4.047h1.623c0.338,1.972,2.117,2.672,3.896,2.672
		c3.018,0,4.281-1.765,4.281-5.06v-1.816h-0.051c-0.748,1.66-2.295,2.75-4.23,2.75c-4.256,0-6.012-3.035-6.012-6.874
		c0-3.685,2.168-6.746,6.012-6.746c1.961,0,3.586,1.219,4.23,2.699h0.051v-2.31h1.625V104.407z"/>
</g>
</svg>
