<?xml version="1.0" encoding="utf-8"?>
<!-- Generator: Adobe Illustrator 16.0.0, SVG Export Plug-In . SVG Version: 6.00 Build 0)  -->
<!DOCTYPE svg PUBLIC "-//W3C//DTD SVG 1.1//EN" "http://www.w3.org/Graphics/SVG/1.1/DTD/svg11.dtd">
<svg version="1.1" id="Layer_1" xmlns="http://www.w3.org/2000/svg" xmlns:xlink="http://www.w3.org/1999/xlink" x="0px" y="0px"
	 width="216px" height="188px" viewBox="0 0 216 188" enable-background="new 0 0 216 188" xml:space="preserve">
<g>
	<defs>
		<filter id="Adobe_OpacityMaskFilter" filterUnits="userSpaceOnUse" x="58.413" y="110.383" width="150.345" height="2.354">
			<feColorMatrix  type="matrix" values="1 0 0 0 0  0 1 0 0 0  0 0 1 0 0  0 0 0 1 0"/>
		</filter>
	</defs>
	<mask maskUnits="userSpaceOnUse" x="58.413" y="110.383" width="150.345" height="2.354" id="SVGID_1_">
		<g filter="url(#Adobe_OpacityMaskFilter)">
			<rect x="58.414" y="110.383" fill="#010101" width="150.344" height="2.354"/>
			<g enable-background="new    ">
				<rect x="58.414" y="110.383" fill="#010101" width="150.344" height="2.352"/>
				
					<radialGradient id="SVGID_2_" cx="-594.9805" cy="1579.1953" r="0.6326" gradientTransform="matrix(-118.9324 0 0 -1.8601 -70628.875 3049.0215)" gradientUnits="userSpaceOnUse">
					<stop  offset="0" style="stop-color:#FFFFFF"/>
					<stop  offset="0.1038" style="stop-color:#C0BCBC"/>
					<stop  offset="0.2585" style="stop-color:#857F7F"/>
					<stop  offset="0.4137" style="stop-color:#5D5656"/>
					<stop  offset="0.5667" style="stop-color:#423D3D"/>
					<stop  offset="0.7168" style="stop-color:#312C2D"/>
					<stop  offset="0.8628" style="stop-color:#272323"/>
					<stop  offset="1" style="stop-color:#231F20"/>
				</radialGradient>
				<rect x="58.419" y="110.383" fill="url(#SVGID_2_)" width="150.339" height="2.352"/>
			</g>
		</g>
	</mask>
	<g mask="url(#SVGID_1_)">
		<g>
			<defs>
				<rect id="SVGID_3_" x="58.417" y="110.383" width="150.341" height="2.354"/>
			</defs>
			<clipPath id="SVGID_4_">
				<use xlink:href="#SVGID_3_"  overflow="visible"/>
			</clipPath>
			<g clip-path="url(#SVGID_4_)">
				<defs>
					<rect id="SVGID_5_" x="58.413" y="110.383" width="150.345" height="2.352"/>
				</defs>
				<clipPath id="SVGID_6_">
					<use xlink:href="#SVGID_5_"  overflow="visible"/>
				</clipPath>
				
					<radialGradient id="SVGID_7_" cx="-594.9785" cy="1579.3301" r="0.6323" gradientTransform="matrix(-118.9341 0 0 -1.8601 -70629.625 3049.2715)" gradientUnits="userSpaceOnUse">
					<stop  offset="0" style="stop-color:#256195"/>
					<stop  offset="0.4402" style="stop-color:#8697BB"/>
					<stop  offset="0.8263" style="stop-color:#D7DAE7"/>
					<stop  offset="1" style="stop-color:#FFFFFF"/>
				</radialGradient>
				<rect x="58.413" y="110.383" clip-path="url(#SVGID_6_)" fill="url(#SVGID_7_)" width="150.345" height="2.352"/>
			</g>
		</g>
	</g>
	<polygon fill="#256195" points="65.495,104.766 61.222,104.766 61.222,93.052 54.663,93.052 54.663,89.55 72.054,89.55 
		72.054,93.052 65.495,93.052 	"/>
	<path fill="#256195" d="M90.713,101.622h-8.431l-1.653,3.144h-4.441l8.601-15.216h3.746l8.712,15.216h-4.822L90.713,101.622z
		 M84.21,98.096h4.604l-2.261-4.271L84.21,98.096z"/>
	<path fill="#256195" d="M104.66,104.766V89.551h12.649c2.463,0,3.695,1.085,3.695,3.252v1.736c0,1.104-0.457,1.902-1.375,2.398
		c0.988,0.568,1.486,1.479,1.486,2.729v1.818c0,2.186-1.561,3.281-4.686,3.281H104.66z M116.816,92.943
		c-0.146-0.094-0.443-0.141-0.881-0.141h-7.058v2.453h7.058c0.477,0,0.76-0.037,0.854-0.111c0.125-0.072,0.191-0.215,0.191-0.418
		v-1.367C116.98,93.156,116.924,93.017,116.816,92.943 M116.764,98.646c-0.117-0.055-0.391-0.082-0.828-0.082h-7.058v2.645h7.058
		c0.402,0,0.678-0.02,0.828-0.055c0.199-0.109,0.301-0.348,0.301-0.717v-1.075C117.064,98.994,116.963,98.756,116.764,98.646"/>
	<path fill="#06B2E1" d="M131.203,85.251h2.369v2.672h-2.369V85.251z M131.203,90.048h2.369v14.222h-2.369V90.048z"/>
	<polygon fill="#06B2E1" points="145.092,90.046 147.467,90.046 147.467,102.281 158.24,102.281 158.24,104.27 145.092,104.27 	"/>
	<path fill="#06B2E1" d="M172.215,90.046h2.537l7.908,14.221h-2.619l-1.816-3.5h-9.619l-1.818,3.5h-2.346L172.215,90.046z
		 M177.26,98.949l-3.832-7.278l-3.832,7.278H177.26z"/>
	<path fill="#06B2E1" d="M196.277,107.797c1.137,0.238,2.02,0.357,2.645,0.357c0.863,0,1.295-0.293,1.295-0.881
		c0-0.701-0.477-1.047-1.434-1.047h-0.234c-0.1,0-0.229,0.008-0.369,0.027v-1.984h-3.639c-0.645,0-1.178-0.049-1.598-0.152
		c-0.426-0.102-0.764-0.279-1.021-0.539c-0.258-0.256-0.439-0.598-0.553-1.031c-0.109-0.433-0.168-0.979-0.168-1.641V93.41
		c0-0.663,0.059-1.209,0.168-1.642c0.113-0.43,0.295-0.774,0.553-1.033c0.258-0.257,0.596-0.438,1.021-0.538
		c0.42-0.102,0.953-0.152,1.598-0.152h7.963c0.645,0,1.178,0.05,1.602,0.152c0.422,0.1,0.76,0.28,1.018,0.538
		c0.258,0.258,0.439,0.603,0.537,1.033c0.104,0.433,0.152,0.979,0.152,1.642v1.35l-2.371,0.439v-3.225h-9.865v10.311h9.865v-3.557
		l2.371,0.496v1.682c0,0.662-0.049,1.208-0.152,1.641c-0.098,0.434-0.279,0.775-0.537,1.031c-0.258,0.26-0.596,0.438-1.018,0.539
		c-0.424,0.104-0.957,0.152-1.602,0.152h-3.529v1.047h0.25c1.617,0,2.426,0.635,2.426,1.902c0,1.305-0.893,1.957-2.676,1.957
		c-0.367,0-0.768-0.045-1.213-0.127c-0.439-0.08-0.932-0.197-1.484-0.344V107.797z"/>
	<path fill-rule="evenodd" clip-rule="evenodd" fill="#256195" d="M18.914,79.009c0,0-11.969,4.88-11.218,18.728
		c0.497,7.131,5.252,15.725,16.72,17.643c0,0-9.68-1.758-7.88-25.316l-5.507,3.835v-3.002l5.8-3.087l1-7.883L18.914,79.009z"/>
	<path fill-rule="evenodd" clip-rule="evenodd" fill="#06B2E1" d="M21.123,81.095c0,0,9.8-3.795,18.521,4.046
		c3.792,3.628,9.384,11.51,4.209,22.73c-1.795,3.42-6.796,9.762-15.766,10.342c0,0,11.335-2.416,9.886-20.936
		c0,0-0.191,13.617-7.632,17.934c-2.879,1.504-6.76,0.158-8.511-8.801c-0.866-4.828-1.293-12.304-1.125-15.93
		c0,0,5.383-3.087,6.467-3.379l-1.083-2.504l-5.299,3.63L21.123,81.095z"/>
	<path fill="#256195" d="M26.666,120.547c-3.057,0-6.022-0.598-8.814-1.777c-2.698-1.141-5.12-2.775-7.199-4.855
		c-2.081-2.078-3.712-4.5-4.854-7.197c-1.183-2.795-1.783-5.76-1.783-8.814c0-3.06,0.6-6.025,1.783-8.818
		c1.142-2.698,2.773-5.12,4.854-7.2c2.079-2.08,4.501-3.714,7.199-4.854c2.792-1.181,5.757-1.778,8.814-1.778
		c3.058,0,6.022,0.598,8.818,1.778c2.693,1.14,5.12,2.774,7.2,4.854c2.079,2.08,3.712,4.501,4.854,7.2
		c1.178,2.792,1.778,5.758,1.778,8.818c0,3.055-0.6,6.02-1.778,8.814c-1.142,2.697-2.775,5.119-4.854,7.197
		c-2.08,2.08-4.507,3.715-7.2,4.855C32.688,119.949,29.723,120.547,26.666,120.547 M26.666,76.086c-2.942,0-5.801,0.576-8.489,1.714
		c-2.596,1.098-4.929,2.67-6.933,4.675c-2.004,2.003-3.578,4.336-4.676,6.933c-1.138,2.688-1.715,5.548-1.715,8.493
		c0,2.941,0.577,5.799,1.715,8.488c1.098,2.596,2.672,4.932,4.676,6.932c2.004,2.006,4.337,3.58,6.933,4.678
		c2.688,1.135,5.547,1.713,8.489,1.713c2.946,0,5.801-0.578,8.49-1.713c2.599-1.098,4.933-2.672,6.933-4.678
		c2.008-2,3.577-4.336,4.679-6.932c1.139-2.689,1.713-5.547,1.713-8.488c0-2.945-0.574-5.805-1.713-8.493
		c-1.103-2.597-2.671-4.93-4.679-6.933c-2-2.005-4.334-3.577-6.933-4.675C32.467,76.663,29.612,76.086,26.666,76.086"/>
</g>
</svg>
