<?xml version="1.0" encoding="utf-8"?>
<!-- Generator: Adobe Illustrator 16.0.0, SVG Export Plug-In . SVG Version: 6.00 Build 0)  -->
<!DOCTYPE svg PUBLIC "-//W3C//DTD SVG 1.1//EN" "http://www.w3.org/Graphics/SVG/1.1/DTD/svg11.dtd">
<svg version="1.1" id="Layer_1" xmlns="http://www.w3.org/2000/svg" xmlns:xlink="http://www.w3.org/1999/xlink" x="0px" y="0px"
	 width="216px" height="188px" viewBox="0 0 216 188" enable-background="new 0 0 216 188" xml:space="preserve">
<path fill="#007CBA" d="M54.794,82.057c1.084,1.012,2.904,1.502,5.446,1.502c1.195,0,2.284-0.102,3.277-0.305
	c0.228-0.045,0.429-0.116,0.649-0.173c-0.139-0.083-0.258-0.173-0.412-0.25l-3.576-2.238l-2.43-0.863c0,0-0.555-3.894-1.922-3.989
	c0,0-0.106-0.03-0.256-0.077c-0.619,0.668-1.104,1.413-1.424,2.256C53.484,79.673,53.709,81.054,54.794,82.057"/>
<path fill="#007CBA" d="M64.807,84.286c-0.344,0.102-0.695,0.185-1.053,0.259c-1.078,0.224-2.228,0.33-3.514,0.33
	c-2.905,0-4.953-0.599-6.268-1.828c-0.508-0.475-1.16-1.31-1.366-2.539l-0.239,0.638l-0.963,2.606l-0.308,0.838h-0.852H35.651H33.81
	l0.683-1.805l4.063-10.71l0.277-0.75c-0.396,0.059-0.931,0.093-1.683,0.059c0,0-2.012,0-2.672-0.259c0,0-1.235,0.936-1.17,1.87
	c0,0,0,1.397,0.731,2.586c0,0,0.638,2.423-2.563,3.215c0,0-4.351,2.958-12.057,0.658c0,0-1.366,0.156-1.59-3.037
	c0,0-0.657-1.724-3.359-1.933c0,0-1.276,0.116-2.16,1.001c0,0-4.88,2.074-7.728,1.494c0,0-0.663,1.303,1.767,0.931
	c0,0,5.075,0,5.675-0.164c0,0,0.795,0.117,0.199,1.255c0,0-0.335,0.727-1.238,1.148c0,0-0.906,0.395,0.064,1.91
	c0,0,0.535,1.07,1.016,1.447c0,0,0.511,0.46-0.771,1.119c0,0-0.972,1.002,2.45,1.722c0,0-1.371,1.698-2.049,1.79
	c0,0-1.615-0.3-0.688,2.335c0,0-0.265,0.841,2.101,1.092c0,0,1.654,0.374,1.568,1.146c0,0-0.995,0.396-2.542,0
	c0,0-1.679-0.163-1.917,0.631c0,0-2.874-0.325-1.726-1.938c0,0,1.324-1.372,0-1.861c0,0-0.771-1.376-1.832-1.325
	c0,0-1.127-0.051-0.199,1.788c0,0,0.727,1.657,0.244,2.24c0,0-0.27,0.56-1.768,0.63c0,0-0.352,0.141,0.974,1.119
	c0,0,1.278,1.983,1.904,0.747c0,0,0.792-1.306,1.317-0.677c0,0,1.037-0.258,1.57,1.278c0.51,1.518,0.549,0.772,1.851,0.772
	c0,0,1.48,0.511,2.41,1.468c0,0,0.838,0.561-0.354,1.627c0,0-0.927,1.611-1.946,2.197c0,0-0.308,1.071,1.658,1.491
	c0,0-0.332,1.724,0.15,2.074c0,0,0.336,0.35,2.053,0.466c0,0,1.529,1.066,0.334,2.493c0,0-1.653,0.349-2.693,0.307
	c0,0-1.257,1.745,1.127,1.486c0,0,3.925,0.163,4.945,0.163c0,0,3.379,0.21,3.775,0.513c0,0,0.295,1.169-0.43,1.275
	c0.034,0.004,0.055,0.009,0.055,0.009s-0.029-0.005-0.067-0.009c-0.076,0.009-0.145,0.022-0.242,0.009
	c-0.021-0.005-0.024-0.005-0.045-0.009c-0.4,0.019-1.041,0.165-1.321,0.845c0,0-2.81,0.373-4.371,0.421c0,0-3.313,0.35-1.413,1.491
	c0,0,0.484,1.14,3.972-0.98c0,0,0.776,0.256,1.217,0.77c0.438,0.512,0,0.256,0,0.256s-0.293,2.451,2.008,0.165
	c0,0,0.484-2.542,1.765-2.256c0,0,4.306,0.688,5.763-2.871c0,0,1.741,0.675,2.008-1.492c0,0,1.91,0.414,3.071-0.098
	c-1.502-0.355-2.763-0.836-3.771-1.467c-2.595-1.629-3.52-4.203-2.609-7.242l3.778-12.792l0.27-0.922h0.917h9.868h1.69l-0.502,1.707
	L42,99.481c-0.057,0.205-0.232,0.868-0.057,1.017c0.093,0.072,0.651,0.44,2.69,0.44c0.154,0,0.303-0.007,0.452-0.007
	c0.665-0.663,1.452-1.276,2.331-1.645c0,0,0.6-0.127,1.534-0.329c0.032-0.087,0.065-0.162,0.092-0.251l3.642-12.281l0.27-0.922h0.92
	h9.862h1.693l-0.507,1.707l-1.827,6.193c0.671-0.485,1.329-1.011,1.939-1.578c0,0,3.25-4.079,0.891-7.236h-1.145L64.807,84.286z"/>
<path fill="#007CBA" d="M47.955,71.252c-0.19-0.468-0.769-1.15-2.48-1.403c0,0-3.492-0.724-4.109-0.164c0,0-0.795,0.375-1.233,1.191
	c-0.444,0.815-0.201,0-0.201,0s-0.091,0.22-0.688,0.375h0.465H47.955z"/>
<polygon fill="#D9272E" points="202.517,111.225 27.427,111.225 26.678,113.667 201.795,113.667 "/>
<path fill="#D9272E" d="M97.973,74.239h-0.601v1.327h0.619c0.334,0,0.579-0.04,0.742-0.149c0.14-0.093,0.208-0.262,0.208-0.484
	c0-0.245-0.068-0.41-0.228-0.539C98.554,74.276,98.308,74.239,97.973,74.239 M98.097,73.741c0.529,0,0.935,0.093,1.195,0.277
	c0.27,0.189,0.393,0.468,0.393,0.821c0,0.295-0.074,0.519-0.208,0.705c-0.162,0.191-0.375,0.318-0.656,0.393l0.846,1.828h-0.793
	l-0.796-1.718h-0.704v1.718h-0.721v-4.024H98.097z M100.938,75.846c0-0.43-0.071-0.824-0.21-1.19
	c-0.142-0.379-0.356-0.712-0.639-1.007c-0.263-0.301-0.586-0.525-0.952-0.673c-0.158-0.074-0.355-0.131-0.528-0.169
	c-0.194-0.053-0.392-0.074-0.6-0.074c-0.388,0-0.758,0.074-1.11,0.225c-0.36,0.147-0.658,0.374-0.923,0.652
	c-0.28,0.296-0.494,0.652-0.648,1.046c-0.165,0.366-0.253,0.761-0.253,1.166c0,0.393,0.088,0.788,0.228,1.16
	c0.15,0.371,0.357,0.707,0.645,1.002c0.274,0.282,0.591,0.522,0.952,0.673c0.352,0.169,0.722,0.244,1.092,0.244
	c0.386,0,0.757-0.074,1.127-0.222c0.358-0.172,0.668-0.394,0.954-0.672c0.279-0.279,0.493-0.621,0.634-0.988
	C100.85,76.666,100.938,76.272,100.938,75.846 M98.009,72.267c0.232,0,0.458,0.035,0.669,0.073c0.194,0.038,0.409,0.112,0.636,0.208
	c0.408,0.165,0.774,0.448,1.092,0.783c0.3,0.333,0.548,0.708,0.724,1.155c0.067,0.201,0.14,0.424,0.181,0.649
	c0.048,0.223,0.071,0.448,0.071,0.687c0,0.484-0.092,0.935-0.251,1.362c-0.176,0.427-0.424,0.822-0.742,1.14
	c-0.317,0.333-0.688,0.596-1.112,0.78c-0.404,0.187-0.848,0.28-1.268,0.28c-0.463,0-0.882-0.093-1.292-0.28
	c-0.389-0.184-0.757-0.447-1.093-0.8c-0.321-0.336-0.549-0.709-0.726-1.136c-0.179-0.426-0.245-0.876-0.245-1.346
	c0-0.464,0.091-0.912,0.245-1.358c0.177-0.446,0.444-0.833,0.762-1.192c0.316-0.314,0.667-0.572,1.057-0.745
	C97.127,72.36,97.545,72.267,98.009,72.267"/>
<path fill="#D9272E" d="M54.794,82.057c1.084,1.012,2.904,1.502,5.446,1.502c1.195,0,2.284-0.102,3.277-0.305
	c1.005-0.202,1.882-0.511,2.683-0.916l-0.068,0.935h3.686l2.217-5.863h-7.817l-0.869,2.283h2.579
	c-0.304,0.405-0.792,0.731-1.465,0.955c-0.668,0.224-1.418,0.347-2.251,0.347c-1.164,0-1.937-0.243-2.33-0.715
	c-0.389-0.484-0.406-1.198-0.041-2.177c0.398-1.041,0.97-1.831,1.76-2.363c0.778-0.53,1.727-0.791,2.855-0.791
	c0.706,0,1.282,0.12,1.668,0.341c0.403,0.227,0.64,0.551,0.706,0.958h5.417c0.208-1.243-0.26-2.218-1.42-2.909
	c-1.168-0.696-2.905-1.038-5.214-1.038c-2.948,0-5.434,0.487-7.441,1.464c-2.006,0.996-3.351,2.382-4.027,4.155
	C53.484,79.673,53.709,81.054,54.794,82.057"/>
<polygon fill="#D9272E" points="51.216,80.665 42.352,80.665 42.988,79.023 50.184,79.023 51.113,76.556 43.914,76.556 
	44.457,75.13 52.963,75.13 53.937,72.562 39.707,72.562 35.651,83.273 50.245,83.273 "/>
<path fill="#007CBA" d="M53.874,86.82L50.37,98.632c1.987-0.465,4.607-1.118,6.626-1.793c0,0,2.104-0.874,4.477-2.351l2.263-7.668
	H53.874z"/>
<path fill="#007CBA" d="M40.811,99.105l3.621-12.285h-9.866L30.79,99.61c-0.75,2.479-0.058,4.393,2.051,5.723
	c1.14,0.711,2.669,1.22,4.572,1.548c0.206-0.134,0.421-0.244,0.616-0.302c0,0,4.177-1.095,4.796-2.653c0,0,0.414-0.767,1.126-1.698
	c-1.327-0.058-2.264-0.283-2.762-0.685C40.604,101.058,40.471,100.258,40.811,99.105"/>
<path fill="#FFFFFF" d="M52.556,79.354c-0.03,0.421-0.005,0.8,0.05,1.153l0.429-1.153H52.556z"/>
<path fill="#FFFFFF" d="M54.118,75.618l0.12-0.313c-0.281,0.36-0.539,0.74-0.755,1.139h0.326L54.118,75.618z"/>
<path fill="#007CBA" d="M54.258,75.255l-0.02,0.049c0.011-0.011,0.02-0.026,0.038-0.043C54.269,75.261,54.258,75.261,54.258,75.255"
	/>
<path fill="#007CBA" d="M53.483,76.443h-0.52h-0.467l-0.229,0.598L51.4,79.355h1.156c0.039-0.579,0.167-1.215,0.437-1.93
	C53.119,77.081,53.309,76.765,53.483,76.443"/>
<path fill="#007CBA" d="M23.581,111.679c-0.23-0.03-1.117-0.152-0.299,0c0.123-0.012,0.223-0.007,0.286,0H23.581z"/>
<polygon fill="#D9272E" points="75.086,101.461 79.41,86.82 69.523,86.82 63.625,106.757 86.938,106.757 88.512,101.461 "/>
<path fill="#D9272E" d="M53.874,86.82l-3.643,12.285c-0.333,1.152-0.944,1.952-1.787,2.438c-0.872,0.469-2.136,0.711-3.81,0.711
	c-1.714,0-2.865-0.242-3.446-0.711c-0.585-0.485-0.717-1.285-0.378-2.438l3.621-12.285h-9.867l-3.772,12.79
	c-0.752,2.479-0.059,4.393,2.049,5.723c2.118,1.321,5.552,1.973,10.298,1.973c4.73,0,8.53-0.651,11.396-1.973
	c2.882-1.33,4.696-3.222,5.426-5.723l3.774-12.79H53.874z"/>
<path fill="#D9272E" d="M104.665,86.82l-16.72,19.936h9.724l1.967-2.648h9.819l0.354,2.648h9.798L114.67,86.82H104.665z
	 M102.677,99.934l5.174-6.902l1.037,6.902H102.677z"/>
<path fill="#D9272E" d="M198.424,95.209l-0.499,1.732l-2.98,9.814h8.896l5.912-19.936h-11.995l-7.307,9.978l-0.784,1.143
	c-0.247,0.388-0.456,0.717-0.629,0.979c-0.176,0.285-0.298,0.527-0.438,0.77l-0.118-1.99l-0.066-0.94l-1.302-9.938h-12.05
	l-5.885,19.936h8.95l2.833-9.63l0.396-1.472l0.572-2.212l0.037,2.274l0.092,1.487l1.026,9.552h6.898l6.686-9.754l0.119-0.182
	c0.774-1.123,1.5-2.248,2.212-3.378c-0.075,0.219-0.172,0.525-0.287,0.912C198.587,94.742,198.486,95.026,198.424,95.209"/>
<polygon fill="#D9272E" points="153.084,106.757 163.16,106.757 169.046,86.82 158.983,86.82 "/>
<path fill="#D9272E" d="M149.343,87.921c-1.951-1.082-4.905-1.635-8.838-1.635c-2.07,0-3.913,0.147-5.551,0.429
	c-1.638,0.288-3.098,0.696-4.436,1.265c-2.634,1.14-4.246,2.692-4.838,4.666c-0.271,0.996-0.246,1.875,0.133,2.643
	c0.393,0.776,1.081,1.428,2.071,1.957c0.518,0.284,1.399,0.568,2.657,0.877c1.248,0.324,2.965,0.668,5.13,1.041l1.215,0.201
	c2.646,0.467,3.853,1.039,3.645,1.75c-0.143,0.467-0.573,0.816-1.312,1.081c-0.739,0.24-1.688,0.387-2.847,0.387
	c-1.378,0-2.362-0.165-2.965-0.494c-0.608-0.317-0.953-0.829-0.982-1.544h-9.606c-0.345,2.142,0.502,3.807,2.537,4.989
	c2.025,1.18,5.085,1.77,9.184,1.77c4.43,0,8.006-0.59,10.736-1.77c2.72-1.183,4.41-2.874,5.066-5.069
	c0.296-1.018,0.245-1.917-0.182-2.67c-0.405-0.748-1.219-1.407-2.37-2c-0.962-0.459-3.137-1.015-6.548-1.583l-1.698-0.286
	l-0.525-0.1c-2.553-0.451-3.742-1.001-3.563-1.646c0.14-0.472,0.51-0.799,1.086-1.043c0.602-0.222,1.42-0.324,2.468-0.324
	c1.186,0,2.074,0.141,2.645,0.426c0.566,0.306,0.832,0.731,0.808,1.323h9.368C152.117,90.525,151.278,88.977,149.343,87.921"/>
<polygon fill="#D9272E" points="131.746,107.897 131.856,109.323 140.781,109.323 140.678,107.897 "/>
<polygon fill="#D9272E" points="88.348,80.665 79.749,80.665 80.382,79.023 87.582,79.023 88.511,76.556 81.309,76.556 
	81.853,75.13 90.361,75.13 91.332,72.562 77.108,72.562 73.045,83.273 87.376,83.273 "/>
<polygon fill="#D9272E" points="89.901,80.665 88.932,83.273 210.732,83.273 211.501,80.665 "/>
</svg>
