<?xml version="1.0" encoding="utf-8"?>
<!-- Generator: Adobe Illustrator 16.0.0, SVG Export Plug-In . SVG Version: 6.00 Build 0)  -->
<!DOCTYPE svg PUBLIC "-//W3C//DTD SVG 1.1//EN" "http://www.w3.org/Graphics/SVG/1.1/DTD/svg11.dtd">
<svg version="1.1" id="Layer_1" xmlns="http://www.w3.org/2000/svg" xmlns:xlink="http://www.w3.org/1999/xlink" x="0px" y="0px"
	 width="216px" height="188px" viewBox="0 0 216 188" enable-background="new 0 0 216 188" xml:space="preserve">
<g>
	<path d="M121.234,124.271c2.449,0,3.135-0.592,3.135-2.304c0-1.381-0.424-1.88-1.383-2.063c0.881-0.226,1.092-0.868,1.092-1.896
		c0-1.841-1-2.133-3.133-2.133c-0.525,0-1.434,0.041-1.906,0.093c-0.41,0.053-0.527,0.145-0.527,0.62v7.027
		c0,0.406,0.066,0.513,0.5,0.564C119.645,124.247,120.367,124.271,121.234,124.271L121.234,124.271L121.234,124.271z
		 M120.512,117.547c0.119-0.012,0.514-0.039,0.75-0.039c0.674,0,0.775,0.184,0.775,0.828c0,0.712-0.092,0.935-0.867,0.935h-0.658
		V117.547L120.512,117.547z M120.512,120.628h0.947c0.738,0,0.867,0.224,0.867,0.972c0,1.015-0.115,1.12-0.973,1.12
		c-0.289,0-0.617-0.013-0.842-0.04V120.628L120.512,120.628z M130.553,123.326c0-0.712-0.119-0.884-0.484-0.884h-2.688v-1.686h1.67
		c0.422,0,0.488-0.157,0.488-0.867c0-0.711-0.066-0.854-0.488-0.854h-1.67v-1.345h2.553c0.371,0,0.486-0.156,0.486-0.868
		c0-0.711-0.115-0.881-0.486-0.881h-4c-0.395,0-0.551,0.065-0.551,0.488v7.276c0,0.421,0.156,0.486,0.551,0.486h4.135
		C130.434,124.193,130.553,124.035,130.553,123.326L130.553,123.326z M133.371,122.442v-5.961c0-0.474-0.238-0.539-1.004-0.539
		c-0.748,0-0.998,0.065-0.998,0.539v7.226c0,0.421,0.158,0.486,0.553,0.486h3.869c0.367,0,0.486-0.158,0.486-0.867
		c0-0.712-0.119-0.884-0.486-0.884H133.371L133.371,122.442z M139.844,124.271c1.867,0,2.75-0.578,2.75-1.829v-2.526
		c0-0.318-0.068-0.487-0.619-0.487h-1.67c-0.316,0-0.383,0.159-0.383,0.764c0,0.71,0.066,0.869,0.383,0.869h0.564v0.854
		c0,0.475-0.369,0.591-0.869,0.591c-0.725,0-1.143-0.103-1.143-2.053v-0.801c0-1.804,0.418-2.015,1.434-2.015
		c0.789,0,1.486,0.171,1.711,0.171c0.17,0,0.275-0.222,0.275-0.775c0-0.764-0.105-0.856-0.314-0.908
		c-0.541-0.143-1.369-0.251-2.105-0.251c-1.541,0-3.002,0.265-3.002,3.685v1.316C136.855,123.916,138.184,124.271,139.844,124.271
		L139.844,124.271z M148.791,123.326c0-0.712-0.119-0.884-0.486-0.884h-2.684v-1.686h1.672c0.42,0,0.484-0.157,0.484-0.867
		c0-0.711-0.064-0.854-0.484-0.854h-1.672v-1.345h2.553c0.369,0,0.486-0.156,0.486-0.868c0-0.711-0.117-0.881-0.486-0.881h-4
		c-0.396,0-0.555,0.065-0.555,0.488v7.276c0,0.421,0.158,0.486,0.555,0.486h4.131C148.672,124.193,148.791,124.035,148.791,123.326
		L148.791,123.326z M151.607,122.442v-5.961c0-0.474-0.236-0.539-0.998-0.539c-0.752,0-1,0.065-1,0.539v7.226
		c0,0.421,0.156,0.486,0.551,0.486h3.869c0.367,0,0.486-0.158,0.486-0.867c0-0.712-0.119-0.884-0.486-0.884H151.607L151.607,122.442
		z M160.412,123.326c0-0.712-0.119-0.884-0.488-0.884h-2.684v-1.686h1.672c0.422,0,0.484-0.157,0.484-0.867
		c0-0.711-0.063-0.854-0.484-0.854h-1.672v-1.345h2.553c0.369,0,0.486-0.156,0.486-0.868c0-0.711-0.117-0.881-0.486-0.881h-4
		c-0.395,0-0.555,0.065-0.555,0.488v7.276c0,0.421,0.16,0.486,0.555,0.486h4.131C160.293,124.193,160.412,124.035,160.412,123.326
		L160.412,123.326z M162.229,124.193c0.762,0,0.998-0.065,0.998-0.541v-3.882h0.119l2.105,3.909c0.264,0.486,0.475,0.514,1,0.514
		c0.805,0,1.016-0.065,1.016-0.541v-7.171c0-0.474-0.25-0.539-1.002-0.539c-0.764,0-1,0.065-1,0.539v3.882h-0.119l-1.959-3.894
		c-0.252-0.502-0.58-0.527-1.107-0.527c-0.801,0-1.051,0.065-1.051,0.539v7.171C161.229,124.128,161.479,124.193,162.229,124.193
		L162.229,124.193z M171.281,122.535c-0.316,0-0.461-0.015-0.656-0.039v-4.949c0.129-0.024,0.381-0.039,0.551-0.039
		c1.172,0,1.436,0.394,1.436,1.854v1.092C172.611,122.325,172.361,122.535,171.281,122.535L171.281,122.535z M171.281,124.271
		c1.842,0,3.33-0.263,3.33-3.817v-1.17c0-3.145-1.369-3.409-3.527-3.409c-0.525,0-1.264,0-1.936,0.093
		c-0.395,0.053-0.523,0.145-0.523,0.62v7.027c0,0.406,0.076,0.513,0.5,0.564C169.848,124.258,170.414,124.271,171.281,124.271
		L171.281,124.271z M176.586,124.193c0.762,0,1-0.065,1-0.541v-5.422c0-0.484-0.238-0.539-1-0.539c-0.75,0-1.002,0.055-1.002,0.539
		v5.422C175.584,124.128,175.836,124.193,176.586,124.193L176.586,124.193z M176.586,117.14c0.986,0,1.064-0.144,1.064-0.736v-0.145
		c0-0.595-0.078-0.727-1.064-0.727c-0.988,0-1.064,0.132-1.064,0.727v0.145C175.521,116.996,175.598,117.14,176.586,117.14
		L176.586,117.14z M179.756,124.193c0.764,0,1-0.065,1-0.541v-2.512h0.816l0.908,2.498c0.184,0.515,0.33,0.555,1.355,0.555
		c0.75,0,0.803-0.225,0.803-0.381c0-0.081-0.025-0.187-0.225-0.605l-1.131-2.422c0.725-0.355,1.158-1.055,1.158-2.303
		c0-2.186-0.938-2.607-2.686-2.607c-0.986,0-1.803,0.041-2.473,0.119c-0.395,0.054-0.525,0.146-0.525,0.604v7.054
		C178.758,124.128,179.006,124.193,179.756,124.193L179.756,124.193z M180.756,117.547c0.094-0.012,0.488-0.039,0.738-0.039
		c0.604,0,0.895,0.238,0.895,1.093c0,0.934-0.238,1.159-1.025,1.159h-0.607V117.547L180.756,117.547z M186.533,124.193
		c0.764,0,1-0.065,1-0.541c0-1.458-0.014-3.039-0.053-4.485h0.066l0.828,2.328c0.199,0.553,0.316,0.658,0.959,0.658
		c0.66,0,0.779-0.105,0.977-0.658l0.828-2.328h0.066c-0.039,1.446-0.066,3.027-0.066,4.485c0,0.476,0.25,0.541,1.002,0.541
		c0.762,0,0.998-0.065,0.998-0.541v-7.026c0-0.514-0.197-0.684-1.053-0.684c-0.947,0-1.209,0.052-1.447,0.619l-1.264,3.092h-0.064
		l-1.262-3.092c-0.238-0.567-0.502-0.619-1.449-0.619c-0.857,0-1.066,0.17-1.066,0.684v7.026
		C185.533,124.128,185.783,124.193,186.533,124.193L186.533,124.193z M199.482,123.326c0-0.712-0.119-0.884-0.486-0.884h-2.686
		v-1.686h1.672c0.422,0,0.488-0.157,0.488-0.867c0-0.711-0.066-0.854-0.488-0.854h-1.672v-1.345h2.553
		c0.369,0,0.486-0.156,0.486-0.868c0-0.711-0.117-0.881-0.486-0.881h-4c-0.395,0-0.553,0.065-0.553,0.488v7.276
		c0,0.421,0.158,0.486,0.553,0.486h4.133C199.363,124.193,199.482,124.035,199.482,123.326z"/>
	<path fill-rule="evenodd" clip-rule="evenodd" d="M45.454,84.375c0.142,0.338,0.221,0.708,0.221,1.097v14.745
		c0,0.479,0.056,1.935,0.349,2.343c0.005,0.005,0.009,0.011,0.014,0.016c0.086,0.042,0.315,0.052,0.401,0.052
		c0.086,0,0.315-0.01,0.401-0.053c0.002-0.006,0.008-0.01,0.012-0.017c0.295-0.406,0.351-1.862,0.351-2.341V85.472
		c0-0.355,0.065-0.695,0.185-1.01c-0.183-0.159-0.361-0.332-0.526-0.519c-0.182-0.2-0.344-0.412-0.49-0.63
		c-0.146,0.218-0.308,0.43-0.488,0.63C45.746,84.094,45.604,84.239,45.454,84.375L45.454,84.375z M37.122,82.629
		c-0.402-0.819-0.604-1.726-0.604-2.669c0-1.469,0.49-2.831,1.434-3.954c1.016-1.204,2.398-1.904,3.979-1.904
		c1.583,0,2.965,0.701,3.979,1.906c0.169,0.202,0.324,0.411,0.462,0.625c0.139-0.215,0.295-0.426,0.463-0.626
		c1.027-1.22,2.449-1.905,4.046-1.905c1.581,0,2.962,0.7,3.977,1.905c0.945,1.125,1.434,2.484,1.434,3.952
		c0,0.943-0.203,1.85-0.605,2.669h0.638c0.092,0,0.184,0.005,0.276,0.015V64.93c0-1.563,1.275-2.84,2.842-2.84H75.02
		c1.203,0,2.229,0.707,2.655,1.83c0.068,0.176,0.132,0.351,0.2,0.527c0.448,1.179,0.093,2.459-0.899,3.241
		c-1.748,1.376-3.567,2.674-5.233,4.148c-1.604,1.42-3.268,2.832-4.577,4.537c-1.86,2.426-2.38,5.254-0.326,7.725
		c3.043,3.655,6.584,6.857,10.352,9.749c4.637,3.559,9.71,6.496,14.534,9.782c1.404,0.957,2.624,2.174,3.78,3.411
		c1.971,2.108,3.548,4.742,3.279,7.734c-0.242,2.701-1.91,4.829-3.976,6.455c-2.979,2.348-6.379,4.4-9.99,5.606
		c-3.348,1.117-6.911,1.906-10.359,2.654c-3.351,0.729-6.747,1.395-10.068,2.245c-1.51,0.39-3.06-0.522-3.455-2.031
		c-0.313-1.197,0.19-2.421,1.164-3.08c0.102-0.083,0.206-0.164,0.324-0.243c0.277-0.178,0.561-0.333,0.848-0.478
		c-0.21,0-0.418,0-0.628,0c-0.53,0.005-1.06,0.012-1.59,0.016c-1.748,0.009-4.294,0.246-4.453-2.718
		c-0.003-0.054-0.003-0.1-0.003-0.153v-13.112c-0.218,0.307-0.451,0.604-0.699,0.891c-1.158,1.34-2.554,2.345-4.186,3.032
		c-0.024,0.012-0.042,0.019-0.066,0.028c-1.645,0.643-3.38,0.94-5.145,0.94c-1.764,0-3.499-0.298-5.143-0.94
		c-0.024-0.01-0.046-0.017-0.069-0.028c-1.634-0.69-3.029-1.73-4.185-3.071c-1.177-1.363-2.004-2.96-2.556-4.67
		c-0.608-1.883-0.84-3.89-0.84-5.863v-5.312h-2.996v16.596c0,1.566-1.279,2.843-2.842,2.843h-6.28c-1.565,0-2.841-1.276-2.841-2.843
		V94.942h-3.402c-1.565,0-2.843-1.277-2.843-2.843v-6.629c0-1.564,1.278-2.842,2.843-2.842h18.866c0.417,0,0.813,0.09,1.169,0.254
		c0.357-0.164,0.752-0.253,1.167-0.253H37.122z"/>
	<path fill-rule="evenodd" clip-rule="evenodd" d="M172.701,84.201c0.225-1.343,1.396-2.372,2.803-2.372h10.51
		c1.826,0,3.635,0.245,5.373,0.822c1.625,0.542,3.141,1.344,4.438,2.468c1.254,1.085,2.264,2.391,2.961,3.898
		c0.719,1.567,1.059,3.232,1.059,4.955c0,2.172-0.508,4.25-1.705,6.076c-0.563,0.856-1.215,1.608-1.959,2.261l4.383,7.34
		c0.537,0.902,0.551,1.945,0.029,2.858c-0.52,0.916-1.422,1.44-2.471,1.44h-8.432c-1.07,0-1.984-0.543-2.498-1.483l-1.334-2.453
		v1.019c0,1.564-1.277,2.842-2.842,2.842h-7.512c-1.217,0-2.26-0.77-2.664-1.851c-0.383,1.119-1.445,1.925-2.689,1.925h-19.619
		c-1.566,0-2.844-1.276-2.844-2.842V94.74l-0.148,16.47c-0.014,1.555-1.285,2.814-2.842,2.814h-7.271
		c-1.564,0-2.844-1.276-2.844-2.842v-3.967c-0.4,0.216-0.861,0.33-1.352,0.33h-3.756c-0.492,0-0.951-0.114-1.354-0.33v3.89
		c0,1.565-1.275,2.842-2.842,2.842h-7.271c-0.32,0-0.623-0.051-0.908-0.147c0.006,3.118-0.006,6.237-0.006,9.358
		c0,1.564-1.277,2.842-2.842,2.842h-14.071c-1.425,0-2.613-1.031-2.813-2.439c-0.033-0.223-0.064-0.445-0.096-0.667
		c-0.154-1.081,0.278-2.088,1.169-2.718c1.392-0.99,2.889-1.889,4.184-2.999c1.502-1.285,3.041-2.585,4.246-4.161
		c2.363-3.084,2.787-6.32,0.334-9.482c-2.682-3.458-5.928-6.396-9.358-9.096c-4.45-3.501-9.344-6.394-13.938-9.7
		c-2.004-1.442-3.826-3.186-5.43-5.06c-3.311-3.867-3.099-8.881,0.514-12.459c4.413-4.372,9.451-6.19,15.298-7.77
		c4.315-1.167,8.732-1.828,13.169-2.327c1.412-0.16,2.709,0.73,3.066,2.108c0.295,1.128-0.119,2.276-0.998,2.958
		c0.682,0.001,1.367-0.002,2.049-0.015c1.123-0.023,2.217,0.251,3.129,0.922c1.609,1.182,2.076,3.097,2.088,4.992
		c0.025,4.695,0.057,9.391,0.09,14.086c0.344-0.147,0.723-0.231,1.123-0.231h7.031c1.014,0,1.885,0.486,2.416,1.347l4.006,6.475
		l4.027-6.511c0.533-0.863,1.402-1.349,2.416-1.349h7.033c0.787,0,1.467,0.282,2.02,0.843c0.422,0.426,0.684,0.921,0.781,1.481
		c0.242-1.319,1.406-2.324,2.793-2.324h19.379C171.289,81.904,172.445,82.896,172.701,84.201L172.701,84.201z M172.662,92.167
		c-0.32,1.218-1.43,2.124-2.744,2.124c0.023,0.154,0.037,0.313,0.037,0.472v6.289c0,0.173-0.014,0.345-0.045,0.511h0.24
		c1.086,0,2.035,0.616,2.512,1.513V92.167z"/>
	<path fill-rule="evenodd" clip-rule="evenodd" fill="#FFFFFF" d="M44.404,83.447c0.142,0.338,0.22,0.707,0.22,1.097v14.747
		c0,0.478,0.057,1.931,0.351,2.342c0.003,0.004,0.007,0.011,0.012,0.015c0.086,0.042,0.317,0.052,0.402,0.052
		c0.084,0,0.313-0.01,0.398-0.053c0.005-0.003,0.011-0.011,0.012-0.017c0.296-0.405,0.352-1.864,0.352-2.339V84.544
		c0-0.355,0.066-0.696,0.185-1.009c-0.184-0.161-0.359-0.334-0.526-0.521c-0.181-0.199-0.344-0.411-0.489-0.629
		c-0.145,0.218-0.308,0.43-0.488,0.629C44.696,83.168,44.553,83.313,44.404,83.447L44.404,83.447z M36.073,81.703
		c-0.403-0.819-0.605-1.727-0.605-2.671c0-1.468,0.49-2.831,1.435-3.953c1.015-1.203,2.396-1.903,3.978-1.903
		c1.583,0,2.965,0.7,3.979,1.906c0.168,0.2,0.323,0.41,0.463,0.625c0.14-0.216,0.294-0.425,0.464-0.626
		c1.025-1.22,2.448-1.906,4.043-1.906c1.581,0,2.965,0.7,3.979,1.906c0.944,1.123,1.433,2.485,1.433,3.95
		c0,0.944-0.203,1.852-0.604,2.671h0.637c0.092,0,0.184,0.003,0.274,0.014V64.004c0-1.563,1.278-2.843,2.843-2.843h15.577
		c1.204,0,2.229,0.708,2.657,1.832c0.067,0.175,0.131,0.349,0.198,0.526c0.448,1.179,0.093,2.461-0.897,3.242
		c-1.747,1.375-3.565,2.676-5.235,4.149c-1.602,1.417-3.268,2.831-4.576,4.535c-1.86,2.427-2.382,5.254-0.325,7.725
		c3.043,3.654,6.584,6.856,10.351,9.747c4.637,3.559,9.711,6.498,14.535,9.784c1.404,0.958,2.625,2.173,3.781,3.411
		c1.971,2.105,3.548,4.742,3.278,7.733c-0.242,2.702-1.909,4.827-3.977,6.453c-2.979,2.35-6.379,4.403-9.989,5.608
		c-3.348,1.116-6.911,1.904-10.358,2.655c-3.354,0.729-6.748,1.395-10.07,2.245c-1.511,0.387-3.059-0.523-3.455-2.031
		c-0.313-1.196,0.189-2.423,1.164-3.08c0.102-0.085,0.207-0.164,0.325-0.243c0.277-0.181,0.56-0.336,0.848-0.479
		c-0.209,0-0.417,0-0.626,0.003c-0.531,0.002-1.06,0.011-1.591,0.015c-1.748,0.007-4.295,0.246-4.454-2.719
		c-0.001-0.053-0.004-0.099-0.004-0.152v-13.113c-0.217,0.306-0.448,0.604-0.697,0.889c-1.159,1.34-2.554,2.348-4.187,3.034
		c-0.021,0.012-0.043,0.019-0.067,0.028c-1.643,0.645-3.381,0.941-5.144,0.941c-1.764,0-3.498-0.297-5.142-0.941
		c-0.024-0.01-0.045-0.017-0.07-0.028c-1.632-0.689-3.029-1.729-4.186-3.069c-1.177-1.365-2.004-2.963-2.554-4.672
		c-0.608-1.885-0.84-3.889-0.84-5.864v-5.313h-2.998v16.597c0,1.567-1.276,2.843-2.841,2.843h-6.28
		c-1.565,0-2.841-1.275-2.841-2.843V94.013H14.3c-1.565,0-2.841-1.276-2.841-2.841v-6.629c0-1.565,1.276-2.84,2.841-2.84h18.867
		c0.416,0,0.813,0.088,1.169,0.25c0.357-0.162,0.752-0.25,1.169-0.25H36.073z"/>
	<path fill="#58595B" d="M65.495,126.584c0.497-0.229,0.994-0.451,1.502-0.659c1.262-0.517,2.576-0.94,3.865-1.41
		c0.906-0.33,1.812-0.659,2.716-0.991c0.451-0.161,1.071-0.524,1.071-0.964c0-0.607-0.571-0.444-1.117-0.451
		c-1.127-0.015-2.254-0.011-3.379-0.009c-2.859,0.005-5.712,0.024-8.568,0.035c-0.178,0-3.191,0.043-3.193-0.014V64.004h15.577
		c0.068,0.174,0.132,0.349,0.199,0.524c-1.789,1.41-3.626,2.724-5.358,4.252c-1.714,1.518-3.485,3.03-4.948,4.937
		c-2.769,3.613-3.093,7.861-0.253,11.269c3.26,3.918,6.992,7.261,10.803,10.186c4.74,3.639,9.787,6.556,14.666,9.878
		c1.177,0.803,2.265,1.892,3.305,3.004c3.445,3.684,3.457,6.992-0.379,10.015c-2.832,2.231-5.96,4.085-9.132,5.144
		c-5.693,1.899-14.461,3.363-20.233,4.844c0.084-0.021,0.211-0.168,0.287-0.216c0.443-0.289,0.951-0.511,1.447-0.734
		C64.746,126.93,65.121,126.757,65.495,126.584L65.495,126.584z M33.167,84.543v6.629h-6.343v19.438h-6.28V91.172H14.3v-6.629
		H33.167L33.167,84.543z M49.762,81.974c-0.733,0-1.334-0.299-1.838-0.858c-0.499-0.558-0.731-1.266-0.731-2.085
		c0-0.82,0.267-1.526,0.769-2.121c0.501-0.596,1.134-0.894,1.868-0.894c0.702,0,1.304,0.298,1.804,0.894
		c0.501,0.595,0.768,1.301,0.768,2.121c0,0.819-0.266,1.527-0.768,2.085c-0.5,0.559-1.102,0.858-1.804,0.858H49.762L49.762,81.974z
		 M40.88,81.974c-0.7,0-1.301-0.299-1.804-0.858c-0.501-0.558-0.767-1.266-0.767-2.085c0-0.82,0.266-1.526,0.767-2.121
		c0.503-0.596,1.104-0.894,1.804-0.894c0.703,0,1.303,0.298,1.803,0.894c0.5,0.595,0.769,1.301,0.769,2.121
		c0,0.819-0.234,1.527-0.734,2.085c-0.502,0.559-1.104,0.858-1.804,0.858H40.88L40.88,81.974z M55.274,84.544l0.13,14.781
		c0.035,1.899-0.231,3.574-0.699,5.029c-0.469,1.452-1.137,2.682-2.005,3.687c-0.869,1.005-1.902,1.75-3.139,2.271
		c-1.236,0.485-2.604,0.746-4.108,0.746c-1.502,0-2.871-0.261-4.106-0.746c-1.236-0.521-2.271-1.302-3.14-2.309
		c-0.867-1.006-1.535-2.235-2.002-3.688c-0.469-1.452-0.701-3.128-0.701-4.991V84.544h6.277v14.747c0,1.861,0.303,3.201,0.901,4.022
		c0.602,0.816,1.502,1.229,2.706,1.229c1.2,0,2.104-0.412,2.703-1.229c0.604-0.821,0.902-2.161,0.902-4.022V84.544H55.274z"/>
	<path fill-rule="evenodd" clip-rule="evenodd" fill="#FFFFFF" d="M171.65,83.274c0.227-1.344,1.4-2.372,2.803-2.372h10.51
		c1.828,0,3.635,0.245,5.373,0.822c1.625,0.542,3.137,1.345,4.439,2.467c1.256,1.085,2.266,2.392,2.959,3.9
		c0.721,1.565,1.059,3.23,1.059,4.954c0,2.172-0.508,4.248-1.703,6.077c-0.561,0.854-1.217,1.606-1.959,2.261l4.381,7.339
		c0.537,0.902,0.549,1.946,0.031,2.859c-0.52,0.913-1.42,1.44-2.471,1.44h-8.436c-1.066,0-1.982-0.546-2.494-1.483l-1.338-2.453
		v1.016c0,1.567-1.275,2.844-2.84,2.844h-7.512c-1.219,0-2.26-0.771-2.662-1.852c-0.383,1.121-1.445,1.926-2.691,1.926h-19.617
		c-1.566,0-2.842-1.275-2.842-2.841V93.813l-0.152,16.47c-0.012,1.553-1.285,2.813-2.84,2.813h-7.273
		c-1.564,0-2.842-1.276-2.842-2.841v-3.969c-0.4,0.218-0.859,0.333-1.352,0.333h-3.758c-0.492,0-0.951-0.115-1.354-0.333v3.891
		c0,1.566-1.275,2.842-2.842,2.842h-7.273c-0.318,0-0.621-0.052-0.906-0.148c0.008,3.12-0.006,6.239-0.006,9.359
		c0,1.565-1.277,2.841-2.844,2.841H99.13c-1.424,0-2.611-1.029-2.813-2.439c-0.032-0.222-0.064-0.443-0.097-0.665
		c-0.153-1.082,0.28-2.088,1.169-2.721c1.392-0.985,2.891-1.885,4.186-2.995c1.5-1.286,3.039-2.589,4.246-4.163
		c2.363-3.083,2.787-6.319,0.334-9.482c-2.684-3.458-5.928-6.396-9.358-9.094c-4.451-3.501-9.345-6.396-13.938-9.703
		c-2.005-1.442-3.825-3.183-5.432-5.057c-3.31-3.868-3.096-8.883,0.515-12.461c4.413-4.373,9.451-6.19,15.298-7.771
		c4.316-1.165,8.732-1.827,13.169-2.326c1.414-0.159,2.711,0.732,3.068,2.108c0.295,1.128-0.121,2.277-0.998,2.958
		c0.682,0.001,1.365-0.001,2.051-0.015c1.119-0.022,2.215,0.252,3.127,0.923c1.607,1.184,2.076,3.097,2.086,4.993
		c0.027,4.695,0.059,9.391,0.09,14.086c0.344-0.149,0.725-0.232,1.121-0.232h7.033c1.014,0,1.883,0.485,2.418,1.346l4.004,6.476
		l4.029-6.512c0.533-0.861,1.402-1.347,2.416-1.347h7.033c0.787,0,1.463,0.283,2.018,0.841c0.424,0.426,0.682,0.922,0.783,1.483
		c0.244-1.32,1.404-2.324,2.793-2.324h19.379C170.24,80.978,171.395,81.969,171.65,83.274L171.65,83.274z M171.613,91.239
		c-0.318,1.219-1.432,2.123-2.748,2.126c0.027,0.153,0.041,0.311,0.041,0.471v6.289c0,0.173-0.016,0.344-0.047,0.508h0.24
		c1.086,0,2.033,0.616,2.514,1.516V91.239z"/>
	<path fill="#AD6716" d="M113.199,122.23H99.13c-0.032-0.223-0.064-0.443-0.096-0.666c1.467-1.04,2.993-1.961,4.391-3.157
		c1.617-1.39,3.281-2.8,4.652-4.591c3.199-4.175,3.533-8.814,0.324-12.952c-2.908-3.748-6.361-6.845-9.848-9.586
		c-4.543-3.575-9.389-6.43-14.034-9.774c-1.753-1.262-3.425-2.841-4.932-4.602c-2.375-2.773-2.181-6.08,0.355-8.593
		c4.187-4.15,9.112-5.715,14.039-7.047c4.194-1.132,8.459-1.763,12.745-2.244c-1.791,0.75-3.582,1.503-5.373,2.257
		c-0.872,0.365-1.743,0.732-2.616,1.095c-0.676,0.284-1.346,1.176-0.621,1.677c0.504,0.347,1.709,0.036,2.311,0.035
		c1.608,0,3.219,0,4.825,0c1.779,0.002,3.557,0.037,5.334,0.003c1.561-0.03,2.305,0.916,2.316,3.09
		c0.084,14.44,0.203,28.879,0.293,43.317C113.223,114.405,113.199,118.318,113.199,122.23L113.199,122.23z M143.889,83.82
		l-0.24,26.436h-7.273v-5.726c0-2.976,0.08-5.161,0.24-6.588c0.162-1.433,0.24-2.147,0.197-2.147h-0.078l-0.32,0.564
		c-0.197,0.376-0.477,0.792-0.758,1.279c-0.279,0.49-0.52,0.944-0.756,1.396l-0.441,0.826l-2.277,3.917h-3.758l-2.277-3.917
		c-0.039-0.113-0.199-0.413-0.439-0.865c-0.238-0.451-0.479-0.904-0.76-1.393c-0.279-0.489-0.559-0.94-0.758-1.318l-0.32-0.565
		h-0.08c-0.041,0,0.039,0.716,0.199,2.148c0.16,1.43,0.24,3.614,0.24,6.587v5.724h-7.273v-26.32h7.033l4.357,7.041
		c0.838,1.394,1.396,2.372,1.639,2.975c0.238,0.604,0.357,0.904,0.398,0.904h0.078c0.041,0,0.16-0.301,0.402-0.904
		c0.238-0.603,0.797-1.618,1.637-3.014l4.355-7.04H143.889L143.889,83.82z M169.1,103.478v6.701h-19.617V83.82h19.379v6.702h-11.869
		v3.313h9.072v6.289h-9.072v3.353H169.1L169.1,103.478z M182.047,95.605h3.754c0.441,0,0.801-0.075,1.121-0.226
		c0.318-0.15,0.559-0.376,0.76-0.64c0.197-0.266,0.32-0.528,0.398-0.83c0.08-0.302,0.119-0.6,0.119-0.864s-0.039-0.566-0.119-0.867
		c-0.078-0.3-0.201-0.604-0.398-0.867c-0.201-0.263-0.441-0.489-0.76-0.641c-0.32-0.148-0.68-0.223-1.121-0.223h-3.754V95.605
		L182.047,95.605z M188.637,110.179l-4.551-8.358h-2.121v8.281h-7.512V83.743h10.51c1.639,0,3.117,0.227,4.477,0.678
		c1.357,0.452,2.518,1.094,3.477,1.921c0.957,0.828,1.713,1.809,2.236,2.938c0.52,1.129,0.799,2.375,0.799,3.767
		c0,1.731-0.4,3.238-1.238,4.519c-0.84,1.28-1.959,2.261-3.395,2.975l5.754,9.64H188.637z"/>
	<path d="M64.097,125.854c0.496-0.227,0.994-0.454,1.503-0.662c1.259-0.512,2.576-0.938,3.864-1.407
		c0.906-0.332,1.812-0.659,2.716-0.99c0.449-0.162,1.07-0.525,1.07-0.966c0.002-0.607-0.569-0.444-1.116-0.451
		c-1.129-0.014-2.255-0.008-3.382-0.008c-2.856,0.004-5.709,0.022-8.568,0.035c-0.175,0-3.189,0.043-3.191-0.013V63.274h15.579
		c0.065,0.176,0.13,0.35,0.197,0.524c-1.789,1.412-3.625,2.725-5.357,4.254c-1.716,1.516-3.486,3.028-4.949,4.937
		c-2.769,3.612-3.095,7.86-0.254,11.269c3.261,3.917,6.991,7.26,10.805,10.185c4.738,3.64,9.785,6.556,14.665,9.88
		c1.178,0.802,2.265,1.89,3.305,3c3.444,3.688,3.456,6.994-0.381,10.017c-2.828,2.231-5.957,4.085-9.129,5.145
		c-5.694,1.898-14.461,3.363-20.234,4.844c0.087-0.022,0.213-0.171,0.289-0.218c0.443-0.291,0.95-0.51,1.446-0.736
		C63.348,126.2,63.722,126.027,64.097,125.854L64.097,125.854z M31.768,83.813v6.629h-6.343v19.439h-6.278V90.441h-6.243v-6.629
		H31.768L31.768,83.813z M48.364,81.244c-0.733,0-1.336-0.298-1.837-0.855c-0.5-0.559-0.733-1.267-0.733-2.085
		c0-0.821,0.268-1.528,0.767-2.125c0.501-0.593,1.135-0.89,1.87-0.89c0.701,0,1.303,0.297,1.804,0.89
		c0.499,0.598,0.766,1.304,0.766,2.125c0,0.818-0.267,1.526-0.766,2.085c-0.501,0.558-1.103,0.855-1.804,0.855H48.364L48.364,81.244
		z M39.482,81.244c-0.701,0-1.302-0.298-1.804-0.855c-0.501-0.559-0.767-1.267-0.767-2.085c0-0.821,0.266-1.528,0.767-2.125
		c0.502-0.593,1.104-0.89,1.804-0.89c0.702,0,1.302,0.297,1.802,0.89c0.5,0.598,0.769,1.304,0.769,2.125
		c0,0.818-0.232,1.526-0.734,2.085c-0.501,0.558-1.104,0.855-1.804,0.855H39.482L39.482,81.244z M53.875,83.815l0.133,14.782
		c0.035,1.901-0.234,3.576-0.699,5.027c-0.469,1.453-1.137,2.683-2.006,3.688c-0.868,1.005-1.902,1.75-3.14,2.271
		c-1.235,0.483-2.604,0.744-4.106,0.744s-2.87-0.261-4.107-0.744c-1.235-0.521-2.271-1.302-3.139-2.309
		c-0.866-1.006-1.534-2.235-2-3.686c-0.471-1.455-0.703-3.13-0.703-4.992V83.815h6.278v14.747c0,1.861,0.3,3.201,0.899,4.021
		c0.604,0.82,1.501,1.229,2.705,1.229c1.201,0,2.103-0.408,2.704-1.229c0.603-0.819,0.902-2.159,0.902-4.021V83.815H53.875z"/>
	<path fill="#F7941E" d="M111.801,121.501H97.732c-0.031-0.223-0.063-0.444-0.096-0.666c1.468-1.041,2.994-1.961,4.391-3.156
		c1.619-1.391,3.281-2.802,4.65-4.592c3.201-4.175,3.535-8.814,0.324-12.952c-2.906-3.747-6.36-6.845-9.844-9.587
		c-4.545-3.574-9.392-6.428-14.035-9.773c-1.752-1.262-3.426-2.843-4.933-4.601c-2.375-2.774-2.181-6.081,0.355-8.593
		c4.187-4.15,9.111-5.715,14.04-7.046c4.193-1.134,8.46-1.765,12.746-2.246c-1.793,0.751-3.584,1.502-5.375,2.257
		c-0.873,0.365-1.742,0.731-2.615,1.096c-0.677,0.283-1.348,1.175-0.621,1.677c0.504,0.346,1.708,0.036,2.312,0.034
		c1.607,0,3.217,0,4.823,0.001c1.779,0,3.557,0.037,5.334,0.003c1.561-0.033,2.307,0.917,2.318,3.09
		c0.08,14.439,0.201,28.878,0.293,43.317C111.824,113.676,111.801,117.588,111.801,121.501L111.801,121.501z M142.492,83.091
		l-0.244,26.436h-7.27v-5.725c0-2.977,0.078-5.161,0.238-6.59c0.16-1.431,0.24-2.146,0.199-2.146h-0.08l-0.318,0.564
		c-0.197,0.377-0.48,0.792-0.758,1.279c-0.281,0.49-0.521,0.944-0.76,1.396l-0.439,0.826l-2.277,3.917h-3.756l-2.277-3.917
		c-0.041-0.113-0.199-0.413-0.441-0.865c-0.24-0.45-0.479-0.904-0.762-1.393c-0.277-0.489-0.555-0.94-0.758-1.318l-0.318-0.565
		h-0.08c-0.039,0,0.039,0.717,0.201,2.146c0.158,1.434,0.24,3.617,0.24,6.592v5.722h-7.273V83.127h7.033l4.354,7.042
		c0.84,1.394,1.398,2.374,1.643,2.977c0.236,0.601,0.357,0.902,0.396,0.902h0.08c0.037,0,0.158-0.302,0.4-0.902
		c0.236-0.603,0.797-1.62,1.637-3.014l4.355-7.041H142.492L142.492,83.091z M167.703,102.746v6.703h-19.621V83.091h19.381v6.702
		h-11.869v3.313h9.07v6.288h-9.07v3.352H167.703L167.703,102.746z M180.646,94.876h3.758c0.441,0,0.799-0.076,1.119-0.226
		c0.32-0.151,0.561-0.378,0.758-0.642c0.199-0.263,0.32-0.527,0.402-0.826c0.08-0.302,0.117-0.604,0.117-0.866
		c0-0.264-0.037-0.566-0.117-0.867c-0.082-0.3-0.203-0.604-0.402-0.867c-0.197-0.264-0.438-0.488-0.758-0.64
		c-0.32-0.15-0.678-0.226-1.119-0.226h-3.758V94.876L180.646,94.876z M187.24,109.451l-4.555-8.361h-2.117v8.285h-7.514V83.014
		h10.51c1.639,0,3.119,0.226,4.477,0.679c1.355,0.45,2.518,1.09,3.479,1.92c0.957,0.829,1.713,1.808,2.236,2.937
		c0.518,1.129,0.797,2.373,0.797,3.767c0,1.731-0.398,3.238-1.24,4.519c-0.836,1.28-1.957,2.26-3.393,2.975l5.752,9.642H187.24z"/>
</g>
</svg>
