<?xml version="1.0" encoding="utf-8"?>
<!-- Generator: Adobe Illustrator 24.0.1, SVG Export Plug-In . SVG Version: 6.00 Build 0)  -->
<svg version="1.1" id="Layer_1" xmlns="http://www.w3.org/2000/svg" xmlns:xlink="http://www.w3.org/1999/xlink" x="0px" y="0px"
	 viewBox="0 0 216 188" style="enable-background:new 0 0 216 188;" xml:space="preserve">
<style type="text/css">
	.st0{fill-rule:evenodd;clip-rule:evenodd;fill:#E30520;}
	.st1{fill-rule:evenodd;clip-rule:evenodd;fill:#FFFFFF;}
	.st2{fill-rule:evenodd;clip-rule:evenodd;fill:#113578;}
</style>
<path class="st0" d="M170.7,53.4L208,90.7c3.5,3.5,3.5,9.2,0,12.7l-37.3,37.3c-3.6,3.5-9.3,3.5-12.7,0l-37.3-37.3
	c-3.6-3.6-3.6-9.3,0-12.7l37.3-37.3C161.4,49.8,167.1,49.8,170.7,53.4L170.7,53.4z"/>
<path class="st1" d="M181.1,68.8c0,0,0.1,23.5,0,28.5c0,2-1.8,3.7-3.8,3.7c-0.3,0-0.7,0-0.8,0h-18L181.1,68.8L181.1,68.8z"/>
<path class="st1" d="M180.5,68.9L151,101h-16.9c-0.8,0-1.4-0.6-1.2-1.5c0.1-0.5,0.6-0.9,1-1.2C139.2,95,180.5,68.9,180.5,68.9
	L180.5,68.9z"/>
<path class="st2" d="M93.9,101.9c-3.4,0-6.6-0.5-9.6-1.3l2.7-6.5c2.2,1,4.5,1.8,7.2,1.8c2,0,5.1-0.6,6.1-3.4
	c1.6-4.5-9.3-8.1-6.7-15.5c1.9-5.2,6.8-8.8,15.3-8.8c3.2,0,6.4,0.5,9.4,1l-2.5,6.3c-1.7-0.8-3.6-1.5-6-1.5c-2.7,0-5.5,0.3-6.5,3.1
	c-1.5,4.1,9.4,7.9,6.5,15.9C107.5,99.8,99.3,101.9,93.9,101.9L93.9,101.9z"/>
<path class="st2" d="M75.8,94.2c1-2.3,2.2-5.4,3.9-9.7c-4.4,3-15.1,2.7-17.1,8.4c-1,3,1.5,4,4.1,3.8C70.8,96.5,75.8,94.2,75.8,94.2
	L75.8,94.2z M62.3,101.9c-10.4,0.4-9.3-6.2-8.3-9.1c4.7-13.1,25.9-8.9,28.4-15.8c1.1-3.1-2.3-3.8-4.6-3.6c-3,0.3-4.8,0.7-7.4,1.4
	l2.1-5.3c3.4-0.5,4.7-0.8,9.4-1.2c5.7-0.5,12.1,1.4,9.6,8.3c-1.7,4.6-6.4,14.8-9.8,24.5l-8.6,0.1c0.4-0.9,0.8-2.3,0.8-2.3
	S67.8,101.7,62.3,101.9L62.3,101.9z"/>
<path class="st2" d="M121.6,74.4c0.3-1.2,0.6-2.2,0.9-3.4h1c0.3,0,0.6,0.1,0.5,0.6c-0.1,0.6-0.6,0.7-1.1,0.7c-0.1,0-0.3-0.1-0.4-0.1
	c0.2,0.7,0.5,1.4,0.6,2.1h1c-0.3-0.6-0.6-1.2-0.8-1.7c0.4,0,1.2-0.1,1.4-1.1c0.2-0.7-0.2-1-0.9-1h-1.8c-0.3,1.2-0.7,2.5-1,3.8H121.6
	L121.6,74.4z M121.9,75.8c2.2,0,3.8-1.5,4.3-3.4c0.5-1.7-0.3-3.2-2.5-3.2c-2.1,0-3.8,1.5-4.3,3.4C119.1,74.3,119.7,75.8,121.9,75.8
	L121.9,75.8z M122,75.3c-1.6,0-2.2-1.2-1.9-2.7c0.4-1.6,1.8-2.8,3.4-2.8c1.6,0,2.3,1.2,1.9,2.7C125.1,74.1,123.7,75.3,122,75.3
	L122,75.3z"/>
<path class="st2" d="M31.5,94.2c1-2.3,2.3-5.4,4-9.7c-4.4,3-15.1,2.7-17.1,8.4c-1.1,3,1.5,4,4.1,3.8C26.5,96.5,31.5,94.2,31.5,94.2
	L31.5,94.2z M18,101.9c-10.4,0.4-9.3-6.2-8.2-9.1c4.6-13.1,25.9-8.9,28.4-15.8c1.1-3.1-2.3-3.8-4.7-3.6c-3,0.3-4.7,0.7-7.3,1.4
	l2-5.3c3.4-0.5,4.7-0.8,9.5-1.2c5.6-0.5,12,1.4,9.5,8.3c-1.6,4.6-6.3,14.8-9.8,24.5l-8.6,0.1c0.5-0.9,0.9-2.3,0.9-2.3
	S23.6,101.7,18,101.9L18,101.9z"/>
<path class="st2" d="M57.6,78.6c-2.1,5.6-8.5,22.5-8.5,22.5l-8.9,0.1c0.3-0.6,5.2-13.6,8.8-23c3.9-9,8.5-10.4,15.4-10.1
	c1.9,0.1,4.1,0.5,5.9,0.8l-2.4,5.6C64.3,73.6,59.6,73.1,57.6,78.6L57.6,78.6z"/>
<path class="st2" d="M45.1,118.9c-1.2,0.4-2.5,0.6-3.8,0.6c-2.7,0-3.5-1.6-2.6-4.3c1-2.8,3.1-4.8,6-4.8c1.3,0,2.4,0.3,3.5,0.7
	l0.8-3.1c-1.2-0.4-2.5-0.6-4-0.6c-7.6,0-10,6.7-10.4,7.9c-1.6,4.5,0.1,7.1,4.6,7.1c1.4,0,2.8-0.2,4.1-0.5L45.1,118.9L45.1,118.9z"/>
<path class="st2" d="M65.6,128.2c1.9,0.5,3.9,0.8,6.1,0.8c4.1,0,7.4-1.4,9.1-5.9c2.5-6.6,4.7-11.8,6-14.9c-1.9-0.4-3.8-0.7-5.9-0.7
	c-8.5,0-11.7,6-12.6,8.5c-1.3,3.8,0.1,6.3,4,6.3c2.1,0,4.2-0.8,5.9-2.5h0.1c-1.2,3.2-2.2,6.3-6.5,6.3c-1.9,0-3.6-0.5-5.1-1.1
	L65.6,128.2L65.6,128.2z M81.8,110.6c-0.7,1.8-1.4,3.5-2.1,5.2c-1.1,1.9-3,3.8-5.2,3.8c-2.3,0-3-1.6-2.2-3.8
	c0.5-1.5,2.4-5.4,7.3-5.4C80.3,110.4,81.1,110.4,81.8,110.6L81.8,110.6z"/>
<path class="st2" d="M95.5,107.5c-4.8,0-9.1,3-10.9,7.9c-1.1,3.1-0.6,7.1,5.2,7.1c6.7,0,9.8-5,10.8-7.8
	C102.2,110.1,100,107.5,95.5,107.5L95.5,107.5z M94.5,110.4c2.6,0,3,1.9,2.1,4.3c-0.9,2.6-2.9,5-5.8,5c-2.5,0-3-1.9-2.2-4.2
	C89.5,112.8,91.5,110.4,94.5,110.4L94.5,110.4z"/>
<path class="st2" d="M55.1,119.1c0.4-1,1-2.5,1.7-4.4c-1.9,1.4-6.8,1.2-7.7,3.8c-0.5,1.4,0.6,1.8,1.8,1.7
	C52.8,120,55.1,119.1,55.1,119.1L55.1,119.1z M49,122.5c-4.7,0.2-4.2-2.8-3.7-4.1c2.1-5.9,11.6-4,12.7-7.1c0.5-1.4-1-1.7-2.1-1.6
	c-1.4,0.1-2.1,0.3-3.3,0.6l0.9-2.3c1.6-0.3,2.1-0.4,4.3-0.6c2.5-0.2,5.4,0.6,4.3,3.8c-0.7,2.1-2.8,6.7-4.4,11h-3.9
	c0.2-0.4,0.4-1,0.4-1S51.5,122.4,49,122.5L49,122.5z"/>
<path class="st2" d="M67.1,112.1c-0.9,2.5-3.8,10-3.8,10h-3.9c0.1-0.3,2.3-6,3.9-10.3c1.7-3.9,3.8-4.6,6.9-4.5
	c0.8,0,1.8,0.2,2.6,0.3l-1,2.5C70.1,109.9,68,109.7,67.1,112.1L67.1,112.1z"/>
</svg>
