<?xml version="1.0" encoding="utf-8"?>
<!-- Generator: Adobe Illustrator 24.0.1, SVG Export Plug-In . SVG Version: 6.00 Build 0)  -->
<svg version="1.1" id="Layer_1" xmlns="http://www.w3.org/2000/svg" xmlns:xlink="http://www.w3.org/1999/xlink" x="0px" y="0px"
	 viewBox="0 0 216 188" style="enable-background:new 0 0 216 188;" xml:space="preserve">
<style type="text/css">
	.st0{fill-rule:evenodd;clip-rule:evenodd;fill:#00A551;}
	.st1{fill-rule:evenodd;clip-rule:evenodd;fill:#A5CD39;}
	.st2{fill-rule:evenodd;clip-rule:evenodd;fill:#FFD900;}
	.st3{fill-rule:evenodd;clip-rule:evenodd;fill:#FFFFFF;}
	.st4{fill:#E4003F;}
	.st5{fill:#2C2F88;}
	.st6{fill:none;}
</style>
<g>
	<path class="st0" d="M98.9-208.3L98.9-208.3L98.9-208.3L98.9-208.3L98.9-208.3L98.9-208.3L98.9-208.3L98.9-208.3L98.9-208.3
		L98.9-208.3L98.9-208.3L98.9-208.3L98.9-208.3L98.9-208.3L98.9-208.3L98.9-208.3L98.9-208.3L98.9-208.3L98.9-208.3L98.9-208.3
		L98.9-208.3L98.9-208.3L98.9-208.3L98.9-208.3L98.9-208.3L98.9-208.3C98.9-208.2,98.9-208.2,98.9-208.3L98.9-208.3L98.9-208.3
		L98.9-208.3L98.9-208.3L98.9-208.3L98.9-208.3L98.9-208.3L98.9-208.3L98.9-208.3L98.9-208.3L98.9-208.3L98.9-208.3L98.9-208.3
		L98.9-208.3L98.9-208.3L98.9-208.3L98.9-208.3L98.9-208.3L98.9-208.3L98.9-208.3L98.9-208.3L98.9-208.3L98.9-208.3L98.9-208.3
		C98.9-208.3,98.9-208.3,98.9-208.3L98.9-208.3L98.9-208.3z M75.7-248.5c0.3-6.3,1.5-11.9,2.8-16c3.5,2.3,8.1,5.9,12.4,10.4
		c2.4-5.8,5.5-10.7,8.1-14.1c2.5,3.4,5.6,8.3,8.1,14.1c4.3-4.6,8.8-8.2,12.4-10.4c1.2,4,2.4,9.7,2.8,16c5.6-2.9,11.1-4.6,15.2-5.6
		c-0.2,4.2-1,10-2.9,15.9c6.2-0.8,12-0.6,16.2,0c-1.6,3.9-4.4,9-8.1,14c6.1,1.4,11.5,3.6,15.2,5.5c-2.9,3.1-7.2,7-12.4,10.4
		c5.3,3.4,9.6,7.3,12.4,10.4c-3.8,1.9-9.1,4.1-15.2,5.5c3.8,5,6.5,10.1,8.1,14c-4.2,0.5-10,0.7-16.2,0c1.8,6,2.6,11.7,2.9,15.9
		c-4.1-0.9-9.6-2.7-15.2-5.6c-0.3,6.3-1.5,11.9-2.8,16c-3.5-2.3-8.1-5.9-12.4-10.4c-2.4,5.8-5.5,10.7-8.1,14.1
		c-2.5-3.4-5.6-8.3-8.1-14.1c-4.3,4.6-8.8,8.2-12.4,10.4c-1.2-4-2.4-9.7-2.8-16c-5.6,2.9-11.1,4.6-15.2,5.6c0.2-4.2,1-10,2.9-15.9
		c-6.2,0.8-12,0.6-16.2,0c1.6-3.9,4.4-9,8.1-14c-6.1-1.4-11.5-3.6-15.2-5.5c2.9-3.1,7.2-7,12.4-10.4c-5.3-3.4-9.6-7.3-12.4-10.4
		c3.8-1.9,9.1-4.1,15.2-5.5c-3.8-5-6.5-10.1-8.1-14c4.2-0.5,10-0.7,16.2,0c-1.8-6-2.6-11.7-2.9-15.9
		C64.6-253.1,70.1-251.3,75.7-248.5L75.7-248.5z M98.9-208.3L98.9-208.3L98.9-208.3L98.9-208.3z"/>
	<path class="st1" d="M98.9-208.3C98.9-208.3,98.9-208.3,98.9-208.3L98.9-208.3L98.9-208.3L98.9-208.3L98.9-208.3L98.9-208.3
		C98.9-208.3,98.9-208.3,98.9-208.3L98.9-208.3L98.9-208.3L98.9-208.3C98.9-208.2,98.9-208.2,98.9-208.3
		C98.9-208.2,98.9-208.2,98.9-208.3C98.9-208.2,98.9-208.2,98.9-208.3L98.9-208.3L98.9-208.3L98.9-208.3
		C98.9-208.2,98.9-208.2,98.9-208.3L98.9-208.3L98.9-208.3L98.9-208.3L98.9-208.3L98.9-208.3L98.9-208.3L98.9-208.3L98.9-208.3
		L98.9-208.3L98.9-208.3L98.9-208.3C98.9-208.3,98.9-208.3,98.9-208.3L98.9-208.3L98.9-208.3L98.9-208.3L98.9-208.3L98.9-208.3
		L98.9-208.3L98.9-208.3L98.9-208.3z M64.7-202.2c-4.4-1.5-8.6-3.6-12.3-6c3.7-2.4,7.8-4.5,12.3-6c-3.7-2.9-6.8-6.4-9.5-9.9
		c4.3-1,8.9-1.6,13.6-1.5c-2.4-4-4.2-8.3-5.5-12.5c4.3,0.5,8.9,1.6,13.3,3.3c-0.9-4.6-1.1-9.3-0.9-13.6c3.9,2,7.8,4.5,11.3,7.6
		c0.7-4.6,2.1-9.1,3.8-13.1c3,3.2,5.8,6.9,8.1,11c2.2-4.1,5.1-7.8,8.1-11c1.7,4,3.1,8.5,3.8,13.1c3.5-3.1,7.4-5.6,11.3-7.6
		c0.2,4.4,0,9-0.9,13.6c4.4-1.7,8.9-2.7,13.3-3.3c-1.3,4.2-3.1,8.5-5.5,12.5c4.7-0.1,9.3,0.5,13.6,1.5c-2.6,3.5-5.8,6.9-9.5,9.9
		c4.4,1.5,8.6,3.6,12.3,6c-3.7,2.4-7.8,4.5-12.3,6c3.7,2.9,6.8,6.4,9.5,9.9c-4.3,1-8.9,1.6-13.6,1.5c2.4,4,4.2,8.3,5.5,12.5
		c-4.3-0.5-8.9-1.6-13.3-3.3c0.9,4.6,1.1,9.3,0.9,13.6c-3.9-2-7.8-4.5-11.3-7.6c-0.7,4.6-2.1,9.1-3.8,13.1c-3-3.2-5.8-6.9-8.1-11
		c-2.2,4.1-5.1,7.8-8.1,11c-1.7-4-3.1-8.5-3.8-13.1c-3.5,3.1-7.4,5.6-11.3,7.6c-0.2-4.4,0-9,0.9-13.6c-4.4,1.7-8.9,2.7-13.3,3.3
		c1.3-4.2,3.1-8.5,5.5-12.5c-4.7,0.1-9.3-0.5-13.6-1.5C57.9-195.9,61.1-199.3,64.7-202.2L64.7-202.2z"/>
	<path class="st2" d="M98.9-208.2L98.9-208.2L98.9-208.2L98.9-208.2L98.9-208.2z M98.9-208.2L98.9-208.2L98.9-208.2
		C98.9-208.2,98.9-208.2,98.9-208.2L98.9-208.2L98.9-208.2L98.9-208.2L98.9-208.2C98.9-208.2,98.9-208.2,98.9-208.2
		C98.9-208.2,98.9-208.2,98.9-208.2C98.9-208.2,98.9-208.2,98.9-208.2L98.9-208.2L98.9-208.2z M98.9-208.2L98.9-208.2L98.9-208.2
		L98.9-208.2C98.9-208.3,98.9-208.3,98.9-208.2C98.9-208.3,98.9-208.3,98.9-208.2L98.9-208.2C98.9-208.3,98.9-208.3,98.9-208.2
		C98.9-208.3,98.9-208.3,98.9-208.2C98.9-208.3,98.9-208.3,98.9-208.2C98.9-208.3,98.9-208.3,98.9-208.2
		C98.9-208.3,98.9-208.3,98.9-208.2C98.9-208.3,98.9-208.3,98.9-208.2L98.9-208.2L98.9-208.2C98.9-208.3,98.9-208.3,98.9-208.2
		L98.9-208.2C98.9-208.2,98.9-208.2,98.9-208.2L98.9-208.2L98.9-208.2L98.9-208.2z M98.9-208.2L98.9-208.2L98.9-208.2L98.9-208.2z
		 M94.8-231.6c0.8-4,2.2-7.8,4.1-11.3c1.9,3.5,3.4,7.3,4.1,11.3c2.1-3.5,4.8-6.6,7.7-9.2c0.6,3.9,0.7,8,0,12c3.2-2.6,6.7-4.6,10.4-6
		c-0.8,3.9-2.1,7.7-4.1,11.3c3.9-1.4,7.9-2,11.9-2.1c-2.1,3.4-4.6,6.6-7.7,9.2c4.1,0,8.1,0.8,11.9,2.1c-3.1,2.5-6.6,4.6-10.4,6
		c3.8,1.4,7.3,3.6,10.4,6c-3.8,1.3-7.7,2.1-11.9,2.1c3.1,2.7,5.7,5.8,7.7,9.2c-4-0.1-8-0.7-11.9-2.1c2,3.6,3.3,7.4,4.1,11.3
		c-3.7-1.5-7.3-3.4-10.4-6c0.7,4,0.6,8.1,0,12c-3-2.6-5.7-5.7-7.7-9.2c-0.8,4-2.2,7.8-4.1,11.3c-1.9-3.5-3.4-7.3-4.1-11.3
		c-2.1,3.5-4.8,6.6-7.7,9.2c-0.6-3.9-0.7-8,0-12c-3.2,2.6-6.7,4.6-10.4,6c0.8-3.9,2.1-7.7,4.1-11.3c-3.9,1.4-7.9,2-11.9,2.1
		c2.1-3.4,4.6-6.6,7.7-9.2c-4.1,0-8.1-0.8-11.9-2.1c3.1-2.5,6.6-4.6,10.4-6c-3.8-1.4-7.3-3.6-10.4-6c3.8-1.3,7.7-2.1,11.9-2.1
		c-3.1-2.7-5.7-5.8-7.7-9.2c4,0.1,8,0.7,11.9,2.1c-2-3.6-3.3-7.4-4.1-11.3c3.7,1.5,7.3,3.4,10.4,6c-0.7-4-0.6-8.1,0-12
		C90-238.2,92.7-235.2,94.8-231.6L94.8-231.6z M98.9-208.3L98.9-208.3L98.9-208.3z"/>
	<path class="st3" d="M94.7-219.7c-0.8-4.2-0.7-8.2,0-11.9c2,3.3,3.4,7,4.1,11.2c0.7-4.2,2.2-7.9,4.1-11.2c0.7,3.8,0.8,7.8,0.1,11.9
		c2.1-3.7,4.7-6.7,7.7-9.1c-0.6,3.8-1.9,7.6-4,11.2c3.2-2.7,6.7-4.6,10.4-5.9c-1.9,3.3-4.4,6.5-7.6,9.2c4-1.5,7.9-2.1,11.8-2
		c-2.9,2.5-6.3,4.6-10.3,6c4.2,0,8.1,0.8,11.7,2.1c-3.6,1.4-7.5,2.1-11.7,2.1c4,1.4,7.4,3.5,10.3,6c-3.8,0-7.8-0.6-11.8-2
		c3.3,2.7,5.7,5.8,7.6,9.2c-3.6-1.3-7.1-3.2-10.4-5.9c2.1,3.7,3.4,7.4,4,11.2c-3-2.4-5.6-5.4-7.7-9.1c0.8,4.2,0.7,8.2,0,11.9
		c-2-3.3-3.4-7-4.1-11.2c-0.7,4.2-2.2,7.9-4.1,11.2c-0.7-3.8-0.8-7.8,0-11.9c-2.1,3.7-4.7,6.7-7.7,9.1c0.6-3.8,1.9-7.6,4-11.2
		c-3.2,2.7-6.7,4.7-10.4,5.9c1.9-3.3,4.4-6.5,7.6-9.2c-4,1.5-7.9,2.1-11.8,2c2.9-2.5,6.3-4.6,10.3-6c-4.2,0-8.1-0.8-11.7-2.1
		c3.6-1.4,7.5-2.1,11.7-2.1c-4-1.4-7.4-3.5-10.3-6c3.8,0,7.8,0.6,11.8,2c-3.3-2.7-5.7-5.8-7.6-9.2c3.6,1.3,7.1,3.2,10.4,5.9
		c-2.1-3.7-3.4-7.4-4-11.2C90-226.4,92.7-223.4,94.7-219.7L94.7-219.7z"/>
	<path class="st0" d="M114.8-305.1v29.2h4.3v-2.8c1.8,2.4,3.8,3.5,6.7,3.5c5.4,0,9.2-4.4,9.2-11.3c0-7.1-3.9-11.5-9.1-11.5
		c-2.9,0-5.1,1.2-6.7,3.5v-10.6H114.8L114.8-305.1z M124.8-294c3.5,0,5.6,2.7,5.6,7.6c0,4.6-2.2,7.3-5.6,7.3c-3.6,0-5.7-2.6-5.7-7.4
		C119.1-291.5,121-294,124.8-294L124.8-294z"/>
	<path class="st0" d="M147.9-294c3.4,0,5.6,2.7,5.6,7.3c0,4.9-2.2,7.5-5.6,7.5c-3.7,0-5.7-2.5-5.7-7.3
		C142.2-291.4,144.2-294,147.9-294L147.9-294z M142.3-278.5c1.5,2.2,3.8,3.3,6.7,3.3c5.2,0,9.1-4.4,9.1-11.5
		c0-6.9-3.8-11.3-9.2-11.3c-2.9,0-4.9,1.1-6.7,3.7v-3h-4.3v29.9h4.4V-278.5L142.3-278.5z"/>
</g>
<g>
	<g>
		<g>
			<path class="st4" d="M78.6,135.7l0.5,0.4c-0.5,0.8-1,1.4-1.4,1.8c-0.4,0.4-0.8,0.6-1.3,0.6c-0.5,0-0.9-0.2-1.2-0.6
				c-0.3-0.4-0.4-0.8-0.4-1.4c0-1.1,0.7-3.5,2.2-7.1c1.4-3.6,2.9-6.8,4.5-9.6l1,0.6c-1.5,3-2.9,5.9-4.2,8.9
				c-1.2,2.9-1.9,5.1-1.9,6.3c0,0.7,0.3,1.1,0.8,1.1C77.8,136.7,78.2,136.4,78.6,135.7z"/>
			<path class="st4" d="M88.1,131c0.4,0.7,0.6,1.4,0.6,2.2c0,1.3-0.4,2.4-1.3,3.4c-0.9,1-1.9,1.5-3.1,1.5c-0.9,0-1.6-0.3-2.1-0.8
				c-0.5-0.5-0.8-1.3-0.8-2.2c0-1.5,0.6-2.8,1.7-4c1.2-1.2,2.5-1.8,3.9-1.8c0.3,0,0.5,0,0.6,0l0.1,0.8c-1.3,0-2.3,0.4-3.1,1.1
				c-0.8,0.7-1.2,1.6-1.2,2.8c0,0.7,0.2,1.2,0.5,1.6c0.3,0.4,0.8,0.6,1.4,0.6c0.6,0,1.1-0.3,1.5-0.8c0.4-0.6,0.6-1.2,0.6-2
				c0-0.8-0.1-1.5-0.4-2.1L88.1,131z"/>
			<path class="st4" d="M99.3,137.1l0,0.6c-0.2,0.1-0.9,0.4-2.1,0.8c-0.5,3-1.2,5.2-2.2,6.5c-1,1.3-2.2,2-3.6,2
				c-0.7,0-1.2-0.2-1.6-0.6c-0.4-0.4-0.6-1-0.6-1.6c0-1.4,0.6-2.6,1.9-3.8c1.2-1.2,2.9-2.1,5-2.8c0.2-1.1,0.7-2.5,1.3-4.5
				c-1.1,1.6-2,2.7-2.9,3.2c-0.9,0.6-1.6,0.8-2.3,0.8c-0.7,0-1.2-0.2-1.6-0.6c-0.4-0.4-0.5-0.9-0.5-1.5c0-1,0.4-2.1,1.3-3.2
				c0.9-1.1,2-2,3.3-2.6c1.3-0.7,2.6-1,3.8-1l0.2,0.8c-1.7,0.2-3.2,0.8-4.5,1.8c-1.2,1-1.9,2-1.9,3c0,0.4,0.1,0.7,0.4,1
				c0.3,0.3,0.6,0.4,0.9,0.4c0.5,0,1.3-0.6,2.4-1.7c1.1-1.1,1.8-2.1,2.3-2.9l0.9,0.5c-0.9,2.3-1.5,4.3-1.8,5.8L99.3,137.1z
				 M95.9,138.9c-1.4,0.6-2.5,1.4-3.4,2.3c-0.9,0.9-1.3,1.7-1.3,2.4c0,0.4,0.1,0.7,0.3,0.9c0.2,0.2,0.5,0.4,0.8,0.4
				c0.7,0,1.3-0.5,2-1.4C94.9,142.5,95.5,141,95.9,138.9z"/>
			<path class="st4" d="M104.2,134.9l0.5,0.4c-0.4,0.7-0.9,1.3-1.5,1.8c-0.6,0.5-1.2,0.8-1.7,0.8c-0.9,0-1.3-0.6-1.3-1.8
				c0-1.5,0.6-3.5,1.9-6c0.3-0.5,0.4-0.8,0.5-0.9l1,0.6c-0.3,0.6-0.7,1.5-1.2,2.8c-0.5,1.3-0.7,2.1-0.7,2.5c0,0.4,0.1,0.6,0.2,0.8
				c0.2,0.2,0.3,0.2,0.6,0.2C102.9,136.2,103.5,135.8,104.2,134.9z M104.5,128c-0.9,0-1.3-0.4-1.3-1.1c0-0.4,0.1-0.7,0.3-1
				c0.2-0.3,0.5-0.4,0.8-0.4c0.3,0,0.6,0.1,0.8,0.3c0.2,0.2,0.3,0.5,0.3,0.8c0,0.3-0.1,0.6-0.3,0.9C105.1,127.8,104.8,128,104.5,128
				z"/>
			<path class="st4" d="M113.7,128.7l-0.2,0.9c-0.3,0-0.6,0-1,0c-1.6,0-2.4,0.5-2.4,1.6c0,0.2,0.3,0.9,1,1.9c0.6,1.1,1,1.8,1,2.1
				c0,0.8-0.3,1.5-0.9,2c-0.6,0.5-1.3,0.7-2.3,0.7c-1.3,0-2.4-0.7-3.2-2.2l0.9-0.6c0.2,0.2,0.5,0.4,0.7,0.6c0.3,0.2,0.4,0.4,0.6,0.5
				c0.3,0.3,0.6,0.4,1,0.4c0.4,0,0.7-0.1,0.9-0.4c0.3-0.3,0.4-0.6,0.4-1c0-0.4-0.3-1.1-1-2.2c-0.7-1.1-1-1.8-1-2.2
				c0-0.8,0.3-1.4,1-1.8c0.7-0.4,1.5-0.6,2.6-0.6C112.7,128.6,113.4,128.6,113.7,128.7z"/>
			<path class="st4" d="M119.3,135.3l0.5,0.6c-0.4,0.6-0.9,1.1-1.4,1.4c-0.6,0.3-1.1,0.5-1.7,0.5c-0.6,0-1-0.2-1.3-0.5
				c-0.3-0.3-0.5-0.8-0.5-1.3c0-1.3,0.5-3.1,1.5-5.5c-0.8,0.1-1.6,0.3-2.4,0.6l-0.2-0.9l0,0c0.8-0.3,1.8-0.6,3.1-0.8
				c0.1-0.2,0.4-0.8,0.8-1.7c0.9-1.8,1.5-3,1.9-3.5l1,0.4c-0.2,0.3-0.4,0.9-0.8,1.7c-0.4,0.8-0.8,1.7-1.3,2.7c0.7,0,1.3-0.1,1.7-0.1
				c0.4,0,0.7,0.1,0.9,0.2v1c-0.2,0-0.5-0.1-1-0.1c-0.4,0-1.2,0.1-2.2,0.2c-0.9,2.1-1.4,3.6-1.4,4.5c0,0.4,0.1,0.7,0.3,0.9
				c0.2,0.2,0.5,0.4,0.9,0.4C118.2,136.1,118.7,135.8,119.3,135.3z"/>
			<path class="st4" d="M126.1,134.9l0.5,0.4c-0.4,0.7-0.9,1.3-1.5,1.8c-0.6,0.5-1.2,0.8-1.7,0.8c-0.9,0-1.3-0.6-1.3-1.8
				c0-1.5,0.6-3.5,1.9-6c0.3-0.5,0.4-0.8,0.5-0.9l1,0.6c-0.3,0.6-0.7,1.5-1.2,2.8c-0.5,1.3-0.7,2.1-0.7,2.5c0,0.4,0.1,0.6,0.2,0.8
				c0.2,0.2,0.3,0.2,0.6,0.2C124.7,136.2,125.3,135.8,126.1,134.9z M126.4,128c-0.9,0-1.3-0.4-1.3-1.1c0-0.4,0.1-0.7,0.3-1
				c0.2-0.3,0.5-0.4,0.8-0.4c0.3,0,0.6,0.1,0.8,0.3c0.2,0.2,0.3,0.5,0.3,0.8c0,0.3-0.1,0.6-0.3,0.9C127,127.8,126.7,128,126.4,128z"
				/>
			<path class="st4" d="M134.3,134.6l0.6,0.5c-0.4,0.9-1,1.6-1.8,2.1c-0.8,0.5-1.6,0.8-2.4,0.8s-1.4-0.2-1.9-0.7
				c-0.5-0.5-0.8-1.2-0.8-2c0-0.8,0.4-1.8,1.1-2.8c0.7-1,1.7-1.8,2.9-2.4c1.2-0.6,2.3-1,3.4-1c0.2,0,0.4,0,0.7,0L136,130
				c-1.7,0.1-3.2,0.6-4.3,1.6c-1.1,1-1.7,2-1.7,3.1c0,0.5,0.1,0.8,0.4,1.1c0.3,0.3,0.7,0.4,1.1,0.4
				C132.2,136.2,133.2,135.7,134.3,134.6z"/>
			<path class="st4" d="M143.6,128.7l-0.2,0.9c-0.3,0-0.6,0-1,0c-1.6,0-2.4,0.5-2.4,1.6c0,0.2,0.3,0.9,1,1.9c0.6,1.1,1,1.8,1,2.1
				c0,0.8-0.3,1.5-0.9,2s-1.3,0.7-2.3,0.7c-1.3,0-2.4-0.7-3.2-2.2l0.9-0.6c0.2,0.2,0.5,0.4,0.7,0.6c0.3,0.2,0.4,0.4,0.6,0.5
				c0.3,0.3,0.6,0.4,1,0.4c0.4,0,0.7-0.1,0.9-0.4c0.3-0.3,0.4-0.6,0.4-1c0-0.4-0.3-1.1-1-2.2c-0.7-1.1-1-1.8-1-2.2
				c0-0.8,0.3-1.4,1-1.8c0.7-0.4,1.5-0.6,2.6-0.6C142.6,128.6,143.3,128.6,143.6,128.7z"/>
		</g>
	</g>
	<path class="st5" d="M5.6,130.1v3.3c0,0,0,0,0,0h57.7v-3.3H5.6z"/>
	<path class="st5" d="M153.9,130.1v3.3c0,0,0,0,0,0h57.7v-3.3H153.9z"/>
</g>
<g>
	<path class="st5" d="M22.5,114.2H7.3c-0.2,0-0.5,0-0.7-0.1c-0.2-0.1-0.4-0.2-0.5-0.4c-0.1-0.1-0.3-0.3-0.4-0.5
		c-0.1-0.2-0.1-0.4-0.1-0.7V95.8H9v15.1h13.6V114.2z"/>
	<path class="st5" d="M42.1,114.2h-12c-0.5,0-1-0.1-1.5-0.2s-1.1-0.4-1.5-0.8c-0.5-0.4-0.9-0.9-1.2-1.4c-0.3-0.6-0.5-1.3-0.5-2.2
		v-12c0-0.2,0-0.4,0.1-0.7c0.1-0.2,0.2-0.4,0.4-0.5c0.1-0.2,0.3-0.3,0.5-0.4c0.2-0.1,0.4-0.1,0.7-0.1h15v3.3H28.7v10.4
		c0,0.4,0.1,0.8,0.3,1c0.2,0.2,0.6,0.3,1,0.3h12V114.2z M40.6,106.7H30.1v-3.4h10.5V106.7z"/>
	<path class="st5" d="M64.3,95.8l-8.7,17.7c-0.1,0.3-0.3,0.5-0.6,0.7c-0.3,0.2-0.6,0.3-0.9,0.3c-0.3,0-0.6-0.1-0.9-0.3
		c-0.3-0.2-0.5-0.4-0.6-0.7l-8.7-17.7h3.7l6.5,13.3l6.5-13.3H64.3z"/>
	<path class="st5" d="M83.3,114.2h-12c-0.5,0-1-0.1-1.5-0.2c-0.5-0.2-1.1-0.4-1.5-0.8c-0.5-0.4-0.9-0.9-1.2-1.4
		c-0.3-0.6-0.5-1.3-0.5-2.2v-12c0-0.2,0-0.4,0.1-0.7c0.1-0.2,0.2-0.4,0.4-0.5c0.1-0.2,0.3-0.3,0.5-0.4c0.2-0.1,0.4-0.1,0.7-0.1h15
		v3.3H70v10.4c0,0.4,0.1,0.8,0.3,1c0.2,0.2,0.6,0.3,1,0.3h12V114.2z M81.8,106.7H71.3v-3.4h10.5V106.7z"/>
	<path class="st5" d="M105.5,112.8c0,0.2,0,0.5-0.1,0.7c-0.1,0.2-0.2,0.4-0.4,0.5c-0.1,0.1-0.3,0.3-0.5,0.4
		c-0.2,0.1-0.4,0.1-0.7,0.1c-0.2,0-0.4,0-0.6-0.1c-0.2-0.1-0.4-0.2-0.6-0.4l-12.2-12.7v13h-3.3v-17c0-0.3,0.1-0.7,0.3-0.9
		c0.2-0.3,0.4-0.5,0.7-0.6c0.3-0.1,0.6-0.2,1-0.1c0.3,0.1,0.6,0.2,0.9,0.5l12.2,12.7v-13h3.3V112.8z"/>
	<path class="st5" d="M126.5,99.1h-7.4v15.1h-3.3V99.1h-7.4v-3.3h18.1V99.1z"/>
	<path class="st5" d="M148.6,106.8c0,1.1-0.2,2.2-0.6,3.1c-0.4,0.9-0.9,1.8-1.6,2.4c-0.7,0.7-1.5,1.2-2.4,1.6
		c-0.9,0.4-2,0.6-3.1,0.6h-4.5c-1.1,0-2.1-0.2-3.1-0.6c-0.9-0.4-1.8-0.9-2.4-1.6c-0.7-0.7-1.2-1.5-1.6-2.4c-0.4-0.9-0.6-2-0.6-3.1
		v-3.5c0-1.1,0.2-2.1,0.6-3.1c0.4-0.9,0.9-1.8,1.6-2.4c0.7-0.7,1.5-1.2,2.4-1.6c0.9-0.4,2-0.6,3.1-0.6h4.5c1.1,0,2.1,0.2,3.1,0.6
		c0.9,0.4,1.7,0.9,2.4,1.6c0.7,0.7,1.2,1.5,1.6,2.4c0.4,0.9,0.6,2,0.6,3.1V106.8z M145.3,103.2c0-0.7-0.1-1.3-0.3-1.8
		c-0.2-0.5-0.5-1-0.9-1.4c-0.4-0.4-0.8-0.7-1.4-0.9c-0.5-0.2-1.1-0.3-1.8-0.3h-4.5c-0.7,0-1.2,0.1-1.8,0.3c-0.5,0.2-1,0.5-1.4,0.9
		c-0.4,0.4-0.7,0.8-0.9,1.4c-0.2,0.5-0.3,1.1-0.3,1.8v3.5c0,0.7,0.1,1.3,0.3,1.8c0.2,0.5,0.5,1,0.9,1.4c0.4,0.4,0.8,0.7,1.4,0.9
		c0.5,0.2,1.1,0.3,1.8,0.3h4.5c0.7,0,1.2-0.1,1.8-0.3c0.5-0.2,1-0.5,1.4-0.9c0.4-0.4,0.7-0.8,0.9-1.4c0.2-0.5,0.3-1.1,0.3-1.8V103.2
		z"/>
	<path class="st5" d="M191.5,114.2h-15.2c-0.2,0-0.5,0-0.7-0.1c-0.2-0.1-0.4-0.2-0.5-0.4c-0.1-0.1-0.3-0.3-0.4-0.5
		c-0.1-0.2-0.1-0.4-0.1-0.7V95.8h3.3v15.1h13.6V114.2z"/>
	<path class="st5" d="M211.6,112.5c0,0.2,0,0.5-0.1,0.7c-0.1,0.2-0.2,0.4-0.4,0.5c-0.2,0.1-0.3,0.3-0.5,0.4
		c-0.2,0.1-0.4,0.1-0.7,0.1h-7.5c-0.7,0-1.4-0.1-2.2-0.2c-0.7-0.2-1.4-0.4-2.1-0.7c-0.7-0.3-1.3-0.7-1.9-1.2
		c-0.6-0.5-1.1-1.1-1.6-1.8c-0.4-0.7-0.8-1.5-1.1-2.3c-0.3-0.9-0.4-1.9-0.4-2.9v-9.2h3.3v9.2c0,0.9,0.1,1.7,0.4,2.4
		c0.3,0.7,0.6,1.2,1,1.6s0.8,0.8,1.3,1s0.9,0.4,1.4,0.6c0.4,0.1,0.8,0.2,1.1,0.2c0.3,0,0.5,0,0.6,0h5.9V95.8h3.3V112.5z"/>
	<g>
		<path class="st5" d="M170.5,104.4c-0.1-0.2-0.2-0.4-0.4-0.5c-0.1-0.2-0.3-0.3-0.5-0.4c-0.2-0.1-0.4-0.1-0.7-0.1h-10.5v3.4h8.9v4.2
			h-10.4c-0.4,0-0.8-0.1-1-0.4c-0.2-0.2-0.4-0.6-0.4-1v-9c0-0.5,0.1-0.8,0.3-1c0.2-0.2,0.6-0.3,1-0.3h6.2c0.1-0.2,0.1-0.5,0.3-0.7
			c0.2-0.3,0.4-0.7,0.6-1c0.2-0.3,0.5-0.6,0.9-0.8c0.3-0.2,0.7-0.4,1.2-0.6c0.4-0.1,0.9-0.2,1.4-0.2h-10.6c-0.6,0-1.1,0.1-1.5,0.2
			c-0.5,0.1-0.9,0.3-1.2,0.6c-0.3,0.2-0.6,0.5-0.9,0.8c-0.2,0.3-0.4,0.6-0.6,1c-0.2,0.3-0.3,0.7-0.3,1.1c-0.1,0.4-0.1,0.7-0.1,1v9
			c0,0.6,0.1,1.1,0.2,1.5c0.1,0.5,0.3,0.9,0.6,1.2c0.2,0.3,0.5,0.6,0.8,0.9c0.3,0.2,0.6,0.4,1,0.6c0.3,0.2,0.7,0.3,1.1,0.3
			c0.4,0.1,0.7,0.1,1,0.1h12c0.2,0,0.5,0,0.7-0.1c0.2-0.1,0.4-0.2,0.5-0.4c0.1-0.1,0.3-0.3,0.4-0.5c0.1-0.2,0.1-0.4,0.1-0.7V105
			C170.6,104.8,170.6,104.6,170.5,104.4z"/>
		<path class="st4" d="M164.9,96.6c-0.3,0.2-0.6,0.5-0.9,0.8c-0.2,0.3-0.5,0.6-0.6,1c-0.1,0.2-0.2,0.5-0.3,0.7c0,0,0,0,0,0h7.3v-3.3
			h-2.8c-0.1,0-0.1,0-0.2,0c-0.5,0-1,0.1-1.4,0.2C165.6,96.2,165.2,96.4,164.9,96.6z"/>
	</g>
</g>
<g>
	<path class="st4" d="M133.9,75.1c-25.3,14-36.2,0.7-35.9-17.1c0-3,0.3-5.7,0.8-8.2c2.8,1.7,5.9,3.1,9,3.9l0,9.7
		c-0.1,8.2,7,7.4,11.6,7.4c1.6,0,3.7,0,3.7,0h4C134.4,70.8,133.9,75.1,133.9,75.1z"/>
	<path class="st5" d="M133.9,77.2v10.5h-36c-3.2-0.3-5.7-3-5.7-6.3V44.4c1.2,1.3,2.6,2.6,4.3,3.8c-0.8,3.5-1.2,7-1.2,10.2
		c0.2,17.8,11.4,36.3,38.5,18.9C133.9,77.2,133.9,77.2,133.9,77.2z"/>
	<path class="st4" d="M104.6,31.7c-1.1,1.3-3.1,4-5,8c0,0,0,0,0,0.1c-1,2-1.8,4-2.4,6.1c-1.7-1.3-3.4-2.9-4.9-4.5v-9.7l5.6,0H104.6z
		"/>
	<path class="st5" d="M107.8,51.2l0-19.1v-0.5l-1.5,0c0,0-0.2,0.3-0.6,0.8c-0.2,0.3-0.5,0.8-0.9,1.3c0,0,0,0,0,0
		c-0.1,0.2-0.3,0.5-0.5,0.7c-0.2,0.3-0.3,0.5-0.5,0.8c-0.1,0.2-0.2,0.3-0.3,0.5c-1,1.8-2.1,4.2-3.1,7.2c-0.1,0.3-0.2,0.6-0.3,0.9
		c-0.2,0.6-0.4,1.2-0.5,1.8c-0.1,0.3-0.1,0.6-0.2,0.8c0,0.1-0.1,0.3-0.1,0.4c0,0.1-0.1,0.3-0.1,0.4C102,49.2,104.9,50.6,107.8,51.2
		L107.8,51.2z"/>
	<line class="st6" x1="99.3" y1="47.4" x2="99.3" y2="47.4"/>
	<path class="st6" d="M107.8,51.2C107.8,51.2,107.8,51.2,107.8,51.2"/>
</g>
</svg>
