<?xml version="1.0" encoding="utf-8"?>
<!-- Generator: Adobe Illustrator 16.0.0, SVG Export Plug-In . SVG Version: 6.00 Build 0)  -->
<!DOCTYPE svg PUBLIC "-//W3C//DTD SVG 1.1//EN" "http://www.w3.org/Graphics/SVG/1.1/DTD/svg11.dtd">
<svg version="1.1" id="Layer_1" xmlns="http://www.w3.org/2000/svg" xmlns:xlink="http://www.w3.org/1999/xlink" x="0px" y="0px"
	 width="216px" height="188px" viewBox="0 0 216 188" enable-background="new 0 0 216 188" xml:space="preserve">
<path fill-rule="evenodd" clip-rule="evenodd" fill="#2E3192" d="M96.74,55.219c-6.263-0.656-10.492,1.756-13.107,6.627
	c-1.524,2.841-0.707,3.8-1.623,4.996c0.394,2.915-0.505,3.343,0.729,8.998c1.741,8.008,6.337,14.593,7.164,22.151
	c0.526,1.175,1.027,5.84,1.286,7.616c0.363,2.491,0.678,5.637,2.026,7.424c1.733,2.294,7.787,4.465,9.366-5.48
	c0.441-2.788,0.63-12.834,5.775-12.909c7.095-0.103,4.344,15.283,8.949,19.096c2.106,1.743,5.094,1.011,6.634-0.768
	c1.717-1.975,2.479-12.294,3.055-15.784c1.661-10.111,8.114-18.403,7.252-29.903c-1.123-8.717-7.732-14.239-15.974-12.221
	c-3.807,0.931-6.123,3.705-10.888,3.554C103.276,58.488,100.13,55.292,96.74,55.219z"/>
<path fill-rule="evenodd" clip-rule="evenodd" fill="#2E3192" d="M136.664,66.379c0.516,5.121-0.274,9.738-1.841,13.65
	c-1.068,2.665-4.178,8.694-4.418,11.647c3.884-1.158,5.545-5.352,19.847-3.833c14.386,1.525,31.94,11.365,49.174-0.81
	c1.564-1.105,5.833-4.264,6.437-5.713c-1.369,0.332-2.047,0.677-3.688,0.984c-5.402,1.008-8.734-0.047-13.375-0.637
	c-1.921-0.592-4.076-1.035-5.352-2.099l6.449-1.986c0.62-0.609,4.422-1.928,8.037-5.265c1.559-1.438,5.274-5.041,5.98-7.598
	c-1.019,0.094-4.185,1.643-5.229,2.085c-5.689,2.404-13.506,3.575-20.002,3.156c-4.368-0.281-8.696-1.582-12.423-2.777
	c-1.416-0.452-10.868-3.605-11.176-3.906c-1.801-0.229-3.251-0.75-5.057-0.883c-6.476-0.476-7.521-0.337-13.617,2.408
	L136.664,66.379z"/>
<path fill-rule="evenodd" clip-rule="evenodd" fill="#2E3192" d="M20.45,69.33c-1.314,0.094-5.767-2.056-7.273-2.455l1.186,2.254
	c0.051,0.042,0.121,0.047,0.144,0.135l0.519,0.538c0.332,0.386,0.365,0.474,0.642,0.81c1.274,1.542,3.378,3.253,4.083,4.378
	c0.484-0.024,1.941,1.22,2.773,1.767c4.411,2.904,6.381,2.901,11.001,4.167c-0.351,0.417,0.055,0.143-0.441,0.448
	c-0.469,0.287-0.092,0.114-0.705,0.238c-1.093,1.54-13.542,3.942-16.25,2.644l-1.057-0.009l-3.341-0.787
	c0.218,0.304,0.203,0.356,0.454,0.622c0.82,0.678,1.503,1.282,2.084,2.012c1.866,1.064,3.067,2.604,6.557,4.396
	c21.706,11.15,39.182-5.786,57.163-1.724c1.983,0.445,6.787,2.192,7.596,3.435l0.518-0.002c-0.449-2.315-1.509-4.141-2.282-5.902
	c-1.904-4.338-6.511-14.679-4.462-19.51l0.055-1.188c-1.822-1.185-4.331-1.945-6.783-2.369c-5.003-0.858-10.662,0.716-14.898,2.333
	c-2.286,0.871-4.332,1.675-6.636,2.487c-9.863,3.477-16.536,4.965-27.348,2.426C22.969,70.292,21.024,69.911,20.45,69.33z"/>
<path fill-rule="evenodd" clip-rule="evenodd" fill="#2E3192" d="M107.725,19.727c-0.033,4.141-1.456,18-3.222,20.073
	c-1.396-0.652-4.69-5.453-5.436-7.683c-0.425-0.75-0.306-0.337-0.445-1.319c1.142-0.671,0.938-2.58,0.036-3.184
	c-2.001-1.339-4.619,1.377-2.167,3.373c0.618,0.5,0.711,0.384,1.506,0.425l0.113,0.974c0.027,2.359,0.749,6.689-0.113,9.096
	c-0.841-0.24-2.401-2.294-3.488-3.456c-1.035-1.105-2.201-2.282-3.376-3.399c-1.528-1.454-5.876-5.517-7.847-5.771l-0.109-0.281
	c-0.45-1.18,0.351-1.958-0.876-2.719c-0.916-0.568-2.028-0.339-2.59,0.246c-1.491,1.555-0.22,3.896,2.339,3.187l1.089-0.211
	l-0.002,0.363c2.999,1.792,7.705,8.702,8.584,12.371c0.565,2.36,0.711,3.359,0.879,6.054l0.947-0.155
	c2.789-1.139,11.626-2.144,15.294-2.136c3.106,0.01,9.091,0.538,12.179,1.158c1.066,0.213,2.332,0.611,3.609,0.688
	c0.351-6.309,1.534-10.386,5.725-15.224l3.185-3.682c1.229,0.084,1.888,0.907,3.136,0.133c1.925-1.197,0.325-4.75-2.099-3.577
	c-1.021,0.493-0.956,1.523-1.162,2.919c-0.484,0.155-0.298,0.04-0.714,0.291c-0.823,0.498-0.345,0.172-0.684,0.612
	c-1.601,0.656-5.264,4.305-6.65,5.781c-0.64,0.682-5.453,6.07-6.168,6.434l-0.202-0.335c-0.846-1.943-0.185-8.052-0.055-9.888
	c1.34-0.232,1.673-0.504,2.168-1.42c0.014-1.271-0.025-2.005-0.839-2.516c-1.52-0.95-4.314,0.654-2.573,3.06
	c0.899,1.237,0.862,0.051-0.378,3.099c-0.6,1.473-1.481,3.388-2.32,4.707c-0.495,0.783-1.126,1.695-2.108,1.943l-0.789-1.379
	c-1.728-4.565-3.572-12.938-3.807-18.126c0.208-0.446,0.052-0.26,0.408-0.561c1.653-1.379,1.429-4.309-1.028-4.006
	c-1.46,0.184-1.749,1.304-1.66,2.803C106.038,18.956,107.34,19.584,107.725,19.727z"/>
<path fill-rule="evenodd" clip-rule="evenodd" fill="#2E3192" d="M130.889,97.151c1.925-2.496,3.643-4.167,7.011-5.099
	c9.823-2.715,15.18,5.384,24.179,6.289c1.595,0.163,5.016-0.154,6.089,0.167c-0.063,1.884-4.371,1.837-6.102,1.787
	c-3.208-0.094-4.353-0.8-7.144-1.344c0.819,2.507,5.219,2.546,5.864,3.98c-1.21,1.029-5.779,0.551-7.545,0.19
	c-2.701-0.554-4.294-1.581-6.519-2.178c0.523,2.184,3.992,3.283,4.997,3.889c0.894,0.535,0.384,0.034,0.741,0.75
	c-2.388,1.899-8.665-0.277-11.485-1.541c-0.978-0.438-2.292-1.453-3.186-1.578c2.235,3.275,5.081,3.453,5.353,5.361
	c-4.96,0.265-10.44-4.989-12.113-3.689c2.896,1.141,4.426,1.886,7.067,3.253c1.294,0.67,11.33,3.07,7.946-0.282l-0.289-0.265
	c-0.033-0.033-0.106-0.086-0.145-0.143c3.619,0.416,6.729,1.065,10.47,0.324c2.125-0.422,3.475-0.503,1.549-2.205
	c19.538-0.472,5.728-2.29,2.174-3.813c0.868-0.279,15.279,1.653,15.297-5.117c-2.977-0.206-5.419,2.763-13.507,1.289
	c-4.313-0.783-7.73-2.702-11.396-4.285c-4.799-2.075-13.279-5.147-18.091,0.065c-1.543,1.671-3.688,5.411-3.716,7.789
	L130.889,97.151z"/>
<path fill-rule="evenodd" clip-rule="evenodd" fill="#2E3192" d="M51.743,102.131c0.562,0.019,1.156,0.004,1.704,0.025
	c0.952,0.035,0.997-0.019,1.549,0.378l-4.739,0.562c0.134,0.908,0.123,1.116,2.018,1.756c4.362,1.467,8.062-0.069,10.229,0.732
	c-1.37,0.432-2.734,0.112-3.812,0.962c0.611,1.522,4.877,1.587,6.307,1.56c0.974-0.019,6.71-0.751,6.989-0.626
	c-1.059,0.413-1.114,0.158-1.347,1.235c1.908,1.866,7.428-0.198,9.429-1.311c0.984-0.547,2.196-1.244,3.295-1.76
	c1.208-0.57,2.654-0.914,3.545-1.466c-4.592-0.14-7.111,4.073-12.734,4.246c0.323-1.553,3.909-3.787,4.072-3.806
	c0.458-0.979,0.686-0.828,0.963-1.718c-0.945,0.248-2.778,1.532-3.777,2.004c-1.458,0.685-2.536,1.286-4.393,1.549
	c-1.279,0.407-4.896,0.612-6.202,0.015c0.281-1.027,2.043-1.446,2.89-2.021l2.66-2.04c0.015-0.056,0.079-0.05,0.125-0.072
	c0.229-0.554,0.075-0.354,0.428-0.848c-0.316-0.14-4.763,1.795-6.166,2.196c-1.344,0.384-7.698,1.622-8.136-0.027
	c1.878-1.433,4.512-1.541,6.035-3.855c-0.282-0.174,0.59-0.552-0.807-0.065c-1.483,0.73-4.31,1.37-6.254,1.477
	c-2.152,0.116-5.923,0.428-6.417-1.794c14.205,1.106,16.279-7.16,25.917-7.227c2.329-0.018,6.362,0.702,8.096,2.432
	c2.465,2.459,3.319,3.993,5.329,6.319c-1.282-9.518-9.948-11.992-18.015-8.891c-5.421,2.082-8.658,4.443-13.905,5.893
	c-7.753,2.14-11.499-1.235-14.207-0.757c-0.142,1.219,0.486,1.738,1.156,2.406c0.356,0.354,0.051-0.044,0.429,0.442
	C47.562,101.586,48.188,101.826,51.743,102.131z"/>
<path fill-rule="evenodd" clip-rule="evenodd" fill="#FFFFFF" d="M94.131,70.896c0.327,2.597,0.213,5.486,0.271,8.19
	c0.027,1.353,0.027,2.768-0.062,4.113c-0.144,2.123-0.45,1.504-1.352,2.619c0.22,0.042,12.977,0.262,14.149-0.045
	c0.738-0.193,0.286,0.184,0.759-0.424c0.399-0.7,1.509-4.171,1.182-4.75c-0.938,0.661-1.372,1.669-2.607,2.605
	c-1.037,0.784-2.273,1.433-3.655,1.718l-1.533,0.12c-3.297-0.18-2.662-3.782-2.658-7.226l3.232,0.093
	c4.37,1.439,2.35,1.627,3.806,2.332l0.049-5.711c-1.528,0.448,0.243,0.931-3.751,2.293l-3.279,0.176l-0.103-6.279
	c1.928,0.285,3.427,0.002,5.558,0.612c1.622,0.465,2.76,2.159,3.877,2.59c0.018-0.88-0.924-3.328-1.242-4.061L93.38,69.978
	C93.479,70.683,93.366,70.696,94.131,70.896L94.131,70.896z M122.81,74.125c-1.343-0.965-1.401-5.072-6.161-3.832
	c-8.792,2.293,6.881,7.056,7.236,7.469c3.49,4.051-2.391,11.796-13.869,6.903l0.786-3.366c0.021-0.048,0.207-0.431,0.24-0.491
	c0.019-0.034,0.086-0.067,0.101-0.154c0.015-0.09,0.064-0.108,0.104-0.158c0.457,0.653,0.862,2.431,2.197,3.619
	c2.13,1.9,7.185,1.754,7.589-1.486c0.267-2.127-0.956-2.421-2.351-2.916c-1.424-0.253-3.524-0.836-4.674-1.166
	c-1.814-0.521-2.309-0.991-3.145-2.608c-1.092-3.446,1.691-5.771,4.447-6.318c1.386-0.273,9.231-0.425,8.517,1.443L122.81,74.125z"
	/>
<path fill-rule="evenodd" clip-rule="evenodd" fill="#FFFFFF" d="M120.502,57.529c1.096,1.139,2.266,0.54,4.27,2.247
	c3.807,3.234,0.326,6.918,0.833,10.17c0.342,2.183,3.05,2.258,4.157,1.152c2.106-2.106,1.164-7.367-0.318-9.719
	C127.519,58.327,125.121,57.295,120.502,57.529z"/>
<path fill-rule="evenodd" clip-rule="evenodd" fill="#FFFFFF" d="M90.291,92.159c0.035-0.056,0.076-0.217,0.086-0.184l0.145-0.393
	c1.428-6.256-3.696-16.343-4.502-20.088c-0.447-2.067-0.684-3.581-0.06-5.75c0.388-1.347,0.344-1.192-0.118-1.724
	c-1.234,2.447-2.294,3.59-2.062,7.125c0.172,2.616,1,5.162,1.862,7.263c1.138,2.767,2.943,7.25,3.748,10.03
	C89.734,89.626,89.852,91.229,90.291,92.159z"/>
<path fill-rule="evenodd" clip-rule="evenodd" fill="#2E3192" d="M93.684,48.43l-0.534,0.236c-0.795,0.47-0.693,0.511-0.669,1.473
	l0.953-0.084c16.863-5.128,29.138-0.163,31.657-0.261c-0.202-1.542-0.987-1.418-2.483-1.797c-6.318-1.597-14.668-1.887-21.14-1.002
	C99.723,47.233,94.856,48.444,93.684,48.43z"/>
<path fill-rule="evenodd" clip-rule="evenodd" fill="#FFFFFF" d="M118.883,112.893c5.83,1.147,5.53-8.476,5.917-11.593l0.113-1.663
	c-0.11-0.646,0.04-0.194-0.177-0.479c-1.077,2.44-0.781,5.687-1.516,8.358C122.098,111.61,118.238,110.36,118.883,112.893z"/>
<g>
	<path fill="#2E3192" d="M29.758,154.305c-0.065,0.04-0.122,0.42-0.052,0.477c0.329,0,0.976-0.042,1.568-0.042
		c0.727,0,1.375,0.042,1.772,0.042c0.082-0.042,0.151-0.42,0.097-0.477c-0.221-0.044-0.481-0.088-0.701-0.142
		c-0.329-0.071-0.344-0.268-0.317-0.466c0.039-0.279,0.537-1.292,0.879-1.952c0.042-0.07,0.083-0.112,0.139-0.112
		c0.178-0.017,0.453-0.017,0.976-0.017c0.344,0,0.838,0,1.044,0.031c0.055,0,0.097,0.057,0.097,0.098
		c0.082,0.435,0.273,1.631,0.29,2.08c0,0.056-0.043,0.21-0.167,0.311c-0.123,0.081-0.604,0.154-0.755,0.169
		c-0.083,0.057-0.097,0.391-0.027,0.477c0.329,0,0.923-0.027,2.049-0.042c1.139,0,1.651,0.042,1.995,0.042
		c0.083-0.042,0.134-0.437,0.068-0.477c-1.033-0.156-1.1-0.24-1.349-1.448c-0.275-1.253-0.756-4.459-1.003-5.833
		c-0.043-0.24-0.083-0.565-0.111-0.787c-0.097,0-0.331,0.025-0.62,0.025c-0.272,0-0.549-0.025-0.645-0.025
		c-0.096,0.266-0.248,0.646-0.4,0.925c-0.467,1.042-2.062,4.217-3.147,6.061C30.943,154.077,30.737,154.163,29.758,154.305
		L29.758,154.305z M34.697,148.23c0.014-0.015,0.042-0.015,0.054,0c0.139,0.772,0.33,2.182,0.401,2.615
		c0,0.04-0.03,0.071-0.055,0.071c-0.095,0.013-0.331,0.013-0.826,0.013c-0.369,0-0.658,0-0.782-0.013
		c-0.045,0-0.045-0.057-0.028-0.101L34.697,148.23L34.697,148.23z M45.437,149.115c0.028,0.015,0.055,0.169,0.042,0.213
		c-0.096,0.28-0.371,0.647-0.646,0.787c-0.15,0.069-0.357,0.11-0.522,0.127v0.266c0,0.956-0.453,1.785-1.114,2.248
		c-0.62,0.422-1.223,0.505-1.458,0.549c-0.082,0-0.234,0.013-0.29,0.029c-0.082,0.013-0.205,0.084-0.205,0.169
		c0,0.141,0.109,0.224,0.413,0.363c0.564,0.24,1.223,0.508,1.745,0.829c0.619,0.38,0.962,0.703,0.962,1.351
		c0,0.547-0.426,1.207-1.25,1.716c-0.742,0.462-1.457,0.589-1.937,0.589c-1.639,0-2.696-0.844-2.696-1.758
		c0-0.476,0.824-0.927,1.69-1.376c0.026-0.012,0.015-0.043,0-0.056c-0.289-0.226-0.562-0.508-0.562-0.831
		c0-0.04,0.052-0.224,0.109-0.28c0.217-0.225,0.838-0.563,1.058-0.69c0.014-0.013,0.029-0.055-0.013-0.055
		c-0.854-0.196-1.225-0.843-1.225-1.601c0.014-0.915,0.524-1.814,1.225-2.292c0.52-0.339,1.154-0.521,1.706-0.521
		c0.33,0,0.756,0.111,1.318,0.336c0.193,0.069,0.494,0.185,0.717,0.185C44.873,149.412,45.19,149.284,45.437,149.115L45.437,149.115
		z M41.833,157.649c0.783,0,1.115-0.297,1.115-0.662c0-0.282-0.205-0.576-0.591-0.814c-0.523-0.338-1.306-0.732-1.609-0.732
		c-0.249,0-0.974,0.464-0.974,0.858C39.774,156.973,40.68,157.649,41.833,157.649L41.833,157.649z M41.779,152.813
		c0.632,0,0.95-1.532,0.965-2.4c0-0.777-0.251-1.027-0.564-1.027c-0.577,0-0.979,1.334-0.979,2.375
		C41.201,152.391,41.396,152.813,41.779,152.813L41.779,152.813z M42.798,147.33c-0.577,0-0.908-0.237-0.989-1.012
		c-0.057-0.027-0.195-0.027-0.263,0c-0.18,0.041-0.564,0.353-0.66,0.536c-0.057,0.954,0.632,1.42,1.457,1.42
		c1.169,0,2.036-0.774,2.405-1.871c0-0.029-0.052-0.085-0.111-0.068c-0.12,0.013-0.412,0.123-0.423,0.138
		C43.718,147.119,43.319,147.33,42.798,147.33L42.798,147.33z M48.228,153.064c-0.29,0.295-0.563,0.493-0.728,0.493
		c-0.097,0-0.139-0.084-0.124-0.28c0.042-0.521,0.426-2.179,0.632-3.206c0.109-0.534,0.109-1.18-0.193-1.18
		c-0.454,0-1.444,0.532-2.225,1.28c-0.058,0.054-0.099,0.321-0.084,0.434c0,0.027,0.041,0.044,0.055,0.044
		c0.302-0.213,0.522-0.325,0.648-0.325c0.081,0,0.107,0.112,0.081,0.226c-0.179,0.929-0.467,2.179-0.632,3.12
		c-0.125,0.675-0.11,1.295,0.371,1.295c0.551,0,1.541-0.535,2.2-1.378c0.041-0.071,0.071-0.396,0.057-0.493
		C48.285,153.064,48.228,153.064,48.228,153.064L48.228,153.064z M53.357,149.397c-0.356,0-0.908-0.126-1.498-0.282
		c-0.441-0.112-0.978-0.224-1.211-0.224c-0.179,0-0.412,0.141-0.495,0.238c-0.316,0.365-0.976,1.52-1.087,1.772
		c-0.025,0.071,0.098,0.309,0.206,0.365c0.027,0.013,0.098,0.013,0.112-0.015c0.357-0.576,0.703-0.787,1.044-0.787
		c0.179,0,0.647,0.071,0.896,0.113c0.371,0.054,0.864,0.098,1.03,0.054c0.028,0,0.041,0.044,0,0.071
		c-0.097,0.127-2.241,2.179-2.489,2.419c-0.33,0.295-1.019,0.954-1.279,1.334c-0.04,0.042,0.043,0.354,0.139,0.451
		c0.041,0.04,0.111,0.04,0.136,0.015c0.098-0.101,0.469-0.562,0.825-0.562c0.248,0,0.496,0.096,0.992,0.307
		c0.538,0.255,0.977,0.493,1.429,0.493c1.113,0,2.187-1.28,2.571-2.038c0.041-0.07,0.056-0.479,0.014-0.576
		c-0.014-0.044-0.138-0.056-0.152-0.044c-0.548,0.928-0.919,1.209-1.444,1.209c-0.248,0-0.604-0.085-1.221-0.323
		c-0.621-0.224-1.003-0.28-1.104-0.295c-0.024,0-0.011-0.068,0.016-0.098l2.267-2.222c0.494-0.463,1.473-1.39,1.582-1.615
		c0.014-0.057,0.014-0.353-0.027-0.48c-0.015-0.041-0.082-0.068-0.11-0.041C54.182,148.963,53.714,149.397,53.357,149.397
		L53.357,149.397z M57.716,146.713c0.25,0.041,0.428,0.056,0.593,0.112c0.412,0.127,0.563,0.238,0.741,1.42
		c0.193,1.152,0.454,2.824,0.743,4.724c0.096,0.658,0.18,1.336,0.245,1.883c0.141-0.015,0.32-0.029,0.622-0.029
		c0.289,0,0.508,0.015,0.631,0.029c0.22-0.45,0.634-1.235,1.103-2.081c0.922-1.645,1.952-3.655,2.584-4.653
		c0.466-0.772,0.618-1.039,1.058-1.221c0.206-0.099,0.442-0.143,0.744-0.198c0.069-0.055,0.08-0.422,0.042-0.493
		c-0.276,0-0.673,0.057-1.61,0.057c-0.782,0-1.554-0.04-1.747-0.04c-0.055,0.055-0.109,0.378-0.066,0.477
		c0.313,0.056,0.549,0.1,0.784,0.169c0.369,0.085,0.343,0.422,0.178,0.816c-0.372,0.826-2.106,4.133-2.616,4.977
		c-0.011,0.027-0.052,0.013-0.068,0c-0.19-1.113-0.728-4.584-0.811-5.356c-0.013-0.185,0-0.368,0.209-0.437
		c0.135-0.057,0.425-0.099,0.618-0.14c0.068-0.101,0.083-0.466,0.025-0.522c-0.262,0.017-1.016,0.057-1.894,0.057
		c-0.718,0-1.582-0.04-2.039-0.04C57.704,146.262,57.662,146.614,57.716,146.713L57.716,146.713z M67.73,149.537
		c0.23,0,0.453,0.24,0.453,0.688c0,0.407-0.138,0.733-0.343,0.9c-0.25,0.225-0.687,0.395-1.06,0.49
		c-0.029,0.017-0.055-0.025-0.055-0.069C66.875,150.13,67.356,149.537,67.73,149.537L67.73,149.537z M68.608,148.892
		c0.674,0,1.017,0.451,1.017,1.011c0,0.62-0.438,1.11-1.222,1.562c-0.523,0.309-1.183,0.562-1.609,0.716
		c-0.043,0.015-0.083,0.057-0.083,0.086c-0.014,0.081-0.014,0.112-0.014,0.154c0,0.703,0.22,1.349,0.977,1.349
		c0.453,0,0.963-0.113,1.72-0.858c0.014,0,0.054,0.042,0.054,0.071c0,0.098-0.014,0.395-0.082,0.505
		c-0.537,0.804-1.775,1.479-2.78,1.479c-1.292,0-1.539-1.111-1.539-2.025c0-1.38,0.592-2.545,1.184-3.077
		C66.696,149.424,67.895,148.892,68.608,148.892L68.608,148.892z M72.238,154.305c-0.067,0.057-0.108,0.405-0.054,0.477
		c1.114,0,2.626,0.07,3.547,0.07c1.457,0,2.78-0.07,4.058-1.079c1.071-0.831,1.746-2.138,1.746-3.835
		c0-1.108-0.371-2.061-0.948-2.653c-0.689-0.67-1.595-1.022-2.957-1.022c-1.127,0-1.044,0-2.118,0.015
		c-0.771-0.015-1.651-0.071-1.884-0.071c-0.082,0.057-0.164,0.38-0.082,0.493c0.192,0.029,0.535,0.056,0.686,0.112
		c0.319,0.071,0.36,0.238,0.333,0.591c-0.043,0.758-0.854,5.624-0.951,6.127c-0.095,0.367-0.232,0.593-0.535,0.649
		C72.804,154.234,72.597,154.246,72.238,154.305L72.238,154.305z M75.524,153.56c0.179-1.219,0.854-5.626,1.02-6.483
		c0.011-0.084,0.095-0.194,0.164-0.209c0.095-0.013,0.249-0.027,0.371-0.027c0.603,0,1.169,0.207,1.582,0.602
		c0.591,0.549,0.853,1.555,0.853,2.553c0,1.391-0.441,2.736-1.141,3.497c-0.551,0.576-1.045,0.77-1.623,0.77
		c-0.401,0-0.826-0.068-1.047-0.25C75.606,153.941,75.511,153.756,75.524,153.56L75.524,153.56z M85.275,153.064
		c-0.29,0.295-0.566,0.493-0.732,0.493c-0.091,0-0.135-0.084-0.121-0.28c0.042-0.521,0.426-2.179,0.631-3.206
		c0.111-0.534,0.111-1.18-0.19-1.18c-0.455,0-1.445,0.532-2.23,1.28c-0.054,0.054-0.095,0.321-0.082,0.434
		c0,0.027,0.041,0.044,0.055,0.044c0.304-0.213,0.523-0.325,0.646-0.325c0.084,0,0.111,0.112,0.084,0.226
		c-0.179,0.929-0.466,2.179-0.632,3.12c-0.125,0.675-0.112,1.295,0.371,1.295c0.548,0,1.54-0.535,2.2-1.378
		c0.041-0.071,0.066-0.396,0.054-0.493C85.33,153.064,85.275,153.064,85.275,153.064L85.275,153.064z M84.944,146.374
		c-0.371,0-0.814,0.198-1.004,0.38c-0.111,0.113-0.192,0.437-0.178,0.662c0.027,0.282,0.163,0.49,0.358,0.618
		c0.136,0.07,0.81-0.042,0.949-0.154c0.247-0.182,0.396-0.479,0.453-0.831c0.015-0.082-0.016-0.393-0.069-0.491
		C85.411,146.487,85.219,146.374,84.944,146.374L84.944,146.374z M89.056,148.877c-0.633,0-1.402,0.351-1.912,0.829
		c-0.578,0.536-0.688,1.054-0.688,1.435c0,0.507,0.275,0.914,1.002,1.448c0.91,0.647,1.087,0.842,1.087,1.18
		c0,0.24-0.207,0.437-0.551,0.437c-0.505,0-1.209-0.352-1.51-1.266c-0.028-0.057-0.248,0.013-0.277,0.057
		c-0.233,0.338-0.451,0.971-0.451,1.196c0,0.125,0.106,0.321,0.233,0.434c0.26,0.211,0.661,0.322,1.098,0.322
		c0.124,0,0.247,0,0.359-0.025l-0.868,0.855c-0.014,0.027-0.027,0.157-0.027,0.157c0.756,0.321,0.978,0.63,0.978,0.855
		c0,0.238-0.195,0.395-0.484,0.395s-0.577-0.114-0.839-0.267c-0.054,0.041-0.136,0.321-0.125,0.38
		c0.14,0.223,0.483,0.434,0.881,0.434c0.428,0,1.486-0.448,1.486-1.378c0-0.237-0.095-0.463-0.316-0.688
		c-0.15-0.14-0.315-0.253-0.48-0.351c-0.029-0.015-0.029-0.071,0-0.099l0.386-0.406c0.261-0.086,0.522-0.211,0.811-0.409
		c0.771-0.493,1.073-1.097,1.073-1.646c0-0.532-0.291-0.914-1.004-1.405c-1.045-0.688-1.265-0.914-1.265-1.235
		c0-0.226,0.138-0.451,0.48-0.451c0.331,0,0.854,0.365,1.182,0.802c0.016,0.015,0.153,0,0.22-0.071
		c0.195-0.182,0.483-0.659,0.566-0.899c0.025-0.071,0.012-0.224-0.015-0.268C89.937,149.018,89.526,148.877,89.056,148.877
		L89.056,148.877z M94.032,152.055c-0.083-0.029-0.438,0-0.495,0.098c-0.083,0.547-0.096,2.025,0.029,2.234
		c0.342,0.254,1.347,0.605,2.227,0.605c2.118,0,3.411-1.185,3.411-2.741c0-0.816-0.401-1.42-1.144-2.025
		c-0.519-0.422-1.001-0.701-1.509-1.167c-0.387-0.38-0.607-0.716-0.607-1.235c0-0.704,0.483-1.28,1.251-1.28
		c0.346,0,0.799,0.113,1.02,0.354c0.288,0.252,0.355,0.701,0.382,1.518c0.044,0.083,0.426,0.057,0.498-0.017
		c0.165-0.884,0.302-1.558,0.465-2.094c-0.135-0.027-0.412-0.055-0.811-0.138c-0.247-0.044-0.74-0.157-1.457-0.157
		c-1.788,0-3.04,1.027-3.04,2.701c0,1.222,0.895,1.896,1.856,2.668c1.073,0.888,1.293,1.336,1.282,1.899
		c0,0.746-0.538,1.152-1.253,1.152c-0.427,0-0.99-0.156-1.292-0.421C94.418,153.644,94.213,153.079,94.032,152.055L94.032,152.055z
		 M106.205,153.011c-0.387,0.409-0.594,0.505-0.716,0.505c-0.111,0-0.151-0.096-0.151-0.336c0.027-0.53,0.328-2.24,0.538-3.11
		c0.067-0.349,0.191-0.672,0.33-0.981c-0.469-0.125-0.993-0.196-1.68-0.196c-1.25,0-2.393,0.717-2.955,1.308
		c-0.827,0.843-1.238,2.164-1.238,3.274c0,0.633,0.233,1.475,0.867,1.475c0.824,0,1.774-0.913,2.461-1.825
		c0.027-0.044,0.083-0.029,0.068,0.013l-0.108,0.718c-0.11,0.673-0.029,1.095,0.412,1.095c0.509,0,1.553-0.53,2.145-1.349
		c0.041-0.097,0.095-0.393,0.095-0.521C106.271,153.055,106.217,153.011,106.205,153.011L106.205,153.011z M102.476,153.516
		c-0.232,0-0.397-0.238-0.397-0.943c0-0.687,0.125-1.432,0.302-1.896c0.342-0.858,0.716-1.057,1.24-1.057
		c0.218,0,0.618,0.059,0.795,0.184l-0.234,0.93c-0.15,0.674-0.261,1.108-0.384,1.349
		C103.372,152.969,102.793,153.516,102.476,153.516L102.476,153.516z M112.995,149.115c0.03,0.015,0.055,0.169,0.04,0.213
		c-0.092,0.28-0.369,0.647-0.644,0.787c-0.151,0.069-0.358,0.11-0.522,0.127v0.266c0,0.956-0.453,1.785-1.115,2.248
		c-0.618,0.422-1.22,0.505-1.458,0.549c-0.083,0-0.23,0.013-0.289,0.029c-0.082,0.013-0.206,0.084-0.206,0.169
		c0,0.141,0.11,0.224,0.412,0.363c0.566,0.24,1.227,0.508,1.748,0.829c0.617,0.38,0.962,0.703,0.962,1.351
		c0,0.547-0.428,1.207-1.25,1.716c-0.743,0.462-1.46,0.589-1.939,0.589c-1.638,0-2.696-0.844-2.696-1.758
		c0-0.476,0.828-0.927,1.693-1.376c0.026-0.012,0.014-0.043,0-0.056c-0.288-0.226-0.563-0.508-0.563-0.831
		c0-0.04,0.054-0.224,0.111-0.28c0.217-0.225,0.838-0.563,1.057-0.69c0.014-0.013,0.028-0.055-0.013-0.055
		c-0.854-0.196-1.226-0.843-1.226-1.601c0.017-0.915,0.526-1.814,1.226-2.292c0.521-0.339,1.155-0.521,1.706-0.521
		c0.329,0,0.755,0.111,1.318,0.336c0.192,0.069,0.494,0.185,0.715,0.185C112.433,149.412,112.748,149.284,112.995,149.115
		L112.995,149.115z M109.393,157.649c0.784,0,1.115-0.297,1.115-0.662c0-0.282-0.207-0.576-0.591-0.814
		c-0.524-0.338-1.307-0.732-1.61-0.732c-0.247,0-0.976,0.464-0.976,0.858C107.332,156.973,108.238,157.649,109.393,157.649
		L109.393,157.649z M109.34,152.813c0.631,0,0.947-1.532,0.961-2.4c0-0.777-0.246-1.027-0.562-1.027
		c-0.578,0-0.979,1.334-0.979,2.375C108.76,152.391,108.954,152.813,109.34,152.813L109.34,152.813z M110.356,147.33
		c-0.577,0-0.909-0.237-0.99-1.012c-0.055-0.027-0.194-0.027-0.262,0c-0.179,0.041-0.563,0.353-0.66,0.536
		c-0.056,0.954,0.631,1.42,1.459,1.42c1.169,0,2.035-0.774,2.406-1.871c0-0.029-0.058-0.085-0.11-0.068
		c-0.124,0.013-0.412,0.123-0.426,0.138C111.279,147.119,110.878,147.33,110.356,147.33L110.356,147.33z M113.34,146.739
		c0.288-0.112,0.577-0.154,0.729-0.154c0.11,0,0.152,0.143,0.138,0.297c-0.167,1.334-0.992,5.313-1.172,6.676
		c-0.106,0.844-0.01,1.407,0.401,1.407c0.604,0,1.637-0.604,2.255-1.349c0.07-0.101,0.095-0.395,0.095-0.451
		s-0.041-0.112-0.055-0.112c-0.439,0.395-0.671,0.505-0.811,0.505c-0.164,0-0.191-0.169-0.164-0.393
		c0.056-0.858,0.865-4.949,1.195-6.889c0.125-0.605,0.081-0.941-0.108-0.954c-0.414,0-1.664,0.476-2.407,0.939
		C113.38,146.291,113.313,146.671,113.34,146.739L113.34,146.739z M119.157,153.064c-0.291,0.295-0.563,0.493-0.728,0.493
		c-0.1,0-0.141-0.084-0.125-0.28c0.042-0.521,0.426-2.179,0.633-3.206c0.11-0.534,0.11-1.18-0.192-1.18
		c-0.456,0-1.444,0.532-2.228,1.28c-0.057,0.054-0.098,0.321-0.082,0.434c0,0.027,0.04,0.044,0.055,0.044
		c0.301-0.213,0.522-0.325,0.646-0.325c0.082,0,0.108,0.112,0.082,0.226c-0.18,0.929-0.468,2.179-0.632,3.12
		c-0.125,0.675-0.11,1.295,0.37,1.295c0.549,0,1.538-0.535,2.201-1.378c0.041-0.071,0.07-0.396,0.055-0.493
		C119.212,153.064,119.157,153.064,119.157,153.064L119.157,153.064z M125.949,149.115c0.027,0.015,0.057,0.169,0.042,0.213
		c-0.098,0.28-0.372,0.647-0.646,0.787c-0.154,0.069-0.36,0.11-0.522,0.127v0.266c0,0.956-0.454,1.785-1.115,2.248
		c-0.618,0.422-1.226,0.505-1.456,0.549c-0.084,0-0.235,0.013-0.29,0.029c-0.081,0.013-0.207,0.084-0.207,0.169
		c0,0.141,0.111,0.224,0.413,0.363c0.565,0.24,1.224,0.508,1.748,0.829c0.617,0.38,0.962,0.703,0.962,1.351
		c0,0.547-0.427,1.207-1.251,1.716c-0.742,0.462-1.459,0.589-1.939,0.589c-1.636,0-2.696-0.844-2.696-1.758
		c0-0.476,0.825-0.927,1.695-1.376c0.025-0.012,0.011-0.043,0-0.056c-0.292-0.226-0.569-0.508-0.569-0.831
		c0-0.04,0.058-0.224,0.111-0.28c0.22-0.225,0.84-0.563,1.06-0.69c0.015-0.013,0.029-0.055-0.013-0.055
		c-0.852-0.196-1.224-0.843-1.224-1.601c0.012-0.915,0.522-1.814,1.224-2.292c0.521-0.339,1.156-0.521,1.705-0.521
		c0.33,0,0.754,0.111,1.321,0.336c0.19,0.069,0.493,0.185,0.714,0.185C125.387,149.412,125.703,149.284,125.949,149.115
		L125.949,149.115z M122.346,157.649c0.785,0,1.117-0.297,1.117-0.662c0-0.282-0.208-0.576-0.593-0.814
		c-0.524-0.338-1.307-0.732-1.608-0.732c-0.247,0-0.979,0.464-0.979,0.858C120.283,156.973,121.191,157.649,122.346,157.649
		L122.346,157.649z M122.292,152.813c0.635,0,0.949-1.532,0.963-2.4c0-0.777-0.247-1.027-0.566-1.027
		c-0.576,0-0.974,1.334-0.974,2.375C121.715,152.391,121.905,152.813,122.292,152.813L122.292,152.813z M123.311,147.33
		c-0.577,0-0.91-0.237-0.991-1.012c-0.052-0.027-0.192-0.027-0.263,0c-0.176,0.041-0.563,0.353-0.658,0.536
		c-0.055,0.954,0.632,1.42,1.455,1.42c1.171,0,2.037-0.774,2.409-1.871c0-0.029-0.055-0.085-0.111-0.068
		c-0.123,0.013-0.413,0.123-0.427,0.138C124.229,147.119,123.835,147.33,123.311,147.33L123.311,147.33z M128.742,153.064
		c-0.29,0.295-0.564,0.493-0.729,0.493c-0.095,0-0.138-0.084-0.125-0.28c0.043-0.521,0.427-2.179,0.632-3.206
		c0.111-0.534,0.111-1.18-0.189-1.18c-0.455,0-1.445,0.532-2.229,1.28c-0.055,0.054-0.095,0.321-0.083,0.434
		c0,0.027,0.042,0.044,0.056,0.044c0.304-0.213,0.523-0.325,0.648-0.325c0.081,0,0.108,0.112,0.081,0.226
		c-0.18,0.929-0.467,2.179-0.632,3.12c-0.125,0.675-0.111,1.295,0.371,1.295c0.548,0,1.541-0.535,2.2-1.378
		c0.041-0.071,0.067-0.396,0.056-0.493C128.798,153.064,128.742,153.064,128.742,153.064L128.742,153.064z M136.03,151.491
		c0.92-0.013,1.567-0.155,2.173-0.462c0.878-0.476,1.51-1.36,1.51-2.511c0-1.791-1.416-2.257-2.516-2.257
		c-0.867,0-1.196,0-2.269,0.015c-0.729,0-1.621-0.04-1.978-0.04c-0.058,0.025-0.113,0.349-0.084,0.462
		c0.247,0.029,0.496,0.056,0.687,0.112c0.345,0.086,0.372,0.365,0.317,0.774c-0.11,0.912-0.619,4.2-0.936,5.82
		c-0.068,0.402-0.19,0.672-0.551,0.758c-0.248,0.071-0.426,0.083-0.716,0.142c-0.042,0.082-0.082,0.349-0.042,0.477
		c0.717,0,1.556-0.042,2.255-0.042c0.897,0,1.476,0.042,2.05,0.042c0.099-0.057,0.15-0.407,0.099-0.477
		c-0.291-0.044-0.591-0.088-0.854-0.156c-0.344-0.084-0.356-0.493-0.314-0.76c0.054-0.506,0.149-1.138,0.273-1.883
		c0-0.027,0.029-0.084,0.082-0.084C135.451,151.464,135.783,151.491,136.03,151.491L136.03,151.491z M135.67,150.873
		c-0.122,0-0.23-0.013-0.343-0.027c-0.069,0-0.082-0.044-0.082-0.098c0.194-1.332,0.469-3.055,0.59-3.602
		c0.016-0.1,0.083-0.194,0.124-0.223c0.098-0.042,0.247-0.069,0.332-0.069c0.906,0,1.514,0.574,1.497,1.705
		C137.788,149.992,136.896,150.873,135.67,150.873L135.67,150.873z M143.454,148.892c-0.7,0-1.566,0.293-2.229,0.758
		c-1.001,0.689-1.455,2.038-1.455,3.233c0,1.253,0.537,2.082,1.666,2.082c0.587,0,1.4-0.27,1.866-0.508
		c1.295-0.714,1.913-2.022,1.913-3.54C145.216,149.792,144.68,148.892,143.454,148.892L143.454,148.892z M141.486,152.604
		c0-1.492,0.483-3.094,1.21-3.079c0.663,0,0.774,0.87,0.774,1.643c0,1.349-0.372,3.094-1.2,3.094
		C141.765,154.261,141.486,153.756,141.486,152.604L141.486,152.604z M146.534,146.739c0.288-0.112,0.578-0.154,0.729-0.154
		c0.111,0,0.152,0.143,0.137,0.297c-0.164,1.334-0.988,5.313-1.166,6.676c-0.111,0.844-0.015,1.407,0.399,1.407
		c0.603,0,1.634-0.604,2.253-1.349c0.07-0.101,0.096-0.395,0.096-0.451s-0.041-0.112-0.055-0.112
		c-0.439,0.395-0.671,0.505-0.81,0.505c-0.165,0-0.192-0.169-0.165-0.393c0.055-0.858,0.864-4.949,1.193-6.889
		c0.127-0.605,0.083-0.941-0.108-0.954c-0.412,0-1.663,0.476-2.404,0.939C146.575,146.291,146.51,146.671,146.534,146.739
		L146.534,146.739z M152.351,153.064c-0.288,0.295-0.562,0.493-0.727,0.493c-0.098,0-0.14-0.084-0.124-0.28
		c0.042-0.521,0.425-2.179,0.633-3.206c0.109-0.534,0.109-1.18-0.192-1.18c-0.456,0-1.446,0.532-2.227,1.28
		c-0.059,0.054-0.1,0.321-0.084,0.434c0,0.027,0.041,0.044,0.055,0.044c0.301-0.213,0.523-0.325,0.647-0.325
		c0.081,0,0.106,0.112,0.081,0.226c-0.18,0.929-0.468,2.179-0.633,3.12c-0.125,0.675-0.109,1.295,0.371,1.295
		c0.552,0,1.54-0.535,2.199-1.378c0.041-0.071,0.07-0.396,0.056-0.493C152.406,153.064,152.351,153.064,152.351,153.064
		L152.351,153.064z M152.021,146.374c-0.372,0-0.809,0.198-1.004,0.38c-0.108,0.113-0.191,0.437-0.176,0.662
		c0.025,0.282,0.165,0.49,0.355,0.618c0.14,0.07,0.812-0.042,0.948-0.154c0.247-0.182,0.4-0.479,0.454-0.831
		c0.015-0.082-0.013-0.393-0.067-0.491C152.49,146.487,152.296,146.374,152.021,146.374z"/>
	<path fill="#2E3192" d="M156.161,145.308c-0.287,0-1.252,0.279-2.447,0.954c-0.056,0.029-0.126,0.411-0.097,0.499
		c0.246-0.101,0.577-0.157,0.742-0.157c0.151,0,0.193,0.126,0.139,0.438c-0.082,0.719-0.84,4.618-1.127,6.123
		c-0.207,1.069-0.222,1.265-0.222,1.446c0,0.211,0.025,0.381,0.18,0.381c0.137,0,1.429-0.466,1.607-0.688
		c-0.096-0.213-0.124-0.38-0.083-0.678c0.027-0.238,0.083-0.548,0.14-0.771c0.041-0.169,0.136-0.354,0.191-0.395
		c0.026-0.027,0.097-0.042,0.151,0.015c0.246,0.309,0.743,1.448,1.086,1.941c0.275,0.378,0.508,0.53,0.813,0.53
		c0.592,0,1.387-0.631,1.911-1.462c0.027-0.056,0.066-0.378,0.027-0.49c-0.013-0.044-0.069-0.057-0.083-0.057
		c-0.398,0.491-0.62,0.618-0.852,0.618c-0.222,0-0.496-0.253-1.404-1.685c-0.233-0.382-0.412-0.578-0.507-0.662
		c-0.042-0.015-0.028-0.056-0.016-0.07c0.165-0.238,0.729-0.969,1.155-0.969c0.411,0,0.879,0.24,0.963,0.309
		c0.179-0.068,0.66-0.688,0.73-0.956c0.024-0.101,0.04-0.268,0.013-0.323c-0.095-0.154-0.345-0.31-0.784-0.31
		c-0.922,0-2.421,1.925-3.053,2.712c-0.029,0.029-0.111,0.044-0.097-0.044c0.413-2.121,0.729-3.643,1.06-5.394
		C156.394,145.602,156.354,145.308,156.161,145.308L156.161,145.308z M160.107,146.739c0.288-0.112,0.578-0.154,0.728-0.154
		c0.112,0,0.154,0.143,0.138,0.297c-0.164,1.334-0.988,5.313-1.168,6.676c-0.107,0.844-0.013,1.407,0.399,1.407
		c0.604,0,1.636-0.604,2.254-1.349c0.071-0.101,0.097-0.395,0.097-0.451s-0.04-0.112-0.056-0.112
		c-0.438,0.395-0.674,0.505-0.809,0.505c-0.165,0-0.194-0.169-0.165-0.393c0.054-0.858,0.864-4.949,1.193-6.889
		c0.126-0.605,0.083-0.941-0.108-0.954c-0.411,0-1.663,0.476-2.406,0.939C160.149,146.291,160.078,146.671,160.107,146.739
		L160.107,146.739z M165.924,153.064c-0.288,0.295-0.564,0.493-0.729,0.493c-0.096,0-0.138-0.084-0.124-0.28
		c0.04-0.521,0.427-2.179,0.632-3.206c0.111-0.534,0.111-1.18-0.188-1.18c-0.457,0-1.447,0.532-2.229,1.28
		c-0.057,0.054-0.098,0.321-0.084,0.434c0,0.027,0.042,0.044,0.055,0.044c0.304-0.213,0.523-0.325,0.649-0.325
		c0.081,0,0.107,0.112,0.081,0.226c-0.18,0.929-0.468,2.179-0.633,3.12c-0.125,0.675-0.11,1.295,0.371,1.295
		c0.552,0,1.541-0.535,2.199-1.378c0.044-0.071,0.07-0.396,0.056-0.493C165.979,153.064,165.924,153.064,165.924,153.064
		L165.924,153.064z M165.594,146.374c-0.369,0-0.811,0.198-1.004,0.38c-0.107,0.113-0.191,0.437-0.18,0.662
		c0.029,0.282,0.166,0.49,0.361,0.618c0.135,0.07,0.808-0.042,0.947-0.154c0.249-0.182,0.397-0.479,0.453-0.831
		c0.015-0.082-0.015-0.393-0.066-0.491C166.063,146.487,165.869,146.374,165.594,146.374L165.594,146.374z M166.764,150.774
		c0.247-0.237,0.551-0.436,0.715-0.436c0.123,0,0.123,0.142,0.108,0.255c-0.096,0.701-0.687,3.358-0.769,4.047
		c-0.028,0.182,0.055,0.324,0.151,0.324c0.177,0,1.277-0.422,1.566-0.62c-0.041-0.268-0.041-0.505,0.082-1.084
		c0.207-0.87,0.454-1.501,0.618-1.77c0.512-0.842,1.074-1.349,1.363-1.349c0.218,0,0.207,0.281,0.136,0.703
		c-0.217,1.123-0.411,1.868-0.576,2.697c-0.15,0.818-0.109,1.422,0.344,1.422c0.441,0,1.499-0.422,2.227-1.321
		c0.027-0.069,0.083-0.437,0.083-0.564c-0.012-0.026-0.04-0.041-0.056-0.041c-0.467,0.448-0.673,0.505-0.769,0.505
		c-0.082,0-0.126-0.112-0.11-0.266c0.041-0.479,0.274-1.532,0.439-2.417c0.207-1.015,0.263-1.969-0.426-1.969
		c-0.275,0-0.494,0.071-0.782,0.211c-0.771,0.363-1.528,1.123-1.969,1.714c-0.027,0-0.038,0-0.055-0.015
		c0.042-0.169,0.069-0.378,0.113-0.617c0.162-0.9,0.011-1.293-0.277-1.293c-0.412,0-1.403,0.532-2.158,1.361
		c-0.041,0.046-0.083,0.38-0.07,0.48C166.693,150.76,166.734,150.774,166.764,150.774L166.764,150.774z M176.319,153.064
		c-0.288,0.295-0.563,0.493-0.728,0.493c-0.097,0-0.139-0.084-0.123-0.28c0.04-0.521,0.423-2.179,0.63-3.206
		c0.114-0.534,0.114-1.18-0.192-1.18c-0.453,0-1.44,0.532-2.226,1.28c-0.054,0.054-0.096,0.321-0.084,0.434
		c0,0.027,0.042,0.044,0.055,0.044c0.304-0.213,0.522-0.325,0.647-0.325c0.083,0,0.109,0.112,0.083,0.226
		c-0.179,0.929-0.47,2.179-0.634,3.12c-0.121,0.675-0.109,1.295,0.371,1.295c0.55,0,1.541-0.535,2.2-1.378
		c0.044-0.071,0.069-0.396,0.056-0.493C176.375,153.064,176.319,153.064,176.319,153.064L176.319,153.064z M175.989,146.374
		c-0.37,0-0.81,0.198-1.004,0.38c-0.108,0.113-0.189,0.437-0.179,0.662c0.028,0.282,0.165,0.49,0.358,0.618
		c0.138,0.07,0.813-0.042,0.947-0.154c0.251-0.182,0.401-0.479,0.457-0.831c0.013-0.082-0.018-0.393-0.07-0.491
		C176.458,146.487,176.263,146.374,175.989,146.374L175.989,146.374z M183.114,149.115c0.025,0.015,0.055,0.169,0.041,0.213
		c-0.098,0.28-0.372,0.647-0.648,0.787c-0.15,0.069-0.356,0.11-0.521,0.127v0.266c0,0.956-0.453,1.785-1.112,2.248
		c-0.62,0.422-1.227,0.505-1.459,0.549c-0.082,0-0.234,0.013-0.289,0.029c-0.083,0.013-0.204,0.084-0.204,0.169
		c0,0.141,0.108,0.224,0.411,0.363c0.563,0.24,1.221,0.508,1.747,0.829c0.618,0.38,0.96,0.703,0.96,1.351
		c0,0.547-0.426,1.207-1.249,1.716c-0.744,0.462-1.458,0.589-1.94,0.589c-1.635,0-2.695-0.844-2.695-1.758
		c0-0.476,0.825-0.927,1.691-1.376c0.028-0.012,0.016-0.043,0-0.056c-0.288-0.226-0.563-0.508-0.563-0.831
		c0-0.04,0.055-0.224,0.109-0.28c0.221-0.225,0.84-0.563,1.062-0.69c0.012-0.013,0.024-0.055-0.016-0.055
		c-0.852-0.196-1.223-0.843-1.223-1.601c0.012-0.915,0.52-1.814,1.223-2.292c0.522-0.339,1.154-0.521,1.704-0.521
		c0.33,0,0.758,0.111,1.321,0.336c0.193,0.069,0.495,0.185,0.713,0.185C182.549,149.412,182.867,149.284,183.114,149.115
		L183.114,149.115z M179.509,157.649c0.784,0,1.115-0.297,1.115-0.662c0-0.282-0.207-0.576-0.591-0.814
		c-0.524-0.338-1.309-0.732-1.609-0.732c-0.247,0-0.977,0.464-0.977,0.858C177.447,156.973,178.354,157.649,179.509,157.649
		L179.509,157.649z M179.457,152.813c0.631,0,0.946-1.532,0.96-2.4c0-0.777-0.245-1.027-0.563-1.027
		c-0.577,0-0.977,1.334-0.977,2.375C178.877,152.391,179.071,152.813,179.457,152.813L179.457,152.813z M180.472,147.33
		c-0.576,0-0.908-0.237-0.989-1.012c-0.055-0.027-0.19-0.027-0.263,0c-0.178,0.041-0.563,0.353-0.66,0.536
		c-0.052,0.954,0.634,1.42,1.459,1.42c1.169,0,2.035-0.774,2.407-1.871c0-0.029-0.055-0.085-0.111-0.068
		c-0.122,0.013-0.411,0.123-0.426,0.138C181.393,147.119,180.998,147.33,180.472,147.33L180.472,147.33z M185.907,153.064
		c-0.292,0.295-0.567,0.493-0.732,0.493c-0.096,0-0.137-0.084-0.123-0.28c0.042-0.521,0.428-2.179,0.634-3.206
		c0.107-0.534,0.107-1.18-0.194-1.18c-0.453,0-1.443,0.532-2.227,1.28c-0.056,0.054-0.096,0.321-0.083,0.434
		c0,0.027,0.039,0.044,0.055,0.044c0.302-0.213,0.521-0.325,0.646-0.325c0.081,0,0.11,0.112,0.081,0.226
		c-0.175,0.929-0.467,2.179-0.633,3.12c-0.122,0.675-0.11,1.295,0.372,1.295c0.55,0,1.541-0.535,2.204-1.378
		c0.04-0.071,0.067-0.396,0.051-0.493C185.958,153.064,185.907,153.064,185.907,153.064L185.907,153.064z M185.575,146.374
		c-0.372,0-0.813,0.198-1.004,0.38c-0.112,0.113-0.191,0.437-0.181,0.662c0.03,0.282,0.166,0.49,0.358,0.618
		c0.138,0.07,0.812-0.042,0.95-0.154c0.248-0.182,0.398-0.479,0.455-0.831c0.012-0.082-0.016-0.393-0.071-0.491
		C186.041,146.487,185.849,146.374,185.575,146.374L185.575,146.374z M76.678,164.411c0.36,0.056,0.509,0.081,0.716,0.154
		c0.235,0.07,0.304,0.24,0.275,0.534c-0.054,0.618-0.151,1.319-0.384,2.812c-0.165,1.138-0.443,2.727-0.535,3.188
		c-0.113,0.634-0.305,0.747-0.593,0.818c-0.166,0.041-0.426,0.081-0.703,0.112c-0.054,0.057-0.08,0.393-0.039,0.476
		c0.521,0,1.427-0.026,2.144-0.041c0.715,0,1.32,0.026,2.05,0.041c0.066-0.041,0.123-0.407,0.082-0.476
		c-0.317-0.059-0.551-0.088-0.699-0.145c-0.388-0.096-0.332-0.419-0.321-0.674c0.057-0.547,0.223-1.589,0.485-3.288
		c0.177-1.209,0.355-2.277,0.438-2.699c0.082-0.407,0.181-0.62,0.483-0.688c0.208-0.057,0.384-0.069,0.671-0.113
		c0.084-0.054,0.125-0.421,0.057-0.478c-0.496,0-1.005,0.042-2.091,0.042c-1.074,0-1.583-0.042-1.964-0.042
		C76.678,163.987,76.637,164.311,76.678,164.411L76.678,164.411z M79.897,162.314c0.027-0.11,0.027-0.406-0.041-0.547
		c-0.071-0.07-0.288-0.198-0.634-0.198c-0.356,0-0.782,0.113-0.989,0.31c-0.125,0.142-0.222,0.395-0.206,0.646
		c0.013,0.24,0.164,0.549,0.385,0.675c0.136,0.085,0.85,0.056,1.045-0.084C79.705,162.935,79.84,162.626,79.897,162.314
		L79.897,162.314z M85.124,167.124c0.357,0,0.825-0.436,1.141-0.762c0.025-0.027,0.096,0,0.109,0.044
		c0.042,0.125,0.042,0.422,0.028,0.479c-0.112,0.226-1.085,1.152-1.579,1.615l-2.271,2.222c-0.027,0.029-0.042,0.098-0.014,0.098
		c0.096,0.015,0.481,0.071,1.099,0.297c0.619,0.237,0.977,0.321,1.224,0.321c0.523,0,0.893-0.282,1.445-1.207
		c0.014-0.015,0.138,0,0.151,0.04c0.039,0.098,0.026,0.507-0.013,0.578c-0.385,0.758-1.459,2.037-2.572,2.037
		c-0.455,0-0.894-0.237-1.43-0.492c-0.496-0.211-0.743-0.307-0.989-0.307c-0.36,0-0.731,0.461-0.829,0.562
		c-0.025,0.026-0.094,0.026-0.135-0.015c-0.096-0.099-0.18-0.409-0.138-0.451c0.264-0.378,0.948-1.04,1.277-1.334
		c0.247-0.24,2.396-2.292,2.492-2.419c0.041-0.027,0.027-0.069,0-0.069c-0.166,0.042-0.662,0-1.033-0.057
		c-0.247-0.044-0.714-0.112-0.892-0.112c-0.344,0-0.69,0.211-1.047,0.787c-0.014,0.027-0.082,0.027-0.108,0.015
		c-0.11-0.057-0.235-0.295-0.208-0.365c0.11-0.255,0.771-1.407,1.086-1.771c0.083-0.101,0.317-0.24,0.495-0.24
		c0.234,0,0.77,0.11,1.208,0.226C84.215,166.997,84.765,167.124,85.124,167.124L85.124,167.124z M86.965,168.473
		c0.261-0.225,0.551-0.424,0.675-0.424c0.122,0,0.122,0.255,0.095,0.354c-0.054,0.576-0.372,1.982-0.605,3.079
		c-0.096,0.448-0.151,0.758-0.178,0.998c0,0.081,0.068,0.195,0.151,0.21c0.29-0.029,1.348-0.45,1.583-0.603
		c-0.07-0.282-0.03-0.563,0.164-1.336c0.232-0.944,0.453-1.354,0.604-1.618c0.469-0.73,1.032-1.253,1.362-1.253
		c0.177,0,0.22,0.213,0.177,0.537c-0.137,1.235-0.714,3.413-0.784,4.063c0,0.112,0.125,0.195,0.181,0.21
		c0.22-0.015,1.292-0.421,1.552-0.603c-0.041-0.169,0-0.522,0.111-1.027c0.18-0.818,0.346-1.351,0.605-1.814
		c0.605-1.039,1.114-1.365,1.374-1.365c0.194,0,0.206,0.27,0.139,0.593c-0.194,1.025-0.399,1.996-0.564,2.866
		c-0.136,0.66-0.125,1.351,0.317,1.351c0.426,0,1.457-0.367,2.24-1.321c0.027-0.056,0.082-0.351,0.082-0.492
		c0-0.069-0.027-0.086-0.055-0.099c-0.439,0.422-0.645,0.491-0.756,0.491c-0.11,0-0.137-0.126-0.123-0.266
		c0.068-0.578,0.301-1.645,0.48-2.657c0.125-0.829,0.192-1.729-0.453-1.729c-0.963,0-2.203,1.18-2.75,1.897
		c-0.016,0.015-0.042,0.027-0.057,0.015c0.041-0.296,0.082-0.549,0.098-0.816c0.054-0.716-0.166-1.096-0.55-1.096
		c-0.826,0-2.035,1.025-2.737,1.897c-0.028,0.015-0.055,0.015-0.082,0l0.108-0.563c0.125-0.73,0.098-1.334-0.273-1.334
		c-0.411,0-1.278,0.437-2.187,1.391c-0.027,0.085-0.042,0.311,0,0.409C86.924,168.441,86.952,168.473,86.965,168.473L86.965,168.473
		z M99.726,170.79c-0.29,0.297-0.562,0.493-0.728,0.493c-0.098,0-0.14-0.084-0.124-0.28c0.041-0.521,0.426-2.179,0.632-3.206
		c0.11-0.534,0.11-1.18-0.195-1.18c-0.453,0-1.441,0.532-2.225,1.277c-0.057,0.057-0.097,0.324-0.082,0.437
		c0,0.029,0.041,0.042,0.054,0.042c0.302-0.211,0.522-0.324,0.646-0.324c0.083,0,0.109,0.113,0.083,0.226
		c-0.178,0.93-0.467,2.18-0.631,3.121c-0.126,0.675-0.11,1.294,0.371,1.294c0.549,0,1.539-0.534,2.2-1.377
		c0.041-0.071,0.07-0.395,0.055-0.493C99.781,170.79,99.726,170.79,99.726,170.79L99.726,170.79z M99.397,164.1
		c-0.374,0-0.811,0.198-1.005,0.38c-0.111,0.113-0.192,0.438-0.177,0.662c0.025,0.281,0.165,0.49,0.355,0.617
		c0.139,0.071,0.812-0.041,0.95-0.154c0.247-0.182,0.399-0.478,0.453-0.831c0.015-0.083-0.013-0.392-0.068-0.49
		C99.864,164.212,99.671,164.1,99.397,164.1L99.397,164.1z M102.751,168.682c-0.015,0.017-0.042,0.017-0.055,0l0.109-0.633
		c0.123-0.755,0.151-1.432-0.207-1.432c-0.396,0-1.251,0.493-2.076,1.319c-0.041,0.057-0.097,0.338-0.083,0.451
		c0,0.029,0.042,0.054,0.069,0.054c0.277-0.25,0.589-0.393,0.703-0.393c0.149,0,0.121,0.27,0.067,0.649
		c-0.138,0.981-0.593,2.979-0.716,3.767c0,0.112,0.111,0.21,0.165,0.225c0.264-0.041,1.349-0.45,1.582-0.634
		c-0.081-0.282,0.027-0.772,0.099-1.138c0.136-0.688,0.3-1.194,0.467-1.574c0.34-0.829,0.619-1.125,0.825-1.125
		c0.232,0,0.48,0.211,0.714,0.424c0.041,0.012,0.11,0.012,0.193-0.057c0.208-0.24,0.675-1,0.716-1.349
		c0.014-0.044,0.014-0.169,0-0.213c-0.098-0.226-0.372-0.407-0.659-0.407c-0.416,0-0.717,0.253-1.061,0.688
		C103.398,167.573,103.052,168.12,102.751,168.682L102.751,168.682z M110.383,172.717c-0.345,0.395-0.798,0.9-0.798,0.9
		c-0.014,0.026-0.027,0.154-0.027,0.154c0.81,0.323,1.019,0.645,1.019,0.885c0,0.268-0.209,0.409-0.565,0.409
		c-0.303,0-0.591-0.071-0.879-0.24c-0.057,0.042-0.11,0.324-0.096,0.393c0.15,0.226,0.549,0.424,0.918,0.424
		c0.457,0,1.598-0.466,1.598-1.42c0-0.267-0.082-0.521-0.33-0.73c-0.165-0.169-0.329-0.296-0.509-0.436
		c-0.025-0.015-0.055-0.071-0.014-0.128l0.179-0.238c1.761-0.198,2.849-1.279,2.849-2.713c0-0.816-0.4-1.42-1.144-2.025
		c-0.522-0.422-1.005-0.714-1.512-1.165c-0.384-0.38-0.605-0.718-0.605-1.237c0-0.702,0.48-1.28,1.252-1.28
		c0.343,0,0.798,0.113,1.018,0.351c0.289,0.255,0.356,0.704,0.384,1.521c0.041,0.083,0.426,0.054,0.497-0.015
		c0.163-0.886,0.301-1.56,0.465-2.094c-0.164-0.013-0.507-0.086-0.811-0.141c-0.246-0.041-0.742-0.156-1.456-0.156
		c-1.787,0-3.04,1.027-3.04,2.699c0,1.224,0.891,1.897,1.855,2.672c1.072,0.885,1.293,1.334,1.28,1.897
		c0,0.745-0.538,1.152-1.252,1.152c-0.426,0-0.992-0.156-1.292-0.422c-0.426-0.365-0.633-0.927-0.813-1.953
		c-0.082-0.029-0.438,0-0.494,0.098c-0.083,0.547-0.099,2.022,0.026,2.233c0.345,0.255,1.375,0.605,2.281,0.605H110.383
		L110.383,172.717z M115.539,168.36l-0.535,2.628c-0.234,1.321,0.108,1.701,0.576,1.701c0.469,0,0.99-0.239,1.486-0.676
		c0.467-0.407,0.825-0.787,1.101-1.165c0.012-0.015,0.057-0.015,0.066,0c-0.055,0.338-0.082,0.49-0.109,0.716
		c-0.095,0.604-0.041,1.125,0.429,1.125c0.479,0,1.511-0.507,2.143-1.336c0.056-0.098,0.125-0.421,0.111-0.534
		c-0.013-0.042-0.041-0.083-0.056-0.083c-0.287,0.281-0.55,0.505-0.74,0.505c-0.113,0-0.155-0.154-0.141-0.351
		c0.042-0.62,0.372-2.361,0.594-3.347c0.082-0.351,0.165-0.618,0.248-0.758c0-0.071-0.058-0.156-0.099-0.169
		c-0.305,0.027-1.5,0.493-1.622,0.633c-0.108,0.182-0.18,0.518-0.426,1.674c-0.071,0.28-0.248,0.868-0.342,1.023
		c-0.415,0.747-0.992,1.336-1.352,1.336c-0.163,0-0.204-0.184-0.189-0.435c0.082-0.688,0.315-1.604,0.549-2.841
		c0.207-1.15,0.041-1.391-0.206-1.391c-0.414,0-1.46,0.507-2.214,1.277c-0.042,0.086-0.111,0.395-0.096,0.508
		c0,0.015,0.041,0.056,0.054,0.039c0.274-0.223,0.592-0.363,0.715-0.363C115.565,168.078,115.58,168.177,115.539,168.36
		L115.539,168.36z M126.472,166.617c-0.838,0-1.871,0.758-2.585,1.56c-0.013,0.015-0.081,0.029-0.068-0.015
		c0.287-1.488,0.604-2.908,0.852-4.244c0.096-0.534,0.043-0.855-0.15-0.87c-0.399,0-1.608,0.478-2.503,0.971
		c-0.069,0.039-0.136,0.434-0.069,0.49c0.247-0.098,0.648-0.169,0.798-0.169c0.098,0,0.125,0.14,0.125,0.226
		c-0.111,0.802-0.618,3.402-0.95,5.256c-0.026,0.211-0.123,0.787-0.136,1.251c0,0.899,0.438,1.617,1.316,1.617
		c0.938,0,1.984-0.409,2.904-1.237c0.81-0.73,1.387-1.954,1.416-3.204C127.421,167.362,127.104,166.617,126.472,166.617
		L126.472,166.617z M124.08,171.959c-0.511,0-0.661-0.563-0.661-1.11c0-0.536,0.193-1.532,0.563-2.081
		c0.411-0.591,0.908-0.983,1.238-0.983c0.288,0,0.453,0.309,0.453,0.885c-0.011,1.055-0.397,2.278-0.879,2.866
		C124.559,171.805,124.302,171.959,124.08,171.959L124.08,171.959z M130.982,167.263c0.232,0,0.453,0.239,0.453,0.688
		c0,0.409-0.136,0.73-0.343,0.899c-0.249,0.226-0.688,0.395-1.059,0.493c-0.028,0.015-0.056-0.027-0.056-0.071
		C130.131,167.855,130.61,167.263,130.982,167.263L130.982,167.263z M131.863,166.617c-0.716,0-1.911,0.532-2.379,0.969
		c-0.592,0.534-1.184,1.701-1.184,3.079c0,0.914,0.247,2.024,1.542,2.024c1.001,0,2.24-0.676,2.778-1.478
		c0.066-0.112,0.081-0.405,0.081-0.505c0-0.027-0.04-0.069-0.056-0.069c-0.756,0.743-1.265,0.856-1.721,0.856
		c-0.756,0-0.974-0.646-0.974-1.352c0-0.039,0-0.07,0.014-0.152c0-0.028,0.04-0.07,0.081-0.085c0.426-0.154,1.086-0.407,1.609-0.716
		c0.783-0.449,1.226-0.941,1.226-1.562C132.882,167.068,132.536,166.617,131.863,166.617L131.863,166.617z M136.401,166.603
		c-0.633,0-1.405,0.353-1.912,0.829c-0.578,0.536-0.688,1.056-0.688,1.436c0,0.506,0.277,0.913,1.004,1.445
		c0.909,0.648,1.088,0.843,1.088,1.182c0,0.239-0.192,0.436-0.535,0.436c-0.523,0-1.253-0.406-1.527-1.321
		c-0.014-0.056-0.236,0.013-0.276,0.057c-0.219,0.338-0.452,1.027-0.452,1.253c0,0.125,0.108,0.321,0.233,0.434
		c0.259,0.209,0.66,0.323,1.099,0.323c0.553,0,1.114-0.127,1.762-0.547c0.768-0.492,1.071-1.098,1.071-1.646
		c0-0.534-0.287-0.914-1.003-1.405c-1.047-0.688-1.268-0.914-1.268-1.235c0-0.226,0.139-0.451,0.482-0.451
		c0.332,0,0.84,0.338,1.184,0.802c0.013,0.015,0.151,0,0.22-0.071c0.194-0.184,0.482-0.659,0.565-0.899
		c0.025-0.071,0.012-0.224-0.015-0.266C137.28,166.744,136.868,166.603,136.401,166.603L136.401,166.603z M140.871,170.79
		c-0.29,0.297-0.563,0.493-0.729,0.493c-0.098,0-0.139-0.084-0.123-0.28c0.039-0.521,0.424-2.179,0.632-3.206
		c0.109-0.534,0.109-1.18-0.196-1.18c-0.451,0-1.442,0.532-2.225,1.277c-0.056,0.057-0.099,0.324-0.083,0.437
		c0,0.029,0.042,0.042,0.056,0.042c0.301-0.211,0.521-0.324,0.647-0.324c0.081,0,0.108,0.113,0.081,0.226
		c-0.179,0.93-0.469,2.18-0.635,3.121c-0.122,0.675-0.107,1.294,0.373,1.294c0.55,0,1.539-0.534,2.201-1.377
		c0.037-0.071,0.068-0.395,0.054-0.493C140.925,170.79,140.871,170.79,140.871,170.79L140.871,170.79z M140.537,164.1
		c-0.369,0-0.808,0.198-1,0.38c-0.11,0.113-0.194,0.438-0.18,0.662c0.027,0.281,0.166,0.49,0.355,0.617
		c0.142,0.071,0.815-0.041,0.949-0.154c0.246-0.182,0.402-0.478,0.457-0.831c0.012-0.083-0.015-0.392-0.07-0.49
		C141.007,164.212,140.814,164.1,140.537,164.1z"/>
</g>
<path fill="#2E3192" d="M32.557,118.827c0.696,0.071,1.352,0.146,1.901,0.328c0.693,0.219,0.95,0.511,1.021,1.534
	c0.11,1.315,0.11,4.162,0.11,6.865c0,4.198,0,6.721-0.11,8.802c0,1.167-0.364,1.569-1.021,1.751
	c-0.512,0.146-1.426,0.293-2.705,0.477c-0.071,0.184-0.071,0.947,0,1.239c1.974,0,4.641-0.108,6.574-0.108
	c3.874,0,7.379,0.146,10.447,0.146c1.569,0,1.75-0.255,1.898-0.585c0.658-1.239,1.498-4.527,1.681-5.369
	c-0.148-0.182-1.098-0.509-1.351-0.474c-0.549,1.279-1.243,2.558-1.936,3.361c-0.804,0.949-1.317,1.096-2.959,1.096
	c-2.047,0-3.833-0.11-4.527-0.255c-0.439-0.112-0.769-0.622-0.769-1.206v-6.428c0-0.073,0.146-0.33,0.254-0.33
	c1.095,0,3.909,0,4.564,0.073c0.731,0.11,1.023,0.512,1.245,1.061l0.364,1.497c0.183,0.108,1.242,0.07,1.424-0.038
	c-0.037-1.022-0.071-2.701-0.071-3.687c0-1.169,0.146-2.666,0.182-3.545c-0.182-0.146-1.28-0.182-1.461-0.073
	c-0.112,0.479-0.183,0.952-0.292,1.317c-0.22,0.912-0.549,1.24-1.315,1.277c-1.169,0.073-3.688,0.038-4.64,0.038
	c-0.108,0-0.254-0.146-0.254-0.292c0-2.484-0.038-4.749,0-7.088c0-0.182,0.184-0.619,0.366-0.655
	c0.585-0.073,4.127-0.073,5.075,0.036c0.513,0.035,1.131,0.219,1.497,0.949c0.293,0.585,0.475,1.351,0.695,2.701
	c0.183,0.108,1.168,0.038,1.387-0.108c0.109-2.046,0.256-4.382,0.512-5.516c0-0.07-0.072-0.144-0.11-0.144
	c-1.277,0.182-3.322,0.219-4.747,0.219h-7.339c-1.792,0-4.092-0.11-5.516-0.11C32.484,117.695,32.414,118.644,32.557,118.827
	L32.557,118.827z M56.002,132.922c-0.218-0.11-1.167,0.182-1.277,0.403c0.035,1.277,0.768,5.296,1.17,5.881
	c0.91,0.474,3.139,1.167,5.658,1.167c5.662,0,8.765-3.104,8.765-6.975c0-2.631-1.205-4.236-3.909-5.916
	c-1.569-0.95-2.48-1.497-4.053-2.484c-1.497-1.023-2.263-2.009-2.263-3.541c0-1.718,1.204-3.068,3.14-3.068
	c1.132,0,1.973,0.22,2.738,0.839c0.876,0.622,1.353,1.681,1.679,3.908c0.182,0.108,1.098,0.108,1.28-0.073
	c0.144-2.271,0.364-3.987,0.62-5.367c-1.788-0.184-3.287-0.657-6.098-0.657c-4.201,0-7.779,2.299-7.779,6.607
	c0,3.872,2.631,5.553,5.734,7.487c3.395,2.082,4.091,3.178,4.091,4.896c0,1.824-1.353,2.848-3.069,2.848
	c-1.058,0-2.374-0.292-3.325-0.985C57.756,136.867,56.805,135.444,56.002,132.922L56.002,132.922z M80.179,130.841
	c-0.182,0-0.51,1.789-0.548,2.484c0,0.073,0.038,0.4,0.038,0.4c0.765,0,7.34-0.146,7.667-0.254c0.183-0.038,0.622-1.827,0.66-2.411
	c0.033-0.036,0-0.403,0-0.438L80.179,130.841L80.179,130.841z M96.87,118.827c0.584,0.071,1.569,0.219,2.043,0.4
	c0.805,0.293,0.951,0.622,1.023,1.57c0.109,1.681,0.109,3.47,0.109,7.377c0,4.198-0.035,7.378-0.109,8.363
	c-0.11,0.949-0.438,1.499-1.205,1.681c-0.659,0.146-1.205,0.256-2.154,0.365c-0.146,0.037-0.146,1.022,0,1.239h1.386
	c3.47,0.038,6.648,0.146,8.838,0.146c3.945,0,7.378-0.693,10.226-3.14c2.189-1.897,3.65-4.782,3.65-8.655
	c0-3.287-1.313-6.392-3.724-8.362c-1.974-1.57-4.418-2.263-7.67-2.263c-2.886,0-4.053,0.108-6.865,0.146
	c-1.061,0-4.711-0.11-5.479-0.11C96.833,117.731,96.76,118.644,96.87,118.827L96.87,118.827z M105.34,136.246
	c-0.108-1.095-0.108-3.981-0.108-7.486c0-3.321,0-7.597,0.037-9.056c0.039-0.146,0.145-0.438,0.292-0.477
	c0.145-0.108,0.657-0.182,1.206-0.182c1.606,0,3.323,0.328,4.637,1.278c2.375,1.681,3.654,5.039,3.654,8.4
	c0,3.724-0.806,5.843-2.085,7.596c-1.203,1.495-2.556,2.08-4.016,2.08c-0.583,0-2.227-0.182-3.066-0.985
	C105.599,137.122,105.376,136.538,105.34,136.246L105.34,136.246z M124.002,118.827c0.694,0.071,1.353,0.146,1.899,0.328
	c0.692,0.219,0.949,0.511,1.022,1.534c0.108,1.315,0.108,4.162,0.108,6.865c0,4.198,0,6.721-0.108,8.802
	c0,1.167-0.365,1.569-1.022,1.751c-0.512,0.146-1.424,0.293-2.701,0.477c-0.075,0.184-0.075,0.947,0,1.239
	c1.971,0,4.636-0.108,6.572-0.108c3.871,0,7.376,0.146,10.445,0.146c1.567,0,1.752-0.255,1.898-0.585
	c0.656-1.239,1.496-4.527,1.68-5.369c-0.146-0.182-1.094-0.509-1.351-0.474c-0.55,1.279-1.243,2.558-1.936,3.361
	c-0.804,0.949-1.317,1.096-2.958,1.096c-2.046,0-3.836-0.11-4.53-0.255c-0.438-0.112-0.764-0.622-0.764-1.206v-6.428
	c0-0.073,0.144-0.33,0.255-0.33c1.092,0,3.907,0,4.563,0.073c0.73,0.11,1.022,0.512,1.239,1.061l0.368,1.497
	c0.182,0.108,1.241,0.07,1.426-0.038c-0.039-1.022-0.078-2.701-0.078-3.687c0-1.169,0.148-2.666,0.187-3.545
	c-0.187-0.146-1.28-0.182-1.463-0.073c-0.109,0.479-0.182,0.952-0.292,1.317c-0.218,0.912-0.548,1.24-1.314,1.277
	c-1.167,0.073-3.689,0.038-4.636,0.038c-0.111,0-0.255-0.146-0.255-0.292c0-2.484-0.039-4.749,0-7.088
	c0-0.182,0.182-0.619,0.363-0.655c0.584-0.073,4.125-0.073,5.077,0.036c0.51,0.035,1.131,0.219,1.494,0.949
	c0.292,0.585,0.479,1.351,0.694,2.701c0.184,0.108,1.169,0.038,1.392-0.108c0.106-2.046,0.254-4.382,0.507-5.516
	c0-0.07-0.071-0.144-0.108-0.144c-1.275,0.182-3.323,0.219-4.747,0.219h-7.342c-1.787,0-4.088-0.11-5.514-0.11
	C123.931,117.695,123.855,118.644,124.002,118.827L124.002,118.827z M145.292,118.862c0.95,0.073,1.607,0.293,2.266,0.55
	c0.91,0.327,1.35,1.423,1.35,2.371c0,5.334-0.147,12.344-0.362,14.245c-0.111,1.169-0.44,1.824-1.244,2.079
	c-0.658,0.222-1.277,0.33-2.118,0.477c-0.109,0.108-0.146,1.058,0,1.239c1.168,0,2.885-0.108,4.786-0.108
	c1.679,0,3.323,0.108,4.636,0.108c0.182-0.217,0.182-1.131,0.036-1.239c-0.91-0.184-1.533-0.255-2.117-0.401
	c-1.023-0.221-1.57-0.768-1.679-2.338c-0.076-1.534-0.146-8.728-0.076-12.709c0-0.037,0.076-0.146,0.185-0.037
	c2.446,3.142,10.59,13.915,12.782,16.871c0.693-0.071,3.031-0.108,3.651-0.035c-0.037-1.313-0.072-3.433-0.072-5.04
	c0-4.676,0.072-10.298,0.327-13.475c0.11-1.57,0.514-1.971,1.569-2.301c0.476-0.146,0.95-0.221,1.425-0.292
	c0.147-0.108,0.147-1.132,0-1.242c-0.691,0-2.227,0.11-4.271,0.11c-2.336,0-3.982-0.11-4.929-0.11c-0.076,0.073-0.147,1.096,0,1.242
	c0.912,0.108,1.461,0.184,2.189,0.365c1.169,0.292,1.534,0.839,1.643,2.081c0.22,2.372,0.185,7.085,0.185,11.613
	c-0.075,0-0.075,0.035-0.146,0.035c-2.409-2.847-7.707-9.678-10.554-13.293c-0.729-0.91-1.097-1.459-1.353-2.009
	c-0.511,0.038-1.607,0.075-2.74,0.075c-2.299,0-4.052-0.146-5.367-0.11C145.22,117.695,145.183,118.719,145.292,118.862
	L145.292,118.862z M189.371,138.584c-1.278-0.184-1.825-0.22-2.447-0.438c-0.768-0.293-0.876-0.985-0.913-1.679
	c-0.109-2.303-0.07-11.434-0.07-16.617c0-0.146,0.07-0.256,0.145-0.292c0.547-0.037,2.849-0.073,3.835,0.036
	c0.691,0.072,1.096,0.292,1.424,1.133c0.328,0.91,0.547,1.934,0.73,3.248c0.108,0.109,1.204,0.073,1.351-0.072
	c0.183-2.374,0.512-4.82,0.875-6.353c0-0.073-0.109-0.292-0.218-0.292c-0.949,0.292-2.155,0.438-4.127,0.438h-12.927
	c-0.878,0-2.193-0.075-3.36-0.476c-0.11-0.035-0.327,0.146-0.327,0.222c-0.111,1.641-0.477,4.709-0.769,6.204
	c0.11,0.257,1.242,0.476,1.389,0.367c0.4-1.207,0.874-2.265,1.314-3.104c0.512-0.987,1.021-1.279,1.79-1.314
	c0.841-0.073,2.847-0.073,3.503,0c0.112,0,0.183,0.219,0.183,0.292c0,5.699,0.039,12.417-0.106,16.105
	c-0.11,1.607-0.401,2.008-1.353,2.228c-0.475,0.146-1.425,0.256-2.336,0.365c-0.183,0.146-0.183,1.058,0,1.239
	c1.203,0,3.104-0.108,6.428-0.108c2.479,0,4.455,0.108,5.914,0.108C189.441,139.68,189.518,138.729,189.371,138.584z"/>
</svg>
