<?xml version="1.0" encoding="utf-8"?>
<!-- Generator: Adobe Illustrator 16.0.0, SVG Export Plug-In . SVG Version: 6.00 Build 0)  -->
<!DOCTYPE svg PUBLIC "-//W3C//DTD SVG 1.1//EN" "http://www.w3.org/Graphics/SVG/1.1/DTD/svg11.dtd">
<svg version="1.1" id="Layer_1" xmlns="http://www.w3.org/2000/svg" xmlns:xlink="http://www.w3.org/1999/xlink" x="0px" y="0px"
	 width="216px" height="188px" viewBox="0 0 216 188" enable-background="new 0 0 216 188" xml:space="preserve">
<g>
	<polygon fill="#CF0A2C" points="119.656,12.068 115.615,24.553 126.222,32.278 113.103,32.292 109.033,44.766 104.965,32.292 
		91.844,32.278 102.447,24.553 98.41,12.068 109.033,19.768 	"/>
	<path fill="#CF0A2C" d="M52.187,90.497c0-17.765,8.152-33.628,20.917-44.051c-8.364,8.854-13.495,20.797-13.495,33.94
		c0,27.294,22.128,49.422,49.426,49.422c27.294,0,49.422-22.128,49.422-49.422c0-13.144-5.128-25.087-13.498-33.94
		c12.767,10.423,20.915,26.286,20.915,44.051c0,31.396-25.451,56.848-56.839,56.848C77.64,147.345,52.187,121.893,52.187,90.497"/>
	<path fill="#5AB7B2" d="M104.511,70.055c0.338-3.849,3.737-6.701,7.586-6.36c3.848,0.335,6.696,3.731,6.357,7.58
		c-0.336,3.852-3.729,6.701-7.578,6.362C107.025,77.298,104.176,73.905,104.511,70.055 M98.323,124.611
		c-0.784,0.942-2.03,2.409-2.03,2.409c54.225-37.042,21.089-92.738,21.089-92.738s0.357,1.084,0.412,1.259
		c0,0,10.116,34.296-1.661,46.396c0,0-1.052,1.256-3.607-0.042c-2.397-1.214-16.585-8.802-24.743,5.125
		c0,0,13.642-9.492,20.377,4.634C108.16,91.654,116.279,104.096,98.323,124.611"/>
	<path fill="#5AB7B2" d="M182.605,157.781h4.823c0.333,0,0.598,0.2,0.598,0.595v1.011c0,0.399-0.27,0.642-0.598,0.596
		c-2.396-0.358-2.453-0.353-4.823,0c-0.324,0.046-0.593-0.196-0.593-0.596v-1.011C182.013,157.981,182.278,157.781,182.605,157.781
		 M84.633,157.781h4.827c0.33,0,0.595,0.2,0.595,0.595v1.011c0,0.399-0.271,0.642-0.595,0.596c-2.394-0.358-2.457-0.353-4.827,0
		c-0.321,0.046-0.593-0.196-0.593-0.596v-1.011C84.04,157.981,84.31,157.781,84.633,157.781 M79.047,171.007
		c-0.562,0.295-1.16,0.47-1.801,0.523c-0.616,0.078-1.157,0.12-1.638,0.12c-0.962,0-1.801-0.254-2.522-0.764
		c-0.722-0.53-1.08-1.396-1.08-2.601c0-1.12,0.318-1.924,0.956-2.405c0.67-0.477,1.509-0.796,2.526-0.959
		c0.314-0.026,0.875-0.132,1.116-0.158c1.174-0.159,1.761-0.506,1.761-1.038c0-0.401-0.22-0.59-0.638-0.763
		c-0.4-0.134-0.775-0.2-1.123-0.2c-0.372,0-0.708,0.056-0.997,0.159c-0.297,0.104-0.509,0.309-0.645,0.604h-2.682
		c0.111-0.829,0.48-1.51,1.122-2.044c0.721-0.618,1.747-0.92,3.081-0.92c1.495,0,2.617,0.254,3.368,0.762
		c0.773,0.532,1.157,1.28,1.157,2.24v3.64c0,1.068-0.2,1.908-0.602,2.526C80.035,170.317,79.583,170.744,79.047,171.007
		 M78.407,166.085c-0.375,0.188-0.893,0.359-1.563,0.517l-0.919,0.204c-0.481,0.136-0.827,0.307-1.04,0.518
		c-0.189,0.297-0.28,0.588-0.28,0.883c0,0.401,0.118,0.722,0.358,0.963c0.24,0.212,0.587,0.321,1.042,0.321
		c0.748,0,1.335-0.216,1.762-0.643c0.429-0.426,0.641-1.014,0.641-1.764V166.085z M84.71,166.205c0,1.838,0.533,2.869,1.6,3.083
		c1.068,0.184,1.855-0.071,2.365-0.761c0.241-0.293,0.412-0.747,0.521-1.361c0.105-0.64,0.105-1.271,0-1.883
		c-0.083-0.614-0.298-1.159-0.645-1.64c-0.345-0.48-0.853-0.722-1.52-0.722c-0.908,0-1.518,0.33-1.841,1
		C84.874,164.592,84.71,165.352,84.71,166.205 M89.274,170.811v-0.683c-0.481,0.747-1.131,1.213-1.961,1.402
		c-0.801,0.186-1.601,0.12-2.399-0.2c-0.804-0.323-1.495-0.911-2.082-1.761c-0.564-0.883-0.845-2.03-0.845-3.447
		c0-1.649,0.375-2.988,1.125-4.001c0.771-1.039,2.002-1.56,3.68-1.56c1.28,0,2.471,0.347,3.562,1.038
		c1.097,0.693,1.641,1.978,1.641,3.847v5.645c0,1.865-0.544,3.134-1.641,3.802c-1.091,0.692-2.282,1.039-3.562,1.039
		c-2.457,0-3.977-1.145-4.564-3.44h2.926c0.212,0.372,0.53,0.65,0.959,0.84c0.456,0.213,0.891,0.268,1.32,0.161
		c0.456-0.083,0.854-0.337,1.2-0.762C89.005,172.304,89.22,171.662,89.274,170.811 M59.449,167.166h2.803
		c0.106,0.799,0.412,1.361,0.922,1.682c0.53,0.369,1.266,0.561,2.196,0.561c0.83,0,1.454-0.148,1.887-0.439
		c0.423-0.295,0.635-0.722,0.635-1.283c0-0.857-1.199-1.547-3.602-2.079l-0.401-0.121c-1.361-0.295-2.265-0.601-2.718-0.924
		c-0.538-0.289-0.911-0.716-1.125-1.277c-0.266-0.48-0.401-1.097-0.401-1.84c0-1.31,0.458-2.338,1.363-3.089
		c0.908-0.716,2.228-1.075,3.966-1.075c1.626,0,2.88,0.369,3.76,1.118c0.909,0.829,1.391,1.91,1.439,3.246h-1.597
		c-0.612,0-1.057-0.284-1.32-0.843c-0.135-0.267-0.324-0.493-0.564-0.682c-0.481-0.346-1.131-0.518-1.959-0.518
		c-0.804,0-1.376,0.145-1.723,0.434c-0.398,0.299-0.601,0.709-0.601,1.246c0,0.718,0.776,1.25,2.324,1.601
		c0.453,0.132,0.788,0.212,0.998,0.239c0.48,0.162,0.898,0.294,1.245,0.403c0.369,0.079,0.665,0.145,0.879,0.2l1.123,0.479
		c0.533,0.32,0.945,0.732,1.237,1.242c0.294,0.555,0.441,1.174,0.441,1.842c0,1.439-0.481,2.558-1.438,3.357
		c-0.965,0.751-2.321,1.124-4.086,1.124c-1.812,0-3.172-0.39-4.08-1.161C60.064,169.833,59.529,168.687,59.449,167.166
		 M120.143,168.969h3.364c0.75,0,1.319-0.146,1.724-0.441c0.372-0.269,0.559-0.72,0.559-1.361c0-0.64-0.187-1.107-0.559-1.402
		c-0.347-0.267-0.934-0.396-1.764-0.396h-3.324V168.969z M120.143,163.004h3.246c0.69,0,1.197-0.121,1.519-0.361
		c0.323-0.239,0.48-0.612,0.48-1.119c0-0.508-0.157-0.887-0.48-1.126c-0.264-0.209-0.785-0.318-1.561-0.318h-3.204V163.004z
		 M117.422,171.45v-12.33c0-0.402,0.135-0.732,0.398-1.004c0.295-0.291,0.641-0.436,1.045-0.438h5.045
		c1.409,0,2.495,0.293,3.242,0.881c0.744,0.639,1.116,1.508,1.116,2.603c0,0.693-0.146,1.279-0.438,1.76
		c-0.294,0.451-0.71,0.813-1.241,1.08c0.691,0.297,1.23,0.708,1.6,1.244c0.347,0.507,0.524,1.174,0.524,2.001
		c0,1.334-0.43,2.373-1.283,3.12c-0.879,0.724-2.122,1.083-3.723,1.083H117.422z M93.415,157.679h1.441
		c0.375,0,0.696,0.134,0.961,0.4c0.27,0.239,0.404,0.548,0.404,0.92v12.451h-2.807V157.679z M137.101,171.007
		c-0.563,0.295-1.161,0.47-1.802,0.523c-0.613,0.078-1.16,0.12-1.641,0.12c-0.963,0-1.802-0.254-2.522-0.764
		c-0.719-0.53-1.081-1.396-1.081-2.601c0-1.12,0.325-1.924,0.96-2.405c0.671-0.477,1.512-0.796,2.526-0.959
		c0.134,0,0.881-0.132,1.119-0.158c1.173-0.159,1.761-0.506,1.761-1.038c0-0.401-0.212-0.657-0.642-0.763
		c-0.397-0.134-0.773-0.2-1.119-0.2c-0.375,0-0.707,0.056-1.002,0.159c-0.293,0.104-0.507,0.309-0.643,0.604h-2.679
		c0.104-0.829,0.48-1.51,1.119-2.044c0.721-0.618,1.749-0.92,3.084-0.92c1.495,0,2.614,0.254,3.361,0.762
		c0.772,0.532,1.159,1.28,1.159,2.24v3.64c0,1.068-0.2,1.908-0.598,2.526C138.087,170.317,137.636,170.744,137.101,171.007
		 M136.46,166.085c-0.374,0.188-0.896,0.359-1.56,0.517l-0.922,0.204c-0.482,0.136-0.827,0.307-1.043,0.518
		c-0.183,0.297-0.28,0.588-0.28,0.883c0,0.401,0.121,0.722,0.36,0.963c0.24,0.212,0.588,0.321,1.046,0.321
		c0.744,0,1.331-0.216,1.761-0.643c0.424-0.426,0.638-1.014,0.638-1.764V166.085z M97.962,160.802h1.445
		c0.369,0,0.69,0.134,0.957,0.401c0.27,0.263,0.405,0.586,0.405,0.959v9.288h-2.807V160.802z M157.79,171.007
		c-0.562,0.295-1.159,0.47-1.8,0.523c-0.617,0.078-1.16,0.12-1.642,0.12c-0.959,0-1.804-0.254-2.52-0.764
		c-0.722-0.53-1.085-1.396-1.085-2.601c0-1.12,0.322-1.924,0.962-2.405c0.663-0.477,1.509-0.796,2.521-0.959
		c0.179-0.022,0.881-0.132,1.121-0.158c1.173-0.159,1.761-0.506,1.761-1.038c0-0.401-0.215-0.657-0.639-0.763
		c-0.403-0.134-0.776-0.2-1.122-0.2c-0.376,0-0.708,0.056-1,0.159c-0.295,0.104-0.507,0.309-0.642,0.604h-2.684
		c0.11-0.829,0.479-1.51,1.123-2.044c0.722-0.618,1.747-0.92,3.081-0.92c1.494,0,2.614,0.254,3.362,0.762
		c0.775,0.532,1.16,1.28,1.16,2.24v3.64c0,1.068-0.198,1.908-0.6,2.526C158.777,170.317,158.323,170.744,157.79,171.007
		 M157.152,166.085c-0.378,0.188-0.894,0.359-1.563,0.517l-0.919,0.204c-0.481,0.136-0.828,0.307-1.04,0.518
		c-0.192,0.297-0.281,0.588-0.281,0.883c0,0.401,0.118,0.722,0.358,0.963c0.241,0.212,0.587,0.321,1.039,0.321
		c0.751,0,1.338-0.216,1.765-0.643c0.424-0.426,0.642-1.014,0.642-1.764V166.085z M105.121,160.802v3.923l3.404-3.923h3.364
		l-3.806,4.083l3.846,6.565h-3.365l-1.957-3.604c-0.404-0.72-0.75-1.025-1.043-0.92c-0.294,0.105-0.443,0.264-0.443,0.48v1.479
		v2.563h-2.798v-13.771h1.44c0.373,0,0.689,0.134,0.962,0.4c0.263,0.27,0.395,0.575,0.395,0.92V160.802z M143.288,160.802v3.923
		l3.407-3.923h3.361l-3.805,4.083l3.842,6.565h-3.361l-1.962-3.604c-0.4-0.72-0.744-1.025-1.039-0.92
		c-0.292,0.105-0.443,0.264-0.443,0.48v1.479v2.563h-2.801v-13.771h1.442c0.375,0,0.693,0.134,0.963,0.4
		c0.264,0.27,0.396,0.575,0.396,0.92V160.802z M170.67,171.45h-1.399c-0.402,0-0.736-0.12-1.006-0.359
		c-0.24-0.268-0.357-0.604-0.357-1.004v-5.441c0-0.644-0.201-1.109-0.599-1.402c-0.376-0.295-0.804-0.439-1.286-0.439
		c-0.475,0-0.907,0.145-1.28,0.439c-0.369,0.293-0.561,0.759-0.561,1.402v6.805h-2.798v-6.245c0-1.817,0.467-3.032,1.401-3.643
		c0.962-0.615,2.012-0.947,3.157-1.001c1.177,0,2.261,0.302,3.244,0.92c0.99,0.613,1.483,1.854,1.483,3.724V171.45z
		 M182.823,166.205c0,1.838,0.533,2.869,1.6,3.083c1.068,0.184,1.85-0.071,2.359-0.761c0.24-0.293,0.413-0.747,0.519-1.361
		c0.111-0.64,0.111-1.271,0-1.883c-0.077-0.614-0.289-1.159-0.636-1.64c-0.353-0.48-0.855-0.722-1.521-0.722
		c-0.907,0-1.526,0.33-1.842,1C182.983,164.592,182.823,165.352,182.823,166.205 M187.381,170.811v-0.683
		c-0.475,0.747-1.133,1.213-1.961,1.402c-0.796,0.186-1.599,0.12-2.402-0.2c-0.799-0.323-1.492-0.911-2.079-1.761
		c-0.562-0.883-0.84-2.03-0.84-3.447c0-1.649,0.37-2.988,1.117-4.001c0.778-1.039,2.005-1.56,3.688-1.56
		c1.28,0,2.466,0.347,3.563,1.038c1.094,0.693,1.638,1.978,1.638,3.847v5.645c0,1.865-0.544,3.134-1.638,3.802
		c-1.097,0.692-2.282,1.039-3.563,1.039c-2.456,0-3.978-1.145-4.564-3.44h2.921c0.215,0.372,0.536,0.65,0.959,0.84
		c0.453,0.213,0.896,0.268,1.32,0.161c0.455-0.083,0.855-0.337,1.203-0.762C187.118,172.304,187.33,171.662,187.381,170.811
		 M172.048,157.679h1.439c0.376,0,0.694,0.134,0.962,0.4c0.271,0.239,0.404,0.548,0.404,0.92v12.451h-2.806V157.679z
		 M176.393,160.802h1.441c0.372,0,0.694,0.134,0.957,0.401c0.27,0.263,0.4,0.586,0.4,0.959v9.288h-2.799V160.802z M191.647,160.802
		h1.438c0.376,0,0.693,0.134,0.963,0.401c0.269,0.263,0.403,0.586,0.403,0.959v9.288h-2.804V160.802z"/>
	<path fill="#5AB7B2" d="M27.684,171.471v-11.292h-4.07v-0.996c0-0.398,0.14-0.738,0.419-1.016c0.278-0.28,0.618-0.422,1.016-0.422
		h9.496v2.434h-4.03v11.292H27.684z"/>
	<path fill="#5AB7B2" d="M35.9,169.274h1.356v2.196h-2.194v-1.355C35.063,169.555,35.343,169.274,35.9,169.274"/>
	<path fill="#5AB7B2" d="M49.585,166.723c-0.133,1.597-0.731,2.847-1.795,3.75c-1.091,0.878-2.527,1.317-4.309,1.317
		c-2.074,0-3.656-0.623-4.747-1.874c-1.091-1.197-1.636-2.967-1.636-5.308c0-2.395,0.558-4.188,1.675-5.385
		c1.144-1.252,2.793-1.877,4.948-1.877c1.754,0,3.152,0.438,4.189,1.317c0.982,0.853,1.542,2.049,1.675,3.589h-1.716
		c-0.637,0-1.09-0.278-1.355-0.835c-0.185-0.347-0.413-0.651-0.678-0.92c-0.533-0.396-1.237-0.599-2.114-0.599
		c-1.225,0-2.168,0.4-2.833,1.199c-0.64,0.798-0.958,1.968-0.958,3.51c0,1.491,0.318,2.634,0.958,3.431
		c0.611,0.826,1.528,1.235,2.752,1.235c0.851,0,1.555-0.211,2.115-0.636c0.505-0.4,0.864-1.037,1.077-1.916H49.585z"/>
	<path fill="#5AB7B2" d="M51.021,169.274h1.356v2.196h-2.194v-1.355C50.184,169.555,50.464,169.274,51.021,169.274"/>
</g>
</svg>
