<?xml version="1.0" encoding="utf-8"?>
<!-- Generator: Adobe Illustrator 16.0.0, SVG Export Plug-In . SVG Version: 6.00 Build 0)  -->
<!DOCTYPE svg PUBLIC "-//W3C//DTD SVG 1.1//EN" "http://www.w3.org/Graphics/SVG/1.1/DTD/svg11.dtd">
<svg version="1.1" id="Layer_1" xmlns="http://www.w3.org/2000/svg" xmlns:xlink="http://www.w3.org/1999/xlink" x="0px" y="0px"
	 width="216px" height="188px" viewBox="0 0 216 188" enable-background="new 0 0 216 188" xml:space="preserve">
<polygon fill="#213763" points="70.704,96.828 45.363,71.487 70.704,71.487 "/>
<polygon fill="#213763" points="70.704,96.828 45.363,122.169 70.704,122.169 "/>
<path fill="#213763" d="M45.364,97.035V79.804c5.872,3.398,9.82,9.747,9.82,17.024c0,7.261-3.948,13.615-9.82,17.014V97.035"/>
<path fill="#213763" d="M45.364,122.167H20.023v-50.68h25.341v8.316c-5.873,3.398-9.822,9.747-9.822,17.024
	c0,7.264,3.949,13.616,9.822,17.014V122.167z"/>
<polygon fill="#213763" points="86.27,87.375 86.27,95.223 94.396,95.223 94.396,98.447 86.27,98.447 86.27,106.292 96.384,106.292 
	96.384,109.516 79.057,109.516 79.057,84.156 96.384,84.156 96.384,87.375 "/>
<polygon fill="#213763" points="107.135,106.292 116.389,106.292 116.389,109.517 99.925,109.517 99.925,84.157 107.123,84.157 "/>
<path fill="#213763" d="M118.654,109.503V84.155h7.641c6.998,0,12.67,5.674,12.67,12.673s-5.672,12.675-12.67,12.675H118.654z
	 M125.857,96.959v10.095c3.521-2.039,5.899-5.853,5.899-10.218c0-4.368-2.378-8.18-5.899-10.219V86.61V96.959"/>
<path fill="#213763" d="M167.502,96.826c0,7.214-5.849,13.059-13.056,13.059c-7.213,0-13.061-5.845-13.061-13.059
	c0-7.208,5.848-13.056,13.061-13.056C161.653,83.771,167.502,89.619,167.502,96.826 M154.503,86.696
	c-3.275,0-5.935,4.544-5.935,10.139c0,5.626,2.659,10.174,5.935,10.174c3.276,0,5.934-4.548,5.934-10.174
	C160.437,91.24,157.779,86.696,154.503,86.696"/>
<path fill="#213763" d="M170.644,84.162h11.367c1.837,0.01,8.801,0.389,8.913,6.922c0.073,4.092-1.904,6.101-4.648,7.292
	l6.146,11.143h-8l-5.066-9.543l-1.466,0.056l-0.023,9.487l-7.222-0.015V84.162z M177.865,96.828h0.534
	c0.76,0,1.475-0.104,2.124-0.33c0.653-0.219,1.223-0.528,1.698-0.936c0.474-0.41,0.853-0.91,1.134-1.502
	c0.273-0.588,0.413-1.249,0.413-1.994c0-0.68-0.101-1.306-0.312-1.882c-0.216-0.568-0.502-1.063-0.875-1.484
	c-0.37-0.422-0.813-0.743-1.32-0.975c-0.513-0.234-1.069-0.351-1.683-0.351h-1.714V96.828z"/>
<path fill="#213763" d="M192.978,87.879c0-0.653,0.166-1.27,0.488-1.841c0.335-0.571,0.781-1.026,1.354-1.355
	c0.573-0.332,1.19-0.499,1.85-0.499c0.657,0,1.273,0.167,1.85,0.496c0.569,0.324,1.021,0.775,1.354,1.348
	c0.33,0.575,0.494,1.193,0.494,1.851c0,0.646-0.156,1.255-0.476,1.818c-0.314,0.568-0.765,1.021-1.336,1.361
	c-0.575,0.34-1.201,0.51-1.886,0.51c-0.677,0-1.297-0.17-1.873-0.503c-0.572-0.343-1.022-0.796-1.339-1.363
	C193.138,89.137,192.978,88.531,192.978,87.879 M193.584,87.879c0,0.558,0.135,1.075,0.413,1.552
	c0.275,0.474,0.652,0.852,1.133,1.125c0.475,0.277,0.991,0.416,1.539,0.416c0.561,0,1.078-0.145,1.557-0.422
	c0.476-0.281,0.853-0.656,1.125-1.13c0.275-0.472,0.412-0.985,0.412-1.541c0-0.549-0.142-1.067-0.415-1.542
	c-0.277-0.48-0.656-0.857-1.133-1.135c-0.482-0.274-0.997-0.412-1.546-0.412c-0.548,0-1.059,0.138-1.532,0.409
	c-0.473,0.271-0.849,0.645-1.13,1.122C193.722,86.804,193.584,87.321,193.584,87.879 M198.172,87.006
	c0,0.562-0.251,0.941-0.752,1.144l1.166,1.952h-1.04l-0.941-1.702h-0.443v1.702h-0.928v-4.435h1.289c0.566,0,0.983,0.107,1.25,0.332
	C198.035,86.223,198.172,86.556,198.172,87.006 M196.161,87.688h0.34c0.242,0,0.425-0.054,0.547-0.169
	c0.13-0.115,0.194-0.277,0.194-0.493c0-0.234-0.064-0.4-0.185-0.491c-0.119-0.093-0.307-0.142-0.568-0.142h-0.328V87.688z"/>
<polygon fill="#213763" points="82.583,122.144 81.313,122.144 81.313,115.474 79.031,115.474 79.031,114.383 84.862,114.383 
	84.862,115.474 82.583,115.474 "/>
<path fill="#213763" d="M106.481,114.386v5.018c0,0.574-0.12,1.074-0.368,1.508c-0.247,0.428-0.6,0.76-1.065,0.988
	c-0.466,0.234-1.023,0.352-1.669,0.352c-0.963,0-1.713-0.254-2.247-0.764c-0.533-0.512-0.799-1.213-0.799-2.104v-4.998h1.271v4.908
	c0,0.639,0.15,1.111,0.446,1.418c0.299,0.305,0.754,0.455,1.372,0.455c1.193,0,1.789-0.629,1.789-1.885v-4.896H106.481z"/>
<path fill="#213763" d="M123.22,119.046v3.098h-1.269v-7.758h2.191c1.002,0,1.74,0.188,2.223,0.562
	c0.482,0.376,0.722,0.941,0.722,1.697c0,0.966-0.501,1.653-1.508,2.065l2.195,3.434h-1.445l-1.86-3.098H123.22z M123.22,117.993
	h0.878c0.592,0,1.021-0.109,1.285-0.328c0.268-0.221,0.4-0.547,0.4-0.978c0-0.438-0.146-0.755-0.432-0.944
	c-0.287-0.189-0.72-0.287-1.297-0.287h-0.835V117.993z"/>
<path fill="#213763" d="M149.164,122.144h-1.47l-2.437-3.514l-0.746,0.609v2.904h-1.27v-7.761h1.27v3.706
	c0.345-0.424,0.689-0.832,1.033-1.225l2.095-2.481h1.447c-1.358,1.595-2.327,2.729-2.916,3.404L149.164,122.144z"/>
<polygon fill="#213763" points="169.022,122.144 164.635,122.144 164.635,114.383 169.022,114.383 169.022,115.458 165.903,115.458 
	165.903,117.57 168.827,117.57 168.827,118.63 165.903,118.63 165.903,121.067 169.022,121.067 "/>
<polygon fill="#213763" points="187.706,117.925 189.544,114.386 190.923,114.386 188.337,119.134 188.337,122.144 187.064,122.144 
	187.064,119.177 184.491,114.386 185.869,114.386 "/>
</svg>
