<?xml version="1.0" encoding="utf-8"?>
<!-- Generator: Adobe Illustrator 16.0.0, SVG Export Plug-In . SVG Version: 6.00 Build 0)  -->
<!DOCTYPE svg PUBLIC "-//W3C//DTD SVG 1.1//EN" "http://www.w3.org/Graphics/SVG/1.1/DTD/svg11.dtd">
<svg version="1.1" id="Layer_1" xmlns="http://www.w3.org/2000/svg" xmlns:xlink="http://www.w3.org/1999/xlink" x="0px" y="0px"
	 width="216px" height="188px" viewBox="0 0 216 188" enable-background="new 0 0 216 188" xml:space="preserve">
<g>
	<polygon fill="#131718" stroke="#C19768" stroke-width="0.25" stroke-miterlimit="10" points="141.988,113.814 157.035,113.814 
		157.035,118.21 135.484,118.21 135.484,114.56 149.727,91.806 135.797,91.806 135.797,87.321 156.383,87.321 156.383,90.92 	"/>
	<path fill="#131718" stroke="#C19768" stroke-width="0.25" stroke-miterlimit="10" d="M173.051,118.812
		c-3.846,0-6.855-1.408-9.037-4.228c-2.18-2.813-3.268-6.479-3.268-10.99v-1.341c0-4.528,1.084-8.244,3.256-11.148
		c2.166-2.9,5.006-4.351,8.506-4.351c3.523,0,6.201,1.243,8.033,3.738c1.84,2.493,2.756,5.844,2.756,10.047v3.255h-16.758
		c0,3.161,0.572,5.722,1.701,7.68c1.133,1.963,2.869,2.942,5.209,2.942c1.619,0,3.029-0.255,4.225-0.759
		c1.201-0.503,2.305-1.24,3.309-2.211l1.891,3.597c-1.031,1.066-2.389,1.96-4.066,2.684
		C177.115,118.447,175.201,118.812,173.051,118.812 M172.508,91.206c-1.676,0-3.01,0.779-3.998,2.329
		c-0.99,1.55-1.607,3.601-1.852,6.147h10.934v-0.653c0-2.323-0.418-4.205-1.244-5.652C175.518,91.929,174.234,91.206,172.508,91.206
		"/>
	<path fill="#131718" stroke="#C19768" stroke-width="0.25" stroke-miterlimit="10" d="M201.766,92.149l-2.508-0.146
		c-1.217,0-2.232,0.368-3.041,1.102c-0.201,0.18-0.391,0.387-0.572,0.603c-0.852,1.051-1.297,2.363-1.297,3.711v20.792h-5.828
		V87.321h5.34l0.402,4.566c0.684-1.617,1.561-2.876,2.623-3.776c1.064-0.908,2.297-1.362,3.686-1.362
		c0.359,0,0.699,0.036,1.014,0.099c0.316,0.07,0.594,0.152,0.842,0.247L201.766,92.149z"/>
	<path fill="#131718" stroke="#C19768" stroke-width="0.25" stroke-miterlimit="10" d="M25.508,113.099
		c1.428,0,2.622-0.555,3.585-1.656c0.958-1.105,1.436-2.599,1.436-4.481h5.227l0.06,0.17c0.077,2.911-0.903,5.368-2.945,7.365
		c-2.033,2-4.491,3-7.362,3c-3.807,0-6.748-1.452-8.821-4.354c-2.076-2.905-3.113-6.609-3.113-11.118v-1.086
		c0-4.491,1.037-8.199,3.113-11.121c2.073-2.918,5.014-4.379,8.821-4.379c3.083,0,5.589,1.042,7.519,3.126
		c1.935,2.082,2.874,4.791,2.817,8.117l-0.059,0.148h-5.256c0-2.057-0.458-3.728-1.38-5.013c-0.925-1.285-2.142-1.927-3.641-1.927
		c-2.166,0-3.736,1.046-4.697,3.141c-0.96,2.096-1.438,4.731-1.438,7.907v1.086c0,3.234,0.475,5.888,1.426,7.963
		C21.75,112.059,23.319,113.099,25.508,113.099"/>
	
		<rect x="41.607" y="72.362" fill="#131718" stroke="#C19768" stroke-width="0.25" stroke-miterlimit="10" width="5.822" height="44.53"/>
	<path fill="#131718" stroke="#C19768" stroke-width="0.25" stroke-miterlimit="10" d="M60.706,77.9h-5.823v-5.539h5.823V77.9z
		 M60.706,116.892h-5.823V86.005h5.823V116.892z"/>
	<path fill="#131718" stroke="#C19768" stroke-width="0.25" stroke-miterlimit="10" d="M73.038,86.005l0.344,4.598
		c0.876-1.636,1.979-2.905,3.313-3.813c1.331-0.899,2.841-1.355,4.537-1.355c2.742,0,4.877,1.008,6.407,3.025
		c1.534,2.021,2.3,5.164,2.3,9.423v19.01h-5.793v-18.98c0-2.912-0.405-4.967-1.212-6.166c-0.812-1.198-2.033-1.798-3.67-1.798
		c-1.331,0-2.473,0.346-3.425,1.042c-0.953,0.693-1.713,1.649-2.282,2.87v23.033H67.73V86.005H73.038z"/>
	<path fill="#131718" stroke="#C19768" stroke-width="0.25" stroke-miterlimit="10" d="M102.756,77.9h-5.824v-5.539h5.824V77.9z
		 M102.756,116.892h-5.824V86.005h5.824V116.892z"/>
	<path fill="#131718" stroke="#C19768" stroke-width="0.25" stroke-miterlimit="10" d="M120.573,113.099
		c1.425,0,2.616-0.555,3.581-1.656c0.959-1.105,1.439-2.599,1.439-4.481h5.225l0.057,0.17c0.076,2.911-0.902,5.368-2.939,7.365
		c-2.035,2-4.491,3-7.362,3c-3.808,0-6.747-1.452-8.823-4.354c-2.073-2.905-3.113-6.609-3.113-11.118v-1.086
		c0-4.491,1.04-8.199,3.113-11.121c2.076-2.918,5.016-4.379,8.823-4.379c3.083,0,5.586,1.042,7.521,3.126
		c1.928,2.082,2.869,4.791,2.811,8.117l-0.057,0.148h-5.254c0-2.057-0.46-3.728-1.387-5.013c-0.92-1.285-2.135-1.927-3.634-1.927
		c-2.171,0-3.738,1.046-4.697,3.141c-0.96,2.096-1.444,4.731-1.444,7.907v1.086c0,3.234,0.48,5.888,1.428,7.963
		C116.812,112.059,118.383,113.099,120.573,113.099"/>
</g>
<g>
	<path d="M161.377,123.637c0.855-0.143,1.973-0.266,3.396-0.266c1.75,0,3.029,0.407,3.846,1.14c0.752,0.649,1.199,1.646,1.199,2.868
		c0,1.24-0.367,2.216-1.059,2.929c-0.934,0.996-2.461,1.505-4.189,1.505c-0.529,0-1.018-0.021-1.424-0.123v5.491h-1.77V123.637z
		 M163.146,130.247c0.389,0.101,0.873,0.142,1.465,0.142c2.137,0,3.438-1.038,3.438-2.928c0-1.812-1.281-2.686-3.234-2.686
		c-0.773,0-1.361,0.061-1.668,0.143V130.247z"/>
	<path d="M172.203,123.473h1.77v12.224h5.857v1.484h-7.627V123.473z"/>
	<path d="M182.844,123.473v8.115c0,3.069,1.363,4.373,3.193,4.373c2.033,0,3.336-1.343,3.336-4.373v-8.115h1.789v7.992
		c0,4.211-2.217,5.94-5.188,5.94c-2.805,0-4.92-1.607-4.92-5.858v-8.074H182.844z"/>
	<path d="M193.996,135.023c0.793,0.49,1.953,0.897,3.174,0.897c1.809,0,2.867-0.956,2.867-2.339c0-1.281-0.732-2.015-2.584-2.726
		c-2.236-0.792-3.619-1.954-3.619-3.885c0-2.136,1.768-3.722,4.434-3.722c1.402,0,2.42,0.325,3.031,0.671l-0.49,1.445
		c-0.445-0.245-1.363-0.652-2.602-0.652c-1.873,0-2.586,1.119-2.586,2.054c0,1.281,0.836,1.911,2.729,2.645
		c2.318,0.896,3.498,2.013,3.498,4.026c0,2.116-1.568,3.945-4.801,3.945c-1.322,0-2.768-0.386-3.498-0.874L193.996,135.023z"/>
</g>
</svg>
