<?xml version="1.0" encoding="utf-8"?>
<!-- Generator: Adobe Illustrator 16.0.0, SVG Export Plug-In . SVG Version: 6.00 Build 0)  -->
<!DOCTYPE svg PUBLIC "-//W3C//DTD SVG 1.1//EN" "http://www.w3.org/Graphics/SVG/1.1/DTD/svg11.dtd">
<svg version="1.1" id="Layer_1" xmlns="http://www.w3.org/2000/svg" xmlns:xlink="http://www.w3.org/1999/xlink" x="0px" y="0px"
	 width="216px" height="188px" viewBox="0 0 216 188" enable-background="new 0 0 216 188" xml:space="preserve">
<g>
	<g>
		<rect x="66.668" y="42.812" fill-rule="evenodd" clip-rule="evenodd" fill="#ED1C24" width="85.905" height="79.088"/>
		<path fill="#FFFFFF" d="M68.821,43.984h81.599h0.767v0.766v75.21v0.766h-0.767H68.821h-0.765v-0.766V44.75v-0.766H68.821
			L68.821,43.984z M149.653,45.517H69.586v73.677h80.067V45.517z"/>
		<g>
			<path fill-rule="evenodd" clip-rule="evenodd" fill="#FFFFFF" d="M82.221,54.69h54.8c2.165,0,3.938,1.772,3.938,3.938v47.457
				c0,2.166-1.772,3.938-3.938,3.938h-54.8c-2.167,0-3.938-1.771-3.938-3.938V58.627C78.283,56.462,80.054,54.69,82.221,54.69z"/>
			<path fill-rule="evenodd" clip-rule="evenodd" fill="#ED1C24" d="M133.826,79.487l-25.685-0.031l-0.026,7.583l14.974,0.025
				c0.193,4.479-1.279,4.977-5.446,4.974c-3.574-0.005-7.147,0.001-10.722,0.001c-11.786,0-11.471,0.867-11.471-9.729
				c0-9.843-0.188-10.42,10.722-10.42c2.356,0,13.404-0.441,15.113,0.542c2.185,1.255,0.925,3.154,2.091,3.4l10.453,0.009
				c0.206-6.55,0.308-10.916-8.85-12.847c-5.478-1.156-15.003-0.595-21.05-0.598c-6.682,0-14.059,0.305-17.423,4.236
				c-3.615,4.223-2.528,12.901-2.528,19.419c0,7.842-0.029,12.621,6.843,14.845c3.749,1.213,16.432,0.66,21.337,0.66
				c6.483,0,14.506,0.662,18.685-3.053c2.357-2.095,3.032-3.763,3.005-7.965C133.824,86.884,133.949,83.125,133.826,79.487z"/>
			<path fill="#ED1C24" d="M135.289,57.095c0.602,0,1.19,0.155,1.768,0.467c0.574,0.309,1.022,0.753,1.344,1.328
				c0.321,0.577,0.481,1.18,0.481,1.804c0,0.62-0.16,1.217-0.476,1.789s-0.758,1.017-1.328,1.332
				c-0.572,0.317-1.169,0.475-1.789,0.475c-0.624,0-1.221-0.157-1.792-0.475c-0.571-0.315-1.017-0.76-1.332-1.332
				c-0.317-0.571-0.478-1.168-0.478-1.789c0-0.625,0.161-1.227,0.484-1.804c0.323-0.575,0.772-1.02,1.347-1.328
				C134.094,57.25,134.683,57.095,135.289,57.095L135.289,57.095z M135.289,57.691c-0.507,0-1,0.131-1.479,0.389
				c-0.479,0.258-0.853,0.629-1.123,1.111c-0.27,0.482-0.403,0.981-0.403,1.502c0,0.518,0.133,1.016,0.397,1.491
				c0.266,0.476,0.638,0.846,1.112,1.11c0.479,0.265,0.976,0.399,1.495,0.399c0.516,0,1.014-0.134,1.491-0.399
				c0.477-0.264,0.847-0.634,1.111-1.11c0.262-0.475,0.394-0.973,0.394-1.491c0-0.521-0.134-1.021-0.403-1.502
				c-0.267-0.482-0.642-0.853-1.121-1.111C136.28,57.822,135.788,57.691,135.289,57.691L135.289,57.691z M133.708,62.678h0.624
				V61.04h0.369c0.219-0.002,0.386,0.042,0.499,0.128c0.166,0.121,0.386,0.422,0.654,0.902l0.347,0.608h0.758l-0.474-0.756
				c-0.225-0.361-0.416-0.615-0.572-0.767c-0.08-0.079-0.19-0.148-0.327-0.205c0.335-0.026,0.603-0.143,0.805-0.354
				c0.204-0.208,0.304-0.456,0.304-0.736c0-0.2-0.061-0.389-0.18-0.565c-0.122-0.179-0.283-0.303-0.488-0.374
				c-0.203-0.073-0.531-0.108-0.987-0.108h-1.331V62.678L133.708,62.678z M134.332,60.501h0.759c0.363,0,0.609-0.054,0.742-0.16
				c0.132-0.108,0.197-0.251,0.197-0.427c0-0.114-0.031-0.217-0.095-0.307s-0.151-0.157-0.264-0.2
				c-0.115-0.045-0.322-0.068-0.629-0.068h-0.711V60.501z"/>
		</g>
	</g>
	<text transform="matrix(1 0 0 1 9.1274 145.1875)" fill="#ED1C24" font-family="'Arial-Black'" font-size="19.8155">GÖKSEL TANTUNİ</text>
</g>
</svg>
