<?xml version="1.0" encoding="utf-8"?>
<!-- Generator: Adobe Illustrator 16.0.0, SVG Export Plug-In . SVG Version: 6.00 Build 0)  -->
<!DOCTYPE svg PUBLIC "-//W3C//DTD SVG 1.1//EN" "http://www.w3.org/Graphics/SVG/1.1/DTD/svg11.dtd">
<svg version="1.1" id="Layer_1" xmlns="http://www.w3.org/2000/svg" xmlns:xlink="http://www.w3.org/1999/xlink" x="0px" y="0px"
	 width="216px" height="188px" viewBox="0 0 216 188" enable-background="new 0 0 216 188" xml:space="preserve">
<g>
	<path fill="#FFFFFF" d="M186.402,94.981c0,43.654-34.754,79.044-77.622,79.044c-42.867,0-77.615-35.39-77.615-79.044
		c0-43.655,34.748-79.046,77.615-79.046C151.648,15.935,186.402,51.326,186.402,94.981"/>
	
		<ellipse fill="none" stroke="#ED1C24" stroke-width="2.514" stroke-miterlimit="22.9256" cx="108.784" cy="94.981" rx="77.618" ry="79.044"/>
	<path fill="#ED1C24" d="M177.625,61.099l-23.61,20.399c-0.015-0.039-0.021-0.077-0.036-0.115l-52.338,46.193L61.211,84.731
		c-6.405,24.987,7.291,51.067,31.71,59.26c25.407,8.523,52.788-5.54,61.158-31.415c2.511-7.747,3.019-15.677,1.83-23.212
		L177.625,61.099z"/>
	<path fill="#00A651" d="M49.057,71.845l15.39,3.924c9.936-21.852,34.918-33.488,58.789-25.481
		c11.704,3.928,20.934,11.965,26.681,22.016l-49.033,29.548L49.057,71.845z"/>
	<path fill="#FFFFFF" d="M114.08,77.153c-2.152,6.644-9.182,10.255-15.706,8.066c-6.52-2.19-10.066-9.349-7.917-15.991
		c2.15-6.643,9.178-10.254,15.701-8.064C112.686,63.351,116.226,70.51,114.08,77.153"/>
	<path fill="#FFFFFF" d="M120.679,128.71h-6.286v-1.362c0.479-0.357,0.961-0.738,1.441-1.141c0.481-0.401,0.867-0.75,1.16-1.042
		c0.434-0.431,0.742-0.809,0.927-1.131c0.179-0.32,0.271-0.639,0.271-0.952c0-0.376-0.117-0.669-0.352-0.872
		c-0.233-0.205-0.571-0.307-1.016-0.307c-0.33,0-0.677,0.068-1.036,0.209c-0.366,0.14-0.703,0.32-1.014,0.537h-0.173v-1.833
		c0.255-0.113,0.629-0.229,1.126-0.344c0.496-0.115,0.995-0.173,1.491-0.173c1.005,0,1.769,0.219,2.298,0.652
		c0.527,0.436,0.79,1.049,0.79,1.842c0,0.521-0.127,1.016-0.38,1.485c-0.251,0.47-0.641,0.951-1.156,1.452
		c-0.328,0.308-0.652,0.594-0.985,0.854c-0.332,0.261-0.566,0.442-0.706,0.547h3.6V128.71z"/>
	<path fill="#FFFFFF" d="M127.814,124.58c0,0.696-0.06,1.317-0.183,1.866s-0.311,1-0.567,1.35c-0.265,0.357-0.608,0.632-1.024,0.813
		c-0.416,0.182-0.93,0.273-1.536,0.273c-0.6,0-1.112-0.092-1.534-0.278c-0.424-0.182-0.767-0.457-1.027-0.818
		c-0.265-0.363-0.459-0.813-0.575-1.351c-0.119-0.537-0.179-1.152-0.179-1.847c0-0.719,0.065-1.342,0.185-1.869
		c0.122-0.529,0.314-0.977,0.583-1.342c0.265-0.361,0.605-0.634,1.031-0.814c0.422-0.18,0.93-0.273,1.517-0.273
		c0.612,0,1.128,0.095,1.542,0.281s0.76,0.465,1.022,0.835c0.263,0.361,0.452,0.807,0.571,1.338
		C127.755,123.274,127.814,123.886,127.814,124.58 M125.735,124.58c0-0.997-0.094-1.708-0.288-2.131
		c-0.188-0.425-0.506-0.636-0.943-0.636c-0.444,0-0.755,0.211-0.949,0.636c-0.188,0.423-0.287,1.137-0.287,2.144
		c0,0.979,0.102,1.685,0.295,2.118c0.193,0.433,0.507,0.648,0.941,0.648c0.436,0,0.748-0.216,0.939-0.648
		C125.636,126.277,125.735,125.568,125.735,124.58z"/>
	<path fill="#FFFFFF" d="M134.559,128.71h-5.349v-1.439h1.691v-4.36h-1.691v-1.346c0.257,0,0.505-0.016,0.744-0.047
		c0.23-0.032,0.434-0.086,0.589-0.164c0.186-0.092,0.33-0.212,0.42-0.36c0.094-0.146,0.149-0.332,0.161-0.553h1.779v6.83h1.655
		V128.71z"/>
	<polygon fill="#FFFFFF" points="142.085,122.101 138.459,128.709 136.162,128.709 139.922,122.04 135.811,122.04 135.811,120.463 
		142.085,120.463 	"/>
	<polygon points="69.648,55.67 60,41.256 61.306,40.349 61.282,40.317 61.331,40.33 63.096,39.106 79.563,43.426 72.366,32.67 
		75.038,30.814 84.69,45.231 83.382,46.139 83.408,46.175 83.351,46.161 81.589,47.383 65.125,43.066 72.32,53.815 	"/>
	<polygon points="92.281,42.633 89.496,25.417 104.063,22.974 104.586,26.198 93.208,28.105 93.78,31.626 104.725,29.793 
		105.235,32.938 94.288,34.772 94.95,38.874 106.412,36.953 106.931,40.175 	"/>
	<polygon points="122.136,42.478 118.983,41.747 122.066,27.92 115.561,26.414 116.27,23.227 132.441,26.968 131.731,30.155 
		125.222,28.652 	"/>
	<path d="M147.535,56.049l-2.995-2.05l0.504-3.927l-8.077-5.532l-3.394,1.948l-2.982-2.044l16.672-9.607l2.708,1.856L147.535,56.049
		z M140.016,42.787l5.464,3.741l0.928-7.406L140.016,42.787z"/>
	<path d="M43.034,106.293c-0.544,0.047-1.091-0.017-1.644-0.192c-0.55-0.175-1.027-0.445-1.428-0.808
		c-0.44-0.4-0.793-0.883-1.067-1.44c-0.272-0.557-0.442-1.244-0.507-2.058c-0.071-0.875-0.041-1.666,0.09-2.381
		c0.132-0.712,0.354-1.444,0.667-2.197l2.333-0.197l0.009,0.115c-0.539,0.661-0.938,1.409-1.191,2.238
		c-0.258,0.83-0.354,1.6-0.298,2.303c0.083,0.999,0.363,1.757,0.841,2.275c0.479,0.521,1.077,0.749,1.796,0.688
		c0.619-0.051,1.068-0.221,1.342-0.508c0.273-0.289,0.471-0.707,0.589-1.258c0.088-0.419,0.157-0.868,0.206-1.351
		c0.039-0.481,0.102-0.994,0.181-1.534c0.178-1.097,0.563-1.931,1.159-2.503c0.594-0.573,1.403-0.9,2.422-0.987
		c1.177-0.099,2.169,0.249,2.99,1.042c0.818,0.793,1.281,1.849,1.39,3.169c0.066,0.851,0.039,1.64-0.095,2.367
		c-0.129,0.726-0.307,1.375-0.542,1.948l-2.197,0.182l-0.01-0.112c0.409-0.497,0.738-1.136,0.972-1.912
		c0.24-0.779,0.324-1.56,0.261-2.346c-0.068-0.863-0.333-1.54-0.789-2.025c-0.456-0.49-1.012-0.707-1.665-0.649
		c-0.581,0.049-1.029,0.217-1.339,0.504c-0.313,0.29-0.527,0.77-0.65,1.44c-0.061,0.354-0.128,0.859-0.202,1.509
		c-0.074,0.648-0.156,1.203-0.25,1.659c-0.204,0.922-0.563,1.636-1.086,2.14C44.801,105.915,44.036,106.208,43.034,106.293"/>
	<path d="M54.137,122.932c-0.577,0.232-1.149,0.363-1.712,0.391c-0.557,0.026-1.084-0.047-1.568-0.215
		c-0.603-0.207-1.121-0.528-1.554-0.968c-0.427-0.439-0.803-1.066-1.12-1.873l-0.585-1.504l-4.869,1.973l-0.586-1.5l13.057-5.292
		l1.197,3.063c0.263,0.678,0.424,1.279,0.478,1.802c0.05,0.525,0.009,1.023-0.129,1.504c-0.165,0.563-0.455,1.064-0.857,1.499
		C55.484,122.249,54.898,122.621,54.137,122.932 M53.483,121.386c0.451-0.183,0.818-0.41,1.098-0.681
		c0.278-0.272,0.468-0.589,0.571-0.953c0.084-0.316,0.109-0.646,0.065-0.99c-0.042-0.343-0.156-0.749-0.343-1.227l-0.58-1.486
		l-5.219,2.113l0.498,1.27c0.238,0.605,0.496,1.074,0.766,1.4c0.274,0.329,0.596,0.556,0.961,0.684
		c0.374,0.125,0.736,0.172,1.084,0.146C52.733,121.633,53.104,121.541,53.483,121.386z"/>
	<path d="M66.573,136.547c-0.181,0.786-0.538,1.578-1.082,2.37c-0.545,0.796-1.258,1.563-2.157,2.311
		c-0.895,0.749-1.778,1.313-2.656,1.697c-0.874,0.382-1.702,0.583-2.473,0.603c-0.805,0.023-1.543-0.125-2.217-0.447
		c-0.673-0.318-1.282-0.819-1.826-1.496c-0.534-0.663-0.89-1.37-1.071-2.12c-0.184-0.753-0.184-1.52-0.01-2.302
		c0.174-0.78,0.532-1.564,1.069-2.352c0.537-0.791,1.257-1.563,2.154-2.314c0.891-0.738,1.763-1.3,2.631-1.687
		c0.868-0.382,1.705-0.591,2.518-0.622c0.772-0.03,1.509,0.129,2.204,0.464c0.696,0.339,1.303,0.833,1.826,1.479
		c0.542,0.676,0.9,1.389,1.078,2.137C66.737,135.017,66.743,135.775,66.573,136.547 M62.289,139.928
		c1.413-1.177,2.28-2.358,2.608-3.548c0.323-1.186,0.105-2.253-0.656-3.2c-0.771-0.955-1.758-1.387-2.965-1.29
		c-1.202,0.095-2.51,0.728-3.922,1.909c-1.423,1.19-2.292,2.378-2.603,3.564c-0.311,1.188-0.086,2.248,0.666,3.184
		c0.752,0.936,1.729,1.361,2.93,1.285C59.551,141.755,60.865,141.119,62.289,139.928z"/>
	<path d="M76.238,159.759l-1.744-1.119l-0.41-6.979l-1.892-1.212l-2.972,4.818l-1.344-0.858l7.472-12.12l2.833,1.813
		c0.608,0.386,1.09,0.76,1.438,1.114c0.348,0.356,0.612,0.758,0.784,1.214c0.199,0.51,0.27,1.043,0.215,1.597
		c-0.053,0.549-0.278,1.149-0.674,1.795c-0.543,0.873-1.176,1.487-1.905,1.842c-0.728,0.354-1.506,0.477-2.333,0.364L76.238,159.759
		z M78.466,149.036c0.215-0.349,0.356-0.688,0.418-1.023c0.061-0.332,0.035-0.666-0.086-1.001c-0.097-0.282-0.262-0.542-0.489-0.775
		c-0.23-0.231-0.523-0.464-0.886-0.696l-1.581-1.008l-2.822,4.573l1.36,0.867c0.426,0.272,0.821,0.466,1.19,0.578
		c0.378,0.111,0.746,0.117,1.121,0.016c0.344-0.098,0.655-0.263,0.936-0.496C77.905,149.835,78.184,149.493,78.466,149.036z"/>
	<polygon points="111.338,167.771 109.279,167.683 104.824,161.112 103.577,162.577 103.377,167.425 101.791,167.357 
		102.386,153.06 103.971,153.127 103.661,160.588 109.761,153.378 111.687,153.462 106.081,159.953 	"/>
	<path d="M130.614,158.18c0.271,1.001,0.42,1.896,0.442,2.692c0.02,0.796-0.107,1.504-0.391,2.113
		c-0.269,0.579-0.641,1.055-1.11,1.42c-0.469,0.37-1.059,0.651-1.765,0.853c-0.721,0.205-1.379,0.267-1.979,0.193
		c-0.597-0.076-1.144-0.285-1.627-0.625c-0.556-0.389-1.023-0.916-1.401-1.578c-0.38-0.665-0.712-1.519-0.997-2.56l-2.259-8.248
		l1.528-0.438l2.285,8.343c0.203,0.747,0.407,1.324,0.61,1.732s0.456,0.758,0.751,1.053c0.34,0.338,0.726,0.553,1.172,0.646
		c0.445,0.092,0.94,0.063,1.484-0.094c0.553-0.157,0.991-0.388,1.325-0.699c0.33-0.312,0.553-0.703,0.673-1.175
		c0.105-0.41,0.139-0.854,0.099-1.332c-0.039-0.478-0.152-1.052-0.334-1.725l-2.3-8.388l1.528-0.438L130.614,158.18z"/>
	<polygon points="150.468,153.861 144.101,157.999 136.545,145.933 137.876,145.064 144.548,155.701 149.572,152.435 	"/>
	<path d="M149.66,132.739l-1.037,1.234l-1.396-1.222l1.037-1.233L149.66,132.739z M160.928,135.296
		c0.775,0.679,1.389,1.341,1.836,1.989c0.454,0.648,0.729,1.31,0.83,1.979c0.096,0.633,0.044,1.237-0.147,1.806
		c-0.192,0.573-0.525,1.144-0.999,1.71c-0.489,0.577-1.003,1.005-1.542,1.277c-0.535,0.276-1.104,0.41-1.697,0.402
		c-0.669-0.01-1.345-0.181-2.025-0.518c-0.675-0.338-1.417-0.861-2.223-1.565l-6.38-5.58l1.034-1.226l6.451,5.642
		c0.577,0.507,1.062,0.871,1.453,1.096c0.396,0.222,0.792,0.373,1.2,0.449c0.465,0.091,0.907,0.049,1.323-0.127
		c0.422-0.173,0.817-0.479,1.188-0.916c0.37-0.444,0.609-0.887,0.715-1.332c0.107-0.446,0.081-0.899-0.076-1.357
		c-0.137-0.399-0.352-0.786-0.646-1.162c-0.294-0.376-0.7-0.788-1.218-1.245l-6.489-5.674l1.033-1.226L160.928,135.296z
		 M151.817,130.182l-1.037,1.233l-1.398-1.223l1.037-1.231L151.817,130.182z"/>
	<path d="M171.667,117.158c0.645,0.275,1.172,0.622,1.578,1.041c0.406,0.42,0.698,0.876,0.871,1.37
		c0.209,0.581,0.295,1.162,0.251,1.736c-0.044,0.573-0.227,1.25-0.543,2.03l-1.628,3.978l-12.973-5.502l1.357-3.323
		c0.34-0.818,0.621-1.417,0.857-1.795c0.233-0.378,0.543-0.708,0.916-0.983c0.419-0.306,0.859-0.469,1.327-0.488
		s0.977,0.085,1.522,0.317c0.612,0.261,1.082,0.62,1.402,1.075c0.324,0.453,0.523,0.965,0.601,1.526l0.068,0.03
		c0.491-0.684,1.122-1.117,1.887-1.305C169.932,116.68,170.768,116.776,171.667,117.158 M164.794,117.189
		c-0.314-0.136-0.598-0.202-0.85-0.202c-0.251,0-0.484,0.072-0.703,0.217c-0.25,0.168-0.465,0.411-0.641,0.734
		c-0.173,0.321-0.362,0.729-0.565,1.227l-0.731,1.779l3.747,1.589l0.79-1.93c0.192-0.464,0.316-0.852,0.37-1.15
		c0.062-0.3,0.05-0.604-0.024-0.915c-0.079-0.309-0.236-0.571-0.472-0.788C165.479,117.538,165.174,117.347,164.794,117.189z
		 M171.102,118.739c-0.521-0.22-0.967-0.328-1.329-0.323c-0.362,0.006-0.727,0.142-1.085,0.404
		c-0.246,0.182-0.459,0.433-0.645,0.759c-0.183,0.326-0.374,0.734-0.577,1.227l-0.959,2.344l4.826,2.049l0.808-1.973
		c0.269-0.657,0.447-1.207,0.543-1.658c0.092-0.451,0.084-0.852-0.016-1.208c-0.111-0.376-0.284-0.694-0.521-0.948
		C171.908,119.159,171.56,118.935,171.102,118.739z"/>
	<path d="M163.086,101.325l-0.133,1.62l-1.831-0.155l0.132-1.62L163.086,101.325z M163.357,97.965l-0.132,1.617l-1.831-0.15
		l0.126-1.621L163.357,97.965z M173.681,96.659c1.017,0.085,1.895,0.257,2.635,0.511c0.74,0.257,1.343,0.625,1.807,1.108
		c0.444,0.455,0.756,0.973,0.926,1.549c0.177,0.579,0.236,1.24,0.173,1.981c-0.058,0.761-0.23,1.412-0.506,1.956
		c-0.282,0.544-0.66,0.991-1.142,1.338c-0.55,0.395-1.194,0.66-1.942,0.793c-0.738,0.132-1.642,0.153-2.7,0.063l-8.38-0.704
		l0.126-1.607l8.477,0.71c0.76,0.063,1.359,0.069,1.807,0.014c0.446-0.052,0.858-0.167,1.23-0.35
		c0.428-0.202,0.764-0.502,1.001-0.895c0.242-0.392,0.388-0.877,0.43-1.45c0.048-0.58-0.011-1.083-0.184-1.508
		c-0.173-0.423-0.457-0.775-0.85-1.054c-0.344-0.242-0.734-0.426-1.191-0.557c-0.454-0.126-1.02-0.218-1.704-0.276l-8.521-0.711
		l0.127-1.614L173.681,96.659z"/>
</g>
</svg>
