<?xml version="1.0" encoding="utf-8"?>
<!-- Generator: Adobe Illustrator 24.0.1, SVG Export Plug-In . SVG Version: 6.00 Build 0)  -->
<svg version="1.1" id="Layer_1" xmlns="http://www.w3.org/2000/svg" xmlns:xlink="http://www.w3.org/1999/xlink" x="0px" y="0px"
	 viewBox="0 0 216 188" style="enable-background:new 0 0 216 188;" xml:space="preserve">
<style type="text/css">
	.st0{fill-rule:evenodd;clip-rule:evenodd;fill:#00A551;}
	.st1{fill-rule:evenodd;clip-rule:evenodd;fill:#A5CD39;}
	.st2{fill-rule:evenodd;clip-rule:evenodd;fill:#FFD900;}
	.st3{fill-rule:evenodd;clip-rule:evenodd;fill:#FFFFFF;}
	.st4{fill-rule:evenodd;clip-rule:evenodd;fill:#1D0E46;}
</style>
<g>
	<path class="st0" d="M98.9-208.3L98.9-208.3L98.9-208.3L98.9-208.3L98.9-208.3L98.9-208.3L98.9-208.3L98.9-208.3L98.9-208.3
		L98.9-208.3L98.9-208.3L98.9-208.3L98.9-208.3L98.9-208.3L98.9-208.3L98.9-208.3L98.9-208.3L98.9-208.3L98.9-208.3L98.9-208.3
		L98.9-208.3L98.9-208.3L98.9-208.3L98.9-208.3L98.9-208.3L98.9-208.3C98.9-208.2,98.9-208.2,98.9-208.3L98.9-208.3L98.9-208.3
		L98.9-208.3L98.9-208.3L98.9-208.3L98.9-208.3L98.9-208.3L98.9-208.3L98.9-208.3L98.9-208.3L98.9-208.3L98.9-208.3L98.9-208.3
		L98.9-208.3L98.9-208.3L98.9-208.3L98.9-208.3L98.9-208.3L98.9-208.3L98.9-208.3L98.9-208.3L98.9-208.3L98.9-208.3L98.9-208.3
		C98.9-208.3,98.9-208.3,98.9-208.3L98.9-208.3L98.9-208.3z M75.7-248.5c0.3-6.3,1.5-11.9,2.8-16c3.5,2.3,8.1,5.9,12.4,10.4
		c2.4-5.8,5.5-10.7,8.1-14.1c2.5,3.4,5.6,8.3,8.1,14.1c4.3-4.6,8.8-8.2,12.4-10.4c1.2,4,2.4,9.7,2.8,16c5.6-2.9,11.1-4.6,15.2-5.6
		c-0.2,4.2-1,10-2.9,15.9c6.2-0.8,12-0.6,16.2,0c-1.6,3.9-4.4,9-8.1,14c6.1,1.4,11.5,3.6,15.2,5.5c-2.9,3.1-7.2,7-12.4,10.4
		c5.3,3.4,9.6,7.3,12.4,10.4c-3.8,1.9-9.1,4.1-15.2,5.5c3.8,5,6.5,10.1,8.1,14c-4.2,0.5-10,0.7-16.2,0c1.8,6,2.6,11.7,2.9,15.9
		c-4.1-0.9-9.6-2.7-15.2-5.6c-0.3,6.3-1.5,11.9-2.8,16c-3.5-2.3-8.1-5.9-12.4-10.4c-2.4,5.8-5.5,10.7-8.1,14.1
		c-2.5-3.4-5.6-8.3-8.1-14.1c-4.3,4.6-8.8,8.2-12.4,10.4c-1.2-4-2.4-9.7-2.8-16c-5.6,2.9-11.1,4.6-15.2,5.6c0.2-4.2,1-10,2.9-15.9
		c-6.2,0.8-12,0.6-16.2,0c1.6-3.9,4.4-9,8.1-14c-6.1-1.4-11.5-3.6-15.2-5.5c2.9-3.1,7.2-7,12.4-10.4c-5.3-3.4-9.6-7.3-12.4-10.4
		c3.8-1.9,9.1-4.1,15.2-5.5c-3.8-5-6.5-10.1-8.1-14c4.2-0.5,10-0.7,16.2,0c-1.8-6-2.6-11.7-2.9-15.9
		C64.6-253.1,70.1-251.3,75.7-248.5L75.7-248.5z M98.9-208.3L98.9-208.3L98.9-208.3L98.9-208.3z"/>
	<path class="st1" d="M98.9-208.3C98.9-208.3,98.9-208.3,98.9-208.3L98.9-208.3L98.9-208.3L98.9-208.3L98.9-208.3L98.9-208.3
		C98.9-208.3,98.9-208.3,98.9-208.3L98.9-208.3L98.9-208.3L98.9-208.3C98.9-208.2,98.9-208.2,98.9-208.3
		C98.9-208.2,98.9-208.2,98.9-208.3C98.9-208.2,98.9-208.2,98.9-208.3L98.9-208.3L98.9-208.3L98.9-208.3
		C98.9-208.2,98.9-208.2,98.9-208.3L98.9-208.3L98.9-208.3L98.9-208.3L98.9-208.3L98.9-208.3L98.9-208.3L98.9-208.3L98.9-208.3
		L98.9-208.3L98.9-208.3L98.9-208.3C98.9-208.3,98.9-208.3,98.9-208.3L98.9-208.3L98.9-208.3L98.9-208.3L98.9-208.3L98.9-208.3
		L98.9-208.3L98.9-208.3L98.9-208.3z M64.7-202.2c-4.4-1.5-8.6-3.6-12.3-6c3.7-2.4,7.8-4.5,12.3-6c-3.7-2.9-6.8-6.4-9.5-9.9
		c4.3-1,8.9-1.6,13.6-1.5c-2.4-4-4.2-8.3-5.5-12.5c4.3,0.5,8.9,1.6,13.3,3.3c-0.9-4.6-1.1-9.3-0.9-13.6c3.9,2,7.8,4.5,11.3,7.6
		c0.7-4.6,2.1-9.1,3.8-13.1c3,3.2,5.8,6.9,8.1,11c2.2-4.1,5.1-7.8,8.1-11c1.7,4,3.1,8.5,3.8,13.1c3.5-3.1,7.4-5.6,11.3-7.6
		c0.2,4.4,0,9-0.9,13.6c4.4-1.7,8.9-2.7,13.3-3.3c-1.3,4.2-3.1,8.5-5.5,12.5c4.7-0.1,9.3,0.5,13.6,1.5c-2.6,3.5-5.8,6.9-9.5,9.9
		c4.4,1.5,8.6,3.6,12.3,6c-3.7,2.4-7.8,4.5-12.3,6c3.7,2.9,6.8,6.4,9.5,9.9c-4.3,1-8.9,1.6-13.6,1.5c2.4,4,4.2,8.3,5.5,12.5
		c-4.3-0.5-8.9-1.6-13.3-3.3c0.9,4.6,1.1,9.3,0.9,13.6c-3.9-2-7.8-4.5-11.3-7.6c-0.7,4.6-2.1,9.1-3.8,13.1c-3-3.2-5.8-6.9-8.1-11
		c-2.2,4.1-5.1,7.8-8.1,11c-1.7-4-3.1-8.5-3.8-13.1c-3.5,3.1-7.4,5.6-11.3,7.6c-0.2-4.4,0-9,0.9-13.6c-4.4,1.7-8.9,2.7-13.3,3.3
		c1.3-4.2,3.1-8.5,5.5-12.5c-4.7,0.1-9.3-0.5-13.6-1.5C57.9-195.9,61.1-199.3,64.7-202.2L64.7-202.2z"/>
	<path class="st2" d="M98.9-208.2L98.9-208.2L98.9-208.2L98.9-208.2L98.9-208.2z M98.9-208.2L98.9-208.2L98.9-208.2
		C98.9-208.2,98.9-208.2,98.9-208.2L98.9-208.2L98.9-208.2L98.9-208.2L98.9-208.2C98.9-208.2,98.9-208.2,98.9-208.2
		C98.9-208.2,98.9-208.2,98.9-208.2C98.9-208.2,98.9-208.2,98.9-208.2L98.9-208.2L98.9-208.2z M98.9-208.2L98.9-208.2L98.9-208.2
		L98.9-208.2C98.9-208.3,98.9-208.3,98.9-208.2C98.9-208.3,98.9-208.3,98.9-208.2L98.9-208.2C98.9-208.3,98.9-208.3,98.9-208.2
		C98.9-208.3,98.9-208.3,98.9-208.2C98.9-208.3,98.9-208.3,98.9-208.2C98.9-208.3,98.9-208.3,98.9-208.2
		C98.9-208.3,98.9-208.3,98.9-208.2C98.9-208.3,98.9-208.3,98.9-208.2L98.9-208.2L98.9-208.2C98.9-208.3,98.9-208.3,98.9-208.2
		L98.9-208.2C98.9-208.2,98.9-208.2,98.9-208.2L98.9-208.2L98.9-208.2L98.9-208.2z M98.9-208.2L98.9-208.2L98.9-208.2L98.9-208.2z
		 M94.8-231.6c0.8-4,2.2-7.8,4.1-11.3c1.9,3.5,3.4,7.3,4.1,11.3c2.1-3.5,4.8-6.6,7.7-9.2c0.6,3.9,0.7,8,0,12c3.2-2.6,6.7-4.6,10.4-6
		c-0.8,3.9-2.1,7.7-4.1,11.3c3.9-1.4,7.9-2,11.9-2.1c-2.1,3.4-4.6,6.6-7.7,9.2c4.1,0,8.1,0.8,11.9,2.1c-3.1,2.5-6.6,4.6-10.4,6
		c3.8,1.4,7.3,3.6,10.4,6c-3.8,1.3-7.7,2.1-11.9,2.1c3.1,2.7,5.7,5.8,7.7,9.2c-4-0.1-8-0.7-11.9-2.1c2,3.6,3.3,7.4,4.1,11.3
		c-3.7-1.5-7.3-3.4-10.4-6c0.7,4,0.6,8.1,0,12c-3-2.6-5.7-5.7-7.7-9.2c-0.8,4-2.2,7.8-4.1,11.3c-1.9-3.5-3.4-7.3-4.1-11.3
		c-2.1,3.5-4.8,6.6-7.7,9.2c-0.6-3.9-0.7-8,0-12c-3.2,2.6-6.7,4.6-10.4,6c0.8-3.9,2.1-7.7,4.1-11.3c-3.9,1.4-7.9,2-11.9,2.1
		c2.1-3.4,4.6-6.6,7.7-9.2c-4.1,0-8.1-0.8-11.9-2.1c3.1-2.5,6.6-4.6,10.4-6c-3.8-1.4-7.3-3.6-10.4-6c3.8-1.3,7.7-2.1,11.9-2.1
		c-3.1-2.7-5.7-5.8-7.7-9.2c4,0.1,8,0.7,11.9,2.1c-2-3.6-3.3-7.4-4.1-11.3c3.7,1.5,7.3,3.4,10.4,6c-0.7-4-0.6-8.1,0-12
		C90-238.2,92.7-235.2,94.8-231.6L94.8-231.6z M98.9-208.3L98.9-208.3L98.9-208.3z"/>
	<path class="st3" d="M94.7-219.7c-0.8-4.2-0.7-8.2,0-11.9c2,3.3,3.4,7,4.1,11.2c0.7-4.2,2.2-7.9,4.1-11.2c0.7,3.8,0.8,7.8,0.1,11.9
		c2.1-3.7,4.7-6.7,7.7-9.1c-0.6,3.8-1.9,7.6-4,11.2c3.2-2.7,6.7-4.6,10.4-5.9c-1.9,3.3-4.4,6.5-7.6,9.2c4-1.5,7.9-2.1,11.8-2
		c-2.9,2.5-6.3,4.6-10.3,6c4.2,0,8.1,0.8,11.7,2.1c-3.6,1.4-7.5,2.1-11.7,2.1c4,1.4,7.4,3.5,10.3,6c-3.8,0-7.8-0.6-11.8-2
		c3.3,2.7,5.7,5.8,7.6,9.2c-3.6-1.3-7.1-3.2-10.4-5.9c2.1,3.7,3.4,7.4,4,11.2c-3-2.4-5.6-5.4-7.7-9.1c0.8,4.2,0.7,8.2,0,11.9
		c-2-3.3-3.4-7-4.1-11.2c-0.7,4.2-2.2,7.9-4.1,11.2c-0.7-3.8-0.8-7.8,0-11.9c-2.1,3.7-4.7,6.7-7.7,9.1c0.6-3.8,1.9-7.6,4-11.2
		c-3.2,2.7-6.7,4.7-10.4,5.9c1.9-3.3,4.4-6.5,7.6-9.2c-4,1.5-7.9,2.1-11.8,2c2.9-2.5,6.3-4.6,10.3-6c-4.2,0-8.1-0.8-11.7-2.1
		c3.6-1.4,7.5-2.1,11.7-2.1c-4-1.4-7.4-3.5-10.3-6c3.8,0,7.8,0.6,11.8,2c-3.3-2.7-5.7-5.8-7.6-9.2c3.6,1.3,7.1,3.2,10.4,5.9
		c-2.1-3.7-3.4-7.4-4-11.2C90-226.4,92.7-223.4,94.7-219.7L94.7-219.7z"/>
	<path class="st0" d="M114.8-305.1v29.2h4.3v-2.8c1.8,2.4,3.8,3.5,6.7,3.5c5.4,0,9.2-4.4,9.2-11.3c0-7.1-3.9-11.5-9.1-11.5
		c-2.9,0-5.1,1.2-6.7,3.5v-10.6H114.8L114.8-305.1z M124.8-294c3.5,0,5.6,2.7,5.6,7.6c0,4.6-2.2,7.3-5.6,7.3c-3.6,0-5.7-2.6-5.7-7.4
		C119.1-291.5,121-294,124.8-294L124.8-294z"/>
	<path class="st0" d="M147.9-294c3.4,0,5.6,2.7,5.6,7.3c0,4.9-2.2,7.5-5.6,7.5c-3.7,0-5.7-2.5-5.7-7.3
		C142.2-291.4,144.2-294,147.9-294L147.9-294z M142.3-278.5c1.5,2.2,3.8,3.3,6.7,3.3c5.2,0,9.1-4.4,9.1-11.5
		c0-6.9-3.8-11.3-9.2-11.3c-2.9,0-4.9,1.1-6.7,3.7v-3h-4.3v29.9h4.4V-278.5L142.3-278.5z"/>
</g>
<g>
	<g>
		<g>
			<g>
				<path class="st4" d="M38.3,145.5h5.1c2,0,2.4,0.6,2.4,2.4c0,2.1-0.9,2.3-2.9,2.3h-4.6V145.5z M43.8,153c3.7,0,5.2-1,5.2-4.8
					c0-2.2-0.5-3.8-2.9-4.1V144c2.1-0.5,2.5-1.8,2.5-3.8c0-3.8-1.7-4.5-5.1-4.5h-8.6V153H43.8z M38.3,138.5h4.7c1.6,0,2.4,0.1,2.4,2
					c0,1.8-0.4,2.4-2.3,2.4h-4.8V138.5z"/>
				<path class="st4" d="M62.5,135.7V148c0,1.9-0.8,2.3-3.9,2.3c-3.2,0-3.9-0.5-3.9-2.3v-12.3h-3.3V148c0,4.9,3.1,5.2,7.2,5.2
					c4.2,0,7.3-0.3,7.3-5.2v-12.3H62.5z M57.4,131.8v2h-2.3v-2H57.4z M62.1,131.8v2h-2.3v-2H62.1z"/>
				<polygon class="st4" points="82.9,135.7 79.1,135.7 74.9,143.1 74.8,143.1 70.7,135.7 66.9,135.7 73.2,146.4 73.2,153 76.5,153 
					76.5,146.4 				"/>
				<path class="st4" d="M95.1,135.7V148c0,1.9-0.8,2.3-3.9,2.3c-3.2,0-3.9-0.5-3.9-2.3v-12.3H84V148c0,4.9,3.1,5.2,7.2,5.2
					c4.2,0,7.3-0.3,7.3-5.2v-12.3H95.1z M90,131.8v2h-2.3v-2H90z M94.8,131.8v2h-2.3v-2H94.8z"/>
				<polygon class="st4" points="104.7,135.7 101.4,135.7 101.4,153 104.7,153 104.7,145.6 106.2,145.6 112.6,153 116.8,153 
					109.1,144.2 116.1,135.7 112,135.7 106.2,142.8 104.7,142.8 				"/>
				<path class="st4" d="M117,147.5v0.8c0,5,3.4,4.9,7.3,4.9c4.5,0,6.8-0.4,6.8-5.3c0-4.4-1.5-4.7-6.8-5c-3.4-0.2-3.8-0.3-3.8-2.4
					c0-1.8,0.5-2.2,3.8-2.2c2.3,0,3.1,0.1,3.1,1.9v0.6h3.3v-0.6c0-4.6-2.9-4.7-6.4-4.7c-4.2,0-7.2,0.1-7.2,4.9c0,5,3,4.9,6.7,5.1
					c2.6,0.1,3.9-0.2,3.9,2.3c0,2-0.4,2.6-3.4,2.6c-3.1,0-3.9-0.1-3.9-2.1v-0.8H117z M124.8,153.3l-2.6,1.6l0.6,1.1l3-1.2
					L124.8,153.3z"/>
				<polygon class="st4" points="136.3,138.5 144.8,138.5 144.8,135.7 132.9,135.7 132.9,153 144.9,153 144.9,150.2 136.3,150.2 
					136.3,145.6 144.4,145.6 144.4,142.9 136.3,142.9 				"/>
				<polygon class="st4" points="162.1,135.7 158.7,135.7 158.7,142.8 150.7,142.8 150.7,135.7 147.4,135.7 147.4,153 150.7,153 
					150.7,145.6 158.7,145.6 158.7,153 162.1,153 				"/>
				<path class="st4" d="M168.3,135.7H165V153h3.3V135.7z M167.8,133.2h-2.3v2h2.3V133.2z"/>
				<path class="st4" d="M179.6,147.3c1.6,0,2.2,1,2.2,2.5v3.2h3.3v-3.2c0-2.4-0.6-3.7-2.9-3.9v-0.1c2.9-0.4,3.1-2.3,3.1-4.9
					c0-3.9-1.5-5.1-5.2-5.2h-8.8V153h3.3v-5.7H179.6z M174.5,144.5v-5.9h4.6c2.4,0,2.8,0.4,2.8,2.9c0,2.5-0.6,3-3,3H174.5z"/>
			</g>
		</g>
		<g>
			<g>
				<path class="st4" d="M75.5,113.4h-1.7v15.3h1.7V113.4z M75.5,111.6h-1.8v1.5h1.8V111.6z"/>
				<polygon class="st4" points="92.4,113.4 80.9,113.4 80.9,115 90.3,115 80.7,127.2 80.7,128.8 92.6,128.8 92.6,127.2 82.8,127.2 
					92.4,115.1 				"/>
				<polygon class="st4" points="112.8,114.8 112.8,114.8 112.8,128.8 114.6,128.8 114.6,113.4 111.6,113.4 106.1,126.6 
					100.7,113.4 97.7,113.4 97.7,128.8 99.5,128.8 99.5,114.8 99.5,114.8 105.3,128.8 107,128.8 				"/>
				<path class="st4" d="M122.4,113.4h-1.7v15.3h1.7V113.4z M122.4,111.6h-1.8v1.5h1.8V111.6z"/>
				<path class="st4" d="M130.2,122.6h5.6c2.1,0,2.6,0.9,2.6,2.9v3.2h1.7v-4.1c0-1.7-0.8-2.6-2.5-2.8v0c2.4-0.3,2.7-1.9,2.7-4
					c0-3.5-1.4-4.4-4.8-4.4h-7.1v15.3h1.7V122.6z M130.2,121.1V115h5.3c2.7,0,3,0.7,3,2.7c0,2.5-0.3,3.3-3,3.4H130.2z"/>
			</g>
		</g>
		<g>
			<g>
				<path class="st4" d="M43.3,168.2H49c2.3,0,2.6,1,2.6,3c0,2.3-0.9,2.6-2.8,2.6h-5.5V168.2z M49.7,175.3c2.6,0,3.6-1.5,3.6-4.3
					c0-1.9-0.3-3.4-2.4-3.7v0c1.6-0.5,1.9-1.6,1.9-3.2c0-2.7-0.7-4-3.6-4h-7.8v15.3H49.7z M43.3,161.5h5.2c1.8,0,2.6,0.2,2.6,2.3
					c0,2.4-0.7,2.9-2.8,2.9h-5V161.5z"/>
				<polygon class="st4" points="60.2,161.5 68.3,161.5 68.3,160 58.5,160 58.5,175.3 68.3,175.3 68.3,173.8 60.2,173.8 60.2,168.1 
					68,168.1 68,166.7 60.2,166.7 				"/>
				<polygon class="st4" points="75.5,160 73.8,160 73.8,175.3 83.3,175.3 83.3,173.8 75.5,173.8 				"/>
				<polygon class="st4" points="89.4,161.5 97.5,161.5 97.5,160 87.7,160 87.7,175.3 97.5,175.3 97.5,173.8 89.4,173.8 89.4,168.1 
					97.2,168.1 97.2,166.7 89.4,166.7 				"/>
				<path class="st4" d="M102.8,175.3h7.9c4.6,0,4.8-4.2,4.8-5.8v-3.7c0-5.7-3.4-5.9-5.2-5.9h-7.4V175.3z M104.5,173.8v-12.2h6
					c2.9,0,3.2,2.8,3.2,3.7v4c0,2.7-0.4,4.5-3.5,4.5H104.5z"/>
				<path class="st4" d="M122.8,160h-1.7v15.3h1.7V160z M122.9,158.1h-1.8v1.5h1.8V158.1z"/>
				<polygon class="st4" points="140.5,160 138.4,160 133.9,167.1 129.4,160 127.3,160 133,168.9 133,175.3 134.7,175.3 
					134.7,168.9 				"/>
				<polygon class="st4" points="146.1,161.5 154.2,161.5 154.2,160 144.4,160 144.4,175.3 154.2,175.3 154.2,173.8 146.1,173.8 
					146.1,168.1 153.9,168.1 153.9,166.7 146.1,166.7 				"/>
				<path class="st4" d="M164.5,168.2c2.8,0.2,4.1-0.3,4.1,2.7c0,3-0.9,3-4.2,3c-3.2,0-3.9,0-3.9-3.4h-1.7c-0.3,4.4,1.7,4.9,5.6,4.9
					c3.9,0,5.9-0.1,5.9-4.5c0-4.1-1.8-4-5.5-4.2c-2.9-0.1-4.2,0.2-4.2-2.8c0-2.1,0.5-2.6,3.9-2.6c3.2,0,3.8,0.1,3.8,2.8h1.7
					c0.2-4.2-2.2-4.3-5.5-4.3c-3.8,0-5.7,0.4-5.7,4.4C158.9,168.3,161.5,168,164.5,168.2z"/>
				<path class="st4" d="M177.4,160h-1.7v15.3h1.7V160z M177.4,158.1h-1.8v1.5h1.8V158.1z"/>
			</g>
		</g>
	</g>
	<g>
		<path class="st4" d="M110.3,19.6c0.3,0,0.5,0,0.8,0c0,0.2,0,0.5,0,0.7c0.1,0.1,0.1,0.1,0.3,0.1c0,0,0,0,0,0c0.1,0,0.3-0.5,0.3-0.6
			c0-0.1-0.1-0.2-0.1-0.2c0.1-0.1,0.2-0.3,0.3-0.4c0,0,0,0,0,0c0,0.4,0,0.9,0,1.3c0,0.2,0,0.4,0,0.5c0.2,0,0.4,0.1,0.3,0.3
			c-0.4,0-0.7,0.3-0.8,0.6c0,0.1,0,0.2,0,0.3c0,0-0.1,0-0.1,0c0,1,0,2,0,3c0.1,0,0.2,0,0.3,0c0,0,0,0,0,0.1c0,0,0,0-0.1,0
			c0,0,0,0,0,0.1c0,0-0.1,0-0.1,0c0,0,0,0,0,0.1c-0.1,0-0.1,0-0.1,0c0,0.1,0.1,0.6,0.1,0.7c-0.1,0.3,0,0.7,0,1.1c0,0.7,0,1.3,0,2
			c0.2,0,0.3,0,0.5,0c0.1,0.2,0.3,0.3,0.4,0.5c0.2,0,0.4,0,0.6,0c0,0,0.1,0.1,0.1,0.1c0.1,0,0.3,0,0.4,0c0,0.1-0.1,0.3-0.1,0.4
			c0,0,0,0,0,0c0,0,0.1,0,0.1,0c0,0.1-0.1,0.3-0.1,0.4c0.1,0,0.1,0,0.2,0c0,0.1,0,0.3-0.1,0.4c0.3,0,0.5,0,0.8,0
			c0-0.1-0.1-0.3-0.1-0.4c0.1,0,0.1,0,0.2,0c0-0.1,0-0.3-0.1-0.4c0.1,0,0.1,0,0.2,0c0-0.1-0.1-0.3-0.1-0.4c0.1,0,0.2,0,0.3,0
			c0,0.6,0,1.2,0,1.8c0.1,0.1,0.2,0.1,0.4,0.2c0,0,0,0.1,0,0.1c-0.1,0-0.1,0-0.2,0c0,0,0,0.1,0,0.1c-0.3,0.1-0.8,0.4-0.7,0.7
			c0,0.1,0.2,0.1,0.3,0.2c0,0.1-0.1,0.2-0.2,0.3c0,0.3,0,0.5,0,0.8c0,0-0.1,0-0.1,0c0,0.1,0,0.1,0,0.2c0,0,0.1,0,0.1,0
			c0,2.1,0,4.2,0,6.3c0,0-0.1,0-0.1,0c0,0.1,0,0.2,0,0.2c0,0,0.1,0,0.1,0c0,0.3,0,0.5,0,0.8c0,0-0.1,0-0.1,0c0,0.1,0.1,0.2,0.1,0.3
			c0,0.3,0,0.6,0,1c-0.2,0.1-0.8,0.6-0.5,0.9c0,0.1-0.1,0.1-0.1,0.2c-0.1,0-0.1,0-0.2,0c0,0.3,0,0.6-0.1,0.9c0,0,0,0-0.1,0
			c0,4,0,8,0,12c0.1,0,0.1,0,0.2,0c0,0.8,0,1.5,0,2.3c-0.1,0.1-0.1,0.3-0.2,0.5c0,0.1,0.1,0.1,0,0.1c-0.2,0.7,0,1.7,0,2.4
			c0.3,0,0.6,0,0.9,0c0,0,0,0.1,0,0.1c0,0-0.1,0-0.1,0c0,0.5,0.1,1.9-0.1,2.1c-0.2,0-0.4,0-0.7,0c0,0.2,0,0.4,0,0.7
			c0.2,0,0.4-0.2,0.5-0.3c0,0,0,0,0,0c-0.2,0-0.2,0.1-0.4,0.1c0,0,0-0.1,0.1-0.1c0,0,0-0.1-0.1-0.1c0.2,0,0.2-0.1,0.1-0.2
			c0.1,0.1,0.2,0.1,0.2,0.2c0-0.1,0-0.1,0.1-0.2c0,0,0,0,0,0c0.1,0,0.2,0,0.2,0c0,0.1,0,0.1,0,0.2c-0.1,0.1-0.3,0.2-0.4,0.2
			c-0.1,0.1-0.1,0.1-0.2,0.2c-0.1,0-0.1,0-0.2,0c0,3.1,0,6.1,0,9.2c0.1,0,0.1,0.1,0.2,0.1c0,0.2-0.1,1.1,0,1.2
			c0.2,0.1,0.6,0,0.7-0.1c0,0,0,0,0,0c0-0.1-0.1-0.1-0.3-0.2c0.2,0,0.3,0.1,0.4,0.2c0.2,0,0.3-0.2,0.2-0.3c-0.2-0.1-0.3-0.1-0.5-0.1
			c-0.1-0.1,0-0.1,0-0.2c0.1,0,0.3,0,0.5-0.1c0,0,0,0,0,0c-0.1,0-0.1-0.1-0.1-0.1c0-0.1,0.3-0.2,0.5-0.2c0.1,0,0.3,0.1,0.3,0.1
			c0,0.1,0,0.1,0,0.2c0.2,0,0.3,0.1,0.4,0.2c0,0,0,0.1,0,0.1c-0.5,0.1-0.4,0.6,0,0.4c0,0.1,0,0.2,0.1,0.3c0.1,0,0.2,0,0.3,0
			c0,0,0.1-0.1,0.1-0.1c0-0.1,0-0.1,0-0.2c0.1,0,0.1,0,0.3,0c0.1-0.1,0.2-0.2,0.1-0.3c-0.1,0-0.3-0.1-0.3-0.2
			c0.1-0.1,0.2-0.1,0.4-0.2c0-0.1-0.1-0.1-0.1-0.2c0.1-0.1,0.3-0.2,0.4-0.1c0.1,0,0.2,0.1,0.3,0.1c0,0.1,0,0.1-0.1,0.2c0,0,0,0,0,0
			c0.2,0,0.3,0.1,0.4,0.2c0,0,0,0.1,0,0.1c-0.2,0-0.3,0-0.4,0.1c-0.1,0.1-0.1,0.2,0,0.3c0.1,0.1,0.2,0.1,0.3,0.1
			c0,0.1,0,0.2,0.1,0.2c0.1,0.1,0.3,0.1,0.4,0c0,0,0-0.1,0-0.2c0.2,0,0.2,0,0.3-0.1c0-0.1,0.1-0.2,0-0.3c-0.1,0-0.3-0.1-0.3-0.1
			c0,0,0,0,0,0c0.1-0.2,0.2-0.1,0.4-0.2c0,0-0.1-0.1,0-0.2c0-0.1,0.3-0.2,0.4-0.2c0.1,0,0.2,0.1,0.3,0.1c0,0.1,0,0.2,0,0.2
			c0.2,0,0.4,0.1,0.4,0.2c-0.1,0.1-0.3,0.1-0.3,0.2c-0.2,0.2,0.1,0.4,0.3,0.4c0,0.1,0,0.1,0.1,0.2c0.1,0,0.2,0,0.3,0
			c0.1-0.1,0.1-0.1,0.1-0.2c0.1,0,0.2,0,0.3-0.1c0-0.1,0.1-0.3,0-0.3c-0.1-0.1-0.2-0.1-0.3-0.1c0,0,0-0.1,0-0.1
			c0.1-0.1,0.3-0.1,0.5-0.2c0,0-0.1,0-0.1-0.1c0,0,0-0.1,0-0.1c0-0.1,0.2-0.1,0.3-0.2c0,0.6,0,1.2,0,1.9c0.1,0.1,0.2,0.1,0.3,0.3
			c-0.1,0-0.1,0-0.1,0.1c-0.1,0-0.1,0.1-0.2,0.1c-0.2,0-0.3,0-0.5,0c0,0.1-0.1,0.1-0.1,0.2c0,0.1,0,0.2,0,0.3
			c-0.2,0.1-0.1,0.5-0.1,0.8c0,0.8,0,1.6,0,2.4c0.1,0,0.1,0,0.1,0.1c-0.1,0.1,0,0.5-0.1,0.6c-0.1,0-0.1,0-0.1,0.1
			c0,0.1,0.1,0.2,0.1,0.2c0,0-0.1,0-0.1,0c0,1.4,0,2.8,0,4.1c0,0,0.1,0,0.1,0.1c0,0.1,0,0.2,0,0.3c0.1,0.2,0.1,0.1,0.1,0.4
			c0.5-0.2,1.6-0.5,1.5-1.1c-0.1,0-0.1,0-0.1-0.1c0,0,0-0.1,0-0.1c0-0.1,0.1,0,0.1-0.1c0,0,0,0,0,0c-0.1,0-0.3-0.1-0.4-0.1
			c0-0.1,0-0.1,0-0.1c0.1-0.1,0.3-0.1,0.4-0.2c0-0.2,0.1-0.2,0.1-0.3c0.1-0.3-0.3-0.7-0.2-0.9c0.1-0.2,0.3-0.4,0.4-0.6c0,0,0,0,0,0
			c0.1,0.2,0.2,0.4,0.3,0.6c-0.1,0.2-0.1,0.4-0.2,0.6c0,0.2,0.1,0.4,0.1,0.6c0.1,0,0.3,0.1,0.4,0.2c0,0,0,0.1,0,0.1
			c-0.1,0.1-0.4,0.1-0.5,0.2c0.1,0,0.1,0,0.1,0.1c0,0,0,0.1,0,0.1c-0.3,0.1,0,0.7,0.2,0.7c1.4,0.3,2.9,1.5,2.9,3c0.1,0,0.2,0,0.3,0
			c0.1-0.6,0.8-0.6,0.9,0c0.1,0,0.1,0,0.2,0c0,0.1,0,0.2,0,0.3c-0.3,0-0.3,0.3-0.2,0.5c0.1,0,0.1,0,0.3,0c0.3-0.1,0.2-0.4,0.3-0.5
			c0,0,0,0,0,0c0,0.1,0.1,0.1,0.1,0.2c0,0.1,0,0.2,0,0.3c0.1,0,0.3,0.1,0.4,0c0.2-0.2,0-0.4-0.2-0.5c0-0.1,0-0.2,0-0.3
			c0.1,0,0.1,0,0.2,0c0-0.2,0.1-0.4,0.4-0.5c0,0.6,0,1.2,0,1.7c0,0,0,0,0,0c0.1,0,0.2,0.1,0.2,0.1c0,0.1,0,0.1,0,0.2
			c-0.1,0.2-0.5,0.1-0.6,0.3c0,0.1,0.1,0.2,0.1,0.3c0,0,0,0,0,0c0,0-0.1,0-0.1,0c0,0,0,0,0,0.1c0,0-0.1,0-0.1,0c0,0.1,0,0.2,0.1,0.3
			c0,1.6,0,3.3,0,4.9c0,0.3,0,0.6,0,0.8c0,0,0,0.1,0,0.1c-0.1,0.1-0.1,0.1-0.2,0.2c-0.1,0.2,0.1,0.5-0.2,0.7c-0.1,0-0.1,0-0.2,0
			c0,0,0,0,0,0c0,0.5,0,0.9,0,1.4c0,1.1,0,2.2,0,3.3c0,0.1,0.1,0.1,0.1,0.3c0.1,0,0.2,0,0.2,0c0,0.1,0,0.2,0,0.3
			c0.1,0,0.2,0.1,0.3,0.1c0,0.2,0,0.4,0,0.5c0,0.1-0.1,0.1-0.1,0.2c0,0.1,0.1,0.1,0.1,0.2c0,0.2,0,0.3,0,0.5c0.3,0,0.8,0,0.9,0.1
			c0,0,0,0,0,0c0,0,0,0,0,0c0,0,0,0-0.1,0c0,0,0,0.1,0,0.1c-0.2,0-0.8,0.3-0.6,0.6c0.1,0.1,0.1,0.2,0.1,0.4
			c-0.1,0.3-0.3,0.4-0.6,0.6c0.1,0.1,0,0.2,0,0.3c2.8,0,5.7,0,8.5,0c0,0.2,0,0.5,0,0.7c0.8,0,1.6,0,2.5,0c0,0.2,0,0.5,0,0.7
			c0.8,0,1.6,0,2.5,0c0,0.2,0,0.5,0,0.7c-22.3,0-44.5,0-66.8,0c0-0.2,0-0.5,0-0.7c0.8,0,1.6,0,2.5,0c0-0.2,0-0.5,0-0.7
			c0.8,0,1.6,0,2.5,0c0-0.2,0-0.5,0-0.7c2.8,0,5.7,0,8.5,0c0-0.1,0-0.3,0-0.4c-0.3-0.1-0.6-0.4-0.6-0.8c0-0.1,0.1-0.1,0.1-0.2
			c0.2-0.3-0.4-0.6-0.6-0.6c0,0,0-0.1,0-0.1c0,0-0.1,0-0.1,0c0,0,0,0,0,0c0.2-0.1,0.6-0.1,0.9-0.1c0-0.2,0-0.3,0-0.5
			c0,0,0.1-0.1,0.1-0.2c0-0.1-0.1-0.1-0.1-0.2c0-0.2,0-0.4,0-0.5c0.1,0,0.2-0.1,0.3-0.1c0-0.1,0-0.2,0.1-0.3c0.1,0,0.1,0,0.2,0
			c0-0.1,0.1-0.2,0.1-0.3c0-0.5,0-0.9,0-1.4c0-0.6,0-1.2,0-1.7c0-0.3,0-0.7,0-0.9c0-0.2,0-0.4,0-0.6c-0.1,0-0.1,0-0.2,0
			c-0.3-0.1-0.1-0.4-0.2-0.7c-0.1-0.1-0.1-0.1-0.2-0.2c0-0.1,0-0.1,0-0.2c0-0.3,0-0.6,0-0.8c0-1.6,0-3.3,0-4.9
			c0-0.1,0.1-0.1,0.1-0.3c0,0-0.1,0-0.1,0c0,0,0,0,0-0.1c0,0-0.1,0-0.1,0c0,0,0,0,0,0c0-0.1,0.1-0.2,0.1-0.3
			c-0.1-0.2-0.4-0.2-0.6-0.3c0-0.2,0.1-0.3,0.3-0.3c0-0.6,0-1.2,0-1.8c0.3,0,0.4,0.2,0.4,0.5c0.1,0,0.1,0,0.2,0c0,0.1,0,0.2,0,0.3
			c-0.2,0-0.3,0.2-0.2,0.4c0.1,0.1,0.4,0.1,0.5,0c0.1-0.2,0-0.3,0.1-0.4c0,0,0,0,0,0c0.1,0.2,0.1,0.5,0.3,0.5c0.1,0,0.2,0,0.3-0.1
			c0.1-0.2,0-0.4-0.2-0.5c0-0.1,0-0.2,0-0.3c0.1,0,0.1,0,0.2,0c0-0.2,0.1-0.4,0.3-0.5c0.3-0.1,0.5,0.2,0.5,0.4c0.1,0,0.2,0,0.3,0
			c0-1.1,0.9-2.1,1.7-2.6c0.3-0.1,0.5-0.2,0.8-0.4c0.5-0.2,0.7-0.2,0.7-0.8c-0.1,0-0.1,0-0.1-0.1c0,0,0-0.1,0-0.1c0,0,0.1,0,0.1,0
			c0,0,0,0,0,0c-0.2,0-0.4-0.1-0.5-0.1c0-0.1,0-0.1,0.1-0.2c0.1,0,0.2-0.1,0.4-0.1c0-0.3,0.1-0.4,0.1-0.6c-0.1-0.2-0.1-0.4-0.2-0.5
			c0.1-0.2,0.2-0.4,0.3-0.6c0,0,0,0,0,0c0.1,0.2,0.2,0.4,0.4,0.6c0.1,0.2-0.3,0.6-0.2,0.9c0,0,0.1,0.1,0.1,0.1c0,0.1,0,0.2,0,0.2
			c0.1,0.1,0.3,0.1,0.4,0.2c0,0.1,0,0.1,0,0.1c-0.1,0-0.3,0.1-0.4,0.1c0,0,0,0,0,0c0.1,0,0.1,0,0.1,0.1c0,0,0,0.1,0,0.1
			c0,0-0.1,0-0.1,0c-0.1,0.7,1,0.9,1.5,1.1c0-0.3,0-0.2,0.1-0.4c0-0.1,0-0.2,0-0.3c0,0,0.1,0,0.1-0.1c0-0.9,0-1.9,0-2.8
			c0-0.4,0-0.9,0-1.3c0,0-0.1,0-0.1-0.1c0.1-0.1,0.1-0.2,0.1-0.3c-0.1,0-0.1,0-0.1-0.1c-0.1-0.2,0-0.3,0-0.5c0,0-0.1,0-0.1-0.1
			c0.1,0,0,0,0.1,0c0-0.8,0-1.6,0-2.4c0-0.3,0.1-0.7-0.2-0.9c0-0.2,0.1-0.3-0.1-0.4c-0.2,0-0.3,0-0.5,0c-0.1,0-0.1-0.1-0.2-0.1
			c0-0.1,0-0.1-0.1-0.1c0.1-0.1,0.2-0.2,0.3-0.2c0-0.6,0-1.2,0-1.8c0.1,0,0.2,0.1,0.3,0.2c0,0.1,0,0.1-0.1,0.1c0,0,0,0,0,0
			c0.2,0,0.4,0.1,0.5,0.2c0,0.1,0,0.1-0.1,0.1c-0.1,0-0.2,0-0.3,0.1c-0.1,0.1-0.1,0.3,0,0.4c0.1,0,0.2,0.1,0.3,0
			c0,0.1,0,0.1,0.1,0.2c0.1,0,0.3,0,0.4,0c0-0.1,0-0.1,0-0.2c0.3,0,0.5-0.2,0.3-0.4c-0.1-0.1-0.3-0.1-0.3-0.1
			c0.1-0.2,0.2-0.1,0.4-0.2c-0.1,0-0.1-0.1-0.1-0.1c0.1-0.1,0.2-0.1,0.3-0.2c0.1,0.1,0.3,0.1,0.4,0.2c0,0.1,0,0.1-0.1,0.2
			c0.1,0.1,0.3,0.1,0.4,0.2c0,0,0,0,0,0.1c-0.1,0-0.3,0-0.3,0.1c-0.1,0.1,0,0.3,0.1,0.3c0.1,0,0.1,0,0.3,0c0,0.1,0,0.2,0.1,0.2
			c0.1,0.1,0.3,0.1,0.4,0c0,0,0-0.1,0-0.2c0.2,0,0.3-0.1,0.4-0.2c0-0.1,0-0.2-0.1-0.3c-0.1,0-0.2,0-0.4-0.1c0,0,0-0.1,0-0.1
			c0.1-0.1,0.3-0.1,0.4-0.2c-0.1,0-0.1-0.1,0-0.2c0.1,0,0.2-0.1,0.3-0.1c0.2,0.1,0.5,0.1,0.3,0.4c0.1,0.1,0.3,0.1,0.4,0.2
			c0,0,0,0,0,0c-0.3,0-0.5,0.4-0.2,0.5c0.1,0,0.2,0,0.2,0c0,0.1,0,0.1,0,0.2c0,0,0.1,0,0.1,0.1c0.1,0,0.3,0,0.4,0c0-0.1,0-0.1,0-0.3
			c0.2,0.1,0.4-0.1,0.3-0.3c-0.1-0.1-0.2-0.1-0.3-0.2c0,0,0-0.1,0-0.1c0.1-0.1,0.2-0.1,0.4-0.2c0,0,0,0,0,0c0-0.1,0-0.1,0-0.2
			c0.1-0.1,0.2-0.1,0.3-0.1c0.2,0,0.4,0.1,0.5,0.2c-0.1,0.1-0.1,0.1-0.2,0.1c0,0,0,0,0,0c0.2,0,0.4,0,0.5,0.1c0,0.1,0,0.1,0,0.1
			c0,0,0,0,0,0c-0.2,0.1-0.4,0-0.5,0.2c-0.1,0.1,0,0.2,0.1,0.3c0,0,0.1,0,0.1,0c0.2-0.1,0.2-0.1,0.4-0.2c0,0,0,0,0,0c0,0,0,0,0,0
			c-0.1,0.1-0.3,0.1-0.2,0.2c0.1,0.2,0.5,0.2,0.7,0.2c0-0.4,0-0.8,0-1.2c0.1,0,0.1,0,0.2-0.1c0-2.2,0-4.3,0-6.5c0-0.9,0-1.8,0-2.7
			c0,0-0.2,0-0.2,0c-0.1-0.1-0.1-0.1-0.2-0.2c-0.1-0.1-0.3-0.2-0.4-0.3c0-0.1,0-0.2,0-0.2c0.1,0,0.1,0,0.2,0c0.1,0,0.1,0.1,0.1,0.2
			c0.1-0.1,0.2-0.1,0.2-0.2c0,0.1,0,0.1-0.1,0.2c0.1,0,0.1,0,0.2,0c0,0,0,0.1-0.1,0.1c0,0,0,0.1,0.1,0.1c-0.1,0-0.3-0.2-0.4-0.1
			c0.1,0.1,0.3,0.3,0.5,0.3c0-0.2,0-0.4,0-0.7c-0.3,0-0.6,0-0.8-0.1c0-0.7,0-1.4,0-2c0,0-0.1,0-0.1,0c0,0,0-0.1,0-0.1
			c0.3,0,0.6,0,0.9,0c0-0.7,0.1-1.7,0-2.4c0-0.1,0.1-0.1,0-0.1c0-0.2-0.1-0.3-0.2-0.5c0-0.8,0-1.5,0-2.3c0.1,0,0.1,0,0.2,0
			c0-4,0-8,0-12c0,0,0,0-0.1,0c-0.1-0.2-0.1-0.5-0.1-0.9c-0.1,0-0.2,0-0.2,0c0,0-0.1-0.1-0.1-0.1c0.3-0.3-0.3-0.8-0.5-1
			c0-0.3,0-0.6,0-1c0-0.1,0.1-0.2,0.1-0.3c0,0-0.1,0-0.1,0c0-0.3,0-0.5,0-0.8c0,0,0.1,0,0.1,0c0-0.1,0-0.2,0-0.2c0,0-0.1,0-0.1,0
			c0-2.1,0-4.2,0-6.3c0,0,0.1,0,0.1,0c0-0.1,0-0.1,0-0.2c0,0-0.1,0-0.1,0c0-0.3,0-0.5,0-0.8c0,0-0.1-0.1-0.2-0.2
			c0-0.1,0-0.1,0.1-0.1c0.1,0,0.2-0.1,0.2-0.1c0-0.4-0.3-0.6-0.7-0.7c0,0,0-0.1,0-0.1c-0.1,0-0.1,0-0.2,0c0,0,0-0.1,0-0.1
			c0.1-0.1,0.2-0.1,0.4-0.2c0-0.6,0-1.2,0-1.8c0.1,0,0.2,0,0.3,0c0,0.1-0.1,0.3-0.1,0.4c0.1,0,0.1,0,0.2,0c0,0.1,0,0.3-0.1,0.4
			c0.1,0,0.1,0,0.2,0c0,0.1-0.1,0.3-0.1,0.4c0.3,0,0.5,0,0.8,0c0-0.1,0-0.3-0.1-0.4c0.1,0,0.1,0,0.2,0c0-0.1-0.1-0.3-0.1-0.4
			c0,0,0,0,0,0c0.1,0,0.1,0,0.2,0c0-0.1-0.1-0.3-0.1-0.4c0.1,0,0.3,0,0.4,0c0,0,0.1-0.1,0.1-0.1c0.2,0,0.5,0,0.6,0
			c0.1-0.1,0.2-0.3,0.4-0.4c0.1,0,0.3,0,0.4,0c0-0.7,0-1.3,0-2c0-0.3,0-0.8,0-1.1c0-0.1,0.1-0.6,0.1-0.7c0,0-0.1,0-0.1,0
			c0,0,0,0,0-0.1c0,0-0.1,0-0.1,0c0,0,0,0,0-0.1c0,0,0,0-0.1,0c0,0,0,0,0-0.1c0.1,0,0.2,0,0.3,0c0-1,0-2,0-3c0,0-0.1,0-0.1,0
			c0-0.6-0.1-0.7-0.8-0.9c0-0.2,0.2-0.3,0.4-0.4c0-0.6,0-1.2,0-1.8c0,0,0,0,0,0c0.1,0.1,0.2,0.2,0.3,0.4c0,0.1-0.1,0.2-0.1,0.2
			c0,0.1,0.1,0.1,0.1,0.2c0.1,0.2,0,0.3,0.3,0.4c0.3-0.1,0.2-0.5,0.2-0.9c0.3,0,0.5,0,0.8,0c0-1.3,0.7-2.2,1.6-2.7
			c0.6-0.4,1.5-0.4,1.5-1.2c0,0-0.1,0-0.1-0.1c0-0.1,0.1-0.1,0.1-0.2c0,0,0-0.1,0-0.1c-0.3,0-0.6-0.5-0.3-0.7c-0.1,0-0.1,0-0.1-0.1
			c0.1,0,0.3-0.1,0.4-0.1c0,0,0-0.1,0-0.1c-0.1,0-0.1,0-0.2-0.1c0,0,0,0,0,0c0.1-0.1,0.1,0,0.2-0.1c-0.5-0.6,0-0.4,0-0.9
			c-0.1,0-0.2,0-0.3-0.1c0-0.2,0.2-0.1,0.3-0.3c0,0,0,0,0,0c-0.1,0-0.2-0.1-0.3-0.1c0-0.2,0.2-0.2,0.3-0.3c0-0.9,0-1.7,0-2.6
			c-0.3-0.1-0.6-0.5-0.3-0.7c-0.1,0.2,0,0.7,0.4,0.6c0.3-0.1,0.4-0.3,0.3-0.6c0,0,0,0,0.1,0c0.1,0.3,0,0.6-0.4,0.7
			c0,0.9,0,1.7,0,2.6c0.1,0.1,0.2,0.1,0.3,0.3c-0.1,0.1-0.1,0.1-0.3,0.1c0,0,0,0.1,0,0.1c0.1,0,0.2,0,0.2,0.1c0,0,0,0.1,0,0.2
			c0,0.1-0.1,0.1-0.2,0.1c0,0.2,0.3,0.3,0.3,0.5c0,0.2-0.2,0.3-0.3,0.5c0.1,0,0.1,0,0.2,0.1c0,0,0,0,0,0.1c-0.1,0-0.1,0-0.1,0.1
			c0.1,0,0.3,0.1,0.4,0.1c0,0,0,0,0,0c0,0.1-0.1,0.1,0,0.1c0.1,0.3,0,0.6-0.3,0.7c0,0.1,0,0.1,0.1,0.2c0,0.1-0.1,0.1-0.1,0.2
			c0.1,0.2,0.1,0.4,0.2,0.6c0.1,0.1,0.4,0.2,0.6,0.3c0.3,0.1,0.5,0.3,0.8,0.4C109.7,17.6,110.3,18.4,110.3,19.6z"/>
		<g>
			<path class="st3" d="M95.8,86.3c0.2,0,0.5,0,0.7,0c0-0.1,0-0.3,0-0.4c0.2-0.1,0.1-0.2,0.1-0.4c0.1,0,0.1,0,0.2,0
				c0-0.1,0-0.1,0.1-0.1c0-1.5,0-3.2,0-4.4c0,0,0,0,0,0c-0.1,0-0.1,0-0.1,0c0-0.1,0-0.1-0.1-0.1c-0.1,0-0.1,0-0.2,0
				c0-0.2,0-0.3,0-0.5c0,0-0.1-0.1-0.1-0.1c0,0,0,0,0.1,0c0-0.1-0.1-0.2-0.1-0.3c0.1,0,0.2-0.1,0.3-0.2c0.2-0.4-0.2-0.5-0.4-0.7
				c0,0,0,0,0,0c0.4-0.2,0.6-0.7,0.1-0.9c-0.3,0.1-0.6,0.4-0.5,0.8c0,0.1,0.1,0.1,0.2,0.2c-0.2,0.1-0.5,0.4-0.3,0.7
				c0.1,0.1,0.2,0.1,0.3,0.2c0,0.1-0.1,0.2-0.1,0.3c0,0,0.1,0,0.1,0C96,80.4,96,80.7,96,80.9c-0.1,0-0.1,0-0.2,0
				c0,0.1-0.1,0.3-0.1,0.4c0,1,0,1.9,0,2.9c0,0.4,0,0.8,0,1.3C95.8,85.7,95.8,86,95.8,86.3z"/>
			<path class="st3" d="M98,85.5c0,0.1,0,0.2,0,0.3c0.1,0,0.1,0,0.2,0.1c0,0.1,0,0.2,0,0.4c0.2,0,0.3,0,0.5,0c0-0.1,0-0.2,0-0.4
				c0.1,0,0.1-0.1,0.2-0.1c0-0.1,0-0.2,0-0.3c0.1,0,0.1,0,0.2,0c0-0.1,0-0.1,0.1-0.1c0-1.5,0-3.2,0-4.5c0,0,0,0,0,0c0,0-0.1,0-0.1,0
				c0,0,0-0.1-0.1-0.1c-0.1,0-0.2,0-0.2,0c-0.1-0.2,0-0.3,0-0.5c-0.1,0-0.1,0-0.1-0.1c0,0,0,0,0.1,0c0-0.1-0.1-0.3-0.1-0.3
				c0.7-0.4,0.2-0.6-0.2-0.9c0,0,0,0,0,0c0.5-0.3,0.5-0.6,0.1-0.9c-0.3,0.1-0.7,0.5-0.5,0.8c0,0.1,0.1,0.1,0.1,0.2
				c-0.1,0.1-0.2,0.1-0.3,0.2c-0.2,0.2,0,0.6,0.3,0.7c0,0.1,0,0.2-0.1,0.3c0,0,0.1,0,0.1,0c-0.1,0.2-0.1,0.3-0.1,0.6
				c-0.1,0-0.1,0-0.2,0c-0.2,0.8-0.1,1.9-0.1,2.9c0,0.6-0.1,1.3,0,1.8C97.9,85.5,97.9,85.5,98,85.5z"/>
			<path class="st3" d="M114.8,85.5c0,0.1,0,0.2,0,0.3c0.1,0,0.1,0.1,0.2,0.1c0,0.1,0,0.2,0,0.4c0.2,0,0.3,0,0.5,0
				c0-0.1,0-0.3,0-0.4c0,0,0.1-0.1,0.1-0.1c0-0.1,0-0.2,0-0.3c0.1,0,0.1,0,0.2,0c0.1-0.4,0-0.9,0-1.3c0-0.8,0-1.5,0-2.3
				c0-0.4,0.1-1.1-0.3-1.1c0-0.2,0-0.4-0.1-0.6c0,0,0.1,0,0.1,0c0-0.1,0-0.2-0.1-0.3c0.3-0.1,0.4-0.4,0.3-0.7
				c-0.1-0.1-0.2-0.1-0.3-0.2c0.3-0.5,0.1-0.7-0.3-1c-0.1,0-0.2,0.1-0.2,0.2c-0.3,0.4,0,0.5,0.3,0.8c0,0,0,0,0,0.1
				c-0.4,0.1-0.6,0.7-0.1,0.9c0,0.1-0.1,0.2-0.1,0.3c0,0,0,0,0.1,0c0,0,0,0,0,0c0,0-0.1,0.1-0.1,0.1c0,0.1,0.1,0.3,0,0.5
				c-0.1,0-0.2,0-0.2,0c0,0,0,0.1-0.1,0.1c0,0-0.1,0-0.1,0c0,1.2,0,3,0,4.4c0.1,0,0.1,0,0.1,0.1C114.6,85.5,114.7,85.5,114.8,85.5z"
				/>
			<path class="st3" d="M116.8,85.5c0,0.1,0,0.3,0,0.3c0,0,0.1,0,0.1,0.1c0,0.1,0,0.2,0,0.4c0.2,0,0.5,0,0.7,0c0-0.3,0-0.6,0.1-0.9
				c0-1,0-1.9,0-2.9c0-0.6,0.1-1.3-0.1-1.7c-0.1,0-0.1,0-0.2,0c0-0.2,0-0.4-0.1-0.6c0,0,0.1,0,0.1,0c0,0,0,0,0,0
				c0-0.1-0.1-0.2-0.1-0.3c0.2-0.1,0.5-0.4,0.3-0.7c-0.1-0.1-0.2-0.1-0.3-0.2c0-0.1,0.1-0.1,0.1-0.2c0.2-0.4-0.2-0.7-0.5-0.8
				c-0.6,0.3-0.2,0.7,0.1,1c-0.1,0.2-0.6,0.3-0.4,0.7c0.1,0.1,0.1,0.2,0.3,0.3c0,0.1-0.1,0.2-0.1,0.3c0.1,0,0.1,0,0.1,0
				c0,0-0.1,0.1-0.1,0.1c0.1,0.1,0,0.3,0,0.4c0,0,0,0-0.1,0.1c-0.1,0-0.1,0-0.2,0c0,0,0,0.1,0,0.1c0,0-0.1,0-0.1,0c0,1.3,0,3,0,4.4
				c0.1,0,0.1,0,0.1,0.1C116.7,85.5,116.8,85.5,116.8,85.5z"/>
			<path class="st3" d="M88.2,98c0,1,0,2.1,0,3.3c0,0.5,0,1,0,1.5c0,0.1,0.1,0.1,0.1,0.3c0.2,0,0.2,0,0.3,0.1c0,0.1,0,0.2,0,0.2
				c0.2,0,0.3,0,0.5,0c0-0.1,0-0.2,0-0.3c0.1,0,0.2,0,0.3,0c0-0.4,0.2-0.4,0.4-0.5c0.2,0,0.3,0.2,0.5,0.3c0,0.1,0,0.2,0,0.3
				c0.1,0,0.2,0,0.3,0c0,0.1,0,0.2,0,0.3c0.5,0,0.9,0,1.4,0c0-0.2,0-0.2,0.1-0.3c0.1,0,0.1,0,0.2,0c-0.1-0.1,0-0.1,0.1-0.2
				c0,0,0,0,0,0c0-0.4,0-0.8,0-1.2c-0.6-0.1-1.1-0.5-1.4-0.9c0-0.1,0-0.1,0-0.1c0.1,0,0.3,0,0.4,0c0.1,0,0.2,0,0.3,0
				c0.1,0,0.2,0,0.3,0.1c0.1,0,0.3-0.1,0.4-0.1c0-0.8,0.1-1.8-0.1-2.3c-0.2,0-0.2,0-0.3-0.1c0-0.2-0.1-0.5-0.1-0.6
				c0.1,0,0.1,0,0.1-0.1c0,0-0.1-0.1-0.1-0.1c0,0,0,0,0-0.1c0.1,0,0.2,0,0.3,0c-0.1-0.1-0.1-0.3-0.2-0.4c0-0.2,0.1-0.4,0.1-0.6
				c0.1-0.4,0-0.8-0.1-1.1c-0.3-1-0.9-1.4-1.6-2c-0.9,0.4-2.3,1.6-1.8,2.9c0.1,0.3,0.3,0.5,0.5,0.7c-0.1,0.2-0.1,0.3-0.2,0.5
				c0.1,0,0.2,0,0.2,0c0,0,0,0,0,0c-0.1,0-0.1,0.6-0.2,0.8C88.5,98,88.4,98,88.2,98z"/>
			<path class="st3" d="M121.9,97.2C121.9,97.2,121.9,97.2,121.9,97.2c-0.1,0.1-0.2,0.2-0.1,0.3c0.1,0,0,0,0.1,0
				c0,0.1,0,0.1-0.1,0.2c0,0.1,0,0.3,0,0.4c-0.1,0.1-0.2,0-0.3,0.1c-0.1,0.1,0,0.4,0,0.5c-0.1,0.5-0.1,1.2-0.1,1.8
				c0.2,0,0.3,0.1,0.4,0.1c0.1,0,0.2,0,0.3-0.1c0.1,0,0.7,0,0.7,0c0,0,0,0.1,0,0.1c-0.1,0.1-0.3,0.2-0.4,0.4c-0.3,0.2-0.6,0.4-1,0.5
				c0,0.2,0,1.2,0,1.3c0.1,0.1,0.1,0.1,0.1,0.2c0,0,0,0,0,0c0.2,0,0.2,0,0.3,0.1c0,0.1,0,0.2,0,0.2c0.5,0,0.9,0,1.4,0
				c0-0.1,0-0.2,0-0.3c0.1,0,0.2,0,0.2,0c0,0,0,0,0,0c-0.1-0.1,0-0.2,0-0.3c0.1,0,0.3-0.2,0.4-0.2c0.2,0.1,0.4,0.2,0.4,0.5
				c0.1,0,0.2,0,0.3,0c0,0.1,0,0.2,0,0.3c0.2,0,0.3,0,0.5,0c0-0.1,0-0.2,0.1-0.3c0.1,0,0.1,0,0.2,0c0-0.1,0.1-0.2,0.1-0.3
				c0-0.5,0-1,0-1.5c0-1.1,0-2.2,0-3.3c-0.1,0-0.3,0-0.4,0c-0.2-0.2,0-0.6-0.2-0.8c0,0,0,0,0,0c0.1,0,0.1,0,0.2,0
				c-0.1-0.2-0.1-0.3-0.2-0.5c0.2-0.1,0.3-0.3,0.4-0.5c0.5-1-0.2-2-0.9-2.5c-0.1-0.1-0.8-0.6-0.9-0.5c-0.2,0.1-0.4,0.3-0.5,0.4
				c-0.6,0.6-0.9,1.1-1.1,2.1c-0.1,0.3,0,0.6,0.1,0.8c0,0.1,0.1,0.2,0.1,0.3c-0.1,0.1-0.1,0.3-0.2,0.4
				C121.7,97.2,121.8,97.2,121.9,97.2z"/>
		</g>
	</g>
</g>
</svg>
