<?xml version="1.0" encoding="utf-8"?>
<!-- Generator: Adobe Illustrator 16.0.0, SVG Export Plug-In . SVG Version: 6.00 Build 0)  -->
<!DOCTYPE svg PUBLIC "-//W3C//DTD SVG 1.1//EN" "http://www.w3.org/Graphics/SVG/1.1/DTD/svg11.dtd">
<svg version="1.1" id="Layer_1" xmlns="http://www.w3.org/2000/svg" xmlns:xlink="http://www.w3.org/1999/xlink" x="0px" y="0px"
	 width="216px" height="188px" viewBox="0 0 216 188" enable-background="new 0 0 216 188" xml:space="preserve">
<g>
	<path d="M151.79,103.55c-0.391-0.251-0.459-0.537-0.455-0.846c0-0.178,0.029-0.357,0.066-0.529
		c0.227-0.998,0.141-1.959-0.178-2.938c-0.182-0.554-0.223-1.165-0.26-1.755c-0.043-0.654,0.012-1.314-0.021-1.972
		c-0.014-0.329-0.086-0.673-0.201-0.983c-0.156-0.426-0.586-0.672-0.99-0.623c-0.426,0.053-0.684,0.326-0.779,0.723
		c-0.086,0.367-0.109,0.748-0.188,1.117c-0.096,0.465-0.164,0.946-0.344,1.377c-0.242,0.593-0.545,0.604-0.934,0.102
		c-0.084-0.109-0.158-0.225-0.26-0.372c-0.477,0.502-0.906,0.909-1.287,1.358c-0.506,0.609-1.068,1.201-1.438,1.891
		c-0.424,0.789-1.029,1.401-1.582,2.069c-1.098,1.334-2.193,2.672-3.287,4.015c-0.713,0.878-1.396,1.785-2.129,2.648
		c-1.139,1.352-2.273,2.713-3.477,4.009c-1.066,1.147-2.191,2.232-3.645,2.937c-0.74,0.365-1.395,0.913-2.066,1.406
		c-1.227,0.898-2.473,1.752-4.037,1.928c-0.604,0.069-1.177,0.162-1.643,0.588c-0.819,0.09-1.609,0.439-2.451,0.287
		c-0.057-0.012-0.104-0.06-0.116-0.068c0.026-0.389,0.066-0.75,0.066-1.113c0-0.233-0.161-0.383-0.394-0.338
		c-0.287,0.051-0.578,0.128-0.846,0.236c-0.217,0.09-0.4,0.265-0.618,0.357c-0.507,0.213-0.849,0.023-0.968-0.508
		c-0.038-0.17-0.074-0.336-0.121-0.555c-1.633,0.391-3.239,0.615-4.93,0.592c0.072-0.528-0.205-0.901-0.566-1.275
		c-0.957,0.054-1.835,0.498-2.748,0.779c0.053,0.23,0.176,0.447,0.124,0.617c-0.054,0.191-0.25,0.347-0.409,0.493
		c-0.16,0.144-0.346,0.269-0.527,0.386c-0.116,0.077-0.25,0.121-0.373,0.182c-0.225-0.135-0.428-0.302-0.658-0.383
		c-0.361-0.122-0.426-0.373-0.418-0.695c0.014-0.248,0.004-0.495,0.004-0.832c-0.797,0.316-1.695,0.26-1.937,1.313
		c-0.267,0.039-0.534,0.105-0.808,0.105c-0.732,0.002-1.47-0.019-2.205-0.037c-0.695-0.015-1.39-0.057-2.086-0.051
		c-1.325,0.01-2.483,0.473-3.492,1.383c-0.46-0.227-0.904-0.122-1.358,0.09c-0.412,0.191-0.839,0.388-1.277,0.482
		c-0.8,0.171-0.926-0.015-0.885-0.661c0.007-0.054-0.018-0.114-0.042-0.249c-0.295-0.067-0.615-0.199-0.939-0.209
		c-0.371-0.008-0.526-0.178-0.631-0.498c-0.248-0.758-0.493-1.514-0.782-2.254c-0.137-0.346-0.365-0.66-0.566-0.973
		c-0.251-0.396-0.574-0.598-1.096-0.516c-0.311,0.047-0.687-0.051-0.977-0.197c-1.403-0.699-1.465-0.968-0.824-2.287
		c0.165-0.337,0.35-0.672,0.472-1.027c0.059-0.166,0.059-0.408-0.018-0.561c-0.412-0.791-0.854-1.567-1.296-2.343
		c-0.211-0.38-0.427-0.556-0.878-0.741c0,0.434-0.03,0.842,0.006,1.251c0.082,0.917,0.108,1.824-0.203,2.714
		c-0.05,0.14,0.012,0.358,0.1,0.486c0.113,0.176,0.304,0.302,0.501,0.483c-0.254,0.433-0.525,0.886-0.819,1.376
		c-0.704-0.588-1.692-0.665-2.106-1.576c-0.319,0.117-0.422,0.344-0.525,0.576c-0.165,0.363-0.43,0.604-0.914,0.705
		c0.17-1.036-0.529-1.564-1.179-2.072c-0.537-0.418-1.002-0.838-1.113-1.543c-0.018-0.113-0.075-0.251-0.159-0.313
		c-0.325-0.241-0.454-0.681-0.907-0.8c-0.479-0.129-0.395-0.579-0.403-0.818c-0.442-0.352-0.813-0.641-1.173-0.937
		c-0.193-0.159-0.358-0.134-0.591,0.157c-0.197,0.252-0.394,0.447-0.77,0.309c-0.399-0.962-0.385-2.061-0.938-3.08
		c-0.354,0.555-0.704,1.07-1.463,0.664c0.072-0.945-0.364-1.787-0.698-2.656c-0.162-0.427-0.333-0.852-0.295-1.307
		c1-0.738,1.125-1.688,0.254-2.594c-0.418-0.43-0.528-0.838-0.501-1.404c0.085-1.708-0.213-3.369-0.762-4.986
		c-0.089-0.262-0.122-0.469,0.06-0.717c0.234-0.318,0.254-0.706,0.18-1.09c-0.084-0.428-0.195-0.854-0.27-1.284
		c-0.059-0.346-0.113-0.704,0.162-1.095c0.466,0.511,0.89,0.996,1.243,1.542c0.942,1.475,1.856,2.965,2.823,4.424
		c0.752,1.129,1.636,2.151,2.797,2.897c0.144,0.093,0.29,0.223,0.368,0.37c0.594,1.125,1.438,2.041,2.36,2.898
		c0.773,0.717,1.549,1.426,2.308,2.155c0.636,0.608,1.17,1.302,1.595,2.074c0.131,0.239,0.307,0.382,0.546,0.514
		c1.271,0.696,2.534,1.409,3.788,2.14c0.391,0.227,0.752,0.514,1.11,0.795c0.326,0.252,0.648,0.385,1.039,0.157
		c0.063-0.038,0.152-0.023,0.251-0.038c0.053,0.086,0.119,0.161,0.155,0.248c0.232,0.536,0.662,0.838,1.207,0.981
		c0.593,0.161,1.189,0.316,1.791,0.448c0.805,0.176,1.524,0.558,2.262,0.904c0.68,0.322,1.364,0.646,2.078,0.877
		c1.935,0.621,3.938,0.943,5.934,1.29c2.344,0.406,4.7,0.597,7.069,0.507c1.707-0.063,3.412-0.211,5.119-0.311
		c1.207-0.068,2.262-0.579,3.299-1.134c0.436-0.233,0.898-0.388,1.373-0.311c0.736,0.119,1.256-0.236,1.645-0.746
		c0.332-0.43,0.695-0.562,1.207-0.567c1.086-0.018,2.137-0.227,3.094-0.768c1.209-0.68,2.412-1.379,3.621-2.068
		c0.256-0.146,0.506-0.328,0.785-0.415c0.617-0.193,1-0.603,1.262-1.173c0.063-0.131,0.178-0.263,0.303-0.338
		c1.539-0.931,2.713-2.256,3.869-3.6c0.867-1.008,1.729-2.023,2.766-2.871c0.131-0.104,0.248-0.254,0.328-0.406
		c0.516-0.962,1.016-1.932,1.529-2.896c0.559-1.051,1.164-2.082,1.684-3.154c0.516-1.065,0.797-2.219,0.818-3.397
		c0.014-0.768-0.141-1.54-0.25-2.304c-0.076-0.49-0.211-0.973-0.313-1.459c-0.184-0.91-0.154-1.813-0.006-2.73
		c0.189-1.137,0.332-2.282,0.465-3.427c0.092-0.803,0.336-1.55,0.68-2.274c0.088-0.199,0.18-0.398,0.271-0.597
		c0.398-0.841,0.352-1.69,0.068-2.554c-0.1-0.295-0.156-0.619-0.15-0.93c0.064-2.868,0.145-5.731,0.227-8.597
		c0.004-0.121-0.123-0.385,0.207-0.322c0.016-0.094,0.047-0.191,0.035-0.282c-0.035-0.256-0.088-0.508-0.154-0.864
		c-0.057,0.235-0.09,0.376-0.15,0.617c-0.217-0.522-0.402-0.957-0.582-1.395c-0.984-2.455-1.963-4.91-2.949-7.363
		c-0.229-0.572-0.471-1.14-0.684-1.718c-0.205-0.572-0.496-1.084-0.936-1.501c-0.09-0.082-0.168-0.171-0.248-0.26
		c-0.305-0.332-0.559-0.662-0.682-1.137c-0.152-0.586-0.453-1.144-0.752-1.683c-1.137-2.064-1.918-4.275-2.752-6.469
		c-0.592-1.567-1.258-3.098-2.266-4.45c-0.379-0.506-0.813-0.979-1.271-1.418c-0.898-0.854-1.945-1.518-3.039-2.082
		c-1.074-0.555-2.195-1.026-3.311-1.499c-1.152-0.488-2.343-0.884-3.48-1.403c-1.734-0.791-3.426-1.662-5.148-2.482
		c-1.521-0.725-3.013-1.527-4.695-1.853c-0.863-0.168-1.707-0.478-2.395-1.021c-0.465-0.366-0.946-0.528-1.492-0.627
		c-0.352-0.064-0.693-0.18-1.045-0.242c-0.408-0.07-0.743-0.201-0.943-0.611c-0.116-0.243-0.355-0.339-0.641-0.351
		c-2.393-0.1-4.782-0.09-7.149,0.27c-1.669,0.255-3.329,0.59-4.965,1.004c-2.157,0.548-4.256,1.311-6.271,2.252
		c-1.385,0.645-2.738,1.374-4.05,2.154c-1.125,0.667-2.185,1.448-3.248,2.212c-0.283,0.202-0.499,0.51-0.695,0.801
		c-0.188,0.276-0.395,0.517-0.725,0.569c-0.213,0.032-0.306,0.143-0.394,0.309c-0.684,1.324-1.685,2.406-2.684,3.487
		c-0.732,0.788-1.407,1.618-1.988,2.525c-0.305,0.473-0.362,0.907,0,1.362c0.062,0.08,0.092,0.178,0.151,0.255
		c0.388,0.499,0.287,0.881-0.286,1.303c-0.484,0.355-1.052,0.459-1.639,0.444c-0.137-0.003-0.275-0.027-0.478-0.048
		c-0.029,0.197-0.06,0.382-0.085,0.57c-0.141,1.021-0.412,1.983-1.198,2.727c-0.088,0.083-0.158,0.242-0.148,0.358
		c0.101,1.267-0.313,2.417-0.925,3.469c-0.923,1.583-1.225,3.296-1.325,5.083c-0.087,1.513-0.293,3.008-0.762,4.459
		c-0.086,0.271-0.185,0.503-0.408,0.7c-0.439,0.381-0.428,0.606,0.056,0.914c0.263,0.168,0.316,0.363,0.283,0.649
		c-0.085,0.811-0.227,1.625-0.212,2.435c0.031,1.31,0.17,2.619,0.26,3.928c0.051,0.715,0.092,1.431,0.146,2.143
		c0.017,0.236-0.036,0.424-0.213,0.59c-0.522,0.504-0.623,1.146-0.525,1.819c0.131,0.866,0.301,1.724,0.458,2.585
		c0.128,0.708,0.211,1.411,0.077,2.135c-0.04,0.195,0.093,0.421,0.158,0.688c-0.098,0.041-0.269,0.086-0.409,0.175
		c-0.265,0.17-0.521,0.352-0.764,0.552c-0.127,0.111-0.274,0.252-0.057,0.445c0.036,0.03-0.044,0.194-0.083,0.321
		c0.152,0.071,0.408,0.116,0.298,0.437c-1.424,0.076-1.57,1.294-2.089,2.292c0.334,0.095,0.594,0.167,0.865,0.246
		c-0.026,0.235-0.245,0.25-0.424,0.316c-0.558,0.206-0.686,0.383-0.632,0.973c0.02,0.209-0.048,0.318-0.188,0.456
		c-0.341,0.333-0.664,0.681-0.967,1.046c-0.311,0.367-0.648,0.64-1.162,0.563c-0.2-0.363-0.047-0.625,0.191-0.87
		c0.269-0.274,0.176-0.594,0.078-0.896c-0.098-0.308-0.316-0.485-0.702-0.489c-0.033,0.25-0.06,0.476-0.101,0.795
		c-0.493-0.287-0.726-0.678-0.81-1.153c-0.06-0.35-0.088-0.716-0.05-1.068c0.14-1.342-0.027-2.659-0.234-3.981
		c-0.144-0.901-0.262-1.813-0.283-2.725c-0.054-2.288-0.054-4.577-0.048-6.867c0-0.794,0.09-1.588,0.128-2.384
		c0.016-0.287,0.06-0.534,0.35-0.699c0.141-0.082,0.221-0.27,0.349-0.434c0.209,0.047,0.433,0.098,0.701,0.158
		c0.013-0.166,0.042-0.297,0.033-0.426c-0.08-0.881,0.236-1.636,0.726-2.341c0.466-0.667,0.916-1.345,1.37-2.021
		c0.159-0.239,0.207-0.492,0.183-0.791c-0.03-0.332,0.024-0.672,0.056-1.005c0.051-0.454,0.103-0.909,0.18-1.357
		c0.033-0.184,0.111-0.372,0.211-0.529c0.239-0.375,0.476-0.718,0.292-1.214c-0.05-0.142,0.128-0.383,0.237-0.56
		c0.391-0.645,0.857-1.25,1.182-1.924c0.501-1.035,0.566-2.102-0.159-3.144c0.231-0.085,0.434-0.149,0.627-0.229
		c0.967-0.393,1.448-1.21,1.806-2.115c0.299-0.758,0.528-1.544,0.827-2.3c0.227-0.571,0.486-1.134,0.789-1.666
		c0.28-0.497,0.312-0.594-0.058-1.036c-0.044-0.057-0.14-0.075-0.193-0.1c0.4-0.907,0.767-1.721,1.119-2.541
		c0.293-0.67,0.814-1.115,1.405-1.5c0.081-0.052,0.156-0.115,0.26-0.194c-0.267-0.491,0.048-0.752,0.362-1.057
		c1.056-1.022,2.077-2.083,3.134-3.105c0.999-0.967,2.008-1.926,3.045-2.849c0.533-0.475,1.146-0.853,1.71-1.295
		c0.229-0.182,0.42-0.415,0.626-0.628c0.75-0.781,1.657-1.36,2.537-1.973c0.879-0.617,1.768-1.215,2.654-1.821
		c0.081-0.057,0.191-0.178,0.24-0.157c0.462,0.208,0.683-0.19,0.966-0.385c1.404-0.955,2.872-1.774,4.438-2.422
		c1.195-0.492,2.397-0.963,3.592-1.45c0.349-0.142,0.69-0.302,1.032-0.458c0.696-0.314,1.4-0.489,2.182-0.49
		c0.556-0.002,1.124-0.213,1.663-0.398c0.941-0.323,1.857-0.709,2.857-0.822c1.797-0.206,3.588-0.459,5.4-0.517
		c2.396-0.079,4.763,0.139,7.119,0.588c1.209,0.229,2.441,0.34,3.65,0.576c2.678,0.519,5.299,1.27,7.824,2.295
		c1.578,0.641,3.127,1.379,4.629,2.186c2.084,1.117,4.045,2.442,5.883,3.938c1.41,1.141,2.707,2.397,3.945,3.721
		c0.156,0.165,0.246,0.331,0.246,0.579c0,0.282,0.08,0.565,0.135,0.917c-0.645-0.094-1.33-0.194-2.027-0.294
		c-0.006,0.706,0.039,0.731,1.1,0.692c0.113,0.268,0.223,0.534,0.334,0.789c0.713-0.151,1.369-0.291,2.012-0.428
		c1.514,1.523,2.869,3.1,4.094,4.796c1.059,1.47,1.996,3.011,2.807,4.634c0.982,1.965,1.744,4.01,2.291,6.133
		c0.105,0.415,0.277,0.734,0.662,0.93c0.264,0.13,0.424,0.333,0.506,0.627c0.527,1.833,1.033,3.673,1.604,5.492
		c0.551,1.751,0.918,3.541,1.234,5.342c0.299,1.703,0.607,3.408,0.818,5.123c0.193,1.585,0.195,3.187-0.309,4.73
		c-0.227,0.692-0.566,1.349-0.875,2.069c0.092,0.441,0.244,0.959,0.301,1.488c0.1,0.934-0.203,1.808-0.529,2.666
		c-0.264,0.688-0.539,1.368-0.795,2.058c-0.377,1.015-0.484,2.047-0.135,3.097c0.227,0.677,0.201,1.339,0.027,2.048
		c-0.176,0.726-0.182,1.495-0.215,2.249c-0.1,2.189-0.164,4.376-0.264,6.564c-0.086,1.891-0.311,3.769-0.736,5.613
		c-0.176,0.758-0.4,1.507-0.883,2.135C152.331,103.011,152.056,103.263,151.79,103.55 M84.765,106.831
		c-0.307-0.15-0.552-0.373-0.957-0.207c0.152,0.225,0.31,0.408,0.412,0.625c0.11,0.238,0.173,0.501,0.253,0.748
		c0.242,0.093,0.478,0.183,0.731,0.281C85.443,107.647,84.598,107.397,84.765,106.831 M72.297,102.72
		c0.039,0.219,0.063,0.371,0.092,0.522c0.015,0.075,0.036,0.149,0.069,0.222c0.164,0.385,0.34,0.424,0.656,0.151
		c0.128-0.113,0.257-0.224,0.386-0.34c-0.012-0.197-0.024-0.383-0.036-0.556H72.297z M98.792,117.389
		c0.376-0.018,0.618-0.161,0.723-0.431c0.054-0.131,0.014-0.369-0.077-0.469c-0.12-0.125-0.341-0.223-0.509-0.206
		c-0.098,0.01-0.251,0.245-0.255,0.386C98.661,116.907,98.748,117.149,98.792,117.389 M102.05,117.03
		c-0.019-0.051-0.039-0.104-0.059-0.156c-0.176-0.029-0.348-0.062-0.584-0.104c0.066,0.263,0.113,0.441,0.188,0.729
		C101.786,117.302,101.918,117.167,102.05,117.03"/>
	<path d="M128.411,55.807c0.102,0.49,0.201,0.95,0.285,1.341c0.475,0.148,0.889,0.227,1.26,0.401
		c0.902,0.42,1.189,1.084,0.803,1.998c-0.541,1.27-0.648,2.614-0.822,3.955c-0.174,1.325-0.398,2.639-1.002,3.849
		c-0.096,0.194-0.104,0.488-0.518,0.43c-0.256-0.034-0.531,0.807-0.352,1.15c0.6,1.151,0.188,2.336,0.23,3.545
		c-0.215-0.034-0.367-0.061-0.527-0.086c-0.023,0.062-0.064,0.12-0.055,0.17c0.049,0.273,0.113,0.544,0.162,0.818
		c0.092,0.532-0.074,0.816-0.59,1.017c-0.09,0.034-0.184,0.076-0.279,0.094c-0.445,0.084-0.605,0.362-0.654,0.796
		c-0.291,2.631-1.119,5.073-2.531,7.322c-0.158,0.253-0.199,0.582-0.314,0.926c-0.51-0.017-0.932,0.271-1.32,0.67
		c-0.532,0.538-1.108,1.028-1.667,1.538c-0.165,0.149-0.325,0.343-0.543,0.069c-0.337,0.495-0.647,0.951-0.964,1.408
		c-0.078,0.113-0.15,0.243-0.256,0.325c-0.648,0.492-1.004,1.22-1.5,1.835c-0.408,0.511-0.862,0.984-1.314,1.46
		c-0.338,0.361-0.727,0.679-1.055,1.052c-0.5,0.57-1.195,0.773-1.848,1.046c-1.32,0.549-2.656,1.057-3.997,1.555
		c-0.29,0.109-0.622,0.155-0.931,0.15c-1.297-0.018-2.584-0.201-3.822-0.581c-1.994-0.62-3.925-1.406-5.729-2.48
		c-0.665-0.397-1.333-0.785-1.999-1.181c-1.956-1.161-3.718-2.586-5.488-4c-0.155-0.125-0.292-0.271-0.438-0.402
		c-0.23-0.209-0.37-0.4-0.024-0.65c0.104-0.075,0.11-0.287,0.15-0.44c0.143-0.576,0.281-1.152,0.441-1.805
		c-0.257-0.468-0.546-1.01-0.844-1.549c-1.086-1.958-1.695-4.065-1.958-6.28c-0.075-0.615-0.078-0.615-0.702-0.78
		c-0.775-0.208-0.985-0.574-0.793-1.375c0.054-0.226,0.09-0.458,0.139-0.737c-0.206,0.032-0.352,0.055-0.513,0.081
		c-0.027-0.051-0.068-0.101-0.068-0.151c-0.044-0.774-0.101-1.548-0.113-2.324c-0.003-0.248,0.077-0.514,0.185-0.742
		c0.176-0.39,0.158-0.77,0.047-1.163c-0.077-0.28-0.217-0.433-0.518-0.243c-0.612-1.1-0.961-2.254-1.142-3.463
		c-0.127-0.865-0.237-1.734-0.34-2.603c-0.092-0.817-0.283-1.603-0.636-2.349c-0.28-0.599-0.203-0.978,0.254-1.455
		c0.484-0.505,1.089-0.704,1.817-0.696c0.065-0.243,0.137-0.486,0.19-0.732c0.054-0.253,0.09-0.506,0.132-0.75
		c-0.76-0.646-0.768-0.721-0.188-1.963c-0.415-0.293-0.423-0.727-0.421-1.155c0.657-0.217,0.407-0.776,0.539-1.181
		c-0.033-0.025-0.066-0.049-0.1-0.073c-0.158,0.18-0.316,0.356-0.522,0.593c-0.032-0.181-0.062-0.301-0.075-0.426
		c-0.021-0.258,0.016-0.528-0.059-0.77c-0.174-0.571-0.054-1.096,0.146-1.624c0.145-0.384,0.236-0.72,0.091-1.181
		c-0.198-0.618-0.057-1.301,0.221-1.919c0.057-0.125,0.116-0.253,0.179-0.378c0.164-0.328,0.172-0.368,0.337-0.331
		c0.185,0.042,0.278-0.173,0.525-0.085c0.195,0.069,0.275,0.216,0.455,0.311c0.262-0.215,0.35-0.531,0.43-0.823
		c0.325-1.171,0.683-2.325,1.331-3.371c0.103-0.169,0.099-0.404,0.146-0.607c-0.042-0.017-0.083-0.032-0.125-0.05
		c-0.146,0.27-0.292,0.544-0.462,0.852c-0.078-0.047-0.148-0.096-0.266-0.17c-0.208,0.295-0.427,0.593-0.642,0.891
		c0.108-0.624,0.588-1.155,0.248-1.876c-0.201-0.08-0.376,0.03-0.541,0.289c-0.173,0.271-0.319,0.6-0.806,0.724
		c0.119-0.2,0.17-0.342,0.263-0.439c0.427-0.442,0.689-0.963,0.865-1.543c0.21-0.685,0.414-1.38,1.042-1.831
		c0.069-0.049,0.1-0.16,0.131-0.247c0.033-0.09,0.018-0.235,0.081-0.274c0.598-0.398,0.722-1.146,1.239-1.625
		c0.504-0.47,0.877-1.075,1.335-1.6c0.31-0.357,0.644-0.699,1.002-1.012c1.407-1.224,2.943-2.203,4.717-2.838
		c1.86-0.669,3.756-1.136,5.705-1.46c2.161-0.359,4.322-0.413,6.48-0.167c1.851,0.209,3.698,0.533,5.492,1.083
		c0.797,0.246,1.604,0.49,2.354,0.839c0.915,0.424,1.801,0.922,2.66,1.449c0.639,0.391,1.225,0.876,1.829,1.325
		c1.133,0.84,1.961,1.969,2.875,3.017c0.129,0.146,0.197,0.341,0.289,0.518c0.045,0.086,0.055,0.22,0.125,0.261
		c0.684,0.443,0.963,1.157,1.246,1.861c0.363,0.907,0.742,1.802,1.365,2.58c-0.213,0.115-0.303-0.039-0.391-0.16
		c-0.303-0.397-0.592-0.801-0.891-1.2c-0.09-0.119-0.201-0.224-0.33-0.367c-0.193,0.327-0.105,0.566,0.086,0.795
		c0.084,0.105,0.25,0.251,0.223,0.326c-0.213,0.583,0.225,1.006,0.283,1.553c-0.211-0.275-0.422-0.549-0.668-0.871
		c-0.152,0.38-0.178,0.711-0.072,1.054c0.254,0.837,0.502,1.673,0.773,2.505c0.072,0.213,0.221,0.398,0.363,0.648
		c0.303-0.5,0.711-0.375,1.117-0.337c0.438,0.72,0.738,1.507,0.674,2.397c-0.002,0.081,0.027,0.178-0.008,0.236
		c-0.326,0.521-0.063,0.985,0.121,1.46c0.072,0.187,0.117,0.379,0.178,0.571c0.057,0.191,0.072,0.361-0.033,0.565
		c-0.094,0.181-0.082,0.42-0.102,0.633c-0.027,0.252-0.039,0.506-0.068,0.879c-0.23-0.246-0.379-0.404-0.543-0.582
		c-0.096,0.579-0.066,0.681,0.332,1.173c0.188,0.234,0.014,0.933-0.297,1.194C129.147,54.976,129.132,55.156,128.411,55.807
		 M118.582,87.164c0.136-0.271,0.272-0.623,0.469-0.94c0.354-0.574,0.753-1.124,1.114-1.696c0.354-0.561,0.777-1.042,1.37-1.37
		c0.17-0.094,0.308-0.247,0.45-0.385c0.227-0.221,0.441-0.45,0.783-0.513c0.108-0.022,0.246-0.152,0.285-0.264
		c0.311-0.837,0.672-1.666,0.883-2.529c0.773-3.134,1.156-6.337,1.564-9.532c0.518-4.024,1.029-8.05,1.531-12.074
		c0.135-1.069,0.18-2.137,0.072-3.216c-0.242-2.435-0.438-4.873-0.666-7.311c-0.041-0.455-0.088-0.915-0.205-1.354
		c-0.215-0.784-0.547-1.503-1.445-1.796c-0.029-0.292-0.084-0.587-0.078-0.881c0.014-0.594,0.049-1.191,0.094-1.786
		c0.018-0.211-0.01-0.375-0.162-0.539c-1.212-1.314-2.411-2.641-3.623-3.957c-0.301-0.328-0.466-0.353-0.826-0.115
		c-0.186,0.122-0.344,0.144-0.556,0.113c-0.231-0.033-0.476,0.009-0.712,0c-0.196-0.007-0.428,0.018-0.578-0.077
		c-0.334-0.217-0.678-0.188-1.033-0.163c-0.357,0.025-0.716,0.03-1.07,0.07c-1.322,0.149-2.646,0.305-3.965,0.473
		c-0.986,0.123-1.964,0.305-2.955,0.393c-1.582,0.142-3.172,0.215-4.758,0.348c-0.347,0.028-0.707,0.131-1.016,0.293
		c-0.363,0.189-0.736,0.28-1.131,0.322c-1.068,0.115-2.143,0.201-3.2,0.371c-0.542,0.084-1.099,0.249-1.573,0.51
		c-0.55,0.305-1.009,0.767-1.527,1.139c-0.255,0.184-0.531,0.378-0.827,0.458c-0.788,0.208-1.253,0.727-1.545,1.445
		c-0.577,1.417-0.932,2.873-0.773,4.421c0.017,0.177,0.023,0.362,0,0.535c-0.222,1.516,0.396,2.794,1.124,4.1
		c0.267-0.1,0.522-0.159,0.735-0.289c0.615-0.373,1.194-0.282,1.815-0.004c0.669,0.298,1.356,0.576,2.061,0.774
		c0.979,0.272,1.994,0.37,3.011,0.348c0.914-0.02,1.55,0.358,1.986,1.16c0.168,0.303,0.432,0.563,0.689,0.809
		c0.259,0.247,0.426,0.528,0.418,0.886c-0.019,0.855-0.031,1.712-0.094,2.566c-0.018,0.255-0.137,0.547-0.301,0.743
		c-0.347,0.408-0.748,0.767-1.141,1.131c-0.393,0.368-0.794,0.382-1.311,0.055c-0.003-0.638,0.502-1.231,0.319-1.846
		c-0.479-0.03-0.868-0.062-1.253-0.073c-0.155-0.006-0.343-0.013-0.466,0.062c-0.43,0.264-1.092,0.205-1.259,0.866
		c-0.017,0.072-0.159,0.109-0.234,0.168c-0.175,0.137-0.358,0.26-0.51,0.413c-0.589,0.591-1.305,0.892-2.117,0.988
		c-0.333,0.041-0.674,0.057-1.006,0.122c-0.575,0.116-1.143,0.296-1.409,0.879c-0.146,0.319-0.357,0.496-0.663,0.63
		c-0.877,0.382-1.298,1.086-1.328,2.019c-0.015,0.456-0.005,0.926,0.095,1.364c0.296,1.299,0.643,2.585,0.973,3.902
		c0.203-0.071,0.377-0.038,0.522,0.185c0.185,0.279,0.431,0.519,0.643,0.784c0.31,0.392,0.445,0.839,0.375,1.338
		c-0.039,0.277-0.092,0.55-0.131,0.824c-0.048,0.328-0.083,0.658-0.135,1.054c0.245-0.131,0.407-0.218,0.538-0.29
		c0-0.342-0.015-0.661,0-0.977c0.05-0.991,0.839-1.523,1.895-1.197c-0.221,0.056-0.366,0.09-0.511,0.127
		c-0.154,0.037-0.31,0.068-0.459,0.12c-0.543,0.195-0.653,0.459-0.43,1.067c0.23-0.079,0.466-0.161,0.735-0.253
		c0.083,0.383,0.14,0.714,0.232,1.037c0.111,0.385,0.268,0.49,0.659,0.423c0.628-0.102,1.142-0.355,1.204-1.084
		c0.553-0.14,1.065-0.293,1.59-0.404c0.852-0.175,1.352-0.786,1.842-1.42c0.06-0.076,0.044-0.21,0.062-0.303
		c0.203-0.064,0.387-0.123,0.672-0.215c-0.908-0.345-0.996-1.058-1.026-1.788c-0.014-0.436,0.01-0.874,0.043-1.312
		c0.062-0.87,0.438-1.686,0.443-2.575c0-0.249,0.194-0.518,0.359-0.735c0.33-0.442,0.692-0.863,1.059-1.277
		c0.159-0.173,0.341-0.34,0.55-0.443c0.106-0.053,0.319-0.005,0.424,0.076c0.075,0.059,0.099,0.26,0.063,0.372
		c-0.074,0.245-0.162,0.503-0.311,0.704c-0.564,0.762-0.636,1.613-0.525,2.505c0.021,0.173,0.051,0.382,0.159,0.501
		c0.53,0.587,1.009,1.251,1.728,1.624c1.026,0.534,2.063,0.498,3.066-0.1c0.934-0.555,1.713-0.362,2.273,0.555
		c0.033,0.053,0.055,0.109,0.084,0.16c0.277,0.464,0.486,0.521,0.979,0.256c0.143-0.076,0.283-0.156,0.546-0.297
		c-0.316,0.793-0.891,1.226-1.266,1.802c0.067,0.058,0.107,0.109,0.158,0.131c0.338,0.166,0.633,0.343,0.528,0.811
		c-0.015,0.083,0.077,0.233,0.161,0.29c0.277,0.19,0.555,0.406,0.863,0.518c1.725,0.611,3.453,1.204,5.188,1.786
		c0.985,0.333,1.889,0.08,2.701-0.512c0.436-0.316,0.585-0.779,0.475-1.322c-0.104-0.492-0.459-0.656-0.898-0.74
		c-0.113-0.021-0.221-0.081-0.442-0.161c1.222-0.079,1.899,0.596,1.762,1.653c-0.04,0.309-0.155,0.619-0.296,0.899
		c-0.508,1.028-1.352,1.703-2.382,2.15c-0.894,0.388-1.796,0.749-2.694,1.121c-0.315,0.127-0.646,0.22-0.941,0.383
		c-1.289,0.699-2.684,0.798-4.109,0.754c-1.27-0.04-2.547-0.117-3.813-0.055c-0.884,0.043-1.771,0.254-2.637,0.46
		c-0.611,0.146-0.691,0.381-0.494,0.957c0.017,0.058,0.047,0.11,0.063,0.167c0.129,0.507-0.063,0.773-0.582,0.778
		c-0.299,0.001-0.597-0.039-0.893-0.035c-0.154,0.001-0.338,0.019-0.453,0.1c-0.373,0.265-0.27,1.291,0.17,1.439
		c0.839,0.284,1.67,0.664,2.605,0.472c0.141-0.029,0.331-0.005,0.444,0.073c0.272,0.196,0.42,0.478,0.347,0.829
		c-0.063,0.31-0.197,0.535-0.556,0.618c-0.233,0.054-0.499,0.195-0.642,0.38c-0.451,0.591-1.044,1.111-1.105,1.933
		c-0.008,0.109-0.098,0.216-0.162,0.315c-0.287,0.445-0.275,0.9-0.049,1.361c0.072,0.143,0.154,0.284,0.197,0.435
		c0.17,0.647,0.477,1.143,1.18,1.337c0.247,0.067,0.453,0.21,0.73,0.11c0.391-0.138,0.699,0.029,0.943,0.329
		c0.129,0.153,0.254,0.31,0.355,0.48c0.203,0.338,0.508,0.496,0.879,0.533c0.537,0.053,1.07,0.139,1.607,0.128
		c0.832-0.014,1.688-0.072,2.454-0.421c1.876-0.856,3.732-1.76,5.594-2.661c0.261-0.127,0.466-0.362,0.708-0.527
		C118.188,87.361,118.37,87.28,118.582,87.164 M105.735,75.453c0.199,0.51,0.367,0.989,0.898,1.038
		c1.006,0.091,2.026,0.215,3.023,0.13c0.639-0.053,1.21-0.074,1.785,0.205c0.194,0.094,0.408,0.164,0.62,0.19
		c0.138,0.015,0.319-0.037,0.41-0.128c0.057-0.055-0.018-0.247-0.051-0.373c-0.015-0.054-0.069-0.095-0.103-0.144
		c-0.569-0.763-1.495-0.937-2.256-1.378c-0.045-0.026-0.119-0.017-0.176-0.007c-0.538,0.088-0.84-0.178-1.104-0.619
		c-0.139-0.236-0.42-0.41-0.672-0.546c-0.121-0.063-0.371-0.029-0.484,0.061C106.991,74.382,106.378,74.914,105.735,75.453
		 M100.165,57.804c0.514-0.096,0.905-0.154,1.288-0.25c0.266-0.067,0.307-0.285,0.131-0.499c-0.341-0.408-0.872-0.378-1.149,0.08
		C100.335,57.301,100.287,57.498,100.165,57.804 M101.979,56.519c0.266,0.396,0.515,0.763,0.785,1.163
		C103.054,56.896,102.84,56.587,101.979,56.519 M98.151,54.984c-0.636-0.242-1.024-0.122-1.294,0.406
		C97.32,55.328,97.818,55.463,98.151,54.984 M97.945,57.799c-0.347-0.136-0.611-0.219-0.918-0.14
		C97.377,58.129,97.418,58.136,97.945,57.799 M101.843,80.832c-0.642-0.319-0.684-0.301-0.809,0.308
		C101.293,81.042,101.515,80.957,101.843,80.832 M86.452,49.158c-0.374,0.231-0.374,0.231-0.206,0.771
		C86.33,49.621,86.384,49.415,86.452,49.158 M88.234,39.883c0.031,0.03,0.063,0.057,0.096,0.086c0.074-0.098,0.146-0.195,0.22-0.292
		c-0.032-0.027-0.062-0.052-0.097-0.078C88.38,39.693,88.309,39.788,88.234,39.883"/>
	<path d="M127.642,83.158c0.764,0.365,1.531,0.736,2.305,1.096c2.072,0.959,4.146,1.916,6.223,2.87
		c0.828,0.38,1.67,0.738,2.496,1.124c0.287,0.131,0.541,0.333,0.83,0.457c0.344,0.146,0.709,0.242,1.063,0.36
		c0.076,0.023,0.176,0.031,0.219,0.083c0.408,0.472,1.012,0.609,1.52,0.881c0.012,0.802-0.371,1.412-0.813,1.997
		c-1.068,1.41-2.102,2.847-3.213,4.22c-0.697,0.864-1.5,1.644-2.281,2.438c-0.65,0.664-1.314,1.324-2.018,1.936
		c-0.582,0.512-1.215,0.962-1.834,1.422c-2.016,1.492-4.1,2.865-6.361,3.97c-1.552,0.758-3.057,1.612-4.693,2.179
		c-1.05,0.367-2.095,0.753-3.16,1.063c-5.577,1.612-11.188,1.525-16.808,0.266c-2.294-0.514-4.514-1.28-6.678-2.178
		c-1.52-0.631-3.007-1.356-4.461-2.129c-1.858-0.991-3.626-2.152-5.277-3.457c-1.665-1.316-3.256-2.743-4.663-4.339
		c-1.19-1.354-2.302-2.784-3.421-4.202c-0.441-0.561-0.805-1.18-1.215-1.788c0.086-0.079,0.135-0.144,0.201-0.175
		c0.871-0.434,1.746-0.862,2.617-1.291c1.729-0.85,3.459-1.695,5.188-2.549c1.423-0.702,2.848-1.405,4.266-2.12
		c0.917-0.458,1.827-0.937,2.821-1.448c-0.098,0.271-0.158,0.51-0.263,0.727c-0.365,0.752-0.782,1.48-1.105,2.247
		c-0.202,0.486-0.292,1.025-0.385,1.546c-0.029,0.146,0.06,0.361,0.167,0.471c0.535,0.531,1.093,1.038,1.639,1.548
		c0.087-0.073,0.141-0.118,0.229-0.192c0.319,0.894,1.065,1.39,1.72,1.958c1.596,1.392,3.211,2.764,4.841,4.118
		c0.731,0.607,1.498,1.177,2.283,1.721c1.309,0.903,2.609,1.816,3.968,2.631c0.844,0.511,1.768,0.917,2.694,1.258
		c1.111,0.405,2.183,0.255,3.267-0.302c1.637-0.848,3.155-1.859,4.604-2.969c2.044-1.57,4.023-3.231,6.014-4.875
		c0.98-0.809,1.936-1.654,2.879-2.505c1.164-1.051,2.316-2.117,3.445-3.203c0.217-0.208,0.357-0.526,0.455-0.818
		c0.338-1.015,0.355-2.07,0.322-3.128C127.261,83.75,127.257,83.433,127.642,83.158"/>
	<path d="M88.586,127.954c-0.907-0.131-1.648-0.387-2.361-0.732c-0.178-0.088-0.35-0.189-0.53-0.273
		c-1.266-0.586-2.437-1.336-3.592-2.109c-0.872-0.591-1.761-1.158-2.657-1.711c-0.716-0.441-1.37-0.938-1.88-1.624
		c-0.272-0.366-0.603-0.689-0.932-1.005c-0.152-0.146-0.355-0.274-0.558-0.326c-0.609-0.151-1.047-0.521-1.469-0.964
		c-1.045-1.106-1.784-2.424-2.723-3.739c0.714,0.047,1.281,0.205,1.711,0.635c0.705,0.698,1.382,1.427,2.038,2.17
		c0.561,0.636,1.204,1.146,1.976,1.496c0.174,0.078,0.344,0.199,0.469,0.344c1.194,1.361,2.66,2.375,4.179,3.33
		c1.209,0.764,2.397,1.559,3.592,2.346c0.134,0.088,0.259,0.186,0.373,0.297c0.286,0.295,0.618,0.51,1.026,0.559
		c0.355,0.041,0.568,0.24,0.749,0.521C88.144,127.399,88.324,127.608,88.586,127.954"/>
	<path d="M70.956,113.843c-0.525-0.271-0.844-0.651-1.148-1.039c-0.494-0.621-0.923-1.297-1.559-1.791
		c-0.104-0.08-0.173-0.215-0.239-0.334c-0.552-0.968-1.102-1.932-1.642-2.905c-0.6-1.071-1.19-2.151-1.778-3.231
		c-0.12-0.229-0.208-0.477-0.289-0.721c-0.282-0.859-0.48-1.752-0.962-2.545c-0.157-0.26-0.208-0.595-0.283-0.902
		c-0.226-0.922-0.444-1.844-0.674-2.805c0.173-0.021,0.34-0.045,0.516-0.066c0.368,0.729,0.797,1.388,0.859,2.223
		c0.028,0.347,0.332,0.666,0.487,1.01c0.643,1.408,1.299,2.812,1.911,4.232c0.666,1.555,1.333,3.107,2.271,4.52
		c0.316,0.477,0.705,0.908,1.05,1.37c0.105,0.138,0.227,0.292,0.248,0.454c0.066,0.474,0.305,0.85,0.573,1.227
		C70.572,112.911,70.876,113.28,70.956,113.843"/>
	<path d="M62.476,88.376c-0.48,0.337-0.558-0.221-0.91-0.205c0.047,0.1,0.065,0.188,0.119,0.25c0.746,0.92,0.663,2.002,0.586,3.076
		c-0.01,0.151-0.2,0.289-0.431,0.414c0.114,0.458,0.218,0.917,0.341,1.372c0.194,0.708,0.409,1.409,0.591,2.12
		c0.063,0.244,0.065,0.511,0.078,0.768c0.023,0.497-0.17,0.883-0.648,1.176c-0.069-0.145-0.146-0.266-0.191-0.404
		c-0.684-1.978-1.162-4.008-1.43-6.078c-0.196-1.513-0.283-3.044-0.409-4.566c-0.015-0.179-0.021-0.363,0.018-0.533
		c0.018-0.069,0.162-0.108,0.265-0.171c0.069,0.356,0.082,0.68,0.201,0.958c0.119,0.283,0.35,0.524,0.568,0.833
		c0.285,0.023,0.695-0.093,0.927,0.249C62.3,87.851,62.372,88.123,62.476,88.376"/>
	<path d="M93.449,129.778c-0.621-0.066-1.126-0.191-1.625-0.418c-0.809-0.373-1.6-0.809-2.51-0.922
		c-0.049-0.008-0.094-0.057-0.191-0.125c0.113-0.078,0.199-0.189,0.273-0.184c0.421,0.031,0.839-0.039,1.249,0.244
		c0.323,0.225,0.784,0.246,1.185,0.359c0.361,0.107,0.728,0.197,1.08,0.328C93.198,129.175,93.401,129.388,93.449,129.778"/>
	<path d="M60.074,47.286c-0.308-0.006-0.692-0.139-0.998-0.453c-0.298-0.307-0.17-0.769,0.239-0.869
		c0.507-0.126,1.317,0.457,1.356,0.976C60.691,47.207,60.573,47.295,60.074,47.286"/>
	<path d="M147.005,106.891c0.879-0.824,1.869-1.069,2.439-0.597C148.841,106.917,147.71,107.194,147.005,106.891"/>
	<path d="M107.345,122.812c0.101-0.26,0.176-0.549,0.33-0.787c0.074-0.117,0.323-0.219,0.447-0.183
		c0.108,0.032,0.213,0.274,0.213,0.424C108.341,122.854,107.921,123.104,107.345,122.812"/>
	<path d="M86.153,44.695c-0.16-0.556-0.057-0.667,0.851-0.942C86.989,44.28,86.819,44.475,86.153,44.695"/>
	<path d="M93.494,92.567c-0.517-1.041-1.037-2.082-1.552-3.122c0.041-0.021,0.083-0.041,0.124-0.062
		c0.509,1.045,1.016,2.091,1.526,3.136C93.559,92.536,93.526,92.552,93.494,92.567"/>
	<path d="M128.663,44.625c-0.625-0.033-0.777-0.165-0.934-0.779C128.458,43.891,128.653,44.046,128.663,44.625"/>
	<path d="M141.536,95.341c-0.65,0.115-0.719,0.041-0.563-0.611C141.519,94.7,141.589,94.778,141.536,95.341"/>
	<path d="M73.861,80.633c0.257,0.097,0.451,0.172,0.651,0.247c0.042,0.189,0.08,0.375-0.17,0.417
		C74.079,81.343,73.912,81.126,73.861,80.633"/>
	<path d="M66.965,80.518c0.386,0.386,0.392,0.557,0.025,0.837C66.813,81.015,66.813,81.015,66.965,80.518"/>
	<path d="M127.769,42.84c0.279,0.253,0.461,0.417,0.689,0.623C127.952,43.468,127.952,43.468,127.769,42.84"/>
	<path d="M86.956,42.881c-0.029,0.424-0.176,0.636-0.605,0.684C86.438,43.217,86.688,43.097,86.956,42.881"/>
	<path d="M120.132,121.259c0.391-0.115,0.501,0.184,0.743,0.425C120.452,121.731,120.298,121.48,120.132,121.259"/>
	<path d="M68.502,86.886c0.165-0.075,0.284-0.128,0.421-0.191c-0.059-0.117-0.106-0.212-0.185-0.356
		c0.125,0.015,0.215,0.023,0.308,0.034C69.002,86.919,69.002,86.919,68.502,86.886"/>
	<path d="M89.845,88.646c-0.047-0.153-0.098-0.307-0.145-0.462c0.029-0.007,0.057-0.016,0.086-0.025
		c0.047,0.154,0.098,0.308,0.146,0.461C89.902,88.627,89.876,88.637,89.845,88.646"/>
	<path d="M120.425,49.958c-0.094,0.131-0.137,0.193-0.219,0.31c0.617,0.219,0.956,0.739,1.322,1.225
		c0.117,0.152,0.258,0.363,0.236,0.524c-0.06,0.42,0.116,0.68,0.518,0.891c-0.438,0.387-0.813,0.579-1.377,0.411
		c-1.142-0.337-2.313-0.344-3.48-0.137c-0.26,0.046-0.5,0.198-0.854,0.343c0.761,0.26,1.394,0.474,2.03,0.687
		c0.895,0.301,1.727,0.713,2.391,1.405c0.295,0.31,0.555,0.655,0.883,1.048h-0.709c-0.055,0.129-0.103,0.259-0.162,0.383
		c-0.139,0.297-0.381,0.485-0.71,0.433c-0.466-0.073-0.926-0.185-1.382-0.312c-0.248-0.067-0.286-0.311-0.299-0.534
		c-0.016-0.253-0.096-0.46-0.323-0.6c-0.358-0.226-0.571-0.209-0.798,0.149c-0.312,0.489-0.762,0.744-1.303,0.871
		c-0.559,0.136-1.057,0.046-1.466-0.408c-0.194-0.218-0.399-0.485-0.749-0.385c-0.367,0.104-0.43,0.431-0.475,0.756
		c-0.01,0.057-0.035,0.112-0.059,0.197c-0.203,0.044-0.414,0.1-0.625,0.138c-0.21,0.041-0.424,0.065-0.772,0.118
		c0.364-0.693,0.675-1.284,0.974-1.853c-0.461-0.029-0.863-0.071-1.267-0.075c-0.236,0-0.472,0.054-0.702,0.105
		c-0.26,0.057-0.52,0.133-0.7-0.137c-0.186-0.273-0.284-0.573-0.144-0.9c0.107-0.25,0.304-0.487,0.334-0.743
		c0.033-0.256-0.092-0.533-0.158-0.839c0.274-0.031,0.547-0.07,0.82-0.091c0.414-0.03,0.762-0.189,1.057-0.483
		c0.135-0.133,0.312-0.25,0.49-0.302c1.257-0.367,2.514-0.738,3.781-1.059c0.852-0.215,1.567-0.67,2.239-1.187
		c0.272-0.21,0.499-0.297,0.803-0.22C119.837,49.755,120.095,49.85,120.425,49.958 M119.467,55.59
		c-0.203-0.585-0.275-0.718-0.702-0.894c-0.531-0.218-1.075-0.424-1.632-0.561c-1.108-0.273-2.169-0.075-3.177,0.436
		c-0.269,0.137-0.538,0.285-0.406,0.748c0.427-0.044,0.863-0.048,1.283-0.14c1.302-0.283,2.564-0.18,3.813,0.267
		C118.878,55.527,119.135,55.535,119.467,55.59"/>
	<path d="M122.421,54.692c-0.205-0.155-0.412-0.31-0.643-0.479c0.259-0.301,0.494-0.415,0.885-0.294
		c-0.023,0.236-0.046,0.467-0.064,0.699C122.537,54.643,122.478,54.666,122.421,54.692"/>
	<path d="M104.903,79.926c-0.07-0.239-0.132-0.477,0.354-0.556c-0.09,0.24-0.153,0.412-0.218,0.581
		C104.995,79.942,104.947,79.933,104.903,79.926"/>
	<polygon points="90.75,149.599 92.747,149.599 91.756,146.271 	"/>
	<polygon points="137.567,149.599 139.567,149.599 138.575,146.271 	"/>
	<path d="M156.358,145.685c-0.293-0.289-0.637-0.521-1.031-0.689c-0.393-0.166-0.82-0.25-1.275-0.25h-1.932v6.463h1.932
		c0.455,0,0.883-0.084,1.275-0.252c0.395-0.166,0.738-0.398,1.031-0.689c0.291-0.295,0.521-0.639,0.691-1.035
		c0.168-0.389,0.252-0.813,0.252-1.254c0-0.447-0.084-0.869-0.252-1.26C156.88,146.325,156.649,145.978,156.358,145.685"/>
	<polygon points="60.998,149.599 62.996,149.599 62.008,146.271 	"/>
	<path d="M113.974,137.003v-4.854h-5.262v4.854H30.937v22.16h77.775v18.053h5.262v-18.053h71.09v-22.16H113.974z M51.987,154.276
		h-3.525v-4.758h-4.465v4.758h-3.493v-12.6h3.493v4.805h4.465v-4.805h3.525V154.276z M64.586,154.276l-0.647-1.734h-3.883
		l-0.648,1.734h-3.554l4.658-12.6h2.971l4.663,12.6H64.586z M82.028,152.575c-0.334,0.531-0.772,0.949-1.313,1.26
		c-0.543,0.307-1.155,0.518-1.837,0.645c-0.683,0.125-1.364,0.188-2.043,0.188c-0.846,0-1.681-0.102-2.511-0.299
		c-0.826-0.199-1.621-0.477-2.379-0.832c-0.021,0-0.077-0.021-0.16-0.063c-0.09-0.057-0.132-0.094-0.132-0.113
		c0-0.01,0.021-0.057,0.066-0.133c0.042-0.074,0.095-0.166,0.162-0.279c0.065-0.113,0.14-0.242,0.229-0.389
		c0.083-0.146,0.174-0.293,0.257-0.447c0.185-0.299,0.358-0.588,0.52-0.855c0.165-0.273,0.278-0.467,0.343-0.586
		c0.141,0.057,0.275,0.119,0.403,0.195c0.588,0.293,1.177,0.514,1.764,0.676c0.591,0.154,1.216,0.232,1.875,0.232
		c0.185,0,0.382-0.006,0.594-0.023c0.211-0.018,0.402-0.055,0.576-0.123c0.173-0.063,0.316-0.164,0.43-0.299
		c0.114-0.137,0.173-0.328,0.173-0.578c0-0.119-0.033-0.225-0.098-0.316c-0.066-0.094-0.147-0.174-0.245-0.242
		c-0.099-0.074-0.2-0.135-0.308-0.186c-0.11-0.059-0.211-0.102-0.31-0.135c-0.228-0.086-0.46-0.15-0.696-0.195
		c-0.239-0.043-0.477-0.094-0.716-0.145c-0.314-0.076-0.625-0.148-0.926-0.211c-0.301-0.066-0.594-0.141-0.877-0.23
		c-0.293-0.086-0.569-0.182-0.836-0.281c-0.265-0.107-0.51-0.227-0.736-0.369c-0.466-0.277-0.839-0.656-1.114-1.129
		c-0.275-0.475-0.415-1.1-0.415-1.881c0-0.268,0.029-0.543,0.09-0.816c0.059-0.279,0.148-0.543,0.268-0.789
		c0.235-0.5,0.546-0.912,0.926-1.238c0.379-0.326,0.796-0.582,1.256-0.768c0.463-0.186,0.946-0.313,1.456-0.387
		c0.507-0.076,1.016-0.117,1.525-0.117c0.834,0,1.657,0.105,2.469,0.305c0.813,0.199,1.585,0.531,2.323,0.99
		c-0.272,0.451-0.535,0.904-0.788,1.344c-0.254,0.438-0.514,0.889-0.774,1.344c-0.626-0.303-1.236-0.553-1.824-0.75
		c-0.59-0.193-1.226-0.293-1.91-0.293c-0.162,0-0.334,0.01-0.511,0.023c-0.179,0.02-0.343,0.061-0.495,0.123
		c-0.153,0.066-0.275,0.158-0.373,0.287c-0.099,0.123-0.146,0.289-0.146,0.492c0,0.152,0.033,0.281,0.095,0.389
		c0.077,0.119,0.215,0.227,0.416,0.316c0.199,0.092,0.448,0.176,0.739,0.254c0.293,0.076,0.609,0.146,0.959,0.217
		c0.345,0.068,0.708,0.156,1.086,0.252c0.371,0.094,0.741,0.207,1.114,0.334c0.374,0.121,0.724,0.271,1.056,0.453
		c0.329,0.176,0.625,0.389,0.884,0.633c0.26,0.242,0.466,0.529,0.618,0.865c0.119,0.248,0.199,0.514,0.242,0.805
		c0.044,0.289,0.065,0.568,0.065,0.85C82.532,151.368,82.365,152.046,82.028,152.575 M94.338,154.276l-0.647-1.734H89.81
		l-0.649,1.734h-3.559l4.663-12.6h2.972l4.66,12.6H94.338z M113.03,141.677v12.584v22.012h-3.379v-22.012l-4.367-6.723v6.723h-3.362
		v-12.584h3.347l4.383,6.787v-6.787v-7.688h3.379V141.677z M128.489,154.276h-10.214v-0.57l4.904-8.799h-5.277v-3.23h10.474v0.566
		l-4.904,8.803h5.018V154.276z M141.159,154.276l-0.652-1.734h-3.881l-0.646,1.734h-3.559l4.66-12.6h2.973l4.66,12.6H141.159z
		 M160.28,150.429c-0.33,0.768-0.783,1.438-1.355,2.002c-0.572,0.574-1.244,1.021-2.012,1.35c-0.771,0.33-1.594,0.496-2.473,0.496
		h-5.635v-12.6h5.635c0.879,0,1.701,0.164,2.473,0.494c0.768,0.33,1.439,0.777,2.012,1.348s1.025,1.234,1.355,2.006
		c0.33,0.768,0.496,1.584,0.496,2.453C160.776,148.843,160.61,149.661,160.28,150.429 M175.374,144.679h-6.771v1.803h6.383v3.004
		h-6.383v1.803h6.771v2.988h-10.049v-12.6h10.049V144.679z"/>
	<path d="M117.326,170.171v-5.08c-0.206-0.023-0.34-0.055-0.433-0.084v-1.102c0.391-0.039,0.646-0.193,0.803-0.418h1.262v6.684
		H117.326z"/>
	<path d="M125.81,168.442v0.125c0,0.309,0.072,0.441,0.26,0.441c0.193,0,0.248-0.188,0.248-0.441v-1.229
		c-0.207,0.268-0.539,0.361-0.896,0.361c-0.795,0-1.186-0.574-1.186-1.436v-1.166c0-0.975,0.648-1.686,1.783-1.686
		c1.131,0,1.9,0.525,1.9,1.707v3.209c0,1.223-0.533,1.943-1.871,1.943c-1.553,0-1.779-0.955-1.779-1.758v-0.072H125.81z
		 M125.81,165.036v1.012c0,0.254,0.063,0.4,0.248,0.4c0.176,0,0.26-0.123,0.26-0.412v-1.008c0-0.227-0.063-0.373-0.248-0.373
		C125.913,164.655,125.81,164.769,125.81,165.036"/>
	<path d="M132.991,170.171v-0.203c-0.01-1.256,0.441-2.021,1.039-2.955c0.637-0.996,0.801-1.254,0.801-1.963
		c0-0.227-0.033-0.383-0.217-0.383c-0.193,0-0.236,0.193-0.236,0.516v0.463h-1.428v-0.311c0-0.824,0.217-1.922,1.75-1.922
		c1.336,0,1.715,0.854,1.715,1.801c0,0.979-0.35,1.42-1.09,2.527c-0.145,0.205-0.504,0.73-0.555,1.063h1.758l-0.164,1.367H132.991z"
		/>
	<path d="M141.806,165.479v-0.4c0-0.813,0.299-1.666,1.699-1.666c1.109,0,1.725,0.492,1.725,1.543v0.338
		c0,0.793-0.367,1.113-0.729,1.254v0.023c0.34,0.135,0.834,0.473,0.834,1.334v0.547c0,1.205-0.576,1.789-1.852,1.789
		c-1.422,0-1.738-0.916-1.738-1.789v-0.309h1.482v0.412c0,0.32,0.07,0.463,0.256,0.463c0.184,0,0.236-0.215,0.236-0.42v-0.744
		c0-0.492-0.113-0.637-0.576-0.637h-0.492v-1.234h0.563c0.311,0,0.496-0.039,0.496-0.523v-0.486c0-0.244-0.043-0.41-0.227-0.41
		c-0.207,0-0.248,0.174-0.248,0.432v0.484H141.806z"/>
</g>
</svg>
