<?xml version="1.0" encoding="utf-8"?>
<!-- Generator: Adobe Illustrator 16.0.0, SVG Export Plug-In . SVG Version: 6.00 Build 0)  -->
<!DOCTYPE svg PUBLIC "-//W3C//DTD SVG 1.1//EN" "http://www.w3.org/Graphics/SVG/1.1/DTD/svg11.dtd">
<svg version="1.1" id="Layer_1" xmlns="http://www.w3.org/2000/svg" xmlns:xlink="http://www.w3.org/1999/xlink" x="0px" y="0px"
	 width="216px" height="188px" viewBox="0 0 216 188" enable-background="new 0 0 216 188" xml:space="preserve">
<g>
	<path d="M89.359,63.766c0,4.372,5.048,7.915,11.274,7.915c6.228,0,11.275-3.543,11.275-7.915c0-4.371-5.047-7.913-11.275-7.913
		C94.407,55.853,89.359,59.395,89.359,63.766"/>
	<path d="M89.324,18.315l60.167,46.335c0,0,8.765,6.982,7.013,14.621c0,0-1.305,9.938-20.543,10.357l-36.834,0.175L59.636,118.87
		l31.127-44.564l32.096-0.104c0,0,3.181-0.645,2.376-3.831c0,0-0.499-2.813-3.906-7.127S89.324,18.315,89.324,18.315"/>
	<rect x="57.894" y="121.549" width="100.013" height="7.062"/>
	<rect x="57.993" y="131.327" width="100.014" height="7.062"/>
	<path d="M151.76,157.673h3.856c0.884,0,1.511-0.177,1.879-0.535c0.37-0.358,0.549-0.975,0.549-1.832v-2.709
		c0-1.158-0.163-1.956-0.497-2.408c-0.334-0.455-0.93-0.677-1.789-0.677h-3.998V157.673z M164.017,173.022h-5.692v-9.143
		c0-0.956-0.168-1.632-0.5-2.018c-0.334-0.385-0.928-0.575-1.775-0.575h-4.289v11.735h-5.689v-3.572h1.895v-19.938h-1.895v-3.575
		h10.807c3.223,0.055,4.854,2.018,4.891,5.882v2.472c0,1.414-0.174,2.497-0.521,3.262c-0.35,0.758-0.959,1.373-1.824,1.847
		c0.876,0.189,1.538,0.574,1.99,1.173c0.45,0.594,0.672,1.38,0.672,2.353v6.526h1.933V173.022z M136.748,160.84l-1.988-12.141
		l-2.056,12.141H136.748z M144.098,173.022h-5.261l-1.454-8.607h-5.311l-1.49,8.607h-5.313v-3.572h1.921l4.624-23.514h5.844
		l4.555,23.514h1.885V173.022z M123.877,173.022h-5.547v-9.055c0-1.15-0.107-1.868-0.313-2.16c-0.205-0.29-0.712-0.439-1.526-0.439
		h-4.38v11.654h-5.585v-3.572h1.898v-19.938h-1.898v-3.575h5.585v12.136l6.219-12.136h4.668v3.575h-2.44l-4.533,8.282h2.306
		c1.15,0,2.041,0.395,2.673,1.186c0.626,0.786,0.943,1.902,0.943,3.344v7.127h1.931V173.022z M98.688,173.022h-5.737l-4.215-23.511
		H86.78v-3.575h5.055l4.077,23.351l4.118-23.351h5.049v3.575h-2.053L98.688,173.022z M79.641,160.84l-1.993-12.141l-2.054,12.141
		H79.641z M86.987,173.022H81.73l-1.459-8.607h-5.306l-1.497,8.607H68.16v-3.572h1.92l4.625-23.514h5.843L85.1,169.45h1.887V173.022
		z M60.129,173.022v1.708h0.725c0.517,0,0.844,0.073,0.972,0.229c0.134,0.156,0.2,0.527,0.2,1.131v2.301
		c0,0.589-0.065,0.953-0.2,1.109c-0.128,0.15-0.456,0.224-0.972,0.224h-4.236v-1.786h2.035v-1.869h-1.088v-3.046h-5.583v-7.715h3.58
		v4.143h4.789c0.789,0,1.353-0.195,1.68-0.596c0.323-0.393,0.487-1.083,0.487-2.059v-2.483c0-0.858-0.019-1.414-0.06-1.65
		c-0.041-0.237-0.157-0.461-0.341-0.678c-0.22-0.25-0.461-0.414-0.719-0.473c-0.264-0.069-0.802-0.103-1.626-0.103h-2.782
		c-1.624-0.027-2.837-0.521-3.66-1.496c-0.888-1.021-1.338-2.441-1.349-4.277v-4.094c0-1.795,0.436-3.183,1.321-4.15
		c0.883-0.967,2.149-1.455,3.788-1.455h8.694v7.474h-3.622v-3.898h-4.211c-0.838,0-1.417,0.188-1.739,0.567
		c-0.318,0.38-0.474,1.063-0.474,2.058v2.424c0,0.663,0.028,1.131,0.094,1.406c0.062,0.271,0.198,0.516,0.416,0.745
		c0.328,0.359,0.896,0.541,1.704,0.556h3.728c1.494,0,2.636,0.526,3.438,1.583c0.795,1.057,1.193,2.564,1.193,4.528v4.324
		c0,1.712-0.521,3.08-1.57,4.095c-0.513,0.488-1.04,0.813-1.573,0.974c-0.532,0.17-1.352,0.251-2.453,0.251H60.129z"/>
</g>
</svg>
