<?xml version="1.0" encoding="utf-8"?>
<!-- Generator: Adobe Illustrator 16.0.0, SVG Export Plug-In . SVG Version: 6.00 Build 0)  -->
<!DOCTYPE svg PUBLIC "-//W3C//DTD SVG 1.1//EN" "http://www.w3.org/Graphics/SVG/1.1/DTD/svg11.dtd">
<svg version="1.1" id="Layer_1" xmlns="http://www.w3.org/2000/svg" xmlns:xlink="http://www.w3.org/1999/xlink" x="0px" y="0px"
	 width="216px" height="188px" viewBox="0 0 216 188" enable-background="new 0 0 216 188" xml:space="preserve">
<g>
	<g>
		<path fill-rule="evenodd" clip-rule="evenodd" fill="#E2EAF0" d="M85.548,63.049c0.752-0.431,0.481,0.017,0.703-0.912
			c-0.456-0.256-0.355-0.167-1.046-0.304C85.613,62.397,85.586,62.178,85.548,63.049z"/>
		<path fill-rule="evenodd" clip-rule="evenodd" fill="#E2EAF0" d="M142.739,128.532l0.731-0.797
			C142.771,128.04,143.022,127.802,142.739,128.532z"/>
	</g>
	<path fill-rule="evenodd" clip-rule="evenodd" fill="#5D8DB8" d="M82.616,138.364c0.401-0.847,0.276-0.121,0.129-1.214
		c-0.577-0.828-3.589-2.729-5.827-4.94l-1.903-1.516l-0.784-0.833l-0.467-0.86c-0.224-0.317-0.4-0.549-0.653-0.879
		c-0.477-0.619-0.85-1.083-1.315-1.723c-3.975-5.477-6.29-10.507-7.602-17.3l-0.731-5.647c-0.111-7.856,0.495-9.929,2.257-16.293
		c0.433-1.564,1.281-2.992,1.884-4.493c0.666-1.66,1.303-2.523,2.192-3.882l10.379-11.487c0.644-0.471,1.207-0.899,1.907-1.432
		c0.647-0.493,1.151-0.865,1.739-1.298l1.727-1.519c0.038-0.871,0.064-0.651-0.343-1.215l-62.13-0.312
		c-1.901-0.007-2.252,0.062-3.03,1.222l6.681,13.668c4.268-0.001,2.621-3.949,24.296-3.949l-2.429,20.043H25.209
		c-2.355,3.517-2.64,3.083,1.879,9.965l3.891,6.435c1.742,0,4.882-1.575,8.193-2.437c1.313-0.341,2.856-0.509,4.383-0.777
		c1.983-0.35,2.77-0.431,5.039-0.431c0,8.058,1.756,15.59,1.821,18.525c-0.648,0-1.505,0.05-2.127,0.003
		c-1.155-0.086-0.79-0.266-2.113-0.316c-1.647-0.065-2.804,0.115-4.384-0.171l-8.654-0.762c-6.776-0.871-12.465-4.083-13.36-4.282
		c-1.679-0.372-1.902,1.617-2.159,2.19c-0.246,0.549-1.031,1.839-1.103,2.525c-0.06,0.59,1.796,4.276,2.218,5.161
		c1.548,3.258,2.906,7.167,4.956,10.229c6.483,0,34.76-0.404,40.725,0.29c1.681,0.195,1.818-0.477,3.485-0.176
		c2.095,0.379,8.21,0.189,11.062,0.19l2.747,0.013C83.226,138.507,82.069,138.706,82.616,138.364z"/>
	<path fill-rule="evenodd" clip-rule="evenodd" fill="#5D8CB8" d="M143.471,127.735l-0.731,0.797
		c-0.594,0.497-0.341,0.378-0.493,0.722l-1.328,1.478c-0.047,0.021-0.121,0.006-0.137,0.067c-0.025,0.108-0.234,0.144-0.285,0.18
		c-1.635,1.196-1.963,1.907-3.224,2.832c-4.49,3.291-6.683,4.597-1.823,4.557l56.792-0.003c0.335-0.496,0.495-0.549,0.798-1.024
		l5.275-11.428c1.479-2.949,1.931-2.527-0.909-7.895c-2.096,0.047-6.767,3.413-16.676,4.585l-11.569,0.881
		c-0.946,1.015-3.046,0.753-4.147,0.157c-0.179,1.553-0.458,4.039-1.318,5.025c-0.449-0.817-0.135-1.574,0.102-2.579
		c2.166-9.129,1.658-14.482,2.781-21.61c0.797,0.254,0.599,0.132,0.459,1.149c0-1.989-0.112-0.158,0.606-0.97
		c1.745,0.675,2.987,0.546,4.632,0.833c1.676,0.294,2.776,0.406,4.358,0.806c1.359,0.343,2.835,0.69,4.035,1.127
		c5.382,1.957,3.041,3.121,8.168-4.957c5.294-8.341,4.252-6.063,2.191-9.958c-8.086,0-15.427-0.303-23.688-0.303l-1.496-14.905
		c-0.344-1.653-0.569-3.266-0.935-4.835c2.37,0,4.266-0.6,6.56-0.183c1.377,0.25,2.093,0.081,3.466,0.179
		c7.562,0.553,11.228,3.313,13.968,3.951l0.002-0.303c1.484-4.295,5.927-10.811,6.378-13.97c0.072-0.46,0.368-0.163-0.002-0.607
		h-24.601c-2.859,0.007-5.056-0.305-8.199-0.305c-5.468,0-10.371,0.305-16.096,0.305c-4.442,0-12.805-0.534-16.399,0.303
		c0.134,1.61,0.904,1.513,2.986,3.088c2.317,1.753,6.188,4.865,8.133,7.05c0.043,0.046,0.099,0.117,0.142,0.164
		c11.998,13.031,15.02,31.579,6.856,47.903L143.471,127.735z"/>
	<path fill-rule="evenodd" clip-rule="evenodd" fill="#5C8CB8" d="M116.964,101.009c1.186-0.65-0.901-0.677,0.704-0.73
		C117.462,101.134,117.948,100.49,116.964,101.009L116.964,101.009z M72.674,83.666c0.635-1.886,4.287-7.958,5.629-9.121
		c0.461-0.4,0.563-0.214,1.087-0.743c0.552-0.559,0.352-0.708,0.873-1.259c1.076-1.136,7.068-5.129,9.171-5.681
		c-0.063,0.073-0.136,0.17-0.188,0.221l-4.985,3.409c-0.949,0.678-1.555,1.113-2.315,1.935c-0.627,0.678-1.377,1.125-2.097,1.836
		C76.726,77.347,75.111,80.079,72.674,83.666L72.674,83.666z M132.717,128.799c-0.939-0.822-0.501-1.979-0.575-3.435
		c0.188,1.194,0.067,1.049-0.139,1.633c-0.021,0.062-0.082,0.155-0.126,0.23c-0.231-5.565-0.375-15.927,1.132-21.285
		c0.432-1.534,1.834-4.895,1.959-5.538c0.018-0.764,0.085-0.403-0.319-1.007l-2.303-2.571c-1.452-1.428-2.742-0.979-5.398-0.979
		c-2.126,0-4.252,0-6.378,0c-2.545,0-4.025-0.314-5.771,0.608c0,2.938,1.684,6.386,1.835,10.313
		c0.151,4.012-0.012,8.408-0.012,12.463c-3.733,1.793-10.234,2.3-14.59,2.138c-3.831-0.141-8.915-2.552-11.462-5.241l-3.403-4.797
		c-3.118-5.321-3.831-15.559-2.254-21.377c1.159-4.279,3.443-7.279,6.426-10.277c0.897-0.901,1.048-1.09,2.14-1.809
		c3.411-2.246,4.716-2.855,9.039-3.716c7.617-1.517,14.679,0.907,20.786,4.081c3.318,1.725,4.267,3.453,5.49,1.822
		c-0.521-0.988-0.344-0.478-0.322-1.819l0.162-9.419c0.061-3.607,0.66-1.614,0.138-3.339c0.388-0.718,1.016-0.385-1.641-1.094
		c-6.66-1.78-6.594-1.791-13.778-2.926c-1.876-0.296-4.127-0.23-6.449-0.232c-9.915-0.002-16.264,2.899-22.601,7.163
		c-0.938,0.632-0.981,0.901-1.816,1.524c-5.908,4.402-11.33,12.687-13.245,20.161c-1.672,6.517-1.781,17.158,0.341,23.658
		c0.247,0.755,0.572,1.766,0.833,2.509c0.85,2.42,3.145,6.594,4.829,8.534c0.58,0.668,0.887,1.195,1.512,1.828
		c10.218,10.323,20.515,11.981,34.713,11.775l5.991-0.691c1.839-0.28,3.699-0.625,5.664-1.017l8.043-1.979
		c1.527-0.483,1.044-0.438,2.157-1.184C133.325,132.234,133.012,129.762,132.717,128.799z"/>
	<path fill-rule="evenodd" clip-rule="evenodd" fill="#8EAECD" d="M169.16,123.483h-3.34l1.214-11.237
		c0.134-1.953,0.608-4.777,0.608-7.59c-0.719,0.812-0.606-1.02-0.606,0.97c0.14-1.018,0.338-0.896-0.459-1.149
		c-1.123,7.128-0.615,12.481-2.781,21.61c-0.236,1.005-0.551,1.762-0.102,2.579c0.86-0.986,1.14-3.473,1.318-5.025
		C166.114,124.236,168.214,124.498,169.16,123.483z"/>
	<path fill-rule="evenodd" clip-rule="evenodd" fill="#A4BFD8" d="M132.717,128.799c0-4.434-0.515-11.577,0.065-15.271
		c0.165-1.056,0.115-2.408,0.3-3.647l1.569-6.328c1.293-3.863,0.967-2.608,0.316-3.147c-0.125,0.644-1.527,4.004-1.959,5.538
		c-1.507,5.358-1.363,15.72-1.132,21.285c0.044-0.075,0.105-0.169,0.126-0.23c0.206-0.584,0.327-0.438,0.139-1.633
		C132.216,126.819,131.777,127.977,132.717,128.799z"/>
	<path fill-rule="evenodd" clip-rule="evenodd" fill="#C5D6E5" d="M72.674,83.666c2.438-3.586,4.052-6.318,7.175-9.403
		c0.72-0.712,1.469-1.158,2.097-1.836c0.76-0.822,1.366-1.257,2.315-1.935l4.985-3.409c0.052-0.051,0.125-0.148,0.188-0.221
		c-2.103,0.552-8.096,4.545-9.171,5.681c-0.521,0.551-0.32,0.7-0.873,1.259c-0.524,0.529-0.625,0.343-1.087,0.743
		C76.961,75.707,73.309,81.779,72.674,83.666z"/>
	<path fill-rule="evenodd" clip-rule="evenodd" fill="#87AACA" d="M188.903,76.107c0.044-0.019,0.698-0.127,0.909-0.304
		c0.345-1.485,2.429-5.164,3.238-6.784c0.593-1.187,1.07-2.139,1.621-3.238c0.272-0.545,0.517-0.999,0.823-1.61
		c0.149-0.298,0.377-0.753,0.389-0.893c0.146-1.851-0.103-0.808-0.603-1.142C194.83,65.297,190.388,71.813,188.903,76.107z"/>
	<path fill-rule="evenodd" clip-rule="evenodd" fill="#98B6D2" d="M128.794,80.056l0.887-14.273
		c-0.229-0.191-0.74-0.247-0.909-0.304c0.522,1.725-0.077-0.269-0.138,3.339l-0.162,9.419
		C128.45,79.578,128.273,79.067,128.794,80.056z"/>
	<path fill-rule="evenodd" clip-rule="evenodd" fill="#CFDCE9" d="M140.918,130.731l1.328-1.478
		c-0.313,0.168-0.382,0.022-0.813,0.51C140.599,130.708,141.369,129.678,140.918,130.731z"/>
	<path fill-rule="evenodd" clip-rule="evenodd" fill="#DDE6EF" d="M75.015,130.694c0-0.623,0.19-0.529-0.303-0.529
		c0-0.636,0.088-0.032-0.481-0.304L75.015,130.694z"/>
	<path d="M95.173,84.189h0.207v3.033h-0.207c-0.111-0.826-0.298-1.476-0.561-1.95c-0.26-0.475-0.56-0.712-0.9-0.712
		c-0.396,0-0.699,0.338-0.911,1.017c-0.212,0.676-0.318,1.648-0.318,2.913c0,1.256,0.117,2.205,0.352,2.853
		c0.234,0.646,0.578,0.97,1.029,0.97c0.363,0,0.66-0.232,0.885-0.701c0.228-0.469,0.359-1.118,0.398-1.949h0.247
		c-0.043,1.128-0.22,1.994-0.529,2.598c-0.313,0.606-0.739,0.909-1.279,0.909c-0.635,0-1.168-0.425-1.596-1.27
		c-0.429-0.851-0.644-1.916-0.644-3.207c0-1.314,0.218-2.414,0.655-3.295c0.435-0.88,0.971-1.321,1.605-1.321
		c0.353,0,0.713,0.197,1.084,0.591c0.089,0.101,0.148,0.152,0.173,0.152c0.043,0,0.089-0.049,0.138-0.149
		C95.05,84.572,95.108,84.411,95.173,84.189L95.173,84.189z M99.409,90.046H96.98v0.085c0,0.73,0.09,1.292,0.266,1.689
		c0.176,0.395,0.427,0.592,0.75,0.592c0.267,0,0.494-0.137,0.684-0.417c0.189-0.279,0.307-0.652,0.36-1.119h0.278
		c-0.038,0.693-0.193,1.241-0.465,1.641c-0.272,0.401-0.626,0.601-1.063,0.601c-0.537,0-0.976-0.298-1.317-0.891
		c-0.342-0.592-0.512-1.349-0.512-2.273c0-0.927,0.167-1.694,0.499-2.304c0.333-0.608,0.749-0.912,1.252-0.912
		s0.905,0.293,1.206,0.879C99.218,88.205,99.384,89.015,99.409,90.046L99.409,90.046z M96.98,89.515l1.325,0.006
		c-0.006-0.878-0.057-1.486-0.151-1.826c-0.094-0.339-0.253-0.509-0.476-0.509c-0.241,0-0.417,0.181-0.526,0.543
		S96.986,88.685,96.98,89.515L96.98,89.515z M101.051,86.764c-0.009,0.338-0.017,0.681-0.023,1.03
		c-0.006,0.347-0.011,0.698-0.014,1.054h0.037c0.1-0.715,0.227-1.243,0.384-1.584c0.156-0.342,0.351-0.512,0.582-0.512
		c0.15,0,0.277,0.091,0.384,0.274c0.108,0.184,0.161,0.408,0.161,0.671c0,0.27-0.045,0.499-0.136,0.688
		c-0.091,0.191-0.203,0.285-0.332,0.285c-0.104,0-0.212-0.093-0.324-0.278c-0.113-0.186-0.196-0.279-0.254-0.279
		c-0.121,0-0.229,0.295-0.324,0.885c-0.094,0.591-0.141,1.317-0.141,2.185c0,0.692,0.019,1.103,0.056,1.226
		c0.038,0.125,0.127,0.188,0.27,0.188h0.248v0.371h-1.959v-0.371h0.198c0.127,0,0.207-0.035,0.24-0.104
		c0.034-0.067,0.051-0.249,0.051-0.542v-4.159c0-0.242-0.023-0.401-0.069-0.474c-0.046-0.072-0.142-0.109-0.288-0.109h-0.132v-0.348
		c0.268,0,0.515-0.008,0.743-0.024C100.634,86.823,100.85,86.798,101.051,86.764L101.051,86.764z M104.039,86.764
		c-0.01,0.338-0.018,0.681-0.024,1.03c-0.007,0.347-0.011,0.698-0.014,1.054h0.038c0.099-0.715,0.227-1.243,0.384-1.584
		c0.155-0.342,0.351-0.512,0.581-0.512c0.151,0,0.278,0.091,0.385,0.274c0.107,0.184,0.161,0.408,0.161,0.671
		c0,0.27-0.046,0.499-0.136,0.688c-0.093,0.191-0.203,0.285-0.332,0.285c-0.104,0-0.213-0.093-0.324-0.278
		c-0.114-0.186-0.198-0.279-0.255-0.279c-0.12,0-0.229,0.295-0.323,0.885c-0.094,0.591-0.141,1.317-0.141,2.185
		c0,0.692,0.018,1.103,0.055,1.226c0.038,0.125,0.128,0.188,0.271,0.188h0.247v0.371h-1.959v-0.371h0.199
		c0.126,0,0.207-0.035,0.239-0.104c0.034-0.067,0.051-0.249,0.051-0.542v-4.159c0-0.242-0.023-0.401-0.068-0.474
		c-0.046-0.072-0.144-0.109-0.289-0.109h-0.132v-0.348c0.269,0,0.515-0.008,0.743-0.024
		C103.621,86.823,103.837,86.798,104.039,86.764L104.039,86.764z M107.807,89.031v-0.768c0-0.38-0.047-0.657-0.14-0.831
		c-0.092-0.172-0.236-0.259-0.434-0.259c-0.161,0-0.292,0.041-0.388,0.125c-0.096,0.082-0.146,0.189-0.146,0.317
		c0,0.073,0.04,0.195,0.115,0.371c0.077,0.173,0.115,0.332,0.115,0.479c0,0.205-0.048,0.379-0.14,0.523
		c-0.094,0.143-0.209,0.215-0.346,0.215c-0.157,0-0.284-0.084-0.383-0.251c-0.098-0.167-0.147-0.388-0.147-0.663
		c0-0.469,0.131-0.848,0.391-1.14c0.259-0.291,0.604-0.435,1.038-0.435c0.485,0,0.836,0.165,1.05,0.493
		c0.214,0.328,0.323,0.87,0.323,1.622v2.765c0,0.286,0.019,0.487,0.054,0.604c0.035,0.118,0.096,0.175,0.181,0.175
		c0.073,0,0.124-0.051,0.154-0.156c0.03-0.106,0.044-0.294,0.044-0.564v-0.308h0.243c0,0.077,0.001,0.163,0.006,0.262
		c0,0.02,0,0.03,0,0.034c0,0.5-0.063,0.87-0.187,1.106c-0.128,0.239-0.321,0.357-0.584,0.357c-0.21,0-0.384-0.075-0.522-0.227
		c-0.139-0.153-0.242-0.381-0.307-0.678c-0.109,0.31-0.258,0.544-0.444,0.703c-0.187,0.159-0.404,0.241-0.654,0.241
		c-0.311,0-0.561-0.147-0.752-0.442c-0.192-0.293-0.287-0.682-0.287-1.16c0-0.397,0.067-0.734,0.203-1.014
		c0.136-0.281,0.348-0.519,0.638-0.716c0.067-0.05,0.251-0.15,0.549-0.306C107.351,89.351,107.601,89.192,107.807,89.031
		L107.807,89.031z M107.807,89.539c-0.462,0.317-0.765,0.604-0.911,0.853c-0.147,0.249-0.221,0.563-0.221,0.943
		c0,0.305,0.046,0.549,0.138,0.73c0.092,0.183,0.217,0.273,0.374,0.273c0.19,0,0.34-0.125,0.452-0.38
		c0.111-0.255,0.168-0.604,0.168-1.047V89.539L107.807,89.539z M109.47,92.97v-0.371h0.197c0.122,0,0.2-0.034,0.235-0.1
		c0.031-0.068,0.049-0.249,0.049-0.549v-6.792c0-0.25-0.023-0.41-0.067-0.48s-0.14-0.106-0.283-0.106h-0.131v-0.347h0.197
		c0.197,0,0.394-0.006,0.591-0.021c0.2-0.014,0.4-0.034,0.603-0.063l0.001,3.72c0.132-0.348,0.28-0.614,0.45-0.798
		c0.168-0.184,0.35-0.274,0.542-0.274c0.354,0,0.611,0.21,0.772,0.634c0.163,0.423,0.244,1.102,0.244,2.035v2.491
		c0,0.295,0.017,0.477,0.05,0.544c0.035,0.07,0.115,0.104,0.239,0.104h0.199v0.371h-1.849v-0.371h0.146
		c0.118,0,0.195-0.034,0.23-0.1c0.034-0.068,0.051-0.249,0.051-0.549v-2.999c0-0.44-0.032-0.757-0.1-0.958
		c-0.07-0.199-0.177-0.299-0.321-0.299c-0.126,0-0.244,0.072-0.357,0.217c-0.112,0.146-0.204,0.348-0.276,0.611v3.428
		c0,0.295,0.018,0.477,0.05,0.544c0.035,0.07,0.114,0.104,0.239,0.104h0.131v0.371H109.47L109.47,92.97z M113.882,85.191
		c0-0.266,0.054-0.494,0.158-0.684c0.104-0.188,0.232-0.283,0.379-0.283c0.154,0,0.282,0.093,0.389,0.281
		c0.104,0.188,0.157,0.414,0.157,0.685c0,0.268-0.054,0.496-0.16,0.69c-0.108,0.192-0.236,0.289-0.386,0.289
		c-0.146,0-0.274-0.097-0.379-0.289C113.936,85.687,113.882,85.459,113.882,85.191L113.882,85.191z M115.476,92.599v0.371h-1.898
		v-0.371h0.2c0.125,0,0.204-0.035,0.238-0.104c0.034-0.067,0.053-0.249,0.053-0.542V87.79c0-0.241-0.022-0.397-0.067-0.47
		c-0.048-0.072-0.145-0.109-0.291-0.109h-0.133v-0.348h0.237c0.214,0,0.419-0.008,0.614-0.022c0.195-0.015,0.385-0.036,0.563-0.064
		v5.175c0,0.293,0.019,0.475,0.055,0.542c0.034,0.07,0.113,0.104,0.236,0.104H115.476L115.476,92.599z M117.511,92.97v-0.371h0.054
		c0.234,0,0.397-0.122,0.486-0.366c0.092-0.243,0.137-0.793,0.137-1.643v-5.252c0-0.275-0.025-0.463-0.077-0.565
		c-0.05-0.102-0.142-0.15-0.274-0.15h-0.318v-0.333h1.851l1.178,6.385l1.14-6.385h1.806v0.333h-0.319
		c-0.13,0-0.223,0.049-0.274,0.15c-0.05,0.102-0.075,0.29-0.075,0.565v6.54c0,0.276,0.025,0.463,0.075,0.566
		c0.052,0.103,0.145,0.156,0.274,0.156h0.319v0.371h-2.263v-0.371h0.317c0.134,0,0.227-0.053,0.277-0.156
		c0.049-0.104,0.074-0.291,0.074-0.566v-7.049l-1.456,8.217h-0.395l-1.55-8.29V90.5c0,0.94,0.054,1.522,0.16,1.748
		c0.107,0.225,0.31,0.342,0.606,0.351v0.371H117.511L117.511,92.97z M127.201,90.046h-2.428v0.085c0,0.73,0.089,1.292,0.266,1.689
		c0.176,0.395,0.427,0.592,0.749,0.592c0.266,0,0.494-0.137,0.685-0.417c0.188-0.279,0.308-0.652,0.358-1.119h0.28
		c-0.038,0.693-0.193,1.241-0.465,1.641c-0.271,0.401-0.627,0.601-1.063,0.601c-0.538,0-0.977-0.298-1.317-0.891
		c-0.342-0.592-0.513-1.349-0.513-2.273c0-0.927,0.167-1.694,0.5-2.304c0.331-0.608,0.749-0.912,1.251-0.912
		c0.504,0,0.906,0.293,1.206,0.879C127.01,88.205,127.176,89.015,127.201,90.046L127.201,90.046z M124.773,89.515l1.325,0.006
		c-0.007-0.878-0.059-1.486-0.151-1.826c-0.096-0.339-0.254-0.509-0.475-0.509c-0.244,0-0.419,0.181-0.528,0.543
		S124.779,88.685,124.773,89.515L124.773,89.515z M128.843,86.764c-0.009,0.338-0.016,0.681-0.022,1.03
		c-0.008,0.347-0.012,0.698-0.015,1.054h0.037c0.101-0.715,0.228-1.243,0.384-1.584c0.157-0.342,0.352-0.512,0.582-0.512
		c0.151,0,0.279,0.091,0.386,0.274c0.107,0.184,0.159,0.408,0.159,0.671c0,0.27-0.045,0.499-0.136,0.688
		c-0.091,0.191-0.202,0.285-0.333,0.285c-0.102,0-0.21-0.093-0.323-0.278c-0.113-0.186-0.197-0.279-0.253-0.279
		c-0.121,0-0.229,0.295-0.323,0.885c-0.095,0.591-0.143,1.317-0.143,2.185c0,0.692,0.019,1.103,0.057,1.226
		c0.037,0.125,0.126,0.188,0.271,0.188h0.245v0.371h-1.958v-0.371h0.2c0.125,0,0.205-0.035,0.239-0.104
		c0.032-0.067,0.051-0.249,0.051-0.542v-4.159c0-0.242-0.024-0.401-0.069-0.474c-0.046-0.072-0.142-0.109-0.288-0.109h-0.133v-0.348
		c0.269,0,0.514-0.008,0.743-0.024C128.427,86.823,128.641,86.798,128.843,86.764L128.843,86.764z M131.913,91.952
		c0,0.293,0.019,0.475,0.054,0.542c0.035,0.07,0.114,0.104,0.237,0.104h0.193v0.371h-1.877v-0.371h0.194
		c0.122,0,0.198-0.035,0.234-0.104c0.036-0.067,0.055-0.249,0.055-0.542v-6.794c0-0.244-0.024-0.403-0.069-0.477
		c-0.046-0.072-0.143-0.109-0.29-0.109h-0.124v-0.347h0.228c0.212,0,0.413-0.006,0.604-0.021c0.192-0.014,0.38-0.034,0.561-0.063
		v5.373l0.491-0.708c0.226-0.322,0.382-0.567,0.468-0.738C132.957,87.9,133,87.757,133,87.64c0-0.157-0.037-0.269-0.109-0.333
		c-0.07-0.064-0.198-0.097-0.382-0.097v-0.348h1.971v0.348c-0.23,0.076-0.471,0.227-0.715,0.454
		c-0.243,0.226-0.531,0.563-0.862,1.016l1.025,2.928c0.017,0.043,0.038,0.108,0.07,0.198c0.181,0.528,0.364,0.793,0.556,0.793h0.076
		v0.371h-1.971v-0.371h0.247c0.068,0,0.112-0.019,0.14-0.058c0.026-0.036,0.04-0.098,0.04-0.178c0-0.058-0.007-0.118-0.021-0.185
		c-0.016-0.066-0.044-0.153-0.083-0.263l-0.784-2.245l-0.284,0.436V91.952L131.913,91.952z M138.013,90.046
		c-0.026-1.031-0.191-1.841-0.491-2.427c-0.301-0.586-0.702-0.879-1.207-0.879c-0.503,0-0.919,0.303-1.252,0.912
		c-0.332,0.609-0.497,1.377-0.497,2.304c0,0.924,0.17,1.681,0.511,2.273c0.34,0.593,0.78,0.891,1.317,0.891
		c0.438,0,0.793-0.2,1.065-0.601c0.271-0.4,0.426-0.948,0.463-1.641h-0.279c-0.052,0.466-0.17,0.84-0.36,1.119
		c-0.188,0.279-0.417,0.417-0.685,0.417c-0.32,0-0.571-0.197-0.749-0.592c-0.175-0.397-0.263-0.958-0.263-1.689v-0.085H138.013
		L138.013,90.046z M135.586,89.515c0.004-0.83,0.061-1.425,0.169-1.787c0.11-0.362,0.285-0.543,0.529-0.543
		c0.222,0,0.379,0.17,0.474,0.509c0.094,0.34,0.145,0.948,0.152,1.826L135.586,89.515L135.586,89.515z M138.544,89.094l0.015-2.231
		h2.89v0.386l-1.961,5.287h0.296c0.48,0,0.839-0.18,1.077-0.539c0.238-0.359,0.37-0.916,0.396-1.666h0.262l-0.056,2.638h-3.028
		v-0.358l1.961-5.327h-0.375c-0.385,0-0.677,0.147-0.882,0.448c-0.204,0.296-0.325,0.751-0.36,1.361H138.544L138.544,89.094z
		 M142.331,85.191c0-0.266,0.052-0.494,0.156-0.684c0.104-0.188,0.232-0.283,0.382-0.283c0.153,0,0.281,0.093,0.388,0.281
		c0.104,0.188,0.156,0.414,0.156,0.685c0,0.268-0.055,0.496-0.16,0.69c-0.108,0.192-0.235,0.289-0.384,0.289
		c-0.149,0-0.277-0.097-0.382-0.289C142.383,85.687,142.331,85.459,142.331,85.191L142.331,85.191z M143.924,92.599v0.371h-1.896
		v-0.371h0.199c0.123,0,0.202-0.035,0.236-0.104c0.035-0.067,0.054-0.249,0.054-0.542V87.79c0-0.241-0.024-0.397-0.069-0.47
		c-0.046-0.072-0.143-0.109-0.291-0.109h-0.129v-0.348h0.233c0.216,0,0.42-0.008,0.616-0.022c0.196-0.015,0.384-0.036,0.563-0.064
		v5.175c0,0.293,0.017,0.475,0.054,0.542c0.034,0.07,0.112,0.104,0.237,0.104H143.924z"/>
</g>
</svg>
