<?xml version="1.0" encoding="utf-8"?>
<!-- Generator: Adobe Illustrator 16.0.0, SVG Export Plug-In . SVG Version: 6.00 Build 0)  -->
<!DOCTYPE svg PUBLIC "-//W3C//DTD SVG 1.1//EN" "http://www.w3.org/Graphics/SVG/1.1/DTD/svg11.dtd">
<svg version="1.1" id="Layer_1" xmlns="http://www.w3.org/2000/svg" xmlns:xlink="http://www.w3.org/1999/xlink" x="0px" y="0px"
	 width="216px" height="188px" viewBox="0 0 216 188" enable-background="new 0 0 216 188" xml:space="preserve">
<polygon fill-rule="evenodd" clip-rule="evenodd" points="12.129,131.588 205.156,131.588 205.156,128.141 12.129,128.164 "/>
<polygon fill-rule="evenodd" clip-rule="evenodd" points="205.156,63.408 205.156,59.968 50.253,59.961 50.25,63.408 "/>
<path fill-rule="evenodd" clip-rule="evenodd" fill="#BCBEC0" d="M12.142,125.005c0.592,0.092,11.008,0.03,12.519,0.03l0.001-41.824
	l5.624-0.021l0.015,41.835l12.541-0.015l-0.002-41.819h5.5l0.013,41.837l12.827,0.007V81.398c-0.091-0.22-0.073-0.132-0.225-0.28
	l-6.694-6.256c-0.288-0.28-1.396-1.432-1.702-1.432H39.001c-0.344,0-1.333,1.102-1.68,1.393c-0.192,0.162-0.372,0.384-0.574,0.486
	c-0.08-0.071-0.134-0.149-0.224-0.231c-0.107-0.099-0.187-0.146-0.294-0.245c-0.349-0.325-1.344-1.403-1.671-1.403h-13.73
	c-0.356,0-0.765,0.531-1.042,0.784l-4.293,3.964c-0.192,0.183-0.333,0.298-0.492,0.458c-0.236,0.237-2.788,2.552-2.832,2.683
	C12.09,81.544,12.142,125.004,12.142,125.005z"/>
<path fill-rule="evenodd" clip-rule="evenodd" fill="#ED1C24" d="M65.82,124.843l0.02,0.222c6.442-0.001,12.88-0.001,19.316-0.001
	c1.284,0,1.136,0.24,1.903-0.53l6.113-5.708c0.127-0.131,0.223-0.182,0.352-0.303l1.925-1.814c0.202-0.21,0.538-0.316,0.538-0.702
	V105.33c0-0.311-0.357-0.562-0.726-0.87c-0.304-0.257-0.575-0.533-0.87-0.794c-0.315-0.28-0.572-0.526-0.871-0.793l-0.865-0.796
	c-0.312-0.304-0.587-0.521-0.862-0.801c-0.417-0.423-2.399-2.139-2.595-2.39c0.122-0.252,4.585-4.286,5.331-5.004
	c0.164-0.158,0.197-0.217,0.363-0.34l0.001-13.306l-2.336-2.171c-0.197-0.163-0.406-0.368-0.591-0.538
	c-0.108-0.1-0.158-0.174-0.265-0.267l-2.963-2.742c-0.125-0.105-0.175-0.181-0.298-0.294c-1.137-1.045-0.6-0.803-2.592-0.803
	c-6.676,0-13.352,0-20.028,0V124.843z"/>
<path fill-rule="evenodd" clip-rule="evenodd" d="M100.628,77.41l0.003,20.847c1.137,0.069,4.624,0.019,5.987,0.011l0.005-20.16
	l2.677,0.004l0.012,20.157h5.996l0.004-20.166h2.605l0.02,20.154l6.139-0.002c0.055-2.983,0.002-6.019,0.002-9.001V77.9
	c0.004-0.689,0.166-0.652-0.775-1.425c-0.191-0.158-0.365-0.346-0.555-0.515l-2.543-2.388c-0.166-0.153-0.15-0.148-0.43-0.151
	l-6.426,0.004c-0.064,0.029-0.729,0.772-0.963,0.902c-0.113-0.093-0.105-0.103-0.23-0.229c-0.23-0.232-0.643-0.672-0.924-0.672
	h-6.347c-0.282,0-1.091,0.832-1.385,1.1l-2.421,2.271C100.907,76.954,100.628,77.05,100.628,77.41z"/>
<path fill-rule="evenodd" clip-rule="evenodd" d="M142.986,98.24c0.5,0.073,9.219,0.017,10.305,0.02
	c0.846,0.003,0.543,0.071,1.213-0.535l3.42-3.107c0.102-4.335,0.006-9.418,0.006-13.894c0-0.777,0-1.554,0-2.332
	c0-1.332,0.041-0.957-0.66-1.654l-2.311-2.146c-1.697-1.547-0.889-1.167-3.283-1.167c-0.676,0-8.236-0.053-8.686,0.023
	L142.986,98.24z"/>
<path fill-rule="evenodd" clip-rule="evenodd" d="M126.137,77.165v17.364c0,0.248,2.725,2.533,3.094,2.888
	c0.273,0.26,0.795,0.842,1.156,0.842h6.402c0.377,0,0.619-0.426,1.115-0.827c0.668-0.539,1.846-1.759,2.572-2.357
	c0.129-0.106,0.457-0.383,0.457-0.545V77.165c0-0.205-0.834-0.844-1.012-0.998l-2.168-1.869c-0.273-0.22-0.852-0.868-1.193-0.868
	h-6.174c-0.355,0-0.857,0.569-1.121,0.821l-2.139,1.901C126.879,76.387,126.137,76.97,126.137,77.165z"/>
<path fill-rule="evenodd" clip-rule="evenodd" d="M100.637,125.039c1.42,0.077,3.006,0.006,4.422,0.006h5.597
	c0.617,0.003,0.49,0.077,0.871-0.256l3.051-2.708c0.197-0.179,0.441-0.408,0.652-0.53l0.004-6.677
	c-0.275-0.126-3.221-2.245-3.334-2.45c0.277-0.137,1.781-1.467,2.145-1.771c0.182-0.151,0.518-0.415,0.672-0.598
	c0.084-1.967,0.01-4.149,0.01-6.141c0.002-0.479-0.043-0.323-0.611-0.855l-2.74-2.423c-0.268-0.226-1.654-0.118-2.047-0.118h-5.769
	c-0.914,0-2.008-0.058-2.899,0.009L100.637,125.039z"/>
<path fill-rule="evenodd" clip-rule="evenodd" d="M148.502,125.063h6.346c0.381,0,0.598-0.404,1.08-0.791
	c0.736-0.593,1.756-1.688,2.482-2.27c0.186-0.152,0.346-0.349,0.541-0.462l0.008-17.315c0-0.315-0.305-0.453-0.674-0.771
	c-0.285-0.248-0.504-0.443-0.793-0.691c-0.539-0.456-1.031-0.882-1.566-1.341c-1.254-1.076-0.863-0.949-1.943-0.949
	c-0.621,0-5.506-0.042-5.689,0.031l-2.299,2.033c-1.895,1.68-1.684,1.14-1.684,2.793v15.094c0,1.187-0.242,0.891,1.008,1.975
	l2.691,2.416C148.15,124.951,148.232,125.063,148.502,125.063z"/>
<path fill-rule="evenodd" clip-rule="evenodd" d="M173.447,98.242l6.152,0.018l0.018-9.891l2.564-0.012
	c0.102,0.479-0.033,8.672,0.039,9.888l5.975,0.016l0.018-9.375c-0.057-0.306-2.91-2.579-3.092-3.018
	c0.262-0.135,1.184-1.049,1.529-1.326c0.354-0.285,1.297-1.208,1.553-1.351l0.01-6.087c-0.145-0.296-0.922-0.908-1.174-1.166
	c-0.256-0.266-0.367-0.331-0.604-0.583l-1.811-1.695c-0.346-0.311-0.182-0.245-0.932-0.242c-1.061,0.001-9.764-0.059-10.246,0.023
	V98.242z"/>
<path fill-rule="evenodd" clip-rule="evenodd" d="M205.156,98.269v-21.13c-0.693-0.548-2.193-2.037-2.969-2.709
	c-1.154-1.003-0.676-1.004-1.82-1.003l-5.48-0.001c-0.615-0.006-0.664,0.098-0.98,0.427l-3.641,3.351l0.004,21.065l6.059-0.004
	V78.131h2.656l0.006,20.138H205.156z"/>
<path fill-rule="evenodd" clip-rule="evenodd" d="M161.016,103.979l-0.002,21.074c1.777,0,4.25,0.049,5.945-0.008v-19.952h2.604
	l0.012,19.938c0.545,0.066,5.17,0.022,6.104,0.021v-21.013c0-0.235-0.666-0.691-0.957-0.949l-2.574-2.233
	c-0.184-0.163-0.34-0.386-0.625-0.386h-6.281c-0.268,0-0.203-0.002-0.359,0.127l-0.764,0.661
	C163.73,101.59,161.119,103.767,161.016,103.979z"/>
<path fill-rule="evenodd" clip-rule="evenodd" d="M159.982,98.027l0.004,0.241h11.398l0.002-4.652l-5.275-0.024l-0.01-6.107h4.326
	l0.006-4.691l-4.322,0l-0.018-4.661l5.131-0.001c0.053-0.604,0.018-3.813,0.018-4.667h-11.26V98.027z"/>
<polygon fill-rule="evenodd" clip-rule="evenodd" points="116.791,125.039 128.07,125.045 128.098,120.409 122.859,120.408 
	122.85,114.372 127.146,114.351 127.146,109.713 122.85,109.707 122.852,105.085 127.949,105.085 127.949,100.46 116.813,100.454 
	"/>
<polygon fill-rule="evenodd" clip-rule="evenodd" points="129.928,105.087 133.313,105.095 133.322,125.045 139.398,125.045 
	139.4,105.102 142.797,105.094 142.797,100.473 129.928,100.473 "/>
<path fill-rule="evenodd" clip-rule="evenodd" fill="#FFFFFF" d="M76.882,115.301c0.259,0.089,5.871,0.099,6.291,0.017v-12.16
	l-6.283-0.015L76.882,115.301z"/>
<polygon fill-rule="evenodd" clip-rule="evenodd" fill="#FFFFFF" points="76.882,93.385 83.165,93.414 83.173,83.149 76.888,83.133 
	"/>
<polygon fill-rule="evenodd" clip-rule="evenodd" fill="#FFFFFF" points="149.176,93.601 151.752,93.601 151.762,78.122 
	149.176,78.122 "/>
<polygon fill-rule="evenodd" clip-rule="evenodd" fill="#FFFFFF" points="132.262,93.559 134.785,93.569 134.813,78.114 
	132.27,78.105 "/>
<polygon fill-rule="evenodd" clip-rule="evenodd" fill="#FFFFFF" points="150.365,120.41 152.898,120.433 152.9,105.104 
	150.377,105.105 "/>
<rect x="179.627" y="78.112" fill-rule="evenodd" clip-rule="evenodd" fill="#FFFFFF" width="2.586" height="5.568"/>
<polygon fill-rule="evenodd" clip-rule="evenodd" fill="#FFFFFF" points="106.692,120.41 106.906,120.437 108.984,120.432 
	109.189,120.41 109.189,114.984 106.693,114.955 "/>
<polygon fill-rule="evenodd" clip-rule="evenodd" fill="#FFFFFF" points="106.693,110.323 109.174,110.331 109.189,105.166 
	106.693,105.137 "/>
<path fill-rule="evenodd" clip-rule="evenodd" fill="#ED1C24" d="M11.286,66.385c0,0,9.017,6.517,26.028,1.511
	c17.012-5.007,9.516-20.207-10.193-20.509C7.412,47.084,2.857,57.052,6.054,62.209c3.196,5.158,20.208,5.761,26.828,1.734
	c0,0-16.755,3.725-21.188-1.433c-4.433-5.157-0.302-12.467,14.975-12.862c9.627-0.25,15.128,5.529,15.352,9.138
	c0.048,0.779,0.228,5.944-9.271,8.454C21.972,70.089,14.282,67.261,11.286,66.385z"/>
<path fill-rule="evenodd" clip-rule="evenodd" d="M15.866,54.942c0.931,0,1.734,0.342,2.409,1.024
	c0.703,0.713,1.055,1.599,1.055,2.653c0,1.157-0.326,2.102-0.976,2.838c-0.651,0.737-1.48,1.104-2.488,1.104
	c-1.007,0-1.836-0.367-2.487-1.104s-0.976-1.682-0.976-2.838c0-1.054,0.351-1.94,1.055-2.653
	C14.134,55.284,14.936,54.942,15.866,54.942L15.866,54.942z M15.866,56.743c-0.481,0-0.896,0.19-1.245,0.569
	c-0.35,0.379-0.524,0.817-0.524,1.318c0,0.606,0.172,1.113,0.516,1.521c0.343,0.407,0.762,0.61,1.253,0.61
	c0.494,0,0.911-0.204,1.255-0.61c0.342-0.408,0.515-0.915,0.515-1.521c0-0.501-0.175-0.938-0.524-1.318
	C16.764,56.933,16.349,56.743,15.866,56.743z"/>
<polygon fill-rule="evenodd" clip-rule="evenodd" points="21.307,58.895 18.672,55.179 20.901,55.179 22.236,57.123 23.572,55.179 
	25.799,55.179 23.165,58.895 23.165,62.324 21.307,62.324 "/>
<path fill-rule="evenodd" clip-rule="evenodd" d="M30.333,61.083h-2.559l-0.493,1.241h-1.971l2.748-7.146h2.029l2.691,7.146h-1.98
	L30.333,61.083L30.333,61.083z M29.833,59.662l-0.759-2.274h-0.02l-0.767,2.274H29.833z"/>
<polygon fill-rule="evenodd" clip-rule="evenodd" points="34.97,58.127 37.215,55.179 39.519,55.179 36.677,58.563 39.774,62.324 
	37.367,62.324 34.97,59.226 34.951,59.226 34.951,62.324 33.093,62.324 33.093,55.179 34.951,55.179 34.951,58.127 "/>
</svg>
