<?xml version="1.0" encoding="utf-8"?>
<!-- Generator: Adobe Illustrator 16.0.0, SVG Export Plug-In . SVG Version: 6.00 Build 0)  -->
<!DOCTYPE svg PUBLIC "-//W3C//DTD SVG 1.1//EN" "http://www.w3.org/Graphics/SVG/1.1/DTD/svg11.dtd">
<svg version="1.1" id="Layer_1" xmlns="http://www.w3.org/2000/svg" xmlns:xlink="http://www.w3.org/1999/xlink" x="0px" y="0px"
	 width="216px" height="188px" viewBox="0 0 216 188" enable-background="new 0 0 216 188" xml:space="preserve">
<g>
	<g>
		<path d="M36.871,114.542c0.017,0.022,0,0.055-0.028,0.054l-1.878-0.076c-0.538-0.021-1.049-0.233-1.443-0.598
			c-0.03-0.028-0.074-0.026-0.103,0c-0.387,0.372-0.895,0.595-1.431,0.627l-1.875,0.113c-0.028,0.001-0.046-0.031-0.029-0.053
			l0.623-0.831c0.05-0.065,0.098-0.136,0.144-0.205c0.05-0.074,0.1-0.152,0.145-0.23c0.071-0.123,0.139-0.247,0.198-0.375
			c0,0,0.001,0,0.001-0.002c0.294-0.629,0.446-1.317,0.44-2.019l-0.049-4.863c-1.11-1.229-3.517-3.738-6.141-5.513
			c-1.528-1.031-3.301-1.411-4.919-1.296l0.084,8.612c2.362-0.873,3.468-3.437,3.594-3.747c0.004-0.01,0.016-0.008,0.017,0.001
			c0.465,3.361-1.284,5.409-3.587,6.105l0.01,0.809c0.008,1.021,0.354,2.008,0.982,2.811l0.639,0.819
			c0.017,0.021,0,0.054-0.026,0.054l-1.88-0.076c-0.537-0.022-1.048-0.234-1.442-0.598c-0.03-0.027-0.072-0.026-0.102,0.002
			c-0.387,0.37-0.895,0.592-1.432,0.624l-1.876,0.113c-0.028,0.001-0.046-0.031-0.028-0.053l0.622-0.83
			c0.05-0.066,0.099-0.135,0.144-0.204c0.051-0.076,0.1-0.153,0.145-0.231c0.072-0.122,0.139-0.247,0.199-0.376c0,0,0,0,0-0.002
			c0.296-0.627,0.447-1.315,0.441-2.017l-0.009-0.802c-2.298-0.605-4.363-2.421-4.813-5.476c-0.599-4.081,1.623-6.967,4.679-8.177
			l-0.064-6.422c-0.006-0.701-0.171-1.387-0.478-2.009c-0.001,0-0.001-0.001-0.002-0.003c-0.061-0.127-0.13-0.25-0.205-0.371
			c-0.047-0.077-0.097-0.154-0.149-0.229c-0.048-0.068-0.097-0.135-0.148-0.202l-0.639-0.817c-0.017-0.023,0-0.055,0.027-0.054
			l1.879,0.077c0.537,0.021,1.049,0.234,1.443,0.597c0.028,0.028,0.072,0.026,0.101-0.002c0.387-0.37,0.895-0.593,1.431-0.625
			l1.876-0.112c0.028-0.003,0.045,0.03,0.029,0.053l-0.624,0.83c-0.611,0.817-0.938,1.811-0.926,2.831l0.056,5.828
			c1.467,0.039,2.954,0.422,4.301,1.191c3.122,1.783,5.638,5.164,6.771,6.862l-0.137-13.99c-0.007-0.701-0.172-1.387-0.479-2.009
			c0-0.001-0.001-0.001-0.001-0.002c-0.063-0.127-0.132-0.251-0.205-0.373c-0.048-0.077-0.098-0.152-0.149-0.227
			c-0.048-0.068-0.097-0.135-0.148-0.202l-0.64-0.817c-0.017-0.022,0-0.056,0.028-0.054l1.878,0.077
			c0.537,0.022,1.048,0.234,1.443,0.597c0.029,0.026,0.073,0.026,0.102-0.001c0.387-0.371,0.894-0.593,1.431-0.626l1.875-0.112
			c0.029-0.001,0.046,0.03,0.029,0.052l-0.623,0.831c-0.611,0.816-0.938,1.811-0.927,2.831l0.205,20.876
			c0.01,1.021,0.355,2.009,0.984,2.812L36.871,114.542z M16.925,100.583c-0.658,0.538-1.117,1.218-1.272,1.999
			c-0.387,1.944-0.051,4.099,1.342,5.063L16.925,100.583z"/>
		<path d="M62.604,114.354l-2.66-0.071c-0.537-0.021-1.048-0.233-1.443-0.596c-0.029-0.027-0.073-0.026-0.103,0.001
			c-0.387,0.371-0.894,0.593-1.43,0.625l-1.876,0.112c-0.029,0.003-0.046-0.029-0.029-0.053l0.624-0.831
			c0.049-0.066,0.095-0.134,0.143-0.204c0.051-0.075,0.099-0.151,0.144-0.231c0.073-0.12,0.139-0.246,0.2-0.374
			c0.001-0.002,0.001-0.002,0.001-0.002c0.009-0.018,0.016-0.035,0.023-0.052c0.226-0.495,0.245-1.059,0.065-1.572l-1.687-4.833
			c-1.797-1.537-5.094-3.511-8.209-4.059l-3.156,8.319c-0.507,1.729,0.68,3.057,0.814,3.229l0.668,0.713
			c0.016,0.021,0.001,0.055-0.029,0.054l-1.67-0.069c-0.537-0.021-0.947-0.244-1.341-0.607c-0.03-0.026-0.075-0.026-0.103,0.001
			c-0.388,0.37-0.913,0.614-1.451,0.646l-1.458,0.087c-0.028,0.002-0.045-0.03-0.028-0.053c0,0,0.818-0.831,1.065-1.11
			c0.584-0.662,1.138-1.45,1.452-2.275l3.447-9.078c-0.402,0.011-0.794,0.054-1.174,0.135c-3.419,0.726-2.176,4.877-2.071,5.209
			c0.004,0.01-0.005,0.02-0.015,0.02c-3.274-0.12-4.542-7.515,1.669-7.772c0.822-0.032,1.636,0.042,2.43,0.198l3.604-9.49
			l-0.233-0.667l3.062-3.523l0.281,1.884c0.044,0.296,0.116,0.588,0.216,0.872l4.826,13.782c2.359,0.026,4.477-0.556,5.189-2.5
			c0,0,0.275,6.051-3.824,6.398l1.441,4.117c0.17,0.486,0.476,1.185,0.777,1.602c1.052,1.459,1.876,1.966,1.876,1.966
			C62.648,114.323,62.633,114.355,62.604,114.354z M47.091,100.305c0.585,0.196,1.154,0.432,1.7,0.688
			c0.288,0.104,2.125,0.761,4.37,1.234l-3.26-9.333L47.091,100.305z"/>
		<path d="M84.198,86.686c-2.617-0.115-8.302,4.817-11.766,8.035c1.605-0.38,3.974-0.68,5.792,0.195
			c3.031,1.459,3.555,2.941,3.714,7.287c0.158,4.274,0.144,10.33,1.9,11.221c0.039,0.02,0.038,0.072,0.002,0.095
			c-0.486,0.283-2.843,1.501-4.575-0.439c-2.612-2.927,0.354-11.794-1.788-14.515c-1.717-2.181-5.278-2.934-8.065-0.898
			l0.127,12.902c0.01,1.021,0.354,2.009,0.983,2.813l0.639,0.817c0.017,0.023,0.001,0.054-0.028,0.054l-1.878-0.076
			c-0.537-0.022-1.05-0.233-1.443-0.598c-0.03-0.026-0.074-0.026-0.101,0.002c-0.387,0.37-0.895,0.593-1.433,0.625l-1.875,0.113
			c-0.028,0.002-0.045-0.03-0.029-0.054l0.623-0.83c0.049-0.066,0.097-0.136,0.145-0.205c0.05-0.076,0.099-0.152,0.145-0.231
			c0.071-0.12,0.138-0.246,0.197-0.374c0,0,0.002-0.001,0.002-0.003c0.293-0.627,0.445-1.314,0.439-2.017L65.72,89.727
			c-0.007-0.7-0.172-1.387-0.479-2.007c-0.002-0.001-0.002-0.002-0.002-0.002c-0.063-0.127-0.132-0.25-0.205-0.373
			c-0.048-0.077-0.098-0.151-0.151-0.226c-0.046-0.069-0.096-0.137-0.146-0.203l-0.64-0.818c-0.017-0.022,0-0.054,0.027-0.053
			l1.878,0.075c0.538,0.022,1.049,0.235,1.444,0.599c0.028,0.026,0.071,0.025,0.102-0.002c0.387-0.371,0.894-0.592,1.431-0.626
			l1.876-0.113c0.029-0.001,0.045,0.03,0.029,0.053l-0.623,0.83c-0.612,0.815-0.938,1.811-0.929,2.831l0.054,5.455
			c3.454-2.833,8.74-7.351,10.477-8.493c2.308-1.521,3.895-0.504,4.386-0.095C84.303,86.604,84.269,86.688,84.198,86.686z"/>
		<path d="M104.645,113.503l-0.714-0.913c-0.7-0.897-1.085-1.999-1.096-3.138l-0.229-23.29c-0.003-0.336,0.028-0.668,0.088-0.994
			c-0.118-0.556-0.111-1.135,0.059-1.708c0.129-0.433,0.272-0.865,0.435-1.29c-0.594-0.015-0.998-0.026-0.998-0.026
			c-0.599,0.036-1.164,0.285-1.597,0.697c-0.013,0.013-0.029,0.02-0.045,0.021c-0.017-0.002-0.033-0.008-0.047-0.019
			c-0.439-0.407-1.01-0.642-1.609-0.668c0,0-0.102,0.004-0.279,0.013c0.011,0.073,0.028,0.144,0.036,0.218
			c0.116,1.065,0.031,2.051-0.165,3.012c0.042,0.258,0.067,0.519,0.069,0.783l0.23,23.292c0.011,1.138-0.354,2.247-1.036,3.156
			l-0.696,0.927c-0.02,0.026,0,0.062,0.031,0.06l0.02-0.002l0.002,0.002l2.093-0.126c0.6-0.036,1.165-0.283,1.597-0.698
			c0.013-0.013,0.029-0.018,0.045-0.021c0.017,0.003,0.034,0.007,0.046,0.021c0.439,0.405,1.012,0.642,1.611,0.666l2.095,0.084
			c0,0,0.001-0.001,0.004-0.001l0.018,0.001C104.645,113.563,104.663,113.528,104.645,113.503z"/>
		<path d="M134.592,113.664l-2.661-0.069c-0.536-0.022-1.047-0.234-1.443-0.597c-0.028-0.027-0.072-0.027-0.102,0
			c-0.388,0.371-0.895,0.594-1.432,0.626l-1.876,0.113c-0.027,0.001-0.046-0.031-0.027-0.054l0.621-0.829
			c0.051-0.068,0.1-0.137,0.146-0.206c0.051-0.076,0.098-0.151,0.146-0.23c0.07-0.121,0.137-0.246,0.197-0.374l0.002-0.002
			c0.008-0.019,0.017-0.035,0.023-0.053c0.224-0.494,0.245-1.06,0.064-1.572l-1.689-4.833c-1.795-1.537-5.092-3.512-8.207-4.058
			l-3.155,8.317c-0.51,1.729,0.678,3.057,0.812,3.23l0.67,0.711c0.016,0.023,0,0.056-0.028,0.054l-1.671-0.068
			c-0.537-0.021-0.947-0.244-1.34-0.606c-0.031-0.026-0.074-0.026-0.105,0c-0.387,0.371-0.912,0.614-1.448,0.647l-1.46,0.087
			c-0.027,0.002-0.045-0.031-0.029-0.053c0,0,0.82-0.831,1.066-1.111c0.584-0.662,1.139-1.45,1.451-2.274l3.447-9.078
			c-0.401,0.011-0.795,0.053-1.174,0.134c-3.421,0.725-2.176,4.878-2.07,5.209c0.003,0.01-0.005,0.021-0.017,0.021
			c-3.273-0.119-4.541-7.515,1.671-7.772c0.82-0.032,1.636,0.042,2.43,0.196l3.603-9.488l-0.232-0.666l3.061-3.524l0.284,1.882
			c0.043,0.297,0.116,0.589,0.215,0.872l4.825,13.783c2.359,0.028,4.478-0.556,5.19-2.499c0,0,0.273,6.051-3.824,6.397l1.441,4.116
			c0.17,0.488,0.475,1.187,0.777,1.604c1.052,1.457,1.876,1.965,1.876,1.965C134.637,113.634,134.618,113.666,134.592,113.664z
			 M119.077,99.617c0.585,0.196,1.153,0.43,1.7,0.686c0.289,0.105,2.125,0.763,4.369,1.234l-3.261-9.332L119.077,99.617z"/>
		<path d="M157.222,113.379c0.018,0.022,0,0.054-0.028,0.054l-1.877-0.077c-3.2-0.516-4.176-2.505-4.451-2.895
			c-1.021-1.438-3.034-6.335-5.113-11.056h0.002c-1.488-3.294-3.067-6.552-4.259-8.304c-0.047-0.069-0.157-0.036-0.155,0.05
			l0.183,18.736c0.011,1.021,0.354,2.009,0.985,2.812l0.638,0.819c0.017,0.021,0.002,0.053-0.027,0.053l-1.877-0.076
			c-0.54-0.022-1.05-0.234-1.443-0.598c-0.031-0.026-0.074-0.026-0.104,0.001c-0.386,0.37-0.894,0.593-1.431,0.626l-1.876,0.112
			c-0.028,0.002-0.046-0.03-0.027-0.053l0.622-0.83c0.05-0.065,0.097-0.136,0.143-0.204c0.052-0.076,0.1-0.153,0.146-0.231
			c0.071-0.123,0.138-0.247,0.197-0.375c0.001,0,0.001,0,0.001-0.002c0.296-0.627,0.447-1.317,0.44-2.018l-0.206-20.876
			c-0.005-0.701-0.171-1.387-0.478-2.008c-0.002-0.001-0.002-0.002-0.002-0.002c-0.063-0.126-0.131-0.251-0.206-0.372
			c-0.046-0.078-0.097-0.153-0.148-0.228c-0.049-0.068-0.097-0.136-0.147-0.202l-0.642-0.818c-0.015-0.022,0-0.054,0.028-0.053
			l1.879,0.076c3.2,0.516,4.176,2.505,4.451,2.896c1.022,1.439,2.918,6.337,4.996,11.058h-0.003c1.49,3.293,3.186,6.549,4.377,8.302
			c0.047,0.07,0.156,0.034,0.155-0.051l-0.184-18.737c-0.01-1.019-0.356-2.006-0.983-2.81l-0.638-0.818
			c-0.018-0.023-0.003-0.055,0.025-0.054l1.879,0.076c0.538,0.021,1.049,0.235,1.443,0.597c0.03,0.027,0.073,0.027,0.103,0
			c0.388-0.371,0.895-0.593,1.431-0.625l1.876-0.113c0.027-0.002,0.047,0.03,0.029,0.053l-0.624,0.83
			c-0.049,0.067-0.098,0.136-0.145,0.205c-0.049,0.076-0.098,0.152-0.143,0.23c-0.072,0.123-0.139,0.247-0.199,0.376
			c0,0-0.001,0.001-0.001,0.002c-0.295,0.628-0.447,1.317-0.439,2.018l0.204,20.875c0.005,0.703,0.174,1.389,0.479,2.01
			c0,0,0,0.002,0.001,0.002c0.063,0.128,0.132,0.251,0.205,0.372c0.049,0.078,0.097,0.153,0.15,0.229
			c0.047,0.067,0.096,0.135,0.146,0.201L157.222,113.379z"/>
		<g>
			<path fill-rule="evenodd" clip-rule="evenodd" d="M94.807,87.295v-4.616c-3.685,0.79-7.195,0.099-10.632-2.168
				c-3.908-2.578-8.283-3.469-13.142-3.169c-2.198,0.135-4.427,0.141-6.624,0.009c-3.258-0.195-6.589-0.391-8.689-3.399
				c0.478,3.046,2.223,4.655,5.789,5.033c3.278,0.347,6.606,0.407,9.918,0.479c3.294,0.07,6.204,0.958,8.793,2.634
				c1.317,0.853,2.567,1.782,3.851,2.67c2.723,1.884,5.82,2.772,9.346,2.535C93.877,87.271,94.344,87.291,94.807,87.295z"/>
			<path fill-rule="evenodd" clip-rule="evenodd" d="M138.972,77.222c-2.744,0.198-5.526,0.251-8.275,0.123
				c-4.688-0.223-8.987,0.532-12.794,2.961c-0.68,0.436-1.396,0.84-2.132,1.203c-3.015,1.483-6.027,1.918-9.019,1.228v4.7
				c3.341,0.136,6.362-0.157,9.077-1.625c1.516-0.82,2.904-1.826,4.275-2.82c3.179-2.302,6.752-3.616,11.004-3.542
				c2.259,0.039,4.529-0.014,6.78-0.182c1.482-0.11,2.997-0.362,4.391-0.796c2.261-0.702,3.482-2.179,3.696-4.647
				C144.341,76.487,141.688,77.026,138.972,77.222z"/>
			<path fill-rule="evenodd" clip-rule="evenodd" d="M107.741,87.662c0.787,0.056,1.546,0.066,2.282,0.003
				c-0.299-0.17-0.602-0.333-0.927-0.466c-1.513-0.619-2.266-2.623-2.192-4.467c-0.418-0.219-0.835-0.48-1.252-0.793
				c-3.099-2.337-6.322-2.312-9.379-0.199c-0.735,0.508-1.458,0.904-2.173,1.188c0.36,1.685,0.052,3.429-0.886,4.623
				c0.107,0.003,0.215,0.005,0.322,0.005c0.092,0.154,0.185,0.308,0.276,0.461c-0.368,0.274-0.765,0.506-1.093,0.836
				c-0.264,0.266-0.442,0.653-0.657,0.986c0.33,0.24,0.645,0.646,0.992,0.688c0.826,0.103,1.667,0.033,2.425,0.033
				c0.563,2.01,1.129,3.997,1.672,5.992c0.347,1.271,0.68,2.5,0.02,3.848c-0.45,0.922,0.021,1.871,0.928,1.916
				c1.785,0.091,3.581,0.091,5.366-0.007c0.899-0.048,1.349-0.996,0.89-1.938c-0.568-1.173-0.389-2.27-0.09-3.389
				c0.582-2.177,1.217-4.332,1.83-6.495c0.831,0,1.771,0.041,2.706-0.026c0.247-0.019,0.672-0.369,0.67-0.562
				c-0.003-0.324-0.238-0.698-0.457-0.955C108.622,88.48,108.169,88.086,107.741,87.662z"/>
		</g>
	</g>
	<circle fill-rule="evenodd" clip-rule="evenodd" fill="#ED1C24" cx="182.196" cy="99.646" r="21.694"/>
	<text transform="matrix(1 0 0 1 164 105.8838)" fill="#FFFFFF" font-family="'News706BT-BoldC'" font-size="23.6856">ET</text>
	<rect x="166.652" y="109.416" fill-rule="evenodd" clip-rule="evenodd" fill="#FFFFFF" width="29.152" height="0.53"/>
</g>
</svg>
