<?xml version="1.0" encoding="utf-8"?>
<!-- Generator: Adobe Illustrator 24.0.1, SVG Export Plug-In . SVG Version: 6.00 Build 0)  -->
<svg version="1.1" id="Layer_1" xmlns="http://www.w3.org/2000/svg" xmlns:xlink="http://www.w3.org/1999/xlink" x="0px" y="0px"
	 viewBox="0 0 88 88" style="enable-background:new 0 0 88 88;" xml:space="preserve">
<style type="text/css">
	.st0{fill:#1c60a8;}
</style>
<g>
	<path class="st0" d="M40.3,68.59c-0.43,0.2-0.69,0.32-0.95,0.45c-4.69,2.42-9.41,4.78-14.06,7.28c-3.12,1.68-6.13,1.56-9.18-0.02
		c-5.81-3.01-8.91-10.55-6.78-16.6c0.96-2.72,2.75-4.6,5.65-5.28c0.51-0.12,0.98-0.39,1.65-0.67c-2.47-1.19-4.36-2.76-5.75-4.87
		c-2.26-3.41-3.2-7.12-2.25-11.18c0.66-2.82,2.26-4.81,4.94-6.1c4.57-2.2,9.03-4.6,13.53-6.93c11.88-6.14,23.74-12.32,35.65-18.41
		c3.24-1.65,6.44-1.04,9.38,0.92c5,3.32,7.41,10.39,5.52,16.09c-0.72,2.17-2.02,3.86-4.13,4.87c-0.76,0.36-1.49,0.77-2.34,1.21
		c0.34,0.21,0.6,0.38,0.87,0.54c5.48,3.29,8.17,11.88,5.48,17.45c-0.78,1.62-1.92,2.87-3.54,3.7c-1.73,0.89-3.44,1.84-5.17,2.72
		c-0.49,0.25-0.69,0.54-0.69,1.11c0.03,3.78,0.02,7.57,0.01,11.35c0,1.18,0.27,2.13,1.32,2.91c1.47,1.1,1.23,3.07-0.39,3.92
		c-7.61,4.02-15.23,8.02-22.84,12.04c-0.8,0.42-1.59,0.47-2.41,0.05c-2.17-1.14-3.51-2.84-3.52-5.37
		C40.28,76.11,40.3,72.45,40.3,68.59z M27.79,49.29c0.33-0.15,0.52-0.23,0.7-0.32C43.2,41.38,57.9,33.78,72.61,26.2
		c1.9-0.98,3.05-2.52,3.43-4.58c0.8-4.3-0.58-8.01-3.34-11.24c-2.28-2.66-5.68-4-9.78-1.86c-14.4,7.53-28.86,14.95-43.29,22.41
		c-0.29,0.15-0.56,0.32-0.97,0.55c3.81,1.21,6.47,3.62,8.23,6.97C28.68,41.87,29.04,45.46,27.79,49.29z M33.94,48.58
		c0.95,0.67,1.96,1.23,2.8,1.98c3.11,2.79,5.1,6.09,5.01,10.5c-0.12,6.21-0.04,12.43-0.03,18.65c0,1.84,1.13,3.56,2.74,4.14
		c0.32,0.12,0.79,0.13,1.09-0.03c7.66-4,15.3-8.02,22.94-12.05c0.85-0.45,0.94-0.95,0.16-1.48c-1.55-1.06-1.92-2.58-1.91-4.31
		c0.01-6.52,0.01-13.03-0.01-19.55c0-0.83-0.05-1.7-0.27-2.49c-0.96-3.6-2.79-6.55-6.39-8.09c-0.57-0.24-1.03-0.24-1.6,0.06
		c-3.77,1.98-7.56,3.92-11.34,5.88C42.73,44.04,38.33,46.31,33.94,48.58z M19.27,54.63c3.52,1.17,6.18,3.55,7.91,6.95
		c1.73,3.42,2.13,7,0.86,10.84c4.06-2.09,7.96-4.07,11.83-6.1c0.23-0.12,0.4-0.57,0.41-0.88c0.04-1.8,0.1-3.61-0.01-5.4
		c-0.06-1.08-0.26-2.22-0.67-3.21c-1.29-3.14-3.41-5.55-6.57-6.94c-0.4-0.17-0.99-0.28-1.34-0.11c-2.31,1.14-4.57,2.37-6.87,3.54
		c-0.79,0.4-1.61,0.8-2.47,0.99C21.31,54.54,20.23,54.54,19.27,54.63z M26.84,67.73c-0.25-0.96-0.51-2.6-1.11-4.11
		c-1.24-3.1-3.22-5.63-6.47-6.86c-3.67-1.39-7.33,0.47-8.26,4.28c-0.3,1.25-0.39,2.64-0.2,3.91c0.64,4.17,2.63,7.56,6.41,9.67
		c1.74,0.97,3.63,1.22,5.54,0.43C25.72,73.83,26.61,71.34,26.84,67.73z M10.42,40.48c0,0.36-0.02,0.72,0.01,1.08
		c0.03,0.36,0.09,0.71,0.17,1.06c0.96,3.93,2.84,7.24,6.66,9.03c3.23,1.52,7.33,0.76,8.62-3.31c1.7-5.41-1.18-11.95-6.37-14.24
		c-1.94-0.86-3.91-1.16-5.86,0C11.23,35.54,10.42,37.81,10.42,40.48z M61.03,34.59c0.12,0.14,0.13,0.17,0.16,0.19
		c0.31,0.18,0.63,0.35,0.93,0.55c3.83,2.57,5.81,6.2,6.02,10.78c0.08,1.81,0.01,3.63,0.01,5.6c1.12-0.58,2.1-1.02,3.02-1.57
		c0.84-0.5,1.79-0.77,2.59-1.39c1.01-0.79,1.71-1.74,2.12-2.94c0.84-2.45,0.75-4.91-0.04-7.34c-1.1-3.39-2.97-6.15-6.47-7.48
		c-0.33-0.13-0.81-0.24-1.09-0.1C65.88,32.07,63.49,33.32,61.03,34.59z"/>
	<path class="st0" d="M51.44,44.47c0.25,0.11,0.57,0.19,0.84,0.36c1.57,1,2.15,2.6,2.46,4.31c0.05,0.28-0.29,0.8-0.59,0.95
		c-2.64,1.35-5.31,2.63-7.96,3.95c-0.57,0.28-0.98,0.2-1.21-0.42c-0.55-1.52-1.37-2.85-2.6-3.93c-0.45-0.39-0.44-0.73,0.15-1.02
		c2.69-1.31,5.37-2.64,8.06-3.95C50.83,44.61,51.1,44.57,51.44,44.47z"/>
	<path class="st0" d="M52.92,43.71c2.56-1.26,4.77-2.39,7.01-3.44c0.9-0.42,1.64,0.1,2.26,0.68c1.07,1,1.41,2.36,1.52,3.73
		c0.03,0.37-0.41,0.96-0.79,1.16c-1.87,1.01-3.79,1.91-5.69,2.86c-0.45,0.23-0.86,0.24-0.99-0.31
		C55.78,46.48,55.11,44.72,52.92,43.71z"/>
	<path class="st0" d="M54.77,72.36c0-1.27-0.03-2.44,0.02-3.61c0.01-0.27,0.23-0.66,0.46-0.78c3.11-1.62,6.24-3.21,9.36-4.8
		c0.02-0.01,0.06,0.01,0.22,0.05c0,1.24,0.02,2.51-0.02,3.78c-0.01,0.21-0.25,0.5-0.46,0.61c-3.03,1.58-6.07,3.14-9.12,4.7
		C55.14,72.35,55.01,72.33,54.77,72.36z"/>
	<path class="st0" d="M64.73,54.89c-0.53,0.42-0.8,0.73-1.14,0.9c-5.24,2.7-10.49,5.39-15.74,8.08c-0.4,0.2-0.78,0.5-1.2,0.59
		c-0.31,0.06-0.67-0.16-1.01-0.25c0.12-0.33,0.21-0.67,0.38-0.98c0.07-0.13,0.3-0.18,0.46-0.26c5.46-2.8,10.93-5.6,16.39-8.39
		c0.24-0.12,0.51-0.31,0.74-0.27C63.92,54.36,64.2,54.6,64.73,54.89z"/>
	<path class="st0" d="M46.19,61.77c-0.2-0.17-0.48-0.31-0.55-0.51c-0.07-0.21,0-0.54,0.13-0.73c0.15-0.2,0.43-0.31,0.67-0.43
		c5.46-2.8,10.93-5.59,16.39-8.39c0.05-0.03,0.1-0.06,0.16-0.09c0.47-0.22,0.99-0.51,1.31,0.14c0.32,0.64-0.2,0.89-0.67,1.14
		c-5.54,2.84-11.09,5.68-16.63,8.52C46.77,61.54,46.52,61.63,46.19,61.77z"/>
	<path class="st0" d="M64.72,58.16c-0.3,0.14-0.61,0.26-0.9,0.41c-5.68,2.9-11.36,5.81-17.03,8.72c-0.46,0.24-0.9,0.29-1.15-0.23
		c-0.25-0.52,0.09-0.82,0.54-1.05c5.65-2.89,11.3-5.79,16.95-8.67c0.71-0.36,1.27-0.12,1.26,0.5C64.5,57.95,64.61,58.06,64.72,58.16
		z"/>
	<path class="st0" d="M46.26,70.42c-0.2-0.14-0.52-0.25-0.59-0.44c-0.08-0.23-0.02-0.59,0.12-0.8c0.13-0.2,0.43-0.3,0.67-0.42
		c5.46-2.8,10.93-5.6,16.39-8.39c0.24-0.12,0.5-0.3,0.74-0.28c0.25,0.01,0.61,0.17,0.7,0.37c0.09,0.21-0.02,0.57-0.16,0.79
		c-0.11,0.18-0.39,0.26-0.6,0.37c-5.49,2.82-10.98,5.63-16.47,8.44C46.83,70.16,46.58,70.27,46.26,70.42z"/>
	<path class="st0" d="M55.48,53.87c-0.13,0.14-0.3,0.43-0.56,0.57c-2.7,1.42-5.42,2.81-8.14,4.21c-0.46,0.24-0.95,0.28-1.11-0.25
		c-0.08-0.27,0.19-0.83,0.46-0.98c2.69-1.44,5.41-2.83,8.13-4.22C54.88,52.87,55.44,53.13,55.48,53.87z"/>
	<path class="st0" d="M52.51,70.58c-0.13,0.13-0.3,0.43-0.55,0.57c-1.71,0.92-3.44,1.81-5.17,2.7c-0.44,0.23-0.95,0.31-1.12-0.24
		c-0.08-0.27,0.18-0.83,0.44-0.98c1.7-0.95,3.43-1.83,5.17-2.71C51.94,69.59,52.47,69.83,52.51,70.58z"/>
	<path class="st0" d="M52.5,73.42c-0.11,0.12-0.27,0.39-0.5,0.52c-1.74,0.91-3.49,1.82-5.27,2.66c-0.27,0.13-0.72-0.12-1.08-0.19
		c0.14-0.34,0.18-0.87,0.43-1c1.75-0.96,3.54-1.85,5.34-2.73C51.97,72.4,52.5,72.72,52.5,73.42z"/>
	<path class="st0" d="M22.67,66.66c0,2.97-2.21,4.58-4.76,3.42c-1.53-0.7-2.54-1.88-2.98-3.52c-0.33-1.23-0.29-2.44,0.32-3.58
		c0.72-1.36,2-1.91,3.48-1.51C21.08,62.09,22.67,64.2,22.67,66.66z M18.35,62.74c-1.2-0.03-1.93,0.52-2.18,1.49
		c-0.44,1.68,0.76,4.05,2.37,4.69c1.21,0.48,2.4-0.13,2.72-1.39c0.39-1.58-0.67-3.82-2.17-4.56C18.8,62.84,18.47,62.78,18.35,62.74z
		"/>
	<path class="st0" d="M14.5,41.95c0.03-1.23,0.44-2.54,1.8-3.26c1.34-0.72,2.63-0.28,3.8,0.5c1.89,1.26,2.78,3.67,2.18,5.83
		c-0.56,2.02-2.29,2.91-4.25,2.2C15.95,46.47,14.52,44.42,14.5,41.95z M21.13,43.65c-0.13-1.34-0.69-2.62-1.97-3.5
		c-0.69-0.47-1.43-0.62-2.2-0.21c-0.79,0.43-1.15,1.14-1.12,2.01c0.05,1.49,0.7,2.72,1.88,3.62c0.71,0.55,1.52,0.71,2.36,0.27
		C20.88,45.42,21.12,44.67,21.13,43.65z"/>
</g>
</svg>
