<?xml version="1.0" encoding="utf-8"?>
<!-- Generator: Adobe Illustrator 24.0.1, SVG Export Plug-In . SVG Version: 6.00 Build 0)  -->
<svg version="1.1" id="Layer_1" xmlns="http://www.w3.org/2000/svg" xmlns:xlink="http://www.w3.org/1999/xlink" x="0px" y="0px"
	 viewBox="0 0 88 88" style="enable-background:new 0 0 88 88;" xml:space="preserve">
<style type="text/css">
	.st0{fill:#1c60a8;}
</style>
<g>
	<path class="st0" d="M19.25,60.29c0-9.02,0-17.83,0-26.77c16.68,0,33.27,0,49.98,0c0,8.9,0,17.76,0,26.77
		C52.6,60.29,36.02,60.29,19.25,60.29z"/>
	<path class="st0" d="M69.56,19.65c-16.93,0-33.7,0-50.73,0c0-1.1-0.06-2.17,0.02-3.23c0.08-1.13,0.79-1.74,1.97-1.8
		c0.47-0.02,0.95-0.01,1.42-0.01c14.48,0,28.96,0,43.44,0c3.85,0,4.08,0.22,3.98,4.02C69.65,18.9,69.61,19.18,69.56,19.65z"/>
	<path class="st0" d="M12.35,70.86c0-1.06,0-1.97,0-3c21.48,0,42.91,0,64.45,0c0,0.98,0,1.93,0,3
		C55.37,70.86,33.94,70.86,12.35,70.86z"/>
	<path class="st0" d="M15.48,46.47c-4.28,0-8.4,0-12.63,0c0-5.06,0-10.05,0-15.15c4.21,0,8.38,0,12.63,0
		C15.48,36.38,15.48,41.33,15.48,46.47z"/>
	<path class="st0" d="M72.96,46.42c0-5.09,0-10,0-15.06c4.26,0,8.46,0,12.7,0c0,5.04,0,10,0,15.06
		C81.42,46.42,77.27,46.42,72.96,46.42z"/>
	<path class="st0" d="M10.73,73.97c-1.08,0-2.07,0-3.2,0c0-8.73,0-17.43,0-26.27c1.01,0,2.04,0,3.2,0
		C10.73,56.36,10.73,65.07,10.73,73.97z"/>
	<path class="st0" d="M81,47.69c0,8.79,0,17.45,0,26.23c-1.1,0-2.13,0-3.28,0c0-8.69,0-17.4,0-26.23
		C78.75,47.69,79.78,47.69,81,47.69z"/>
	<path class="st0" d="M15.55,30.12c-4.36,0-8.48,0-12.81,0c0-1.24-0.11-2.44,0.03-3.6c0.17-1.45,1.21-2.21,2.67-2.24
		c2.48-0.06,4.96-0.07,7.43,0c1.66,0.05,2.58,1.01,2.66,2.61C15.59,27.91,15.55,28.93,15.55,30.12z"/>
	<path class="st0" d="M85.73,30.12c-4.35,0-8.46,0-12.79,0c0-1.25-0.11-2.5,0.03-3.72c0.15-1.3,1.12-2.05,2.42-2.09
		c2.59-0.09,5.19-0.11,7.79-0.01c1.55,0.06,2.47,1,2.55,2.56C85.77,27.87,85.73,28.89,85.73,30.12z"/>
	<path class="st0" d="M82.34,77.68c-2.04,0-3.96,0-5.87,0c-0.62-2.37-0.44-2.6,1.96-2.61c0.59,0,1.18,0,1.77,0
		C82.61,75.07,82.62,75.08,82.34,77.68z"/>
	<path class="st0" d="M6.2,77.63c-0.36-2.49-0.31-2.56,2.09-2.56c0.59,0,1.17,0,1.76,0c2.36,0.01,2.36,0.01,2.11,2.56
		C10.21,77.63,8.26,77.63,6.2,77.63z"/>
	<path class="st0" d="M18.09,38.28c0,1.08,0.05,2.17-0.04,3.24c-0.03,0.31-0.46,0.59-0.71,0.89c-0.24-0.3-0.68-0.6-0.69-0.91
		c-0.06-2.1-0.07-4.21,0-6.31c0.01-0.34,0.53-0.65,0.81-0.98c0.21,0.33,0.57,0.66,0.6,1.01C18.15,36.23,18.1,37.25,18.09,38.28z"/>
	<path class="st0" d="M70.5,42.34c0-2.77,0-5.38,0-7.97c1.26-0.45,1.32,0.22,1.35,1.07C72.11,42.04,72.09,42.19,70.5,42.34z"/>
	<path class="st0" d="M69.01,24.31c0,1.04,0,1.93,0,2.93c-3.95,0-7.81,0-11.81,0c0-0.96,0-1.89,0-2.93
		C61.12,24.31,64.98,24.31,69.01,24.31z"/>
	<path class="st0" d="M68.33,23.33c-3.49,0.01-6.97,0.02-10.46,0c-1.21-0.01-1.73,0.54-1.66,1.69c0.03,0.57,0.01,1.14,0,1.72
		c-0.03,1.07,0.49,1.58,1.6,1.57c1.77-0.02,3.55,0,5.32-0.01c1.71,0,3.43-0.04,5.14,0.01c1.77,0.05,1.84-1.06,1.79-2.29
		C70.02,24.8,70.42,23.32,68.33,23.33z"/>
	<path class="st0" d="M78.1,20.75c-19.68,0-39.36,0-59.04,0c-3.07,0-6.15-0.03-9.22,0.01c-1.73,0.02-2.22,0.64-1.99,2.32
		c0.05,0.03,0.1,0.08,0.15,0.08c1.48,0.02,2.95,0.03,4.43,0.05c2.75,0.05,4.15,1.4,4.18,4.03c0.02,1.65,0,3.29,0,5.04
		c18.56,0,36.79,0,55.23,0c0-1.68-0.01-3.27,0-4.86c0.01-2.87,1.34-4.16,4.35-4.19c1.51-0.02,3.03,0,4.54,0
		C80.7,21.1,80.31,20.75,78.1,20.75z M44.05,26.99c-0.96,0-1.75-0.76-1.75-1.69s0.78-1.69,1.75-1.69c0.96,0,1.75,0.76,1.75,1.69
		S45.02,26.99,44.05,26.99z M48.74,26.99c-0.96,0-1.75-0.76-1.75-1.69s0.78-1.69,1.75-1.69c0.96,0,1.75,0.76,1.75,1.69
		S49.71,26.99,48.74,26.99z M53.47,26.99c-0.96,0-1.75-0.76-1.75-1.69s0.78-1.69,1.75-1.69c0.96,0,1.75,0.76,1.75,1.69
		S54.44,26.99,53.47,26.99z M68.27,28.3c-1.71-0.05-3.43-0.01-5.14-0.01c-1.77,0-3.55-0.01-5.32,0.01c-1.12,0.01-1.63-0.5-1.6-1.57
		c0.01-0.57,0.03-1.15,0-1.72c-0.06-1.15,0.45-1.69,1.66-1.69c3.49,0.02,6.97,0.02,10.46,0c2.09-0.01,1.69,1.47,1.73,2.68
		C70.11,27.24,70.04,28.35,68.27,28.3z"/>
</g>
</svg>
