<?xml version="1.0" encoding="utf-8"?>
<!-- Generator: Adobe Illustrator 24.0.1, SVG Export Plug-In . SVG Version: 6.00 Build 0)  -->
<svg version="1.1" id="Layer_1" xmlns="http://www.w3.org/2000/svg" xmlns:xlink="http://www.w3.org/1999/xlink" x="0px" y="0px"
	 viewBox="0 0 88 88" style="enable-background:new 0 0 88 88;" xml:space="preserve">
<style type="text/css">
	.st0{fill:#1c60a8;}
</style>
<g>
	<path class="st0" d="M75.03,37.31H22.91l51.84-16.12c0.4-0.12,0.73-0.4,0.93-0.77c0.19-0.37,0.23-0.8,0.11-1.2L72.37,8.27
		c-0.26-0.83-1.14-1.29-1.97-1.04L8.69,26.43c-0.83,0.26-1.29,1.14-1.04,1.97l2.09,6.73c-0.79,1.05-1.28,2.34-1.28,3.75
		c0,2.9,2,5.33,4.69,6.03v31.42c0,4.34,3.53,7.86,7.86,7.86h47.72c4.34,0,7.86-3.53,7.86-7.86V38.88
		C76.6,38.01,75.9,37.31,75.03,37.31z M61.27,22.08l-10.21,3.18l-2.47-7.95l10.21-3.18L61.27,22.08z M48.06,26.19l-10.21,3.18
		l-2.47-7.95l10.21-3.18L48.06,26.19z M34.84,30.3l-10.21,3.18l-2.47-7.95l10.21-3.18L34.84,30.3z M72.31,18.65l-8.04,2.5L61.8,13.2
		l8.04-2.5L72.31,18.65z M19.16,26.47l2.47,7.95l-2.01,0.62c-1.15-1.46-2.91-2.41-4.9-2.41c-0.82,0-1.6,0.17-2.32,0.46l-1.28-4.11
		L19.16,26.47z M11.61,38.88c0-1.72,1.4-3.11,3.11-3.11c1.72,0,3.11,1.4,3.11,3.11c0,1.72-1.4,3.11-3.11,3.11
		C13.01,42,11.61,40.6,11.61,38.88z M73.46,76.33c0,2.6-2.12,4.72-4.72,4.72H21.02c-2.6,0-4.72-2.12-4.72-4.72V44.92
		c2.18-0.57,3.89-2.28,4.46-4.46h52.7V76.33z"/>
	<path class="st0" d="M44.88,77.24c9.09,0,16.48-7.39,16.48-16.48c0-9.09-7.39-16.48-16.48-16.48s-16.48,7.4-16.48,16.48
		C28.39,69.84,35.79,77.24,44.88,77.24z M44.88,47.41c7.35,0,13.34,5.98,13.34,13.34c0,7.35-5.98,13.34-13.34,13.34
		s-13.34-5.98-13.34-13.34C31.54,53.4,37.52,47.41,44.88,47.41z"/>
	<path class="st0" d="M39.19,70.78c0.24,0.14,0.51,0.21,0.78,0.21c0.28,0,0.56-0.07,0.8-0.22l14.57-8.65
		c0.48-0.28,0.77-0.8,0.77-1.35c0-0.55-0.29-1.07-0.77-1.35l-14.57-8.66c-0.49-0.29-1.09-0.29-1.58-0.02
		c-0.49,0.28-0.79,0.8-0.79,1.37v17.31C38.39,69.97,38.69,70.5,39.19,70.78z M41.54,54.86l9.92,5.89l-9.92,5.89V54.86z"/>
</g>
</svg>
