<?xml version="1.0" encoding="utf-8"?>
<!-- Generator: Adobe Illustrator 24.0.1, SVG Export Plug-In . SVG Version: 6.00 Build 0)  -->
<svg version="1.1" id="Layer_1" xmlns="http://www.w3.org/2000/svg" xmlns:xlink="http://www.w3.org/1999/xlink" x="0px" y="0px"
	 viewBox="0 0 151.7 148.6" style="enable-background:new 0 0 151.7 148.6;" xml:space="preserve">
<style type="text/css">
	.st0{fill:none;stroke:#1c60a8;stroke-width:10;stroke-miterlimit:10;}
	.st1{fill:#1c60a8;stroke:#1c60a8;stroke-width:4;stroke-miterlimit:10;}
</style>
<g>
	<ellipse transform="matrix(0.148 -0.989 0.989 0.148 -10.0053 140.3996)" class="st0" cx="76.5" cy="76" rx="63.8" ry="63.8"/>
	<g>
		<path class="st1" d="M90.1,103.5c-4.9,2.6-9.9,3.6-15.9,3.6c-14.6,0-27.1-10.7-27.1-27.9c0-18.4,12.8-34.3,32.6-34.3
			c15.5,0,26,10.9,26,25.8c0,13.4-7.5,21.3-15.9,21.3c-3.6,0-6.9-2.4-6.6-7.9h-0.4c-3.1,5.3-7.2,7.9-12.6,7.9
			c-5.2,0-9.6-4.2-9.6-11.3c0-11.1,8.8-21.2,21.2-21.2c3.8,0,7.2,0.8,9.6,1.9l-3,16.2c-1.3,6.8-0.3,9.9,2.7,10
			c4.6,0.1,9.6-6,9.6-16.3c0-13-7.8-22.2-21.6-22.2c-14.6,0-26.8,11.5-26.8,29.7c0,14.9,9.7,24.1,23,24.1c5.1,0,9.8-1.1,13.5-3.1
			L90.1,103.5z M85.2,64.9c-0.9-0.3-2.4-0.6-4.5-0.6c-7.9,0-14.2,7.4-14.2,16.1c0,3.9,2,6.8,5.9,6.8c5.2,0,9.9-6.6,10.9-12.1
			L85.2,64.9z"/>
	</g>
</g>
</svg>
