<svg id="katman_1" data-name="katman 1" xmlns="http://www.w3.org/2000/svg" viewBox="0 0 31.06 29.74"><defs><style>.cls-1{fill:#ef7b4a;}.cls-2{fill:#ec6262;}.cls-3{fill:#c1a1cc;}.cls-4{fill:#91c6ec;}.cls-5{fill:#79c9d2;}.cls-6{fill:#87c8af;}.cls-7{fill:#ed6939;}.cls-8{fill:#e94544;}.cls-9{fill:#9f74b1;}.cls-10{fill:#4d9ed7;}.cls-11{fill:#ffe97e;}.cls-12{fill:#fbc167;}.cls-13{fill:#34b9c5;}.cls-14{fill:#68bc93;}.cls-15{fill:#fedf31;}.cls-16{fill:#f9b343;}</style></defs><path class="cls-1" d="M30,12.26l-1.61-1.44-3.26,1.26-.45,1.83-1.71,7.75,5.55,2.42.69-.89A14.83,14.83,0,0,0,30,12.26Z" transform="translate(-1.23 -1.75)"/><path class="cls-2" d="M24.25,20.72l-1.95.94-5,3.53,2.23,5,1.6.39h0a14.73,14.73,0,0,0,8.07-7.41Z" transform="translate(-1.23 -1.75)"/><path class="cls-3" d="M19.21,25.33l-1.06-.74-6.35-1-3.05,4.9,1.41,1.77h0a14.69,14.69,0,0,0,11,.27h0Z" transform="translate(-1.23 -1.75)"/><path class="cls-4" d="M12.09,23.5,8.57,18l-6.16,1.9v2.67a14.79,14.79,0,0,0,7.74,7.76h0l2.24-5.1Z" transform="translate(-1.23 -1.75)"/><path class="cls-5" d="M3.84,9.71,2.17,11.57h0a14.74,14.74,0,0,0,.24,11h0l5.14-2.15.67-1.54.4-7.59Z" transform="translate(-1.23 -1.75)"/><path class="cls-6" d="M12.53,3.46h-3a14.78,14.78,0,0,0-7.39,8.11h0l5.2,2,3.4-1.72,4.49-4Z" transform="translate(-1.23 -1.75)"/><path class="cls-7" d="M24.71,13.91l-.27-1.21-3.36.85L20.9,15.1a5.26,5.26,0,0,1,.26,1.64A5.11,5.11,0,0,1,20.67,19l.07,1.24,2.19,1.17,1.32-.64a9.28,9.28,0,0,0,.46-6.81Z" transform="translate(-1.23 -1.75)"/><path class="cls-8" d="M20.67,19a5.17,5.17,0,0,1-2.83,2.63l-.48.9,1,2.56.85.29a9.19,9.19,0,0,0,5-4.61Z" transform="translate(-1.23 -1.75)"/><path class="cls-9" d="M17.84,21.58a5.13,5.13,0,0,1-3.85,0l-1.05.12-1.25,2.54.7,1a9.17,9.17,0,0,0,6.82.14Z" transform="translate(-1.23 -1.75)"/><path class="cls-10" d="M11.23,18.84l-.82-.6-2.68.93-.18,1.21a9.18,9.18,0,0,0,4.84,4.81L14,21.53a5.19,5.19,0,0,1-2.76-2.69Z" transform="translate(-1.23 -1.75)"/><path class="cls-11" d="M23,3.8A14.79,14.79,0,0,0,9.56,3.46l2.39,5,2.37,1.07,7.48,1.26L24,6.21Z" transform="translate(-1.23 -1.75)"/><path class="cls-12" d="M32.27,11.12a.41.41,0,0,1-.26.51l-2,.63-3.81,1.18a10.82,10.82,0,0,0-5.11-6.15L23,3.8,24,2a.41.41,0,0,1,.55-.15,17.34,17.34,0,0,1,7.68,9.32Z" transform="translate(-1.23 -1.75)"/><path class="cls-13" d="M10.79,16.74a5.12,5.12,0,0,1,.3-1.76l0-2.16H8.82l-1.45.73a9.15,9.15,0,0,0-.57,3.19,9,9,0,0,0,.75,3.64l3.68-1.54a5.06,5.06,0,0,1-.44-2.1Z" transform="translate(-1.23 -1.75)"/><path class="cls-14" d="M13.81,9.1,12,8.49a9.21,9.21,0,0,0-4.58,5.06L11.09,15a5.2,5.2,0,0,1,2.57-2.88h0l.85-1Z" transform="translate(-1.23 -1.75)"/><path class="cls-15" d="M20.34,8.67h0A9.05,9.05,0,0,0,16,7.56a9.18,9.18,0,0,0-4,.93l1.71,3.61a5.16,5.16,0,0,1,4.75.06l1.3.06L21,10.52Z" transform="translate(-1.23 -1.75)"/><path class="cls-16" d="M26.19,13.44l-1.51.47L20.9,15.1a5.26,5.26,0,0,0-2.51-2.95l1.93-3.48.76-1.38a10.82,10.82,0,0,1,5.11,6.15Z" transform="translate(-1.23 -1.75)"/></svg>