<?xml version="1.0" encoding="utf-8"?>
<!-- Generator: Adobe Illustrator 24.0.1, SVG Export Plug-In . SVG Version: 6.00 Build 0)  -->
<svg version="1.1" id="Layer_1" xmlns="http://www.w3.org/2000/svg" xmlns:xlink="http://www.w3.org/1999/xlink" x="0px" y="0px"
	 viewBox="0 0 88 88" style="enable-background:new 0 0 88 88;" xml:space="preserve">
<style type="text/css">
	.st0{fill:#1c60a8;}
</style>
<g>
	<path class="st0" d="M38.57,14.81c-4.7-4.7-11.22-6.44-17.26-5.13l14.36,14.33l-3.03,11.35L21.3,38.4L6.95,24.03
		C5.64,30.08,7.38,36.6,12.08,41.3c5.49,5.49,13.44,6.96,20.35,4.12l29.41,29.41c2.62,2.62,6.82,2.81,9.45,0.19l1.04-1.04
		c2.62-2.62,2.4-6.79-0.22-9.41L42.68,35.13C45.68,28.04,44.04,20.28,38.57,14.81z M68.95,71.64c-1.68,1.68-4.41,1.68-6.09,0
		c-1.68-1.68-1.68-4.41,0-6.09c1.68-1.68,4.41-1.68,6.09,0C70.63,67.23,70.63,69.95,68.95,71.64z"/>
	<path class="st0" d="M14.57,75.06l7.21-1.16l-4.62-5.67L14.57,75.06z M74,38.97c3.93-3.21,5.34-8,3.09-10.76l-4.06-4.98
		c-2.25-2.76-7.28-2.41-11.21,0.8l-1.49,1.22l12.18,14.93L74,38.97z M58.49,26.75l-37.03,30.2l-3.32,8.97l6.1,7.48l9.4-1.52
		l37.03-30.2L58.49,26.75z M25.45,60.58l-1.41-1.72l34.46-28.1l1.4,1.72L25.45,60.58z M27.51,63.11l34.46-28.1l1.41,1.72
		l-34.46,28.1L27.51,63.11z M32.1,68.74l-1.22-1.49l34.46-28.1l1.22,1.49L32.1,68.74z"/>
</g>
</svg>
